<svg width="26" height="26" viewBox="0 0 26 26" fill="none" xmlns="http://www.w3.org/2000/svg">
<g clip-path="url(#clip0_741_117)">
<path d="M19.5 17.875C22.1924 17.875 24.375 15.6924 24.375 13C24.375 10.3076 22.1924 8.125 19.5 8.125C16.8076 8.125 14.625 10.3076 14.625 13C14.625 15.6924 16.8076 17.875 19.5 17.875Z" stroke="white" stroke-width="2" stroke-linecap="round" stroke-linejoin="round"/>
<path d="M22.75 16.637V22.75L19.5 21.125L16.25 22.75V16.636" stroke="white" stroke-width="2" stroke-linecap="round" stroke-linejoin="round"/>
<path d="M13 19.5H4.0625C3.84701 19.5 3.64035 19.4144 3.48798 19.262C3.3356 19.1097 3.25 18.903 3.25 18.6875V5.6875C3.25 5.47201 3.3356 5.26535 3.48798 5.11298C3.64035 4.9606 3.84701 4.875 4.0625 4.875H21.9375C22.153 4.875 22.3597 4.9606 22.512 5.11298C22.6644 5.26535 22.75 5.47201 22.75 5.6875" stroke="white" stroke-width="2" stroke-linecap="round" stroke-linejoin="round"/>
<path d="M7.3125 13.8125H11.375" stroke="white" stroke-width="2" stroke-linecap="round" stroke-linejoin="round"/>
<path d="M7.3125 10.5625H11.375" stroke="white" stroke-width="2" stroke-linecap="round" stroke-linejoin="round"/>
</g>
<defs>
<clipPath id="clip0_741_117">
<rect width="26" height="26" fill="white"/>
</clipPath>
</defs>
</svg>
