<svg width="69" height="69" viewBox="0 0 69 69" fill="none" xmlns="http://www.w3.org/2000/svg">
<g clip-path="url(#clip0_119_12)">
<path d="M41.4866 48.6308H39.8574V46.9942H41.4866V48.6308ZM40.2334 48.2549H41.1106V47.3777H40.2334V48.2549Z" fill="#E1E1E6"/>
<path d="M42.7857 48.6308C42.623 48.6326 42.4634 48.5859 42.3273 48.4968C42.1911 48.4077 42.0846 48.2801 42.0211 48.1303C41.9576 47.9804 41.9401 47.8151 41.9708 47.6553C42.0014 47.4955 42.0789 47.3484 42.1934 47.2328C42.3078 47.1171 42.454 47.038 42.6135 47.0057C42.773 46.9733 42.9384 46.989 43.0889 47.0509C43.2394 47.1127 43.3682 47.2179 43.4588 47.3531C43.5493 47.4883 43.5977 47.6473 43.5977 47.81C43.5984 48.0264 43.5133 48.2342 43.3611 48.3881C43.209 48.5419 43.002 48.6292 42.7857 48.6308ZM42.7857 47.3689C42.6982 47.3679 42.6124 47.3929 42.5392 47.4408C42.466 47.4886 42.4087 47.5572 42.3746 47.6377C42.3404 47.7182 42.331 47.8071 42.3474 47.893C42.3639 47.9789 42.4055 48.0579 42.467 48.1201C42.5284 48.1823 42.607 48.2248 42.6927 48.2423C42.7784 48.2597 42.8674 48.2512 42.9483 48.218C43.0292 48.1848 43.0984 48.1282 43.1471 48.0556C43.1958 47.983 43.2218 47.8975 43.2218 47.81C43.2221 47.6939 43.1764 47.5824 43.0946 47.4999C43.0129 47.4175 42.9018 47.3708 42.7857 47.3701V47.3689Z" fill="#E1E1E6"/>
<path d="M14.5518 18.2237H9.30353L6.87988 15.7738V8.24216H7.46637V15.5281L9.54539 17.631H14.5518V18.2237Z" fill="#E1E1E6"/>
<path d="M7.1291 8.83491C6.80616 8.83838 6.48948 8.7458 6.21927 8.56892C5.94907 8.39204 5.73753 8.13883 5.61153 7.84147C5.48553 7.54411 5.45075 7.216 5.51162 6.89884C5.57248 6.58167 5.72624 6.28975 5.95336 6.06015C6.18049 5.83056 6.47073 5.67364 6.78722 5.60935C7.10371 5.54505 7.43217 5.57627 7.73088 5.69905C8.02959 5.82182 8.28506 6.0306 8.46486 6.29888C8.64466 6.56716 8.74067 6.88282 8.74069 7.20577C8.74269 7.63542 8.5741 8.04831 8.27194 8.35376C7.96977 8.65921 7.55874 8.83226 7.1291 8.83491ZM7.1291 6.2684C6.94294 6.26616 6.76032 6.31933 6.60446 6.42116C6.4486 6.52298 6.32653 6.66886 6.2538 6.84024C6.18106 7.01161 6.16093 7.20075 6.19596 7.3836C6.231 7.56645 6.31962 7.73474 6.45055 7.86709C6.58149 7.99944 6.74882 8.08987 6.93128 8.12687C7.11374 8.16387 7.30309 8.14577 7.47524 8.07488C7.64738 8.00399 7.79456 7.8835 7.89806 7.72875C8.00155 7.57399 8.05669 7.39195 8.05645 7.20577C8.05728 7.08317 8.03394 6.9616 7.98779 6.84801C7.94163 6.73443 7.87355 6.63104 7.78744 6.54376C7.70133 6.45649 7.59886 6.38703 7.48591 6.33935C7.37295 6.29167 7.2517 6.26671 7.1291 6.26589V6.2684Z" fill="#E1E1E6"/>
<path d="M33.5972 2.76451H33.0107V14.1171H33.5972V2.76451Z" fill="#E1E1E6"/>
<path d="M44.1449 8.78603H43.7539V14.0181H44.1449V8.78603Z" fill="#E1E1E6"/>
<path d="M38.8226 7.50278H38.4316V14.0181H38.8226V7.50278Z" fill="#E1E1E6"/>
<path d="M20.6566 8.78603H20.2656V14.0181H20.6566V8.78603Z" fill="#E1E1E6"/>
<path d="M50.8354 14.1158H50.3467V11.4478L51.5673 10.2134V8.29228H52.056V10.4177L50.8354 11.6521V14.1158Z" fill="#E1E1E6"/>
<path d="M26.5159 14.1158H26.1249V12.1746L24.9043 10.9402V8.29228H25.2953V10.7773L26.5159 12.0105V14.1158Z" fill="#E1E1E6"/>
<path d="M33.3029 3.25826C32.98 3.26174 32.6633 3.16916 32.3931 2.99228C32.1229 2.81539 31.9114 2.56219 31.7854 2.26483C31.6594 1.96746 31.6246 1.63936 31.6854 1.32219C31.7463 1.00502 31.9001 0.713105 32.1272 0.483509C32.3543 0.253912 32.6446 0.0969998 32.961 0.0327042C33.2775 -0.0315913 33.606 -0.000371125 33.9047 0.122402C34.2034 0.245174 34.4589 0.453959 34.6387 0.722235C34.8185 0.990512 34.9145 1.30617 34.9145 1.62913C34.9165 2.05878 34.7479 2.47166 34.4458 2.77711C34.1436 3.08256 33.7326 3.25561 33.3029 3.25826ZM33.3029 0.691751C33.1169 0.689764 32.9344 0.743122 32.7787 0.845044C32.6231 0.946967 32.5012 1.09286 32.4286 1.26418C32.356 1.43551 32.336 1.62455 32.3711 1.80728C32.4062 1.99001 32.4948 2.15819 32.6256 2.29047C32.7565 2.42274 32.9237 2.51314 33.1061 2.55018C33.2884 2.58722 33.4776 2.56922 33.6497 2.49848C33.8218 2.42775 33.969 2.30745 34.0726 2.15288C34.1762 1.99832 34.2315 1.81645 34.2315 1.63038C34.2324 1.50767 34.209 1.38601 34.1627 1.27234C34.1165 1.15867 34.0483 1.05523 33.9621 0.967934C33.8758 0.880641 33.7732 0.811205 33.6601 0.7636C33.547 0.715995 33.4256 0.691157 33.3029 0.6905V0.691751Z" fill="#E1E1E6"/>
<path d="M20.4603 9.18079C20.2545 9.18327 20.0525 9.12447 19.8802 9.01186C19.7079 8.89926 19.5729 8.73794 19.4925 8.54842C19.4122 8.3589 19.39 8.14976 19.4288 7.94759C19.4676 7.74542 19.5657 7.55937 19.7105 7.41309C19.8554 7.26682 20.0405 7.16694 20.2422 7.12616C20.444 7.08538 20.6534 7.10555 20.8437 7.18409C21.034 7.26263 21.1966 7.39599 21.3109 7.56722C21.4251 7.73845 21.4859 7.9398 21.4854 8.14566C21.4861 8.41866 21.3786 8.68082 21.1865 8.87481C20.9944 9.06879 20.7333 9.1788 20.4603 9.18079ZM20.4603 7.50278C20.3332 7.50154 20.2085 7.53811 20.1022 7.60786C19.9958 7.6776 19.9126 7.77737 19.8631 7.89449C19.8136 8.01162 19.8 8.14082 19.824 8.2657C19.848 8.39057 19.9087 8.50548 19.9981 8.59585C20.0876 8.68621 20.2019 8.74794 20.3266 8.77321C20.4512 8.79848 20.5805 8.78614 20.6981 8.73777C20.8157 8.6894 20.9163 8.60717 20.9871 8.50152C21.0579 8.39587 21.0957 8.27157 21.0957 8.14441C21.0963 7.97512 21.0298 7.81248 20.9107 7.69219C20.7916 7.57189 20.6296 7.50377 20.4603 7.50278Z" fill="#E1E1E6"/>
<path d="M25.1492 8.48903C24.9438 8.49127 24.7423 8.43239 24.5704 8.31988C24.3985 8.20737 24.2639 8.0463 24.1837 7.85714C24.1036 7.66797 24.0814 7.45924 24.1201 7.25747C24.1588 7.05569 24.2566 6.86997 24.4011 6.7239C24.5456 6.57783 24.7302 6.478 24.9316 6.43709C25.1329 6.39618 25.3419 6.41603 25.5319 6.49413C25.7219 6.57223 25.8845 6.70505 25.9988 6.87572C26.1132 7.04638 26.1743 7.2472 26.1743 7.45265C26.1753 7.72587 26.068 7.98835 25.8759 8.1826C25.6837 8.37686 25.4224 8.48704 25.1492 8.48903ZM25.1492 6.81103C25.022 6.80954 24.8972 6.8459 24.7907 6.91549C24.6842 6.98508 24.6008 7.08475 24.5511 7.20186C24.5014 7.31896 24.4876 7.4482 24.5115 7.57316C24.5354 7.69811 24.5959 7.81314 24.6853 7.90363C24.7748 7.99411 24.8891 8.05597 25.0137 8.08135C25.1384 8.10672 25.2678 8.09446 25.3855 8.04612C25.5032 7.99779 25.6038 7.91556 25.6747 7.80989C25.7455 7.70422 25.7833 7.57987 25.7833 7.45265C25.7837 7.28368 25.7172 7.12142 25.5984 7.00123C25.4797 6.88105 25.3182 6.81268 25.1492 6.81103Z" fill="#E1E1E6"/>
<path d="M38.6263 7.89502C38.4205 7.89751 38.2187 7.83874 38.0464 7.72618C37.874 7.61363 37.7391 7.45239 37.6587 7.26294C37.5783 7.0735 37.556 6.86442 37.5947 6.66229C37.6334 6.46015 37.7314 6.2741 37.8761 6.12777C38.0208 5.98145 38.2058 5.88147 38.4075 5.84055C38.6092 5.79963 38.8185 5.81961 39.0088 5.89796C39.1991 5.97631 39.3618 6.10948 39.4763 6.28054C39.5907 6.4516 39.6517 6.65284 39.6514 6.85864C39.6524 7.13186 39.5451 7.39434 39.353 7.58859C39.1608 7.78285 38.8995 7.89303 38.6263 7.89502ZM38.6263 6.21701C38.4991 6.21552 38.3743 6.25188 38.2678 6.32147C38.1613 6.39106 38.0779 6.49074 38.0282 6.60785C37.9785 6.72495 37.9647 6.85419 37.9886 6.97915C38.0125 7.1041 38.073 7.21913 38.1624 7.30962C38.2519 7.4001 38.3662 7.46196 38.4909 7.48734C38.6155 7.51271 38.7449 7.50045 38.8626 7.45211C38.9803 7.40378 39.0809 7.32155 39.1518 7.21588C39.2226 7.11021 39.2604 6.98586 39.2604 6.85864C39.2608 6.6899 39.1942 6.5279 39.0754 6.40812C38.9565 6.28833 38.7951 6.22052 38.6263 6.21952V6.21701Z" fill="#E1E1E6"/>
<path d="M43.9979 8.98278C43.7924 8.98502 43.5909 8.92614 43.419 8.81363C43.2471 8.70112 43.1125 8.54005 43.0324 8.35089C42.9522 8.16172 42.93 7.95299 42.9688 7.75122C43.0075 7.54944 43.1053 7.36372 43.2497 7.21765C43.3942 7.07158 43.5789 6.97175 43.7802 6.93084C43.9815 6.88993 44.1905 6.90979 44.3805 6.98788C44.5706 7.06598 44.7331 7.1988 44.8475 7.36947C44.9619 7.54013 45.0229 7.74095 45.023 7.9464C45.024 8.21962 44.9166 8.4821 44.7245 8.67636C44.5324 8.87061 44.2711 8.98079 43.9979 8.98278ZM43.9979 7.30478C43.8707 7.30354 43.746 7.34011 43.6397 7.40985C43.5334 7.4796 43.4501 7.57936 43.4006 7.69649C43.3511 7.81362 43.3375 7.94282 43.3615 8.06769C43.3856 8.19257 43.4462 8.30748 43.5357 8.39784C43.6251 8.4882 43.7395 8.54993 43.8641 8.5752C43.9887 8.60047 44.118 8.58814 44.2357 8.53977C44.3533 8.49139 44.4538 8.40916 44.5246 8.30351C44.5954 8.19787 44.6332 8.07357 44.6332 7.9464C44.6339 7.77711 44.5674 7.61447 44.4482 7.49418C44.3291 7.37389 44.1671 7.30577 43.9979 7.30478Z" fill="#E1E1E6"/>
<path d="M51.8117 8.44016C51.5385 8.44239 51.2709 8.36345 51.0428 8.21334C50.8146 8.06324 50.6361 7.84873 50.5301 7.59705C50.424 7.34537 50.3951 7.06785 50.447 6.79971C50.4989 6.53157 50.6293 6.28489 50.8216 6.09098C51.014 5.89706 51.2596 5.76465 51.5273 5.71054C51.795 5.65643 52.0727 5.68306 52.3253 5.78705C52.5778 5.89105 52.7938 6.06772 52.9457 6.29465C53.0977 6.52158 53.1789 6.78854 53.1789 7.06166C53.1789 7.42532 53.0352 7.77424 52.7791 8.03244C52.523 8.29064 52.1753 8.43718 51.8117 8.44016ZM51.8117 6.1694C51.6355 6.16716 51.4626 6.21737 51.315 6.31363C51.1674 6.40989 51.0518 6.54786 50.9828 6.71C50.9138 6.87214 50.8946 7.05113 50.9276 7.22422C50.9606 7.39731 51.0443 7.55668 51.1681 7.68207C51.2919 7.80746 51.4502 7.89321 51.6228 7.92842C51.7955 7.96362 51.9747 7.9467 52.1377 7.8798C52.3007 7.81289 52.4402 7.69903 52.5383 7.55268C52.6365 7.40633 52.6889 7.23411 52.6889 7.0579C52.6899 6.8239 52.5981 6.59903 52.4337 6.43251C52.2693 6.26599 52.0456 6.17139 51.8117 6.1694Z" fill="#E1E1E6"/>
<path d="M1.61152 35.1416C1.28858 35.1451 0.9719 35.0525 0.701693 34.8756C0.431486 34.6988 0.219948 34.4456 0.0939486 34.1482C-0.0320511 33.8508 -0.0668269 33.5227 -0.00596182 33.2056C0.0549033 32.8884 0.208663 32.5965 0.435787 32.3669C0.662911 32.1373 0.953151 31.9804 1.26964 31.9161C1.58613 31.8518 1.91459 31.883 2.2133 32.0058C2.51201 32.1285 2.76749 32.3373 2.94729 32.6056C3.12708 32.8739 3.22309 33.1895 3.22311 33.5125C3.22511 33.9421 3.05652 34.355 2.75436 34.6605C2.4522 34.9659 2.04117 35.139 1.61152 35.1416ZM1.61152 32.5751C1.42536 32.5729 1.24274 32.6261 1.08688 32.7279C0.931018 32.8297 0.808957 32.9756 0.736218 33.147C0.663479 33.3183 0.643348 33.5075 0.678383 33.6903C0.713419 33.8732 0.802038 34.0415 0.932974 34.1738C1.06391 34.3062 1.23125 34.3966 1.41371 34.4336C1.59617 34.4706 1.78551 34.4525 1.95766 34.3816C2.12981 34.3107 2.27698 34.1902 2.38048 34.0355C2.48397 33.8807 2.53911 33.6987 2.53887 33.5125C2.53954 33.2654 2.44237 33.0281 2.2686 32.8525C2.09483 32.6768 1.85859 32.5771 1.61152 32.5751Z" fill="#E1E1E6"/>
<path d="M14.5518 33.2168H2.83203V33.8095H14.5518V33.2168Z" fill="#E1E1E6"/>
<path d="M14.3556 41.3612L8.67367 41.3273L6.84277 39.0666L7.22123 38.7533L8.90676 40.8361L14.3581 40.8674L14.3556 41.3612Z" fill="#E1E1E6"/>
<path d="M15.1705 61.9033H9.52246V61.3105H14.9287L17.3548 58.858V54.8353H17.9401V59.1037L15.1705 61.9033Z" fill="#E1E1E6"/>
<path d="M8.75802 52.7626H5.81055V52.1698H8.52869L10.7744 50.077H14.5515V50.6698H11.0037L8.75802 52.7626Z" fill="#E1E1E6"/>
<path d="M14.5034 24.3956H8.64355V24.7904H14.5034V24.3956Z" fill="#E1E1E6"/>
<path d="M8.49629 63.1263C8.17335 63.1298 7.85667 63.0372 7.58646 62.8604C7.31625 62.6835 7.10471 62.4303 6.97871 62.1329C6.85271 61.8356 6.81794 61.5075 6.8788 61.1903C6.93967 60.8731 7.09343 60.5812 7.32055 60.3516C7.54768 60.122 7.83792 59.9651 8.15441 59.9008C8.4709 59.8365 8.79935 59.8677 9.09806 59.9905C9.39677 60.1133 9.65225 60.322 9.83205 60.5903C10.0119 60.8586 10.1079 61.1743 10.1079 61.4972C10.1099 61.9269 9.94128 62.3398 9.63912 62.6452C9.33696 62.9507 8.92593 63.1237 8.49629 63.1263ZM8.49629 60.5598C8.31018 60.5576 8.12761 60.6108 7.97177 60.7125C7.81594 60.8143 7.69388 60.9601 7.62111 61.1314C7.54833 61.3027 7.52813 61.4918 7.56306 61.6746C7.59799 61.8574 7.68649 62.0257 7.8173 62.1581C7.94811 62.2905 8.11533 62.381 8.2977 62.4182C8.48008 62.4553 8.66938 62.4374 8.84155 62.3667C9.01372 62.296 9.16099 62.1757 9.26463 62.0211C9.36828 61.8665 9.42362 61.6846 9.42364 61.4985C9.42497 61.2511 9.32806 61.0133 9.15418 60.8373C8.9803 60.6613 8.74368 60.5615 8.49629 60.5598Z" fill="#E1E1E6"/>
<path d="M4.63886 54.0947C4.31593 54.0982 3.99924 54.0056 3.72904 53.8287C3.45883 53.6518 3.24729 53.3986 3.12129 53.1013C2.99529 52.8039 2.96052 52.4758 3.02138 52.1586C3.08225 51.8415 3.23601 51.5495 3.46313 51.3199C3.69025 51.0903 3.98049 50.9334 4.29698 50.8691C4.61347 50.8048 4.94193 50.8361 5.24064 50.9588C5.53935 51.0816 5.79483 51.2904 5.97463 51.5587C6.15443 51.827 6.25043 52.1426 6.25045 52.4656C6.25245 52.8952 6.08386 53.3081 5.7817 53.6135C5.47954 53.919 5.06851 54.092 4.63886 54.0947ZM4.63886 51.5282C4.4527 51.5259 4.27008 51.5791 4.11422 51.6809C3.95836 51.7828 3.8363 51.9286 3.76356 52.1C3.69082 52.2714 3.67069 52.4605 3.70573 52.6434C3.74076 52.8262 3.82938 52.9945 3.96032 53.1269C4.09125 53.2592 4.25859 53.3497 4.44105 53.3867C4.62351 53.4237 4.81285 53.4056 4.985 53.3347C5.15715 53.2638 5.30433 53.1433 5.40782 52.9885C5.51132 52.8338 5.56645 52.6517 5.56622 52.4656C5.56722 52.2184 5.47015 51.9809 5.29631 51.8052C5.12247 51.6295 4.88604 51.5298 4.63886 51.5282Z" fill="#E1E1E6"/>
<path d="M7.96437 25.6651C7.75898 25.6671 7.55763 25.608 7.38589 25.4953C7.21414 25.3827 7.07975 25.2215 6.99977 25.0323C6.91979 24.8431 6.89783 24.6344 6.93668 24.4327C6.97553 24.231 7.07343 24.0454 7.21796 23.8995C7.3625 23.7536 7.54714 23.6539 7.74844 23.613C7.94975 23.5722 8.15864 23.5922 8.3486 23.6703C8.53856 23.7484 8.70102 23.8813 8.81534 24.0519C8.92967 24.2225 8.99072 24.4233 8.99073 24.6287C8.99173 24.9022 8.88423 25.1648 8.69183 25.3591C8.49942 25.5534 8.23781 25.6634 7.96437 25.6651ZM7.96437 23.9871C7.83721 23.9858 7.71255 24.0224 7.60621 24.0922C7.49988 24.1619 7.41666 24.2617 7.36714 24.3788C7.31761 24.4959 7.30401 24.6251 7.32805 24.75C7.3521 24.8749 7.41271 24.9898 7.50219 25.0802C7.59167 25.1705 7.70598 25.2322 7.83061 25.2575C7.95524 25.2828 8.08457 25.2705 8.20218 25.2221C8.31979 25.1737 8.42037 25.0915 8.49115 24.9858C8.56194 24.8802 8.59973 24.7559 8.59974 24.6287C8.6004 24.4594 8.53388 24.2968 8.41476 24.1765C8.29564 24.0562 8.13366 23.9881 7.96437 23.9871Z" fill="#E1E1E6"/>
<path d="M6.68953 39.3861C6.48415 39.3886 6.28266 39.33 6.11064 39.2178C5.93862 39.1055 5.80384 38.9447 5.7234 38.7557C5.64296 38.5667 5.6205 38.3581 5.65886 38.1563C5.69722 37.9545 5.79467 37.7687 5.93885 37.6224C6.08303 37.4761 6.26742 37.3759 6.46863 37.3346C6.66984 37.2933 6.87877 37.3127 7.06892 37.3904C7.25907 37.4681 7.42185 37.6005 7.53659 37.7709C7.65133 37.9412 7.71287 38.1419 7.71338 38.3473C7.71505 38.6207 7.60819 38.8836 7.41625 39.0784C7.22432 39.2731 6.96297 39.3838 6.68953 39.3861ZM6.68953 37.7081C6.56226 37.7069 6.4375 37.7435 6.33111 37.8134C6.22472 37.8832 6.14151 37.9832 6.09206 38.1004C6.0426 38.2177 6.02915 38.347 6.0534 38.472C6.07765 38.5969 6.13851 38.7118 6.22824 38.8021C6.31797 38.8924 6.43251 38.9539 6.55731 38.9789C6.68211 39.0039 6.81152 38.9912 6.92908 38.9424C7.04665 38.8937 7.14705 38.811 7.21753 38.7051C7.28801 38.5991 7.32538 38.4745 7.32489 38.3473C7.3249 38.1784 7.25808 38.0164 7.13903 37.8967C7.01998 37.7769 6.85839 37.7091 6.68953 37.7081Z" fill="#E1E1E6"/>
<path d="M33.5972 54.8842H33.0107V66.2367H33.5972V54.8842Z" fill="#E1E1E6"/>
<path d="M44.1449 54.9832H43.7539V60.2152H44.1449V54.9832Z" fill="#E1E1E6"/>
<path d="M38.8226 54.9832H38.4316V61.4985H38.8226V54.9832Z" fill="#E1E1E6"/>
<path d="M20.6566 54.9832H20.2656V60.2152H20.6566V54.9832Z" fill="#E1E1E6"/>
<path d="M50.8354 54.8842H50.3467V57.5535L51.5673 58.7866V60.709H52.056V58.5823L50.8354 57.3492V54.8842Z" fill="#E1E1E6"/>
<path d="M26.5159 54.8842H26.1249V56.8266L24.9043 58.0598V60.709H25.2953V58.2239L26.5159 56.9895V54.8842Z" fill="#E1E1E6"/>
<path d="M34.9145 67.3721C34.911 67.6901 34.8136 67.9999 34.6344 68.2626C34.4552 68.5253 34.2023 68.7292 33.9076 68.8485C33.6128 68.9678 33.2893 68.9972 32.9779 68.933C32.6664 68.8689 32.3809 68.714 32.1573 68.488C31.9336 68.2619 31.7819 67.9747 31.7211 67.6626C31.6603 67.3505 31.6933 67.0273 31.8157 66.7339C31.9382 66.4404 32.1448 66.1897 32.4094 66.0134C32.674 65.8371 32.9849 65.743 33.3029 65.743C33.7325 65.7456 34.1436 65.9187 34.4457 66.2241C34.7479 66.5296 34.9165 66.9425 34.9145 67.3721ZM34.2315 67.3721C34.2298 67.1888 34.1738 67.0102 34.0708 66.8586C33.9677 66.7071 33.8221 66.5894 33.6522 66.5205C33.4824 66.4515 33.296 66.4344 33.1164 66.4712C32.9369 66.508 32.7722 66.5972 32.6432 66.7274C32.5142 66.8576 32.4267 67.023 32.3915 67.2029C32.3564 67.3828 32.3753 67.5691 32.4458 67.7383C32.5164 67.9074 32.6354 68.0519 32.7879 68.1536C32.9404 68.2552 33.1196 68.3095 33.3029 68.3095C33.5502 68.3078 33.7868 68.2083 33.9608 68.0326C34.1348 67.8569 34.2322 67.6194 34.2315 67.3721Z" fill="#E1E1E6"/>
<path d="M21.4857 60.8568C21.4835 61.0591 21.4215 61.2562 21.3075 61.4233C21.1935 61.5903 21.0326 61.72 20.8451 61.7958C20.6576 61.8717 20.4519 61.8904 20.2538 61.8496C20.0557 61.8088 19.8741 61.7102 19.7318 61.5664C19.5896 61.4226 19.4931 61.24 19.4544 61.0414C19.4158 60.8429 19.4367 60.6374 19.5146 60.4507C19.5926 60.2641 19.7239 60.1046 19.8923 59.9925C20.0606 59.8803 20.2583 59.8205 20.4606 59.8205C20.7338 59.8225 20.9951 59.9326 21.1872 60.1269C21.3794 60.3211 21.4867 60.5836 21.4857 60.8568ZM21.0959 60.8568C21.0947 60.7315 21.0564 60.6092 20.9858 60.5056C20.9153 60.4019 20.8156 60.3215 20.6994 60.2743C20.5832 60.2272 20.4557 60.2155 20.3328 60.2407C20.21 60.266 20.0974 60.327 20.0091 60.4161C19.9209 60.5052 19.861 60.6184 19.837 60.7414C19.813 60.8645 19.8259 60.9919 19.8742 61.1077C19.9225 61.2234 20.0039 61.3223 20.1083 61.3918C20.2126 61.4614 20.3352 61.4985 20.4606 61.4985C20.6299 61.4975 20.7919 61.4294 20.911 61.3091C21.0301 61.1888 21.0966 61.0261 21.0959 60.8568Z" fill="#E1E1E6"/>
<path d="M26.1742 61.5474C26.1719 61.7496 26.1099 61.9467 25.9959 62.1138C25.882 62.2808 25.7211 62.4105 25.5336 62.4863C25.3461 62.5622 25.1404 62.5809 24.9422 62.5401C24.7441 62.4993 24.5625 62.4008 24.4203 62.257C24.2781 62.1132 24.1816 61.9305 24.1429 61.7319C24.1043 61.5334 24.1252 61.3279 24.2031 61.1412C24.281 60.9546 24.4124 60.7951 24.5807 60.683C24.7491 60.5708 24.9468 60.511 25.1491 60.511C25.4223 60.513 25.6836 60.6231 25.8757 60.8174C26.0678 61.0116 26.1752 61.2741 26.1742 61.5474ZM25.7832 61.5474C25.7819 61.4219 25.7436 61.2996 25.673 61.196C25.6024 61.0923 25.5026 61.0118 25.3863 60.9647C25.2701 60.9176 25.1425 60.906 25.0196 60.9313C24.8967 60.9567 24.7841 61.0178 24.6959 61.107C24.6078 61.1962 24.548 61.3096 24.5241 61.4327C24.5002 61.5559 24.5133 61.6833 24.5618 61.7991C24.6103 61.9148 24.6919 62.0135 24.7964 62.0829C24.9009 62.1523 25.0236 62.1892 25.1491 62.189C25.3181 62.1877 25.4798 62.1194 25.5986 61.9991C25.7175 61.8789 25.7838 61.7164 25.7832 61.5474Z" fill="#E1E1E6"/>
<path d="M39.6523 62.1401C39.6503 62.3427 39.5884 62.5402 39.4744 62.7077C39.3603 62.8752 39.1993 63.0052 39.0115 63.0813C38.8237 63.1574 38.6176 63.1762 38.4191 63.1354C38.2207 63.0946 38.0388 62.9959 37.8963 62.8518C37.7538 62.7078 37.6571 62.5248 37.6185 62.3259C37.5798 62.127 37.6009 61.9211 37.679 61.7342C37.7572 61.5472 37.889 61.3876 38.0577 61.2754C38.2264 61.1632 38.4246 61.1035 38.6272 61.1037C38.9004 61.1057 39.1617 61.2159 39.3538 61.4101C39.5459 61.6044 39.6533 61.8669 39.6523 62.1401ZM39.2613 62.1401C39.26 62.0147 39.2217 61.8924 39.1511 61.7887C39.0805 61.685 38.9807 61.6046 38.8645 61.5575C38.7482 61.5104 38.6206 61.4988 38.4977 61.5241C38.3748 61.5494 38.2622 61.6105 38.174 61.6998C38.0859 61.789 38.0261 61.9023 38.0022 62.0255C37.9783 62.1486 37.9914 62.2761 38.0399 62.3918C38.0884 62.5075 38.17 62.6063 38.2745 62.6757C38.379 62.7451 38.5017 62.782 38.6272 62.7817C38.7109 62.7812 38.7938 62.7643 38.871 62.7317C38.9482 62.6992 39.0182 62.6518 39.0771 62.5922C39.136 62.5327 39.1826 62.4621 39.2142 62.3845C39.2458 62.3069 39.2618 62.2239 39.2613 62.1401Z" fill="#E1E1E6"/>
<path d="M45.0228 61.0536C45.0206 61.2559 44.9586 61.4529 44.8446 61.62C44.7306 61.7871 44.5697 61.9167 44.3822 61.9926C44.1947 62.0685 43.989 62.0871 43.7909 62.0463C43.5928 62.0055 43.4112 61.907 43.2689 61.7632C43.1267 61.6194 43.0302 61.4367 42.9915 61.2382C42.9529 61.0397 42.9738 60.8341 43.0518 60.6475C43.1297 60.4608 43.261 60.3014 43.4294 60.1892C43.5977 60.0771 43.7954 60.0172 43.9977 60.0172C44.2709 60.0192 44.5322 60.1294 44.7243 60.3236C44.9165 60.5179 45.0238 60.7804 45.0228 61.0536ZM44.6331 61.0536C44.6318 60.9282 44.5935 60.806 44.5229 60.7023C44.4524 60.5987 44.3527 60.5182 44.2365 60.4711C44.1203 60.424 43.9928 60.4123 43.8699 60.4375C43.7471 60.4627 43.6345 60.5237 43.5463 60.6128C43.458 60.7019 43.3981 60.8151 43.3741 60.9382C43.3501 61.0613 43.3631 61.1887 43.4113 61.3044C43.4596 61.4202 43.541 61.519 43.6454 61.5886C43.7497 61.6581 43.8723 61.6952 43.9977 61.6952C44.1669 61.6939 44.3287 61.6257 44.4477 61.5055C44.5668 61.3852 44.6334 61.2228 44.6331 61.0536Z" fill="#E1E1E6"/>
<path d="M53.1787 61.9421C53.1765 62.212 53.0944 62.4752 52.9428 62.6986C52.7913 62.9219 52.577 63.0954 52.327 63.1972C52.0769 63.2989 51.8024 63.3244 51.5379 63.2704C51.2735 63.2164 51.0309 63.0853 50.8408 62.8936C50.6507 62.702 50.5216 62.4583 50.4698 62.1934C50.4179 61.9285 50.4457 61.6542 50.5495 61.405C50.6533 61.1559 50.8285 60.943 51.0531 60.7933C51.2777 60.6435 51.5416 60.5636 51.8115 60.5636C52.1751 60.5666 52.5229 60.7131 52.779 60.9713C53.035 61.2295 53.1787 61.5785 53.1787 61.9421ZM52.69 61.9421C52.6878 61.7691 52.6344 61.6006 52.5367 61.4579C52.439 61.3151 52.3012 61.2044 52.1407 61.1397C51.9802 61.0751 51.8042 61.0593 51.6348 61.0944C51.4654 61.1295 51.3101 61.2139 51.1886 61.3371C51.067 61.4602 50.9846 61.6165 50.9517 61.7864C50.9187 61.9562 50.9367 62.132 51.0034 62.2916C51.0702 62.4513 51.1826 62.5876 51.3266 62.6835C51.4706 62.7794 51.6397 62.8306 51.8128 62.8306C52.0469 62.829 52.2707 62.7344 52.4352 62.5679C52.5997 62.4013 52.6913 62.1762 52.69 61.9421Z" fill="#E1E1E6"/>
<path d="M61.1135 19.4982H54.8389V18.9055H60.8704L62.6524 17.1034V13.2774H63.2389V17.349L61.1135 19.4982Z" fill="#E1E1E6"/>
<path d="M66.5586 33.1967H54.8389V33.7894H66.5586V33.1967Z" fill="#E1E1E6"/>
<path d="M60.4055 29.2016H54.8389V29.5963H60.4055V29.2016Z" fill="#E1E1E6"/>
<path d="M54.8404 26.0924L54.8379 25.5987L60.2892 25.5673L61.9747 23.4858L62.3532 23.7979L60.5223 26.0598L54.8404 26.0924Z" fill="#E1E1E6"/>
<path d="M62.0236 41.2697L60.338 39.1881L54.8867 39.1568L54.8892 38.6631L60.5711 38.6956L62.402 40.9576L62.0236 41.2697Z" fill="#E1E1E6"/>
<path d="M62.6462 60.3631H62.0609V52.5946L59.6987 50.2061H54.8389V49.6133H59.9406L62.6462 52.349V60.3631Z" fill="#E1E1E6"/>
<path d="M62.9934 13.8689C62.6704 13.8724 62.3537 13.7798 62.0835 13.6029C61.8133 13.4261 61.6018 13.1728 61.4758 12.8755C61.3498 12.5781 61.315 12.25 61.3759 11.9329C61.4367 11.6157 61.5905 11.3238 61.8176 11.0942C62.0447 10.8646 62.335 10.7077 62.6515 10.6434C62.968 10.5791 63.2964 10.6103 63.5951 10.7331C63.8938 10.8558 64.1493 11.0646 64.3291 11.3329C64.5089 11.6012 64.6049 11.9168 64.6049 12.2398C64.6069 12.6694 64.4384 13.0823 64.1362 13.3878C63.834 13.6932 63.423 13.8663 62.9934 13.8689ZM62.9934 11.3024C62.8072 11.3004 62.6247 11.3538 62.469 11.4558C62.3134 11.5578 62.1915 11.7037 62.1189 11.8751C62.0464 12.0465 62.0264 12.2356 62.0616 12.4184C62.0968 12.6012 62.1855 12.7694 62.3165 12.9016C62.4475 13.0338 62.6148 13.1241 62.7973 13.161C62.9797 13.1979 63.169 13.1797 63.341 13.1088C63.5131 13.0379 63.6602 12.9174 63.7637 12.7626C63.8671 12.6079 63.9222 12.4259 63.922 12.2398C63.923 11.9924 63.8257 11.7547 63.6516 11.579C63.4775 11.4032 63.2408 11.3037 62.9934 11.3024Z" fill="#E1E1E6"/>
<path d="M62.3107 63.2254C61.9878 63.2288 61.6711 63.1362 61.4009 62.9594C61.1307 62.7825 60.9192 62.5293 60.7932 62.2319C60.6672 61.9346 60.6324 61.6065 60.6933 61.2893C60.7541 60.9721 60.9079 60.6802 61.135 60.4506C61.3621 60.221 61.6524 60.0641 61.9689 59.9998C62.2854 59.9355 62.6138 59.9667 62.9125 60.0895C63.2112 60.2123 63.4667 60.4211 63.6465 60.6893C63.8263 60.9576 63.9223 61.2733 63.9223 61.5962C63.9243 62.0259 63.7557 62.4388 63.4536 62.7442C63.1514 63.0497 62.7404 63.2227 62.3107 63.2254ZM62.3107 60.6588C62.1246 60.6566 61.9421 60.7098 61.7862 60.8115C61.6304 60.9133 61.5083 61.0591 61.4356 61.2304C61.3628 61.4017 61.3426 61.5908 61.3775 61.7736C61.4124 61.9564 61.5009 62.1247 61.6317 62.2571C61.7626 62.3895 61.9298 62.48 62.1122 62.5172C62.2945 62.5543 62.4838 62.5364 62.656 62.4657C62.8282 62.395 62.9754 62.2747 63.0791 62.1201C63.1827 61.9655 63.2381 61.7836 63.2381 61.5975C63.2393 61.4746 63.2162 61.3527 63.1702 61.2388C63.1242 61.1248 63.0562 61.021 62.97 60.9334C62.8839 60.8458 62.7814 60.776 62.6682 60.728C62.5551 60.68 62.4336 60.6548 62.3107 60.6538V60.6588Z" fill="#E1E1E6"/>
<path d="M62.7488 24.1863C62.4845 24.1893 62.2252 24.1137 62.004 23.969C61.7827 23.8243 61.6095 23.6171 61.5063 23.3737C61.403 23.1304 61.3745 22.8618 61.4242 22.6022C61.4739 22.3425 61.5997 22.1036 61.7856 21.9156C61.9715 21.7276 62.209 21.5991 62.4681 21.5464C62.7271 21.4937 62.996 21.5192 63.2405 21.6197C63.485 21.7202 63.6942 21.8911 63.8414 22.1106C63.9885 22.3302 64.0671 22.5886 64.0672 22.853C64.0688 23.2045 63.9309 23.5423 63.6838 23.7923C63.4366 24.0423 63.1003 24.184 62.7488 24.1863ZM62.7488 21.9156C62.5627 21.9136 62.3802 21.967 62.2245 22.069C62.0688 22.1709 61.9469 22.3169 61.8744 22.4883C61.8018 22.6597 61.7819 22.8488 61.8171 23.0316C61.8522 23.2143 61.941 23.3825 62.072 23.5147C62.2029 23.647 62.3703 23.7373 62.5527 23.7742C62.7351 23.8111 62.9244 23.7929 63.0965 23.722C63.2686 23.651 63.4157 23.5305 63.5191 23.3758C63.6226 23.2211 63.6777 23.0391 63.6774 22.853C63.6781 22.7304 63.6546 22.6088 63.6083 22.4953C63.562 22.3818 63.4937 22.2785 63.4075 22.1913C63.3213 22.1042 63.2187 22.0348 63.1057 21.9873C62.9927 21.9398 62.8714 21.915 62.7488 21.9143V21.9156Z" fill="#E1E1E6"/>
<path d="M61.4744 30.7029C61.2101 30.7059 60.9508 30.6302 60.7296 30.4855C60.5083 30.3408 60.3351 30.1336 60.2318 29.8903C60.1286 29.6469 60.1001 29.3783 60.1498 29.1187C60.1995 28.8591 60.3253 28.6201 60.5112 28.4321C60.697 28.2441 60.9346 28.1156 61.1936 28.0629C61.4527 28.0103 61.7216 28.0358 61.9661 28.1362C62.2106 28.2367 62.4197 28.4076 62.5669 28.6272C62.7141 28.8468 62.7927 29.1051 62.7927 29.3695C62.7941 29.7209 62.6561 30.0586 62.409 30.3085C62.1619 30.5584 61.8258 30.7002 61.4744 30.7029ZM61.4744 28.4321C61.2886 28.4304 61.1065 28.4839 60.9512 28.5858C60.7959 28.6877 60.6744 28.8335 60.6021 29.0047C60.5298 29.1758 60.51 29.3645 60.5452 29.5469C60.5804 29.7293 60.6689 29.8972 60.7997 30.0292C60.9304 30.1611 61.0974 30.2513 61.2795 30.2882C61.4616 30.325 61.6505 30.307 61.8223 30.2363C61.9941 30.1656 62.141 30.0455 62.2444 29.8912C62.3478 29.7368 62.403 29.5553 62.403 29.3695C62.4038 29.2468 62.3805 29.1251 62.3342 29.0114C62.288 28.8978 62.2198 28.7943 62.1335 28.707C62.0473 28.6197 61.9447 28.5503 61.8316 28.5027C61.7185 28.4551 61.5971 28.4303 61.4744 28.4296V28.4321Z" fill="#E1E1E6"/>
<path d="M62.9451 43.1382C62.6808 43.1411 62.4215 43.0655 62.2003 42.9208C61.979 42.7761 61.8058 42.5689 61.7025 42.3256C61.5993 42.0822 61.5708 41.8136 61.6205 41.554C61.6702 41.2944 61.796 41.0554 61.9819 40.8674C62.1677 40.6794 62.4053 40.5509 62.6643 40.4982C62.9234 40.4455 63.1923 40.4711 63.4368 40.5715C63.6813 40.672 63.8905 40.8429 64.0376 41.0625C64.1848 41.282 64.2634 41.5404 64.2634 41.8048C64.2651 42.1563 64.1272 42.4942 63.8801 42.7441C63.6329 42.9941 63.2966 43.1358 62.9451 43.1382ZM62.9451 40.8674C62.7593 40.8657 62.5773 40.9192 62.422 41.0211C62.2667 41.123 62.1451 41.2688 62.0728 41.4399C62.0005 41.6111 61.9807 41.7998 62.0159 41.9822C62.0511 42.1646 62.1397 42.3325 62.2704 42.4644C62.4011 42.5964 62.5681 42.6866 62.7502 42.7234C62.9323 42.7603 63.1212 42.7423 63.293 42.6716C63.4648 42.6009 63.6117 42.4808 63.7151 42.3265C63.8185 42.1721 63.8737 41.9906 63.8737 41.8048C63.8747 41.5574 63.7775 41.3197 63.6034 41.144C63.4292 40.9682 63.1925 40.8687 62.9451 40.8674Z" fill="#E1E1E6"/>
<path d="M67.6329 34.8948C67.3598 34.897 67.0922 34.818 66.864 34.6679C66.6359 34.5178 66.4574 34.3033 66.3514 34.0516C66.2453 33.8 66.2164 33.5224 66.2683 33.2543C66.3202 32.9862 66.4506 32.7395 66.6429 32.5456C66.8353 32.3517 67.0808 32.2192 67.3486 32.1651C67.6163 32.111 67.894 32.1377 68.1466 32.2416C68.3991 32.3456 68.6151 32.5223 68.767 32.7492C68.919 32.9762 69.0001 33.2431 69.0002 33.5163C69.0002 33.8799 68.8565 34.2288 68.6004 34.487C68.3443 34.7452 67.9966 34.8918 67.6329 34.8948ZM67.6329 32.6252C67.4567 32.623 67.2838 32.6732 67.1361 32.7696C66.9885 32.8659 66.8729 33.0039 66.804 33.1661C66.735 33.3283 66.7159 33.5074 66.749 33.6805C66.7821 33.8537 66.8659 34.013 66.9898 34.1384C67.1138 34.2637 67.2722 34.3494 67.4449 34.3844C67.6176 34.4195 67.7969 34.4024 67.9599 34.3353C68.1229 34.2682 68.2622 34.1541 68.3602 34.0076C68.4582 33.8611 68.5104 33.6888 68.5102 33.5125C68.5112 33.2786 68.4194 33.0539 68.2549 32.8875C68.0905 32.7212 67.8668 32.6269 67.6329 32.6252Z" fill="#E1E1E6"/>
<path d="M53.2473 14.0657H16.0943C15.6651 14.07 15.2549 14.2435 14.9529 14.5486C14.6508 14.8536 14.4814 15.2655 14.4815 15.6948V53.2062C14.4795 53.6361 14.6482 54.0491 14.9507 54.3546C15.2531 54.6601 15.6644 54.833 16.0943 54.8353H53.2473C53.6769 54.8327 54.088 54.6596 54.3901 54.3542C54.6923 54.0487 54.8609 53.6358 54.8589 53.2062V15.6961C54.8592 15.2668 54.6901 14.8547 54.3884 14.5494C54.0866 14.2441 53.6765 14.0703 53.2473 14.0657ZM53.9804 53.2062C53.9811 53.4015 53.9043 53.5892 53.7669 53.728C53.6295 53.8668 53.4426 53.9455 53.2473 53.9468H16.0943C15.9975 53.9463 15.9018 53.9268 15.8126 53.8893C15.7234 53.8518 15.6424 53.7971 15.5744 53.7283C15.5063 53.6596 15.4524 53.5781 15.4158 53.4885C15.3793 53.3989 15.3607 53.303 15.3612 53.2062V48.2862C15.4243 48.2954 15.4879 48.3 15.5517 48.3H38.5713C39.0049 48.3 39.1377 48.1033 39.1377 47.8601C39.1377 47.617 39.0049 47.419 38.5713 47.419H15.5517C15.4879 47.4191 15.4243 47.4237 15.3612 47.4328V15.6961C15.3607 15.5993 15.3793 15.5034 15.4158 15.4138C15.4524 15.3242 15.5063 15.2427 15.5744 15.1739C15.6424 15.1051 15.7234 15.0504 15.8126 15.013C15.9018 14.9755 15.9975 14.9559 16.0943 14.9554H53.2473C53.4426 14.9568 53.6295 15.0355 53.7669 15.1743C53.9043 15.3131 53.9811 15.5007 53.9804 15.6961V47.3263C53.9278 47.3263 53.8739 47.3263 53.8187 47.3263H44.8698C44.3134 47.3263 44.1693 47.5456 44.1693 47.8163C44.1693 48.087 44.3134 48.3063 44.8698 48.3063H53.8187C53.8739 48.3063 53.9278 48.3063 53.9804 48.3063V53.2062Z" fill="#E1E1E6"/>
<path d="M20.1789 42.1995C19.3878 41.3449 18.9922 40.1385 18.9922 38.5804V27.8644C18.9922 26.3071 19.3861 25.1007 20.1739 24.2452C20.9618 23.3897 22.1068 22.9624 23.6089 22.9632C25.1127 22.9632 26.2573 23.3906 27.0426 24.2452C27.8279 25.0999 28.2223 26.3063 28.2256 27.8644V29.9735H25.2669V27.6652C25.2669 26.4312 24.7443 25.8138 23.6991 25.813C22.654 25.8121 22.1314 26.4295 22.1314 27.6652V38.8084C22.1314 40.024 22.654 40.6318 23.6991 40.6318C24.7443 40.6318 25.2669 40.024 25.2669 38.8084V35.7594H28.2306V38.5804C28.2306 40.1376 27.8363 41.344 27.0476 42.1995C26.259 43.055 25.1144 43.4836 23.6139 43.4853C22.1126 43.4853 20.9676 43.0567 20.1789 42.1995Z" fill="#E1E1E6"/>
<path d="M30.1113 23.2477H34.728C36.2862 23.2477 37.4558 23.6654 38.2369 24.5009C39.0181 25.3363 39.4074 26.5615 39.4049 28.1765V30.1427C39.4049 31.7576 39.0156 32.9832 38.2369 33.8195C37.4583 34.6558 36.2887 35.0735 34.728 35.0727H33.2455V43.1971H30.1126L30.1113 23.2477ZM34.728 32.2255C35.241 32.2255 35.6257 32.0826 35.8822 31.7969C36.1387 31.5112 36.2669 31.027 36.2669 30.3445V27.9785C36.2669 27.2942 36.1387 26.8097 35.8822 26.5248C35.6257 26.2399 35.241 26.0974 34.728 26.0974H33.2455V32.2255H34.728Z" fill="#E1E1E6"/>
<path d="M42.1941 42.1857C41.3954 41.3211 40.9961 40.0812 40.9961 38.4663V23.2477H44.129V38.6944C44.129 39.3786 44.2669 39.8724 44.5426 40.1756C44.8183 40.4789 45.2122 40.631 45.7243 40.6318C46.2381 40.6318 46.6325 40.4798 46.9073 40.1756C47.1822 39.8715 47.32 39.3778 47.3209 38.6944V23.2477H50.341V38.4726C50.341 40.0883 49.9421 41.3281 49.1443 42.192C48.3464 43.0559 47.1885 43.487 45.6705 43.4853C44.1508 43.4853 42.992 43.0521 42.1941 42.1857Z" fill="#E1E1E6"/>
</g>
<defs>
<clipPath id="clip0_119_12">
<rect width="69" height="69" fill="white"/>
</clipPath>
</defs>
</svg>
