<svg width="41" height="33" viewBox="0 0 41 33" fill="none" xmlns="http://www.w3.org/2000/svg">
<g clip-path="url(#clip0_92_1451)">
<path d="M10.25 28.5205C9.55172 28.7525 8.9175 28.875 8.2 28.875C4.80341 28.875 2.05 26.1035 2.05 22.6875V4.125C0.918016 4.125 0 3.20139 0 2.0625C0 0.923613 0.918016 0 2.05 0H14.35C15.4839 0 16.4 0.923613 16.4 2.0625C16.4 3.20139 15.4839 4.125 14.35 4.125V19.974L11.2109 25.098C10.5831 26.1293 10.25 27.3152 10.25 28.5205ZM6.15 10.3125H10.25V4.125H6.15V10.3125ZM32.8 0C33.9339 0 34.85 0.923613 34.85 2.0625C34.85 3.20139 33.9339 4.125 32.8 4.125V13.851L40.3402 26.1809C40.7694 26.8898 41 27.6955 41 28.527C41 30.9955 39.0077 33 36.5541 33H16.7459C14.2923 33 12.2423 30.9955 12.2423 28.527C12.2423 27.6955 12.5306 26.8898 12.9598 26.1809L20.4423 13.851V4.125C19.3661 4.125 18.3923 3.20139 18.3923 2.0625C18.3923 0.923613 19.3661 0 20.4423 0H32.8ZM24.6 4.125V14.4375C24.6 14.8178 24.4975 15.1916 24.2989 15.5203L21.1727 20.625H32.1273L29.0011 15.5203C28.8025 15.1916 28.7 14.8178 28.7 14.4375V4.125H24.6Z" fill="#D9D9D9"/>
</g>
<defs>
<clipPath id="clip0_92_1451">
<rect width="41" height="33" fill="white"/>
</clipPath>
</defs>
</svg>
