<svg width="1013" height="682" viewBox="0 0 1013 682" fill="none" xmlns="http://www.w3.org/2000/svg">
<mask id="mask0_13_397" style="mask-type:alpha" maskUnits="userSpaceOnUse" x="-195" y="0" width="1208" height="682">
<g opacity="0.15" clip-path="url(#clip0_13_397)">
<path d="M996.882 681.353V0.0888672" stroke="#727272" stroke-dasharray="6 6"/>
<path d="M955.322 681.353V0.0888672" stroke="#727272" stroke-dasharray="6 6"/>
<path d="M913.762 681.353V0.0888672" stroke="#727272" stroke-dasharray="6 6"/>
<path d="M872.203 681.353V0.0888672" stroke="#727272" stroke-dasharray="6 6"/>
<path d="M830.644 681.353V0.0888672" stroke="#727272" stroke-dasharray="6 6"/>
<path d="M789.075 681.353V0.0888672" stroke="#727272" stroke-dasharray="6 6"/>
<path d="M747.516 681.353V0.0888672" stroke="#727272" stroke-dasharray="6 6"/>
<path d="M705.956 681.353V0.0888672" stroke="#727272" stroke-dasharray="6 6"/>
<path d="M664.396 681.353V0.0888672" stroke="#727272" stroke-dasharray="6 6"/>
<path d="M622.833 681.353V0.0888672" stroke="#727272" stroke-dasharray="6 6"/>
<path d="M581.273 681.353V0.0888672" stroke="#727272" stroke-dasharray="6 6"/>
<path d="M539.713 681.353V0.0888672" stroke="#727272" stroke-dasharray="6 6"/>
<path d="M498.149 681.353V0.0888672" stroke="#727272" stroke-dasharray="6 6"/>
<path d="M456.583 681.353V0.0888672" stroke="#727272" stroke-dasharray="6 6"/>
<path d="M415.003 681.363V0.0990601" stroke="#727272" stroke-dasharray="6 6"/>
<path d="M373.442 681.363V0.0990601" stroke="#727272" stroke-dasharray="6 6"/>
<path d="M331.879 681.363V0.0990601" stroke="#727272" stroke-dasharray="6 6"/>
<path d="M290.319 681.363V0.0990601" stroke="#727272" stroke-dasharray="6 6"/>
<path d="M248.758 681.363V0.0990601" stroke="#727272" stroke-dasharray="6 6"/>
<path d="M207.195 681.363V0.0990601" stroke="#727272" stroke-dasharray="6 6"/>
<path d="M165.635 681.363V0.0990601" stroke="#727272" stroke-dasharray="6 6"/>
<path d="M124.069 681.363L124.07 0.0993042" stroke="#727272" stroke-dasharray="6 6"/>
<path d="M82.5118 681.363V0.0993042" stroke="#727272" stroke-dasharray="6 6"/>
<path d="M40.955 681.363V0.0990601" stroke="#727272" stroke-dasharray="6 6"/>
<path d="M-194.675 651.841L1109.52 651.841" stroke="#727272" stroke-dasharray="6 6"/>
<path d="M-194.675 610.3H1109.52" stroke="#727272" stroke-dasharray="6 6"/>
<path d="M-194.675 568.759H1109.52" stroke="#727272" stroke-dasharray="6 6"/>
<path d="M-194.675 527.218L1109.52 527.219" stroke="#727272" stroke-dasharray="6 6"/>
<path d="M-194.675 485.678H1109.52" stroke="#727272" stroke-dasharray="6 6"/>
<path d="M-194.675 444.138H1109.52" stroke="#727272" stroke-dasharray="6 6"/>
<path d="M-194.675 402.595L1109.52 402.596" stroke="#727272" stroke-dasharray="6 6"/>
<path d="M-194.675 361.055H1109.52" stroke="#727272" stroke-dasharray="6 6"/>
<path d="M-194.675 319.516H1109.52" stroke="#727272" stroke-dasharray="6 6"/>
<path d="M-194.675 277.974L1109.52 277.975" stroke="#727272" stroke-dasharray="6 6"/>
<path d="M-194.675 236.434H1109.52" stroke="#727272" stroke-dasharray="6 6"/>
<path d="M-194.675 194.895H1109.52" stroke="#727272" stroke-dasharray="6 6"/>
<path d="M-194.675 153.354L1109.52 153.355" stroke="#727272" stroke-dasharray="6 6"/>
<path d="M-194.675 111.813H1109.52" stroke="#727272" stroke-dasharray="6 6"/>
<path d="M-194.675 70.2723L1109.52 70.2725" stroke="#727272" stroke-dasharray="6 6"/>
<path d="M-194.675 28.7332L1109.52 28.7334" stroke="#727272" stroke-dasharray="6 6"/>
</g>
</mask>
<g mask="url(#mask0_13_397)">
<ellipse cx="366.379" cy="337.923" rx="521.194" ry="308.698" fill="url(#paint0_radial_13_397)"/>
</g>
<defs>
<radialGradient id="paint0_radial_13_397" cx="0" cy="0" r="1" gradientUnits="userSpaceOnUse" gradientTransform="translate(366.379 337.923) rotate(90) scale(399.077 673.786)">
<stop stop-color="#D9D9D9"/>
<stop offset="1" stop-color="#D9D9D9" stop-opacity="0"/>
</radialGradient>
<clipPath id="clip0_13_397">
<rect width="1208" height="681.935" fill="white" transform="translate(-195)"/>
</clipPath>
</defs>
</svg>
