<svg width="68" height="68" viewBox="0 0 68 68" fill="none" xmlns="http://www.w3.org/2000/svg">
<path d="M42.73 63.34C52.13 58.64 61.53 46.25 66.66 37.7C71.79 29.15 61 21.14 54.7 27.44C48.4 33.74 47.86 34.28 47.86 34.28V6.08001C47.86 2.78001 45.18 0.100006 41.88 0.100006C38.58 0.100006 35.9 2.78001 35.9 6.08001V22.32C35.9 19.02 33.22 16.34 29.92 16.34C26.62 16.34 23.94 19.02 23.94 22.32V24.88C23.94 21.58 21.26 18.9 17.96 18.9C14.66 18.9 11.98 21.58 11.98 24.88V16.33C11.98 13.03 9.30002 10.35 6.00002 10.35C2.70002 10.35 0.0200195 13.03 0.0200195 16.33V44.73C0.0200195 47.97 0.740018 51.21 2.71002 53.78C4.92002 56.68 8.54002 60.52 13.69 63.33C23.09 68.46 33.35 68.03 42.75 63.33L42.73 63.34Z" fill="black"/>
</svg>
