<svg width="1440" height="300" viewBox="0 0 1440 300" fill="none" xmlns="http://www.w3.org/2000/svg">
<rect width="1440" height="300" fill="#010027"/>
<mask id="mask0_107_10" style="mask-type:alpha" maskUnits="userSpaceOnUse" x="0" y="0" width="1440" height="300">
<rect width="1440" height="300" fill="#010027"/>
</mask>
<g mask="url(#mask0_107_10)">
<path d="M1268.77 -47.811C1227.45 4.11209 1138.1 65.0362 1064.51 102.364C899.471 186.095 856.032 129.666 731.196 191.879C653.501 230.606 605.08 284.979 567.231 342.136C566.864 342.687 566.525 343.238 566.137 343.796C565.988 344.014 565.847 344.233 565.706 344.452C565.197 345.215 564.696 345.985 564.194 346.755C558.027 356.233 552.136 365.774 546.435 375.323C540.975 384.469 535.691 393.615 530.506 402.726L528.09 406.963L527.242 408.467L527.066 408.778L526.889 409.089L525.865 410.904C524.947 412.521 524.042 414.132 523.124 415.742C520.002 421.284 516.896 426.799 513.807 432.289L513.001 433.702C512.733 434.175 512.465 434.648 512.203 435.115C506.552 445.129 500.901 455.017 495.136 464.7L494.246 466.211C493.943 466.712 493.639 467.214 493.342 467.715C493.229 467.906 493.116 468.097 492.996 468.287L492.572 468.994L492.431 469.22C492.283 469.481 492.127 469.735 491.972 469.997L491.753 470.35C491.739 470.379 491.722 470.408 491.703 470.434L491.103 471.423C490.969 471.656 490.827 471.889 490.686 472.129L490.319 472.73L489.775 473.634C489.492 474.086 489.217 474.538 488.941 474.99C449.44 539.69 404.035 593.774 319.913 614.673C261.77 629.14 273.567 605.762 97.7064 614.653C59.3686 616.621 24.7882 619.45 -5.9852 622.357L-5.95205 242.152C43.6516 234.218 98.8144 218.868 154.12 186.857C176.631 173.834 249.884 130.361 305.039 45.9219C336.325 -1.98326 335.147 -22.2893 349.296 -47.8911L1268.77 -47.811Z" fill="#73E5E2"/>
<path d="M1440.54 153.611L1440.49 765.854L404.196 765.763C402.748 760.31 402.27 754.643 402.785 749.024C404.107 735.972 412.62 711.316 588.515 637.94C734.419 577.078 807.375 546.643 893.643 531.839C1044.52 505.967 1111.03 534.161 1153.99 480.458C1189.61 435.965 1157.36 399.941 1183.85 331.214C1219.82 238.05 1335.33 158.701 1440.54 153.611Z" fill="#73E5E2"/>
<path d="M119.314 19.3703C102.431 47.4864 77.061 52.9084 59.6119 93.9849C46.1896 125.604 54.3462 138.545 43.0234 148.707C33.5301 157.231 15.5689 159.087 -5.94446 155.102L-5.92676 -47.9221L132.118 -47.9101C134.186 -25.5345 131.803 -1.42188 119.314 19.3703Z" fill="#73E5E2"/>
<path d="M1440.56 -47.7959L1440.55 92.9824C1418.26 99.4784 1393.7 100.352 1369.63 90.7868C1365.24 89.0419 1319.49 70.0527 1308.28 26.1062C1301.59 -0.12612 1309.7 -25.5167 1324.26 -47.806L1440.56 -47.7959Z" fill="#73E5E2"/>
</g>
</svg>
