<svg width="22" height="22" viewBox="0 0 22 22" fill="none" xmlns="http://www.w3.org/2000/svg">
<mask id="mask0_741_95" style="mask-type:luminance" maskUnits="userSpaceOnUse" x="0" y="0" width="22" height="22">
<path d="M22 0H0V22H22V0Z" fill="white"/>
</mask>
<g mask="url(#mask0_741_95)">
<path d="M11.0146 11.4641C11.0146 11.4641 11.0146 1.68221 11.0146 1.19312C11.9358 1.19314 11.2591 1.19315 12.4818 1.19315C13.7046 1.19315 13.3401 1.19315 13.9492 1.19317C13.9492 1.43772 13.9492 13.9095 13.9492 13.9095C13.9492 13.9095 18.0888 9.971 18.7231 9.33669L20.8294 11.4431C20.05 12.2225 16.3946 15.6213 16.3946 15.6213L11.9927 20.7568C10.4797 20.7568 5.63458 20.7568 5.63458 20.7568L2.21094 17.5777C2.21094 17.5777 2.21093 4.47926 2.21094 4.1277C4.21242 4.1277 2.45549 4.1277 3.67822 4.1277C4.90094 4.1277 4.21242 4.1277 5.14549 4.1277C5.14549 4.47926 5.14549 11.4641 5.14549 11.4641" stroke="white" stroke-width="1.55" stroke-linecap="round"/>
<path d="M8.08006 8.63427C7.48913 8.5293 7.42313 8.5293 6.61278 8.5293H5.14551V14.4853H6.61278H8.08006V8.63427Z" stroke="white" stroke-width="1.55"/>
<path d="M11.0146 7.69828L9.54732 7.69824L8.08008 7.69827V14.4854L9.63438 14.4855L11.0146 14.4854V7.69828Z" stroke="white" stroke-width="1.55"/>
</g>
</svg>
