<svg width="22" height="22" viewBox="0 0 22 22" fill="none" xmlns="http://www.w3.org/2000/svg">
<path d="M8.70831 9.16669C10.4802 9.16669 11.9167 7.73025 11.9167 5.95833C11.9167 4.18642 10.4802 2.75 8.70831 2.75C6.93642 2.75 5.5 4.18642 5.5 5.95833C5.5 7.73025 6.93642 9.16669 8.70831 9.16669Z" stroke="white" stroke-width="1.75"/>
<path d="M1.83301 18.6997V19.2497H15.583V18.6997C15.583 16.6462 15.583 15.6194 15.1834 14.8351C14.8319 14.1452 14.2709 13.5842 13.5809 13.2326C12.7966 12.833 11.7699 12.833 9.71632 12.833H7.69967C5.64615 12.833 4.61939 12.833 3.83504 13.2326C3.14511 13.5842 2.58418 14.1452 2.23265 14.8351C1.83301 15.6194 1.83301 16.6462 1.83301 18.6997Z" stroke="white" stroke-width="1.75"/>
<path d="M20.3194 19.8614V18.3339C20.3194 16.2805 20.3194 15.2537 19.9198 14.4693C19.5682 13.7794 19.0073 13.2185 18.3174 12.8669" stroke="white" stroke-width="1.75"/>
<path fill-rule="evenodd" clip-rule="evenodd" d="M14.667 9.65845C16.2198 9.14569 17.3405 7.68286 17.3405 5.95824C17.3405 4.23365 16.2198 2.77077 14.667 2.25806V3.75312C15.4414 4.18332 15.9655 5.00959 15.9655 5.95824C15.9655 6.90691 15.4414 7.73317 14.667 8.16339V9.65845Z" fill="white"/>
</svg>
