<svg viewBox="0 0 551 533" fill="none" xmlns="http://www.w3.org/2000/svg">
<g clip-path="url(#clip0_1299_4472)">
<path d="M97.2859 254.274L98.2439 245.482C98.8268 240.141 102.053 237.768 107.921 238.396L119.723 239.685C124.06 240.146 126.622 242.393 127.476 246.363C127.683 247.315 127.683 248.686 127.479 250.444L127.358 251.421L139.779 252.757L139.115 258.781L97.254 254.24L97.2859 254.274ZM103.884 248.878L121.392 250.758L121.555 249.358C121.641 248.511 121.654 247.924 121.596 247.629C121.263 246.479 120.429 245.839 119.092 245.709L107.29 244.421C105.399 244.213 104.335 244.972 104.163 246.73L103.918 248.847L103.884 248.878Z" fill="white"/>
<path d="M103.361 218.212L108.158 203.242L113.867 205.073L110.906 214.275L127.743 219.665L130.282 211.759L135.991 213.59L133.453 221.496L139.617 223.469L142.578 214.267L148.288 216.099L143.491 231.069L103.393 218.245L103.361 218.212Z" fill="white"/>
<path d="M123.642 171.546L128.869 174.444L126.138 179.407L157.761 196.831L154.825 202.149L123.202 184.725L120.471 189.688L115.244 186.791L123.675 171.547L123.642 171.546Z" fill="white"/>
<path d="M183.514 148.172L186.285 151.274C190.235 155.643 190.007 159.784 185.699 163.698C181.359 167.579 177.247 167.319 173.297 162.917L156.096 143.775C152.146 139.406 152.374 135.265 156.681 131.383C161.021 127.502 165.166 127.763 169.084 132.131L172.875 136.334L168.368 140.374L164.577 136.171C163.302 134.77 162.03 134.643 160.695 135.819C159.393 136.997 159.395 138.303 160.637 139.703L177.838 158.845C179.112 160.246 180.384 160.374 181.719 159.197C183.054 158.021 183.052 156.715 181.81 155.315L179.039 152.214L183.547 148.173L183.514 148.172Z" fill="white"/>
<path d="M211.8 135.059C214.753 140.156 213.71 144.18 208.674 147.098C203.638 149.983 199.644 148.877 196.691 143.781L183.845 121.508C180.892 116.412 181.934 112.421 186.97 109.503C192.007 106.585 196.001 107.69 198.954 112.787L211.8 135.059ZM193.687 115.798C192.744 114.176 191.511 113.788 189.988 114.634L189.955 114.633C188.431 115.511 188.173 116.778 189.114 118.433L201.96 140.705C202.902 142.359 204.135 142.747 205.659 141.869C207.183 140.991 207.474 139.724 206.532 138.07L193.687 115.798Z" fill="white"/>
<path d="M234.947 120.879L233.714 91.2401L239.538 89.5485L251.24 129.945L245.645 131.577L239.085 108.897L240.676 132.994L236.727 134.142L225.032 112.975L231.593 135.654L225.933 137.284L214.231 96.8879L220.056 95.1963L234.947 120.879Z" fill="white"/>
<path d="M260.917 86.6548L269.752 86.2417C275.15 86.0093 277.96 88.8175 278.247 94.7005L278.82 106.532C279.012 110.878 277.212 113.774 273.42 115.187C272.497 115.524 271.151 115.754 269.384 115.843L268.402 115.885L268.992 128.37L262.939 128.652L260.95 86.6555L260.917 86.6548ZM267.255 92.3533L268.085 109.904L269.492 109.839C270.343 109.793 270.901 109.709 271.23 109.586C272.321 109.089 272.832 108.187 272.765 106.847L272.193 95.0155C272.108 93.0874 271.181 92.1842 269.414 92.2733L267.287 92.3867L267.255 92.3533Z" fill="white"/>
<path d="M309.25 123.242C308.296 129.063 304.97 131.499 299.207 130.58C293.476 129.663 291.071 126.276 292.025 120.455L297.451 86.9894L303.443 87.9461L298.016 121.412C297.71 123.298 298.437 124.36 300.163 124.661C301.921 124.931 302.953 124.139 303.258 122.285L308.684 88.82L314.676 89.7767L309.25 123.242Z" fill="white"/>
<path d="M349.29 100.872L347.165 106.47L341.852 104.452L329.001 138.168L323.331 136.011L336.183 102.295L330.87 100.277L332.995 94.6789L349.29 100.872Z" fill="white"/>
<path d="M367.307 121.47L346.483 146.707L341.296 143.484L368.89 111.126L375.944 115.535L358.949 154.508L353.73 151.251L367.274 121.502L367.307 121.47Z" fill="white"/>
<path d="M371.551 166.262C368.435 162.565 368.719 158.818 372.471 154.923L390.359 136.408C394.446 132.162 398.6 132.063 402.754 136.078C406.941 140.127 407.008 144.242 402.921 148.488L399.001 152.574L394.622 148.358L398.542 144.272C399.849 142.898 399.879 141.626 398.633 140.389C397.387 139.152 396.078 139.219 394.771 140.592L376.883 159.107C375.576 160.48 375.546 161.785 376.792 162.99C378.071 164.228 379.38 164.161 380.687 162.787L384.607 158.701L388.985 162.917L385.065 167.004C381.213 170.994 377.283 171.326 373.342 167.969L372.217 168.53C372.801 168.707 373.253 168.946 373.573 169.248C373.893 169.549 374.08 169.945 374.167 170.404C374.253 170.896 374.046 171.381 373.544 171.891L372.07 173.424C371.232 174.286 370.22 174.262 369.065 173.321C368.905 173.186 368.712 173.051 368.52 172.851C368.425 172.751 368.329 172.65 368.233 172.55C367.052 171.347 366.914 170.267 367.818 169.341L368.254 168.894L370.076 170.635L369.641 171.082C369.641 171.082 369.535 171.406 369.726 171.606C369.918 171.806 370.114 171.811 370.247 171.683L371.722 170.151C371.889 169.992 371.893 169.796 371.702 169.596C371.542 169.429 371.314 169.391 371.083 169.483L369.326 167.777L371.617 166.231L371.551 166.262Z" fill="white"/>
<path d="M418.764 171.189L389.432 185.682L386.021 180.607L424.461 162.378L429.104 169.277L397.611 197.887L394.2 192.812L418.764 171.189ZM425.101 161.609L424.753 158.304L426.425 158.082C428.556 157.805 430.082 158.266 431.033 159.496L431.128 159.629C431.665 160.425 431.962 161.705 432.018 163.502C432.031 164.351 432.18 164.975 432.464 165.373C432.685 165.705 433.008 165.876 433.401 165.852L435.069 165.793L435.089 169.124L433.388 169.214C431.654 169.272 430.391 168.752 429.599 167.689L429.504 167.556C428.967 166.76 428.67 165.48 428.646 163.717C428.607 162.606 428.557 161.952 428.463 161.786L428.399 161.719C428.178 161.388 427.625 161.277 426.773 161.387L425.101 161.609Z" fill="white"/>
<path d="M416.274 220.198C410.798 222.355 406.978 220.763 404.817 215.359C402.688 209.955 404.346 206.174 409.855 204.018L433.806 194.558C439.283 192.401 443.102 193.992 445.231 199.396C447.359 204.8 445.701 208.581 440.224 210.77L416.273 220.231L416.274 220.198ZM437.972 205.069C439.721 204.36 440.304 203.198 439.655 201.583C439.008 199.936 437.81 199.45 436.028 200.16L412.077 209.62C410.295 210.329 409.745 211.491 410.394 213.106C411.041 214.754 412.272 215.24 414.021 214.53L437.972 205.069Z" fill="white"/>
<path d="M199.559 414.451L197.673 418.226C196.815 419.936 197.178 421.186 198.761 421.974C200.344 422.762 201.532 422.3 202.388 420.622L202.731 419.945C203.656 418.138 203.007 415.152 200.849 411.021C198.689 406.922 198.452 403.129 200.2 399.645L203.799 392.514C206.44 387.255 210.36 385.943 215.561 388.546C220.762 391.149 222.042 395.097 219.402 400.356L216.865 405.422L211.438 402.683L213.976 397.617C214.832 395.94 214.469 394.691 212.887 393.87L212.854 393.869C211.304 393.082 210.084 393.511 209.227 395.221L205.696 402.222C204.84 403.9 205.524 406.789 207.682 410.92C209.841 415.019 210.08 418.779 208.4 422.134L207.817 423.296C205.177 428.555 201.223 429.899 196.054 427.297C190.854 424.661 189.574 420.713 192.246 415.455L194.133 411.679L199.56 414.418L199.559 414.451Z" fill="white"/>
<path d="M234.904 397.194L240.714 398.93L228.721 439.228L222.911 437.492L234.904 397.194Z" fill="white"/>
<path d="M253.292 401.967L259.323 402.631L262.367 427.514L265.028 403.255L270.603 403.875L265.994 445.685L259.963 445.021L257.031 420.925L254.453 444.402L248.65 443.776L253.259 401.967L253.292 401.967Z" fill="white"/>
<path d="M302.732 431.758L303.158 435.881C303.739 441.739 301.147 444.975 295.348 445.557C289.582 446.14 286.375 443.486 285.794 437.629L283.224 412.039C282.642 406.182 285.234 402.978 291 402.395C296.799 401.813 299.973 404.466 300.587 410.324L301.141 415.953L295.113 416.562L294.559 410.934C294.373 409.069 293.413 408.197 291.645 408.352L291.612 408.351C289.875 408.539 289.1 409.565 289.284 411.463L291.854 437.053C292.038 438.95 292.999 439.789 294.768 439.635C296.537 439.448 297.313 438.421 297.129 436.523L296.702 432.4L302.731 431.791L302.732 431.758Z" fill="white"/>
<path d="M311.197 399.702L326.244 395.028L328.005 400.749L318.754 403.601L323.981 420.438L331.948 417.981L333.742 423.704L325.775 426.161L327.69 432.311L336.941 429.459L338.703 435.181L323.656 439.855L311.164 399.701L311.197 399.702Z" fill="white"/>
<path d="M373.011 407.779C370.729 404.755 370.293 401.023 371.671 396.616C373.083 392.176 373.218 389.209 372.077 387.68L367.1 381.099C365.959 379.571 364.69 379.345 363.292 380.39L363.26 380.389C361.862 381.466 361.733 382.769 362.875 384.265L366.266 388.784L361.409 392.425L358.017 387.905C354.467 383.186 355.021 379.086 359.646 375.603C364.304 372.121 368.408 372.707 371.958 377.426L377.03 384.14C379.344 387.23 379.811 390.996 378.432 395.436C377.021 399.875 376.95 402.909 378.186 404.538L379.707 406.565L388.791 399.727L392.405 404.513L378.464 414.991L373.044 407.78L373.011 407.779Z" fill="white"/>
<path d="M412.849 371.759C417.302 375.617 417.63 379.738 413.834 384.122C410.038 388.505 405.913 388.768 401.46 384.942L381.982 368.129C377.529 364.27 377.168 360.148 380.964 355.765C384.761 351.381 388.919 351.087 393.371 354.946L412.849 371.759ZM389.407 359.521C387.965 358.28 386.657 358.314 385.514 359.659C384.372 361.003 384.538 362.28 385.947 363.521L405.425 380.334C406.867 381.575 408.175 381.541 409.318 380.196C410.493 378.853 410.327 377.576 408.885 376.334L389.407 359.521Z" fill="white"/>
<path d="M432.036 341.064C437.2 343.895 438.381 347.873 435.549 352.964C432.749 358.057 428.768 359.171 423.606 356.308L401.05 343.896C395.887 341.032 394.705 337.087 397.505 331.995C400.305 326.902 404.318 325.789 409.481 328.619L432.037 341.032L432.036 341.064ZM406.545 333.97C404.867 333.049 403.617 333.379 402.765 334.893C401.91 336.473 402.339 337.691 403.985 338.611L426.54 351.023C428.218 351.944 429.468 351.614 430.321 350.1C431.174 348.553 430.779 347.303 429.101 346.382L406.545 333.97Z" fill="white"/>
<path d="M412.597 315.634L406.852 313.932L411.994 296.75L416.116 297.99L449.894 316.901L448.119 322.866L415.825 304.806L412.596 315.667L412.597 315.634Z" fill="white"/>
<circle opacity="0.2" cx="270.373" cy="263.971" r="104.948" transform="rotate(13.6679 270.373 263.971)" stroke="white"/>
<path d="M185.208 312.814C185.83 312.763 186.484 312.778 187.101 312.923C187.719 313.068 188.266 313.44 188.451 313.902C188.604 314.362 188.396 314.847 188.06 315.264C187.285 316.258 186.026 316.979 184.579 317.337C183.133 317.695 181.596 317.724 180.13 317.494C178.502 317.259 175.433 315.718 177.491 314.363C179.317 313.165 182.918 312.923 185.208 312.814Z" fill="black"/>
<path d="M189.924 320.792C190.418 320.608 190.946 320.392 191.502 320.405C192.057 320.418 192.641 320.595 192.925 321.058C193.335 321.688 193.087 322.498 192.745 323.143C191.513 325.498 189.12 327.204 186.463 327.599C185.25 327.767 183.879 327.669 182.952 326.799C182.248 326.129 181.752 324.975 182.361 324.108C183.072 323.08 184.746 322.76 185.835 322.328C187.187 321.805 188.539 321.314 189.924 320.792Z" fill="black"/>
<path d="M328.827 163.693C330.588 163.865 330.216 168.59 330.085 169.99C328.836 182.791 322.79 195.316 312.947 203.867C320.3 201.166 328.277 199.689 336.037 200.491C337.439 200.622 338.872 200.851 340.238 201.144C345.344 202.244 350.424 204.42 354.564 207.683C355.174 208.155 355.75 208.658 356.326 209.194C357.51 210.299 362.047 214.715 361.448 216.594C360.78 218.57 354.639 218.426 353.067 218.552C350.35 218.749 347.821 219.245 345.382 220.135C343.898 220.687 342.476 221.372 341.05 222.253C340.122 222.819 339.224 223.451 338.455 224.216C334.039 228.52 336.296 232.621 338.788 236.499C339.513 237.626 340.205 238.785 340.864 239.943C351.813 259.461 353.62 284.151 345.386 304.949C339.062 320.961 326.973 334.682 311.811 342.88C310.123 343.787 308.208 344.591 306.202 345.131C300.792 347.257 294.217 348.866 287.031 348.664C286.051 348.641 285.268 348.59 284.485 348.507C282.398 348.295 280.446 347.922 275.979 347.459C274.381 347.29 272.457 347.115 270.107 346.962C269.519 346.948 268.965 346.87 268.411 346.824C268.475 346.858 268.54 346.892 268.637 346.927C259.719 346.718 251.636 348.52 242.729 350.629C233.296 352.889 223.941 355.966 214.967 359.543C197.546 366.479 176.549 372.614 157.18 370.658C153.789 370.317 150.437 369.716 147.156 368.823C134.1 365.285 122.623 357.115 113.343 347.267C102.85 336.15 91.8333 320.907 88.4637 305.713C86.8969 298.657 88.217 291.147 94.9395 287.42C95.3369 287.2 95.7335 287.014 96.1293 286.86C98.5393 285.839 101.19 285.705 103.864 285.964C106.864 286.263 109.884 287.117 112.774 287.903C119.789 289.831 127.074 291.373 134.379 292.099C146.443 293.329 158.558 292.405 169.621 287.572C172.726 286.208 176.11 284.068 177.621 280.936C178.583 278.935 178.408 276.646 179.565 274.714C180.347 273.426 181.42 272.276 182.682 271.425C183.081 271.14 186.186 269.744 186.098 269.317C186.041 268.957 185.957 268.367 185.875 267.68C183.938 254.086 186.525 239.946 195.084 229.014C212.671 206.607 240.964 198.783 267.893 194.714C274.65 193.697 281.491 193.302 288.139 191.336C296.335 188.884 303.916 184.818 310.515 179.391C316.347 174.598 321.481 168.907 327.439 164.346C328.038 163.87 328.533 163.686 328.924 163.728M330.029 152.85C327.779 152.634 324.34 152.912 320.778 155.669C317.05 158.552 313.742 161.641 310.567 164.636C308.16 166.897 305.888 169.031 303.554 170.968C298.021 175.539 291.765 178.885 285.018 180.882C281.167 182.032 276.906 182.552 272.382 183.099C270.415 183.347 268.35 183.592 266.284 183.903C249.031 186.502 235.548 190.005 223.797 194.887C207.987 201.47 195.781 210.423 186.515 222.252C177.62 233.6 173.452 248.258 174.522 263.953C172.82 265.448 171.342 267.176 170.218 269.108C168.652 271.748 168.137 274.217 167.805 275.842C167.802 275.94 167.767 276.037 167.732 276.134C167.365 276.452 166.601 276.989 165.28 277.546C157.058 281.14 147.027 282.373 135.55 281.19C129.42 280.557 122.912 279.294 115.735 277.33C112.553 276.439 108.915 275.472 105.035 275.055C100.144 274.549 95.8822 275.101 91.9869 276.74C91.1945 277.081 90.4013 277.454 89.6726 277.861C79.5061 283.499 74.9854 295.08 77.8517 308.043C79.685 316.28 83.4364 324.954 89.046 333.835C93.5209 340.926 99.0427 347.976 105.453 354.754C117.094 367.106 130.556 375.616 144.36 379.368C148.128 380.37 152.065 381.115 156.141 381.537C173.911 383.358 194.496 379.466 219.075 369.727C228.082 366.151 236.908 363.322 245.355 361.3C253.803 359.279 260.899 357.747 268.478 357.893L269.883 357.925C271.71 358.066 273.374 358.203 274.906 358.37C277.384 358.624 278.981 358.824 280.382 359.021C281.424 359.176 282.369 359.296 283.413 359.385C284.521 359.509 285.598 359.567 286.742 359.594C290.956 359.693 295.213 359.336 299.515 358.49L307.212 356.418C308.068 356.144 308.892 355.837 309.75 355.498C312.317 354.742 314.792 353.723 317.11 352.471C325.783 347.778 333.544 341.594 340.192 334.078C346.806 326.594 352.006 318.13 355.62 308.976C360.242 297.267 362.182 284.221 361.278 271.207C360.372 258.258 356.615 245.633 350.468 234.618C349.746 233.328 348.991 232.07 348.204 230.811C348.567 230.656 348.897 230.501 349.26 230.378C350.611 229.888 352.09 229.563 353.955 229.444C354.119 229.448 354.315 229.452 354.544 229.425C355.886 229.359 358.143 229.281 360.374 228.909C368.251 227.527 370.977 222.792 371.891 220.071C374.21 213.172 369.602 207.579 368.109 205.716C366.52 203.785 364.795 202.08 363.9 201.242C363.132 200.506 362.299 199.801 361.432 199.128C356.17 194.956 349.67 191.964 342.613 190.46C340.857 190.092 339.034 189.788 337.207 189.615C336.913 189.608 336.653 189.569 336.359 189.529C338.817 183.678 340.402 177.447 341.042 171.031C341.253 169.012 341.265 167.119 341.173 165.484C340.492 156.882 334.758 153.287 330.03 152.817L330.029 152.85Z" fill="white"/>
<path d="M356.294 209.193C357.477 210.298 362.015 214.714 361.415 216.593C360.748 218.569 354.606 218.425 353.034 218.551C350.317 218.749 347.789 219.244 345.349 220.134L344.918 219.014C346.996 218.214 349.342 217.093 351.874 215.064C354.073 213.287 355.84 211.827 355.617 210.156C355.538 209.371 354.998 208.673 354.195 208.099L354.499 207.682C355.109 208.153 355.685 208.656 356.261 209.192L356.294 209.193Z" fill="#395BB3"/>
<path d="M355.617 210.156C355.807 211.826 354.073 213.287 351.874 215.063C349.309 217.125 346.995 218.214 344.918 219.014C341.191 220.428 338.206 220.88 335.91 223.993C335.708 224.282 333.342 227.589 333.936 231.521C334.585 235.91 338.91 238.264 339.634 239.424C339.823 239.722 339.98 240.02 340.169 240.318C345.752 250.341 348.142 272.433 346.371 285.221C344.602 297.944 341.223 322.154 320.739 337.082C319.01 338.348 313.689 342.238 306.168 345.163C303.339 345.946 300.357 346.267 297.656 345.78C300.692 344.545 302.894 342.638 305.299 340.409C308.038 337.894 310.49 335.112 313.101 332.463C338.485 306.517 345.354 267.275 330.475 234.182C329.232 231.41 327.832 228.407 328.587 225.486C329.018 223.831 330.129 222.421 331.303 221.175C335.459 216.768 341.021 213.732 346.965 212.532C346.25 209.578 342.95 208.162 339.993 207.407C330.603 204.999 320.698 205.061 311.297 207.321L311.251 206.504C312.374 206.008 314.124 205.266 316.33 204.566C326.964 201.29 335.977 203.036 342.385 204.361C346.743 205.28 351.785 206.312 354.227 208.1C355.03 208.706 355.538 209.371 355.65 210.157L355.617 210.156Z" fill="#395BB3"/>
<path d="M340.799 239.941C351.748 259.459 353.555 284.149 345.32 304.948C338.996 320.959 326.908 334.681 311.746 342.878C310.057 343.785 308.143 344.589 306.136 345.13C313.657 342.205 318.978 338.314 320.707 337.049C341.191 322.12 344.57 297.911 346.34 285.188C348.11 272.4 345.72 250.307 340.137 240.285L340.799 239.908L340.799 239.941Z" fill="#395BB3"/>
<path d="M354.531 207.683L354.227 208.1C351.818 206.313 346.744 205.247 342.385 204.362C335.977 203.036 326.965 201.258 316.33 204.566C314.125 205.233 312.375 205.975 311.251 206.504C311.207 205.622 311.321 204.939 311.462 204.485C311.462 204.485 311.499 204.323 311.74 203.773L312.947 203.899C321.65 200.708 331.164 199.234 340.237 201.177C345.343 202.276 350.423 204.452 354.563 207.716L354.531 207.683Z" fill="#395BB3"/>
<path d="M344.918 219.014L345.349 220.134C343.865 220.687 342.444 221.372 340.985 222.251C340.056 222.817 339.192 223.45 338.389 224.215C333.974 228.518 336.232 232.587 338.722 236.497C339.448 237.624 340.139 238.783 340.799 239.941L340.136 240.317C339.98 240.02 339.791 239.722 339.601 239.423C338.877 238.264 334.552 235.91 333.904 231.52C333.309 227.589 335.675 224.281 335.878 223.992C338.173 220.88 341.158 220.427 344.885 219.013L344.918 219.014Z" fill="#395BB3"/>
<path d="M339.994 207.374C342.95 208.129 346.251 209.545 346.966 212.5C341.022 213.699 335.492 216.736 331.303 221.143C330.13 222.388 329.019 223.799 328.588 225.454C327.833 228.374 329.233 231.378 330.475 234.149C345.355 267.242 338.485 306.518 313.102 332.431C310.491 335.079 308.039 337.862 305.3 340.377C302.894 342.605 300.693 344.512 297.657 345.747C300.359 346.202 303.341 345.88 306.169 345.131C300.759 347.256 294.184 348.865 286.998 348.664C282.555 348.56 281.527 347.817 270.075 346.928C269.487 346.914 268.934 346.836 268.379 346.791C258.565 341.598 246.881 342.238 235.811 344.59C238.966 342.444 241.807 339.801 244.264 336.757C250.223 329.356 253.585 319.772 253.159 310.098C252.836 302.974 247.86 297.732 240.924 297.994C234.382 298.232 225.631 302.042 220.068 296.753C220.062 296.982 220.058 297.178 220.052 297.406C218.565 296.718 217.175 296.065 216.338 295.491C213.956 293.933 213.033 292.867 211.915 287.617C212.359 288.183 212.837 288.716 213.347 289.25C213.794 289.685 214.405 290.124 214.967 289.843C215.464 289.594 215.544 288.943 215.492 288.387C215.339 286.555 214.43 284.901 213.584 283.314C212.018 280.437 210.42 277.494 207.953 275.347C206.224 273.838 204.124 272.776 202.022 271.813C200.276 271.021 198.497 270.229 196.609 269.89C195.958 269.777 195.273 269.696 194.619 269.713C193.692 261.856 194.696 253.882 197.357 246.37C203.553 228.854 216.612 219.726 221.129 216.665C238.865 204.643 260.228 205.209 280.613 201.476C295.253 198.783 310.114 193.68 320.272 182.819C319.234 183.904 318.631 187.285 318.043 188.675C317.075 190.938 316.075 193.167 314.977 195.361C313.88 197.555 312.751 199.716 311.523 201.875C310.296 204.033 309.038 206.093 307.715 208.184C308.933 207.821 310.15 207.49 311.366 207.192C320.767 204.932 330.672 204.87 340.061 207.278L339.994 207.374ZM288.706 309.3C301.164 304.891 315.002 291.864 311.549 277.418C310.774 274.233 309.269 271.489 307.094 269.479C307.606 268.544 308.118 267.609 308.663 266.675C308.969 266.16 309.514 265.259 309.299 264.634C308.563 262.592 306.091 266.256 305.654 266.768C305.384 267.121 305.115 267.441 304.845 267.794C303.201 266.841 301.32 266.209 299.201 265.964C298.745 265.92 298.321 265.878 297.863 265.867C298.277 264.963 298.69 264.091 299.103 263.186C299.516 262.282 300.336 260.767 299.969 259.714C298.806 256.356 295.259 262.639 294.649 263.572C294.039 264.471 293.462 265.405 292.885 266.305C291.144 266.689 289.464 267.237 287.814 267.916C278.669 271.783 269.293 278.582 264.156 287.178C261.672 291.331 260.55 295.973 262.365 300.814C266.208 311.155 279.743 312.387 288.708 309.235L288.706 309.3ZM257.048 265.53C258.783 265.407 265.487 265.238 265.261 262.36C265.11 260.43 259.26 258.987 257.732 258.658C254.837 258.067 251.829 258.095 248.939 258.68C238.888 260.795 227.881 274.378 234.177 284.679C235.688 287.13 237.204 285.207 238.16 283.467C238.535 282.822 238.909 282.178 239.316 281.568C241.416 278.417 244.453 275.746 248.169 274.789C252.016 273.802 256.839 275.808 260.11 274.318C260.705 274.038 260.887 273.259 260.507 272.728C259.62 271.532 257.683 270.507 256.584 269.959C256.229 269.787 254.515 268.996 253.025 268.439C252.15 268.092 252.113 266.883 252.973 266.479C254.162 265.919 255.476 265.656 257.015 265.529L257.048 265.53ZM244.501 252.797C245.164 252.389 245.864 251.85 245.947 251.068C246.001 250.188 245.199 249.516 244.391 249.138C242.483 248.278 240.258 248.356 238.253 248.864C235.951 249.463 233.863 250.654 232.126 252.279C228.718 255.431 227.478 259.515 227.047 263.977C226.917 265.313 227.837 267.913 229.621 267.106C231.47 266.301 232.73 262.739 233.91 261.2C236.643 257.575 240.717 255.255 244.533 252.831L244.501 252.797Z" fill="#395BB3"/>
<path d="M330.085 169.991C328.837 182.791 322.79 195.316 312.948 203.867L311.741 203.741C311.879 203.45 312.085 203.031 312.36 202.449C312.395 202.352 312.463 202.223 312.531 202.127C323.143 187.228 324.942 180.219 324.942 180.219C325.591 177.622 325.838 175.473 325.965 174.236C321.876 177.176 316.131 181.024 308.975 185.1C298.54 191.058 291.848 194.884 282.473 197.439C273.36 199.935 273.899 197.891 255.648 201.217C243.469 203.445 237.77 205.335 235.628 206.101C229.762 208.151 224.061 210.107 217.685 214.43C206.791 221.781 201.216 230.954 198.901 234.882C197.574 237.136 192.461 246.06 190.798 258.459C189.887 265.228 190.559 268.639 191.497 270.456C191.299 270.517 191.134 270.611 190.968 270.705C190.075 271.174 189.307 271.841 188.765 272.677C188.358 273.288 187.401 275.061 188.382 275.051C188.839 275.062 189.504 274.621 189.963 274.534C186.613 276.642 184.237 280.373 183.948 284.317C183.388 284.532 182.891 284.814 182.553 285.264L183.167 284.168C182.528 284.936 181.856 285.737 181.605 286.678C181.354 287.619 181.589 288.767 182.488 289.441C183.034 289.845 183.749 290.025 184.466 290.107C184.539 291.186 184.449 292.229 184.033 293.231C182.995 295.721 180.155 296.927 177.586 297.781C164.116 302.133 149.801 303.463 135.706 302.381C128.789 301.86 121.951 300.785 115.223 299.158C111.583 298.289 99.409 291.964 100.064 298.868C103.519 334.109 134.95 362.497 170.57 361.407C185.387 360.938 199.5 355.654 213.664 350.992C213.664 350.992 213.795 350.995 213.893 350.997C214.383 351.009 214.873 351.02 215.363 351.031C218.923 351.115 222.467 350.545 225.857 349.515C225.108 350.803 224.755 351.937 225.197 352.568C226.558 354.461 233.82 348.657 246.159 346.563C251.639 345.647 257.415 346.011 268.443 346.857C268.508 346.892 268.572 346.926 268.669 346.961C259.751 346.751 251.668 348.553 242.761 350.662C233.328 352.922 223.973 356 214.999 359.576C194.51 367.714 169.079 374.789 147.156 368.856C134.099 365.318 122.622 357.148 113.342 347.3C102.85 336.183 91.8328 320.94 88.4631 305.745C86.8963 298.69 88.2164 291.179 94.9389 287.452C95.3363 287.233 95.7329 287.047 96.1287 286.893C101.245 284.76 107.318 286.437 112.774 287.936C131.415 293.042 151.92 295.351 169.62 287.637C172.724 286.274 176.108 284.133 177.62 281.002C178.582 279 178.407 276.711 179.564 274.779C180.346 273.492 181.418 272.342 182.68 271.49C183.079 271.205 186.184 269.809 186.096 269.383C186.04 269.022 185.955 268.433 185.873 267.745C183.937 254.152 186.524 240.011 195.082 229.08C212.67 206.673 240.962 198.848 267.892 194.779C274.649 193.762 281.489 193.368 288.138 191.402C296.334 188.95 303.914 184.884 310.513 179.456C316.346 174.663 321.48 168.973 327.437 164.411C330.866 161.782 330.352 168.365 330.181 170.091L330.085 169.991Z" fill="#395BB3"/>
<path d="M325.933 174.202C325.838 175.441 325.592 177.59 324.91 180.185C324.91 180.185 323.111 187.195 312.499 202.093C312.43 202.222 312.395 202.32 312.328 202.416L311.456 201.971C312.682 199.845 313.812 197.652 314.91 195.458C316.007 193.263 317.007 191.034 317.975 188.772C318.564 187.382 319.166 184.001 320.205 182.915C310.046 193.776 295.185 198.912 280.545 201.572C260.193 205.306 238.829 204.773 221.061 216.761C216.545 219.822 203.453 228.95 197.289 246.467C194.63 253.945 193.658 261.921 194.552 269.81C193.473 269.817 192.423 269.988 191.466 270.39C190.56 268.573 189.855 265.194 190.766 258.393C192.43 245.993 197.541 237.103 198.87 234.816C201.184 230.92 206.727 221.746 217.653 214.363C224.03 210.041 229.73 208.085 235.596 206.035C237.738 205.302 243.438 203.379 255.616 201.151C273.867 197.825 273.329 199.869 282.441 197.373C291.784 194.817 298.476 190.991 308.944 185.034C316.1 180.958 321.845 177.077 325.934 174.17L325.933 174.202Z" fill="#395BB3"/>
<path d="M311.549 277.418C315.001 291.864 301.132 304.89 288.706 309.3C279.742 312.452 266.239 311.221 262.363 300.88C260.548 296.038 261.703 291.397 264.154 287.243C269.292 278.614 278.668 271.815 287.812 267.982C289.43 267.302 291.143 266.721 292.883 266.37C292.203 267.497 291.523 268.624 290.875 269.784C290.875 269.784 290.841 269.848 290.84 269.881C289.92 270.088 289.03 270.394 288.172 270.732C285.468 271.779 283.046 273.289 280.813 275.13C274.714 280.145 264.033 292.398 271.167 300.401C274.192 303.801 279.3 303.399 283.369 302.711C288.423 301.85 293.627 300.144 298.097 297.702C298.759 297.359 299.389 296.949 300.02 296.54C300.352 296.319 300.651 296.13 300.983 295.909C301.448 295.594 301.913 295.246 302.38 294.865C302.68 294.611 302.98 294.389 303.28 294.102C304.014 293.467 304.685 292.764 305.322 292.061C305.59 291.773 305.826 291.485 306.062 291.164C307.882 288.824 309.089 286.142 309.193 283.109C309.2 282.782 309.337 276.975 305.148 272.992C305.829 271.832 306.477 270.672 307.158 269.513C309.334 271.523 310.838 274.268 311.613 277.452L311.549 277.418Z" fill="#395BB3"/>
<path d="M309.128 283.074C309.024 286.108 307.818 288.789 305.998 291.13C305.762 291.418 305.526 291.739 305.258 292.027C304.619 292.763 303.95 293.432 303.216 294.068C302.916 294.322 302.616 294.576 302.316 294.83C301.85 295.179 301.417 295.528 300.918 295.875C300.619 296.097 300.287 296.317 299.956 296.505C299.325 296.915 298.662 297.291 298.033 297.668C293.529 300.142 288.325 301.848 283.305 302.677C279.236 303.365 274.128 303.767 271.102 300.366C263.968 292.364 274.682 280.112 280.749 275.096C282.948 273.287 285.403 271.745 288.108 270.698C288.966 270.359 289.887 270.087 290.775 269.847C288.489 273.972 286.653 278.401 285.919 283.183C285.843 283.671 285.766 284.159 285.722 284.647C285.473 286.894 286.98 286.734 287.965 285.157C291.026 280.071 293.668 274.746 296.213 269.321C298.401 269.438 300.545 269.978 302.48 271.101C301.088 273.321 299.954 275.677 299.469 278.245C299.429 278.538 299.357 278.83 299.317 279.123C299.123 280.457 300.137 280.415 300.812 279.517C302.331 277.431 303.723 275.243 305.017 273.021C309.173 277.003 309.069 282.812 309.061 283.138L309.128 283.074Z" fill="#395BB3"/>
<path d="M309.267 264.633C309.481 265.258 308.937 266.159 308.63 266.675C308.118 267.609 307.606 268.544 307.061 269.478C306.39 268.842 305.619 268.269 304.813 267.793C305.083 267.44 305.352 267.12 305.621 266.767C306.026 266.222 308.53 262.591 309.267 264.633Z" fill="#395BB3"/>
<path d="M305.998 291.097C305.763 291.386 305.527 291.707 305.258 291.994C305.527 291.707 305.762 291.418 305.998 291.097Z" fill="#395BB3"/>
<path d="M307.094 269.479C306.446 270.639 305.765 271.798 305.084 272.957C304.892 272.79 304.7 272.589 304.508 272.422C303.867 271.884 303.224 271.445 302.546 271.07C302.715 270.812 302.851 270.587 303.021 270.33C303.597 269.462 304.205 268.627 304.845 267.794C305.651 268.27 306.422 268.843 307.094 269.479Z" fill="#395BB3"/>
<path d="M311.456 201.971L312.328 202.416C312.053 202.997 311.847 203.417 311.709 203.707C311.468 204.224 311.431 204.419 311.431 204.419C311.29 204.873 311.176 205.523 311.22 206.438L311.266 207.255C310.05 207.553 308.833 207.884 307.615 208.247C308.938 206.189 310.229 204.097 311.424 201.938L311.456 201.971Z" fill="#395BB3"/>
<path d="M305.084 272.957C303.757 275.179 302.398 277.367 300.879 279.453C300.204 280.351 299.189 280.426 299.384 279.059C299.424 278.766 299.463 278.473 299.536 278.181C300.053 275.614 301.155 273.257 302.547 271.037C303.224 271.412 303.9 271.885 304.509 272.389C304.701 272.557 304.893 272.724 305.085 272.925L305.084 272.957Z" fill="#395BB3"/>
<path d="M302.349 294.799C302.649 294.545 302.948 294.323 303.249 294.036C302.949 294.29 302.649 294.545 302.349 294.799Z" fill="#395BB3"/>
<path d="M304.845 267.794C304.205 268.627 303.597 269.462 303.021 270.33C302.852 270.587 302.715 270.812 302.546 271.07C300.611 269.98 298.467 269.407 296.28 269.29C296.829 268.161 297.347 266.998 297.863 265.867C298.321 265.878 298.745 265.888 299.201 265.964C301.32 266.209 303.201 266.841 304.845 267.794Z" fill="#395BB3"/>
<path d="M300.022 296.474C300.354 296.254 300.652 296.065 300.984 295.844C300.652 296.065 300.353 296.286 300.022 296.474Z" fill="#395BB3"/>
<path d="M299.968 259.746C300.336 260.767 299.516 262.315 299.102 263.219C298.689 264.123 298.276 264.995 297.863 265.9C296.197 265.86 294.526 266.017 292.883 266.37C293.461 265.437 294.038 264.537 294.647 263.637C295.257 262.704 298.836 256.455 299.967 259.779L299.968 259.746Z" fill="#395BB3"/>
<path d="M297.863 265.867C297.347 266.997 296.796 268.16 296.28 269.29C294.484 269.183 292.649 269.401 290.842 269.816C290.842 269.816 290.876 269.751 290.876 269.719C291.525 268.558 292.172 267.431 292.885 266.305C294.527 265.952 296.198 265.795 297.864 265.834L297.863 265.867Z" fill="#395BB3"/>
<path d="M296.28 269.29C293.734 274.682 291.092 280.04 288.031 285.126C287.079 286.703 285.572 286.864 285.788 284.616C285.832 284.128 285.909 283.64 285.985 283.152C286.718 278.403 288.588 273.941 290.842 269.816C292.65 269.368 294.484 269.183 296.28 269.29Z" fill="#395BB3"/>
<path d="M265.261 262.327C265.455 265.205 258.784 265.375 257.048 265.497C255.509 265.624 254.196 265.887 253.006 266.447C252.147 266.851 252.184 268.06 253.058 268.407C254.548 268.997 256.295 269.756 256.618 269.927C257.716 270.475 259.621 271.499 260.54 272.696C260.953 273.228 260.771 274.007 260.143 274.286C256.872 275.809 252.017 273.769 248.202 274.757C244.486 275.747 241.449 278.418 239.349 281.536C238.943 282.146 238.535 282.79 238.193 283.435C237.237 285.175 235.721 287.098 234.21 284.647C227.914 274.379 238.921 260.763 248.972 258.648C251.863 258.03 254.87 258.035 257.765 258.626C259.294 258.955 265.176 260.399 265.294 262.328L265.261 262.327Z" fill="#395BB3"/>
<path d="M235.777 344.655C246.847 342.303 258.53 341.663 268.345 346.855C257.316 346.041 251.54 345.645 246.06 346.561C233.723 348.622 226.46 354.458 225.099 352.566C224.656 351.968 225.01 350.801 225.759 349.512C229.282 348.42 232.655 346.769 235.744 344.654L235.777 344.655Z" fill="#395BB3"/>
<path d="M253.124 310.163C253.551 319.836 250.189 329.388 244.23 336.822C241.805 339.866 238.932 342.509 235.777 344.655C233.116 345.212 230.486 345.869 227.92 346.592C228.457 345.985 229.027 345.378 229.561 344.901C232.001 342.607 234.344 341.65 235.665 341.061C242.64 337.731 246.463 330.802 247.964 328.095C252.777 319.394 253.848 305.805 247.842 301.257C245.144 299.235 240.625 299.586 236.993 299.762C233.721 299.914 230.458 299.674 227.215 299.99C226.855 300.014 225.74 300.151 224.411 299.696C223.828 299.486 223.408 299.248 223.247 299.179C222.214 298.599 221.083 298.05 220.017 297.536C220.022 297.307 220.027 297.112 220.032 296.883C225.596 302.139 234.346 298.362 240.888 298.123C247.824 297.862 252.8 303.104 253.123 310.228L253.124 310.163Z" fill="#395BB3"/>
<path d="M247.876 301.225C253.881 305.773 252.778 319.361 247.998 328.063C246.496 330.77 242.673 337.699 235.698 341.029C234.409 341.652 232.067 342.576 229.594 344.869C229.059 345.378 228.49 345.953 227.953 346.56C227.164 346.77 226.407 346.981 225.617 347.224C228.002 345.843 230.103 344.064 232.27 342.254C233.403 341.334 235.338 339.682 237.649 337.288C241.636 333.137 245.287 329.371 247.273 324.129C248.7 320.408 250.746 311.25 247.131 306.496C241.645 299.316 232.991 304.565 225.801 303.123C223.459 302.644 220.118 300.182 219.986 297.437C221.085 297.952 222.217 298.501 223.216 299.08C223.377 299.182 223.797 299.42 224.381 299.597C225.71 300.052 226.857 299.916 227.185 299.891C230.428 299.575 233.723 299.816 236.963 299.663C240.562 299.487 245.114 299.136 247.812 301.158L247.876 301.225Z" fill="#395BB3"/>
<path d="M213.632 350.958C199.467 355.653 185.387 360.938 170.537 361.373C134.885 362.463 103.488 334.043 100.032 298.835C99.3442 291.93 111.552 298.223 115.191 299.125C121.92 300.719 128.79 301.827 135.674 302.348C149.77 303.396 164.084 302.1 177.554 297.748C180.123 296.894 182.962 295.72 184.001 293.198C184.417 292.195 184.507 291.153 184.434 290.074C184.598 290.078 184.793 290.115 184.955 290.151C194.178 291.314 203.27 293.846 211.745 297.635C212.016 295.814 211.278 293.838 210.041 292.242C208.804 290.646 207.069 289.364 205.231 288.276C199.654 284.979 192.894 283.351 186.444 283.82C185.592 283.898 184.675 284.007 183.916 284.283C184.205 280.34 186.58 276.609 189.931 274.5C190.489 274.383 191.046 274.33 191.602 274.343C192.778 274.338 193.918 274.528 195.056 274.783C200.126 276.012 204.766 278.864 208.137 282.86C209.44 284.425 210.577 286.117 211.847 287.713C212.966 292.963 213.889 294.029 216.271 295.587C217.14 296.162 218.498 296.782 219.985 297.502C220.117 300.215 223.458 302.709 225.8 303.189C232.99 304.63 241.643 299.382 247.13 306.562C250.745 311.282 248.699 320.473 247.272 324.194C245.253 329.435 241.635 333.203 237.648 337.353C235.303 339.779 233.369 341.399 232.269 342.32C230.102 344.13 227.969 345.875 225.615 347.289C223.871 347.803 222.159 348.318 220.514 348.802C218.209 349.498 215.903 350.261 213.63 351.023L213.632 350.958ZM240.092 320.924C241.74 310.614 227.909 309.441 220.837 309.928C220.477 309.952 220.117 309.976 219.818 310.198C218.222 311.336 222.313 313.913 223.018 314.484C223.628 314.955 224.239 315.394 224.884 315.768C225.754 316.311 226.626 316.723 227.461 317.363C227.686 317.532 227.877 317.765 227.968 318.061C228.03 318.193 228.026 318.356 227.957 318.518C227.886 318.744 227.687 318.903 227.519 319.095C221.673 324.475 215.22 329.22 208.486 333.437C201.487 337.843 194.107 341.718 186.575 345.133C182.313 347.057 177.989 348.881 173.664 350.706C171.452 351.634 169.273 352.562 167.094 353.49C166.5 353.737 162.383 355.077 162.789 355.87C162.883 356.068 163.11 356.139 163.305 356.209C164.571 356.565 165.818 356.333 167.064 356.199C169.03 355.984 171.062 355.738 172.934 355.357C176.415 354.656 179.904 353.595 183.262 352.596C190.241 350.475 197.221 348.288 204.048 345.673C212.953 342.258 221.388 338.016 229.387 332.817C233.569 330.108 239.246 326.356 240.091 320.989L240.092 320.924ZM130.364 318.35C130.772 317.674 131.086 316.833 130.742 316.172C130.459 315.675 129.877 315.401 129.29 315.354C128.703 315.308 128.143 315.491 127.584 315.641C126.103 316.063 124.655 316.486 123.174 316.908C121.99 317.24 120.187 317.459 119.378 318.484C118.672 319.349 119.1 320.6 119.801 321.367C120.692 322.4 122.158 322.598 123.402 322.496C126.218 322.301 128.87 320.698 130.364 318.318L130.364 318.35ZM126.089 309.664C126.459 309.248 126.732 308.765 126.612 308.272C126.461 307.747 125.915 307.342 125.299 307.132C124.683 306.921 123.998 306.873 123.312 306.857C120.894 306.8 117.072 306.743 115.084 307.871C112.799 309.124 115.926 310.993 117.616 311.391C119.145 311.721 120.776 311.857 122.319 311.567C123.828 311.309 125.249 310.656 126.155 309.666L126.089 309.664Z" fill="#395BB3"/>
<path d="M220.837 309.928C227.909 309.441 241.739 310.647 240.092 320.924C239.248 326.258 233.571 330.01 229.388 332.752C221.389 337.951 212.955 342.193 204.05 345.608C197.223 348.223 190.275 350.41 183.263 352.531C179.906 353.53 176.416 354.59 172.935 355.292C171.063 355.673 169.031 355.919 167.065 356.134C165.82 356.268 164.54 356.499 163.306 356.144C163.112 356.074 162.884 356.003 162.791 355.805C162.385 355.012 166.502 353.672 167.096 353.425C169.275 352.497 171.487 351.569 173.666 350.641C177.99 348.816 182.314 347.024 186.576 345.067C194.108 341.653 201.488 337.778 208.488 333.372C215.222 329.155 221.674 324.41 227.52 319.03C227.687 318.87 227.887 318.712 227.959 318.452C227.995 318.29 227.966 318.159 227.969 317.995C227.877 317.732 227.687 317.499 227.463 317.298C226.628 316.658 225.755 316.246 224.885 315.703C224.241 315.296 223.598 314.857 223.02 314.419C222.281 313.847 218.224 311.27 219.819 310.132C220.119 309.911 220.479 309.887 220.839 309.863L220.837 309.928Z" fill="#395BB3"/>
<path d="M245.915 251.035C245.864 251.817 245.133 252.355 244.469 252.764C240.653 255.221 236.579 257.508 233.846 261.133C232.666 262.673 231.406 266.234 229.557 267.04C227.773 267.847 226.853 265.246 226.983 263.91C227.414 259.448 228.654 255.364 232.062 252.212C233.799 250.62 235.887 249.396 238.189 248.797C240.228 248.257 242.419 248.211 244.327 249.072C245.136 249.417 245.937 250.121 245.883 251.002L245.915 251.035Z" fill="#395BB3"/>
<path d="M235.777 344.655C232.687 346.769 229.315 348.421 225.792 349.513C226.337 348.547 227.113 347.52 227.92 346.592C230.485 345.902 233.116 345.213 235.777 344.655Z" fill="#395BB3"/>
<path d="M227.92 346.592C227.113 347.553 226.337 348.579 225.792 349.513C222.4 350.576 218.89 351.114 215.297 351.03C214.807 351.018 214.317 351.007 213.827 350.995C217.158 351.139 220.427 349.714 223.433 348.348C224.193 348.007 224.888 347.631 225.584 347.223C226.341 347.012 227.131 346.77 227.92 346.56L227.92 346.592Z" fill="#395BB3"/>
<path d="M225.617 347.224C224.921 347.632 224.226 348.007 223.466 348.349C220.459 349.714 217.191 351.107 213.86 350.996C213.794 350.995 213.729 350.993 213.631 350.991C215.937 350.229 218.209 349.498 220.514 348.769C222.161 348.253 223.872 347.738 225.616 347.256L225.617 347.224Z" fill="#395BB3"/>
<path d="M215.425 288.45C215.477 289.007 215.397 289.658 214.9 289.907C214.338 290.188 213.728 289.749 213.28 289.314C212.769 288.812 212.292 288.246 211.848 287.681C211.761 287.189 211.642 286.697 211.524 286.139C211.319 285.122 209.171 279.163 202.036 275.404C197.645 273.081 195.698 273.884 193.794 272.86C194.188 272.772 194.581 272.716 194.975 272.66C194.801 271.709 194.661 270.726 194.552 269.777C195.206 269.792 195.892 269.808 196.542 269.954C198.43 270.292 200.21 271.052 201.955 271.877C204.057 272.84 206.124 273.901 207.886 275.411C210.353 277.558 211.951 280.501 213.517 283.378C214.395 284.998 215.271 286.651 215.425 288.45Z" fill="#395BB3"/>
<path d="M210.041 292.242C211.278 293.838 212.017 295.781 211.745 297.636C203.27 293.846 194.179 291.282 184.955 290.151C184.792 290.148 184.597 290.11 184.434 290.074C184.337 288.635 184.013 287.126 183.916 285.687C183.894 285.23 183.906 284.74 183.949 284.284C184.707 284.008 185.626 283.866 186.477 283.821C192.894 283.351 199.687 284.98 205.264 288.277C207.101 289.365 208.804 290.646 210.074 292.242L210.041 292.242Z" fill="#395BB3"/>
<path d="M211.557 286.14C211.675 286.697 211.76 287.222 211.88 287.682C210.61 286.117 209.473 284.393 208.17 282.828C204.798 278.864 200.159 275.98 195.089 274.752C193.952 274.464 192.779 274.306 191.635 274.311C191.08 274.298 190.523 274.351 189.964 274.468C191.159 273.713 192.447 273.155 193.826 272.861C195.731 273.853 197.678 273.082 202.069 275.405C209.204 279.163 211.353 285.09 211.557 286.14Z" fill="#395BB3"/>
<path d="M194.552 269.809C194.659 270.791 194.8 271.741 194.974 272.692C194.581 272.748 194.187 272.804 193.793 272.893C193.405 272.688 193.02 272.418 192.637 272.017C192.285 271.682 191.839 271.182 191.466 270.39C192.423 269.988 193.505 269.818 194.552 269.809Z" fill="#395BB3"/>
<path d="M192.637 272.017C193.052 272.419 193.406 272.688 193.793 272.893C192.413 273.187 191.093 273.744 189.931 274.5C189.471 274.587 188.807 275.029 188.35 275.018C187.37 274.995 188.326 273.255 188.733 272.644C189.275 271.808 190.043 271.14 190.936 270.671C191.102 270.577 191.267 270.483 191.465 270.423C191.838 271.215 192.285 271.682 192.636 272.05L192.637 272.017Z" fill="#395BB3"/>
<path d="M184.434 290.074C183.717 289.992 183.002 289.812 182.456 289.407C181.556 288.766 181.322 287.585 181.573 286.644C181.824 285.703 182.496 284.903 183.135 284.134L182.521 285.23C182.891 284.814 183.388 284.5 183.916 284.283C183.906 284.74 183.894 285.23 183.883 285.686C183.98 287.125 184.304 288.634 184.401 290.073L184.434 290.074Z" fill="#395BB3"/>
<path d="M130.709 316.171C131.085 316.865 130.738 317.706 130.331 318.349C128.837 320.73 126.184 322.333 123.369 322.528C122.092 322.629 120.626 322.398 119.767 321.399C119.099 320.632 118.638 319.381 119.345 318.516C120.186 317.491 121.956 317.272 123.14 316.94C124.621 316.518 126.069 316.095 127.55 315.672C128.109 315.522 128.669 315.34 129.256 315.386C129.844 315.432 130.426 315.675 130.708 316.204L130.709 316.171Z" fill="black"/>
<path d="M126.58 308.272C126.699 308.764 126.425 309.28 126.057 309.663C125.184 310.655 123.763 311.307 122.221 311.565C120.711 311.823 119.079 311.719 117.518 311.389C115.827 311.023 112.701 309.121 114.986 307.869C117.005 306.774 120.828 306.831 123.214 306.854C123.867 306.87 124.553 306.886 125.201 307.129C125.849 307.373 126.396 307.745 126.514 308.27L126.58 308.272Z" fill="black"/>
<path d="M228 318.061C227.909 317.798 227.718 317.565 227.494 317.364C226.659 316.724 225.786 316.312 224.916 315.769C224.272 315.362 223.629 314.923 223.051 314.485C222.313 313.913 218.255 311.336 219.85 310.198C220.15 309.977 220.51 309.953 220.87 309.929C227.941 309.441 241.771 310.647 240.125 320.925C239.281 326.259 233.603 330.011 229.421 332.753C221.422 337.952 212.988 342.194 204.082 345.609C197.255 348.223 190.275 350.41 183.296 352.532C179.971 353.531 176.449 354.591 172.968 355.293C171.096 355.673 169.064 355.919 167.098 356.135C165.82 356.268 164.572 356.5 163.339 356.144C163.144 356.074 162.917 356.004 162.824 355.806C162.417 355.013 166.534 353.673 167.128 353.426C169.308 352.465 171.519 351.57 173.698 350.642C178.023 348.817 182.346 347.025 186.609 345.068C194.174 341.655 201.521 337.779 208.521 333.373C215.254 329.156 221.707 324.41 227.553 319.03C227.72 318.871 227.92 318.712 227.99 318.486C228.027 318.323 228.03 318.193 228.001 318.029L228 318.061Z" fill="black"/>
<path d="M339.634 239.424C345.588 248.966 348.184 272.042 346.339 285.221C344.57 297.944 341.191 322.153 320.707 337.082C319.509 337.968 316.517 340.117 312.281 342.368C306.092 345.618 297.155 349 286.965 348.696C286.703 348.689 286.442 348.683 286.213 348.678C282.361 348.49 280.808 347.8 270.074 346.993C257.936 346.088 251.868 345.62 246.092 346.594C233.754 348.655 226.492 354.492 225.131 352.599C224.183 351.238 227.088 347.226 229.56 344.933C232 342.64 234.376 341.684 235.664 341.093C242.639 337.764 246.495 330.836 247.964 328.128C252.776 319.426 253.847 305.838 247.842 301.29C245.176 299.268 240.625 299.619 237.025 299.796C233.753 299.947 230.49 299.708 227.247 300.023C226.887 300.047 225.772 300.184 224.41 299.728C223.827 299.519 223.407 299.313 223.246 299.211C220.826 297.849 217.75 296.634 216.269 295.652C213.662 293.959 212.806 292.829 211.522 286.237C211.317 285.22 209.169 279.261 202.034 275.502C196.738 272.734 194.999 274.423 192.602 272.114C191.419 270.977 189.425 268.187 190.731 258.522C192.394 246.123 197.506 237.233 198.834 234.946C201.149 231.017 206.691 221.876 217.617 214.493C223.994 210.17 229.696 208.182 235.561 206.165C237.703 205.432 243.402 203.509 255.581 201.281C273.831 197.954 273.293 199.998 282.406 197.503C291.748 194.947 298.44 191.121 308.908 185.164C316.064 181.088 321.809 177.207 325.898 174.299C325.804 175.538 325.557 177.687 324.875 180.282C324.875 180.282 323.076 187.292 312.464 202.191C311.571 204.03 311.396 204.516 311.396 204.516C311.287 204.97 311.141 205.653 311.185 206.535C312.308 206.039 314.058 205.297 316.264 204.598C326.898 201.321 335.911 203.067 342.319 204.393C348.108 205.606 355.167 207.077 355.55 210.22C355.74 211.89 353.974 213.35 351.775 215.126C344.678 220.869 339.357 219.21 335.811 224.056C335.608 224.345 333.243 227.652 333.837 231.584C334.486 235.973 338.81 238.327 339.535 239.487L339.634 239.424Z" fill="#37B5D7"/>
<path d="M280.815 275.065C274.716 280.08 264.035 292.333 271.168 300.335C274.194 303.736 279.302 303.334 283.371 302.646C288.425 301.785 293.629 300.079 298.1 297.605C303.496 294.662 308.943 289.567 309.162 283.043C309.169 282.716 309.318 276.387 304.541 272.422C299.892 268.559 293.584 268.574 288.174 270.667C285.47 271.681 283.048 273.224 280.815 275.065Z" fill="#CA427C"/>
<path opacity="0.14" d="M292.866 307.504C286.567 308.532 279.935 308.376 274.452 305.244C272.808 304.291 271.111 302.782 271.254 300.86C271.257 300.729 271.26 300.599 271.295 300.501C271.555 299.169 272.724 298.119 274.012 297.562C275.398 296.974 276.937 296.847 278.414 296.588C284.62 295.395 289.946 291.276 293.661 286.172C295.012 284.31 296.17 282.313 297.199 280.248C298.126 278.344 298.924 276.404 299.624 274.429C300.079 273.134 300.408 271.64 301.059 270.382C301.161 270.188 301.297 269.963 301.433 269.77C302.178 268.645 303.264 268.312 304.374 268.403C305.059 268.452 305.773 268.664 306.452 268.974C306.678 269.077 306.937 269.181 307.163 269.317C307.129 269.382 307.095 269.446 307.06 269.511C309.236 271.52 310.74 274.265 311.515 277.45C314.581 290.287 303.978 301.986 292.866 307.537L292.866 307.504Z" fill="#020F2B"/>
<path d="M285.953 283.151C286.686 278.369 288.589 273.876 290.876 269.751C292.036 267.656 293.326 265.597 294.648 263.604C295.258 262.672 298.837 256.422 299.968 259.746C300.336 260.799 299.516 262.315 299.102 263.219C295.626 270.679 292.215 278.14 287.998 285.125C287.046 286.702 285.539 286.863 285.755 284.615C285.799 284.127 285.876 283.639 285.953 283.151Z" fill="black"/>
<path d="M308.663 266.675C308.185 267.545 307.707 268.416 307.196 269.285C307.162 269.35 307.128 269.414 307.094 269.479C306.446 270.639 305.765 271.798 305.084 272.957C303.757 275.179 302.398 277.367 300.879 279.453C300.204 280.351 299.189 280.425 299.384 279.059C299.424 278.766 299.463 278.473 299.535 278.214C300.053 275.647 301.155 273.257 302.546 271.069C302.715 270.812 302.852 270.587 303.021 270.33C303.462 269.655 303.934 269.013 304.407 268.371C304.542 268.178 304.71 267.986 304.845 267.794C305.115 267.441 305.384 267.121 305.654 266.768C306.092 266.223 308.563 262.592 309.299 264.633C309.546 265.259 308.969 266.16 308.663 266.675Z" fill="black"/>
<path d="M311.549 277.418C310.774 274.233 309.269 271.488 307.094 269.479C306.902 269.311 306.71 269.111 306.486 268.942C305.973 268.506 305.426 268.134 304.846 267.794C303.201 266.841 301.32 266.209 299.201 265.964C298.745 265.92 298.321 265.878 297.863 265.867C296.197 265.828 294.527 265.985 292.884 266.338C291.144 266.689 289.463 267.27 287.813 267.949C278.669 271.815 269.292 278.614 264.155 287.21C261.671 291.363 260.549 296.005 262.364 300.847C266.207 311.188 279.743 312.42 288.707 309.267C290.091 308.777 291.51 308.19 292.9 307.472C304.045 301.923 314.615 290.222 311.55 277.386L311.549 277.418ZM307.59 288.719C307.419 289.041 307.216 289.363 307.012 289.685C306.876 289.91 306.741 290.103 306.572 290.327C306.437 290.52 306.302 290.713 306.134 290.905C305.931 291.194 305.729 291.45 305.494 291.706C305.293 291.93 305.091 292.153 304.889 292.41C304.755 292.537 304.621 292.697 304.487 292.825C304.286 293.049 304.085 293.24 303.852 293.43C302.314 294.896 300.585 296.128 298.829 297.165C298.564 297.322 298.332 297.447 298.067 297.604C295.253 299.137 292.183 300.404 289.024 301.309C287.774 301.671 286.491 302.001 285.21 302.264C284.587 302.38 283.929 302.528 283.306 302.611C279.303 303.301 274.326 303.674 271.263 300.468C271.199 300.401 271.168 300.368 271.104 300.301C263.97 292.299 274.684 280.047 280.75 275.031C282.951 273.189 285.405 271.679 288.11 270.633C288.967 270.294 289.889 270.022 290.777 269.781C291.171 269.693 291.533 269.603 291.926 269.547C292.485 269.43 293.042 269.378 293.599 269.325C293.795 269.33 293.991 269.302 294.156 269.273C294.516 269.249 294.908 269.225 295.268 269.234C295.562 269.241 295.856 269.248 296.182 269.255C297.782 269.326 299.376 269.657 300.866 270.247C300.898 270.247 300.963 270.282 300.995 270.315C301.092 270.35 301.221 270.418 301.319 270.453C301.642 270.591 301.933 270.729 302.223 270.899C302.288 270.933 302.352 270.967 302.417 271.001C303.095 271.376 303.77 271.849 304.379 272.353C304.571 272.521 304.763 272.689 304.955 272.889C309.11 276.871 309.007 282.68 308.999 283.006C308.951 285.062 308.351 286.941 307.428 288.682L307.59 288.719Z" fill="black"/>
<path d="M213.631 350.991C213.631 350.991 213.566 350.989 213.533 350.989C216.959 351.232 220.36 349.778 223.465 348.381C226.769 346.892 229.469 344.637 232.269 342.32C233.402 341.4 235.336 339.747 237.648 337.353C241.635 333.203 245.286 329.436 247.272 324.194C248.699 320.473 250.744 311.315 247.13 306.562C241.643 299.382 232.99 304.63 225.8 303.189C223.263 302.672 219.57 299.843 219.999 296.882C225.563 302.138 234.313 298.361 240.856 298.123C247.791 297.861 252.767 303.103 253.09 310.227C253.517 319.901 250.155 329.452 244.196 336.887C237.058 345.762 226.371 351.29 215.262 351.127C214.707 351.114 214.151 351.101 213.596 351.088L213.631 350.991Z" fill="black"/>
<path d="M96.0313 286.858C101.147 284.725 107.22 286.402 112.676 287.901C131.317 293.039 151.822 295.316 169.522 287.602C172.627 286.239 176.011 284.098 177.522 280.967C178.485 278.965 178.31 276.676 179.466 274.744C180.248 273.457 181.321 272.307 182.583 271.455C182.982 271.17 186.087 269.774 185.999 269.348C185.942 268.987 185.858 268.398 185.776 267.71C183.84 254.117 186.426 239.976 194.985 229.045C212.572 206.638 240.865 198.813 267.795 194.744C274.552 193.727 281.392 193.333 288.041 191.367C296.237 188.915 303.817 184.849 310.416 179.421C316.248 174.628 321.382 168.938 327.34 164.376C330.768 161.747 330.254 168.362 330.083 170.056C328.835 182.856 322.789 195.381 312.946 203.932C321.65 200.741 331.196 199.267 340.236 201.21C346.09 202.457 351.911 205.14 356.325 209.259C357.508 210.364 362.046 214.78 361.446 216.659C360.779 218.635 354.637 218.491 353.065 218.617C348.711 218.939 344.895 219.96 341.015 222.35C340.087 222.916 339.222 223.549 338.42 224.313C334.004 228.617 336.262 232.685 338.753 236.596C351.488 256.613 354.072 282.986 345.351 305.046C339.027 321.058 326.938 334.779 311.776 342.977C307.704 345.199 302.243 346.671 297.653 345.878C300.689 344.643 302.891 342.736 305.297 340.507C308.003 337.992 310.487 335.21 313.099 332.561C338.482 306.648 345.385 267.374 330.472 234.28C329.23 231.508 327.83 228.505 328.584 225.584C329.015 223.929 330.127 222.519 331.3 221.273C335.457 216.866 341.019 213.829 346.963 212.63C346.248 209.676 342.947 208.26 339.991 207.505C329.367 204.774 318.113 205.196 307.644 208.411C310.323 204.295 312.744 200.01 314.906 195.621C316.003 193.427 317.003 191.197 317.972 188.935C318.56 187.545 319.162 184.164 320.201 183.078C310.043 193.94 295.181 199.076 280.541 201.736C260.189 205.469 238.825 204.936 221.058 216.924C216.541 219.985 203.449 229.113 197.285 246.63C194.31 255.048 193.445 264.038 194.97 272.855C188.713 273.492 183.537 279.573 183.913 285.818C184.05 288.335 184.968 291.001 183.998 293.328C182.959 295.818 180.12 297.024 177.551 297.845C164.081 302.198 149.767 303.527 135.672 302.446C128.755 301.924 121.916 300.85 115.189 299.223C111.548 298.354 99.3746 292.029 100.029 298.965C103.484 334.206 134.914 362.627 170.534 361.504C187.772 360.962 204.018 353.932 220.512 348.867C235.261 344.349 254.011 339.239 268.569 347.056C259.651 346.847 251.568 348.649 242.661 350.758C233.227 353.018 223.872 356.095 214.898 359.672C194.41 367.81 168.978 374.885 147.055 368.951C133.999 365.413 122.522 357.244 113.242 347.395C102.749 336.278 91.7323 321.035 88.3953 305.842C86.8285 298.786 88.1486 291.276 94.8711 287.549C95.2685 287.329 95.6651 287.143 96.0609 286.989L96.0313 286.858Z" fill="black"/>
<path d="M332.816 236.097C348.663 271.139 341.346 312.755 314.358 340.197C313.655 340.899 312.952 341.633 312.281 342.368C306.092 345.618 297.155 349 286.965 348.696C286.703 348.689 286.442 348.683 286.213 348.678C282.667 346.603 279.083 343.32 279.398 339.638C279.894 333.839 284.438 328.2 288.388 324.244C293.242 319.363 299.025 315.255 304.201 310.61C325.237 291.647 334.254 263.946 327.769 238.036C325.588 229.301 321.892 219.681 327.167 212.166C328.926 209.628 331.487 207.73 334.433 206.166C337.302 206.462 340.166 206.986 342.96 207.705C346.08 208.496 349.607 210.015 350.383 213.135C344.078 214.391 338.185 217.615 333.761 222.278C332.488 223.586 331.341 225.094 330.875 226.846C330.051 229.96 331.545 233.13 332.882 236.066L332.816 236.097Z" fill="#34A0D4"/>
<path d="M207.841 259.25C207.457 261.657 207.759 269.695 207.149 274.806C206.865 277.15 206.399 278.902 205.607 279.21C205.31 279.333 204.981 279.424 204.654 279.449C202.408 277.666 199.858 276.3 197.167 275.355C196.304 274.519 195.476 273.618 194.68 272.718C194.778 272.72 194.876 272.69 194.974 272.692C194.8 271.741 194.66 270.759 194.552 269.809C193.625 261.953 194.629 253.978 197.289 246.466C203.453 228.95 216.545 219.822 221.062 216.761C224.782 214.237 228.651 212.304 232.643 210.732C229.258 214.309 226.268 217.765 225.662 218.501C216.398 230.265 210.182 244.451 207.841 259.217L207.841 259.25Z" fill="#41BDDE"/>
<path opacity="0.35" d="M149.887 302.583C149.778 303.038 149.539 303.489 149.301 303.875C146.957 307.64 142.15 309.127 137.74 309.056C133.329 308.985 129.012 307.676 124.612 307.181C120.211 306.653 115.396 307.095 112.028 309.954C110.727 311.067 109.714 312.479 108.288 313.36C106.828 314.272 105.09 314.525 103.43 314.225C101.715 309.321 100.561 304.168 100.031 298.867C99.3435 291.963 111.55 298.289 115.158 299.157C121.886 300.751 128.757 301.859 135.641 302.379C140.372 302.719 145.109 302.83 149.853 302.615L149.887 302.583Z" fill="#CDDAFF"/>
<path d="M215.179 290.567C214.617 290.847 213.728 289.749 213.313 289.315C211.365 287.343 209.95 284.959 208.169 282.861C207.12 281.628 205.937 280.491 204.653 279.481C202.407 277.698 199.857 276.333 197.166 275.388C196.486 275.144 195.771 274.964 195.089 274.784C193.951 274.529 192.778 274.338 191.634 274.344C191.079 274.331 190.522 274.383 189.964 274.501C189.504 274.588 188.84 275.029 188.383 275.019C187.403 274.996 188.359 273.255 188.765 272.645C189.308 271.808 190.075 271.141 190.969 270.672C192.094 270.078 193.341 269.846 194.584 269.81C195.27 269.826 195.924 269.842 196.574 269.988C198.462 270.326 200.242 271.086 201.987 271.91C203.798 272.736 205.575 273.627 207.181 274.839C207.438 275.041 207.662 275.242 207.918 275.444C210.385 277.592 211.983 280.535 213.549 283.412C214.427 285.032 215.303 286.685 215.457 288.484C215.509 289.04 215.675 290.35 215.179 290.567Z" fill="black"/>
<path d="M182.521 285.23C183.363 284.205 184.971 283.916 186.477 283.821C192.894 283.351 199.687 284.98 205.264 288.277C207.102 289.365 208.836 290.646 210.074 292.242C211.311 293.838 212.05 295.782 211.778 297.636C203.303 293.846 194.211 291.315 184.988 290.152C184.108 290.034 183.163 289.914 182.489 289.408C181.589 288.767 181.322 287.585 181.606 286.645C181.889 285.705 182.529 284.904 183.168 284.135" fill="black"/>
<path d="M239.316 281.567C241.416 278.417 244.453 275.746 248.169 274.789C251.885 273.831 256.839 275.808 260.11 274.318C260.705 274.038 260.887 273.259 260.507 272.728C259.587 271.531 257.683 270.507 256.584 269.959C256.261 269.788 254.515 268.996 253.025 268.439C252.15 268.092 252.113 266.883 252.973 266.479C254.162 265.919 255.476 265.656 257.015 265.529C258.75 265.407 265.455 265.237 265.228 262.359C265.077 260.43 259.228 258.986 257.699 258.657C254.804 258.067 251.796 258.094 248.906 258.679C238.855 260.794 227.849 274.378 234.144 284.678C235.655 287.129 237.171 285.206 238.127 283.466C238.502 282.822 238.877 282.177 239.283 281.567L239.316 281.567Z" fill="black"/>
<path d="M238.22 248.863C240.258 248.356 242.45 248.277 244.358 249.138C245.167 249.483 245.968 250.187 245.915 251.068C245.864 251.85 245.132 252.388 244.469 252.797C240.652 255.253 236.578 257.541 233.846 261.166C232.666 262.705 231.405 266.267 229.556 267.072C227.707 267.878 226.853 265.279 226.982 263.943C227.414 259.481 228.653 255.396 232.061 252.244C233.798 250.653 235.886 249.429 238.188 248.83L238.22 248.863Z" fill="black"/>
<path d="M335.197 325.473C335.197 325.473 335.226 325.604 335.258 325.67C335.252 325.931 335.245 326.192 335.239 326.453L335.197 325.473Z" fill="#CDDAFF"/>
<path d="M403.558 257.867L416.498 252.457C418.61 251.593 421.13 252.827 421.085 254.752C421.064 255.666 420.423 256.5 419.401 256.9L413.46 259.34C411.249 260.235 411.223 262.748 413.39 263.713L419.147 266.296C420.15 266.744 420.784 267.608 420.762 268.521C420.717 270.446 418.173 271.595 416.104 270.632L403.429 264.785C402.426 264.337 401.825 263.474 401.847 262.56L401.907 259.983C401.929 259.069 402.568 258.268 403.559 257.834L403.558 257.867Z" fill="#FF7D3F"/>
<path d="M444.301 247.397L435.974 277.725C435.652 278.893 434.359 279.679 432.856 279.644C430.896 279.598 429.46 278.127 429.855 276.602L438.182 246.274C438.504 245.106 439.797 244.32 441.3 244.355C443.26 244.401 444.696 245.871 444.301 247.397Z" fill="#FF7D3F"/>
<path d="M470.56 266.36L457.624 271.606C455.512 272.471 453.025 271.204 453.069 269.312C453.092 268.333 453.765 267.533 454.788 267.1L460.66 264.789C462.87 263.927 462.962 261.415 460.795 260.417L454.976 257.702C453.973 257.254 453.372 256.391 453.394 255.478C453.438 253.585 456.047 252.438 458.084 253.4L470.755 259.411C471.725 259.858 472.326 260.721 472.305 261.634L472.244 264.212C472.223 265.125 471.582 265.959 470.56 266.36Z" fill="#FF7D3F"/>
</g>
<circle opacity="0.2" cx="270.374" cy="263.971" r="214.194" transform="rotate(13.6679 270.374 263.971)" stroke="white"/>
<defs>
<clipPath id="clip0_1299_4472">
<rect width="394.432" height="359.465" fill="white" transform="translate(81.9822 81.8044) rotate(1.34379)"/>
</clipPath>
</defs>
</svg>
