<?xml version="1.0" encoding="UTF-8"?>
<svg style="" id="Camada_1" data-name="Camada 1" xmlns="http://www.w3.org/2000/svg"
  xmlns:xlink="http://www.w3.org/1999/xlink" viewBox="0 0 429.54 429.55" overflow="visible" width="22.5rem">
  <defs>
    <filter id="shadow">
      <feDropShadow stdDeviation="5" flood-color="#53a2f7" />
      <feDropShadow stdDeviation="10" flood-color="#4887c9" />
      <feDropShadow stdDeviation="20" flood-color="#0072ed" />
      <feDropShadow stdDeviation="20" flood-color="#0072ed" />
    </filter>
    <style>
      .cls-1,
      .cls-2,
      .cls-3,
      .cls-4,
      .cls-5,
      .cls-6,
      .cls-7,
      .cls-8,
      .cls-9,
      .cls-10,
      .cls-11,
      .cls-12,
      .cls-13,
      .cls-14 {
        stroke-width: 0px;
      }

      .cls-1,
      .cls-13 {
        fill: #cddaff;
      }

      .cls-2 {
        fill: #37b5d7;
      }

      .cls-4 {
        fill: #ff7d3f;
      }

      .cls-5 {
        fill: none;
      }

      .cls-6 {
        fill: #395bb3;
      }

      .cls-7 {
        fill: #ca427c;
      }

      .cls-8 {
        fill: #41bdde;
      }

      .cls-9,
      .cls-12 {
        fill: #fff;
      }

      .cls-15 {
        clip-path: url(#clippath);
      }

      @keyframes spin {
        0% {
          transform: rotate(0deg);
        }

        100% {
          transform: rotate(360deg);
        }
      }

      .cls-10 {
        fill: #0072ed;
        filter: url(#shadow);
      }

      .spin {
        animation: spin 10s linear infinite;
        transform-origin: center;
        transform-box: fill-box;
      }

      .reverse {
        animation-direction: reverse;
      }

      .cls-11 {
        fill: #34a0d4;
      }

      .cls-12 {
        opacity: .2;
      }

      .cls-13 {
        opacity: .35;
      }

      .cls-13,
      .cls-14 {
        isolation: isolate;
      }

      .cls-14 {
        fill: #020f2b;
        opacity: .14;
      }
    </style>
    <clipPath id="clippath">
      <rect class="cls-5" x="39.59" y="19.7" width="359.46" height="394.43"
        transform="translate(-2.68 431.09) rotate(-88.66)" />
    </clipPath>
  </defs>
  <g class="spin reverse">
    <path class="cls-5"
      d="M190.69,315.68c1.92.46,3.85.86,5.77,1.2,53.89,9.71,106.78-24.39,119.64-78.3,1.96-8.23,2.92-16.55,2.88-24.8-.05-10.54-1.7-20.98-4.93-31.01-2.54-7.92-6.06-15.59-10.53-22.86-14.56-23.69-37.48-40.29-64.52-46.74-1.68-.4-3.37-.76-5.05-1.08-25.45-4.78-51.4,0-73.62,13.65-23.69,14.56-40.29,37.48-46.74,64.52-1.96,8.23-2.92,16.55-2.88,24.8.05,12.48,2.37,24.82,6.87,36.52,2.3,5.98,5.16,11.78,8.59,17.36,14.56,23.69,37.48,40.29,64.52,46.74Z" />
    <path class="cls-12"
      d="M318.99,213.78c.04,8.25-.92,16.57-2.88,24.8-12.86,53.91-65.76,88.01-119.64,78.3l.15.52c25.26,4.51,50.97-.33,73.01-13.88,23.8-14.63,40.47-37.65,46.96-64.82,1.97-8.27,2.93-16.62,2.89-24.92-.05-10.53-1.7-20.96-4.9-31h-.51c3.22,10.02,4.88,20.46,4.93,31Z" />
    <path class="cls-12"
      d="M113.12,190.15c-4.94,20.71-3.5,41.95,3.94,61.42h.52c-4.5-11.68-6.81-24.02-6.87-36.5-.04-8.25.92-16.57,2.88-24.8,6.45-27.05,23.05-49.96,46.74-64.52,22.21-13.66,48.17-18.43,73.62-13.65l-.15-.52c-25.49-4.73-51.48.08-73.72,13.76-23.8,14.63-40.47,37.65-46.96,64.82Z" />
    <path class="cls-10"
      d="M190.69,315.68c-27.05-6.45-49.96-23.05-64.52-46.74-3.43-5.57-6.29-11.38-8.59-17.36h-.52c2.32,6.06,5.22,11.95,8.69,17.61,14.63,23.8,37.65,40.47,64.82,46.96,2.01.48,4.02.89,6.03,1.25l-.15-.52c-1.92-.35-3.85-.74-5.77-1.2Z" />
    <path class="cls-10"
      d="M239.01,113.17c27.05,6.45,49.96,23.05,64.52,46.74,4.47,7.27,7.99,14.94,10.53,22.86h.51c-2.56-8-6.11-15.76-10.63-23.12-14.63-23.8-37.65-40.47-64.82-46.96-1.77-.42-3.54-.8-5.32-1.12l.15.52c1.69.32,3.37.68,5.05,1.08Z" />
  </g>
  <g class="cls-15">
    <g class="cls-16">
      <path class="cls-9"
        d="M41.68,205.07l.96-8.79c.58-5.34,3.81-7.71,9.68-7.09l11.8,1.29c4.34.46,6.9,2.71,7.75,6.68.21.95.21,2.32,0,4.08l-.12.98,12.42,1.34-.66,6.02-41.86-4.54.03.03ZM48.28,199.68l17.51,1.88.16-1.4c.09-.85.1-1.43.04-1.73-.33-1.15-1.17-1.79-2.5-1.92l-11.8-1.29c-1.89-.21-2.96.55-3.13,2.31l-.25,2.12-.03.03Z" />
      <path class="cls-9"
        d="M47.75,169.01l4.8-14.97,5.71,1.83-2.96,9.2,16.84,5.39,2.54-7.91,5.71,1.83-2.54,7.91,6.16,1.97,2.96-9.2,5.71,1.83-4.8,14.97-40.1-12.82-.03-.03Z" />
      <path class="cls-9"
        d="M68.03,122.35l5.23,2.9-2.73,4.96,31.62,17.42-2.94,5.32-31.62-17.42-2.73,4.96-5.23-2.9,8.43-15.24h-.03Z" />
      <path class="cls-9"
        d="M127.91,98.97l2.77,3.1c3.95,4.37,3.72,8.51-.59,12.42-4.34,3.88-8.45,3.62-12.4-.78l-17.2-19.14c-3.95-4.37-3.72-8.51.59-12.39,4.34-3.88,8.49-3.62,12.4.75l3.79,4.2-4.51,4.04-3.79-4.2c-1.27-1.4-2.55-1.53-3.88-.35-1.3,1.18-1.3,2.48-.06,3.88l17.2,19.14c1.27,1.4,2.55,1.53,3.88.35,1.34-1.18,1.33-2.48.09-3.88l-2.77-3.1,4.51-4.04h-.03Z" />
      <path class="cls-9"
        d="M156.19,85.86c2.95,5.1,1.91,9.12-3.13,12.04-5.04,2.88-9.03,1.78-11.98-3.32l-12.85-22.27c-2.95-5.1-1.91-9.09,3.12-12.01,5.04-2.92,9.03-1.81,11.98,3.28l12.85,22.27ZM138.08,66.6c-.94-1.62-2.18-2.01-3.7-1.16h-.03c-1.52.88-1.78,2.14-.84,3.8l12.85,22.27c.94,1.65,2.17,2.04,3.7,1.16,1.52-.88,1.82-2.15.87-3.8l-12.85-22.27Z" />
      <path class="cls-9"
        d="M179.34,71.68l-1.23-29.64,5.82-1.69,11.7,40.4-5.6,1.63-6.56-22.68,1.59,24.1-3.95,1.15-11.7-21.17,6.56,22.68-5.66,1.63-11.7-40.4,5.82-1.69,14.89,25.68Z" />
      <path class="cls-9"
        d="M205.31,37.46l8.84-.41c5.4-.23,8.21,2.58,8.49,8.46l.57,11.83c.19,4.35-1.61,7.24-5.4,8.65-.92.34-2.27.57-4.04.66l-.98.04.59,12.48-6.05.28-1.99-42h-.03ZM211.65,43.15l.83,17.55,1.41-.07c.85-.05,1.41-.13,1.74-.25,1.09-.5,1.6-1.4,1.54-2.74l-.57-11.83c-.08-1.93-1.01-2.83-2.78-2.74l-2.13.11-.03-.03Z" />
      <path class="cls-9"
        d="M253.64,74.04c-.95,5.82-4.28,8.26-10.04,7.34-5.73-.92-8.14-4.3-7.18-10.12l5.43-33.47,5.99.96-5.43,33.47c-.31,1.89.42,2.95,2.15,3.25,1.76.27,2.79-.52,3.1-2.38l5.43-33.47,5.99.96-5.43,33.47Z" />
      <path class="cls-9"
        d="M293.68,51.67l-2.12,5.6-5.31-2.02-12.85,33.72-5.67-2.16,12.85-33.72-5.31-2.02,2.12-5.6,16.3,6.19Z" />
      <path class="cls-9"
        d="M311.7,72.27l-20.82,25.24-5.19-3.22,27.59-32.36,7.05,4.41-16.99,38.97-5.22-3.26,13.54-29.75.03-.03Z" />
      <path class="cls-9"
        d="M315.94,117.06c-3.12-3.7-2.83-7.44.92-11.34l17.89-18.51c4.09-4.25,8.24-4.35,12.39-.33,4.19,4.05,4.25,8.16.17,12.41l-3.92,4.09-4.38-4.22,3.92-4.09c1.31-1.37,1.34-2.65.09-3.88-1.25-1.24-2.55-1.17-3.86.2l-17.89,18.51c-1.31,1.37-1.34,2.68-.09,3.88,1.28,1.24,2.59,1.17,3.9-.2l3.92-4.09,4.38,4.22-3.92,4.09c-3.85,3.99-7.78,4.32-11.72.96l-1.12.56c.58.18,1.04.42,1.36.72.32.3.51.7.59,1.16.09.49-.12.98-.62,1.49l-1.47,1.53c-.84.86-1.85.84-3.01-.1-.16-.13-.35-.27-.55-.47-.1-.1-.19-.2-.29-.3-1.18-1.2-1.32-2.28-.42-3.21l.44-.45,1.82,1.74-.43.45s-.11.32.09.52c.19.2.39.21.52.08l1.47-1.53c.17-.16.17-.35-.02-.56-.16-.17-.39-.2-.62-.11l-1.76-1.71,2.29-1.55-.07.03Z" />
      <path class="cls-9"
        d="M363.16,121.99l-29.33,14.49-3.41-5.08,38.44-18.23,4.64,6.9-31.49,28.61-3.41-5.07,24.56-21.62ZM369.49,112.41l-.35-3.3,1.67-.22c2.13-.28,3.66.18,4.61,1.41l.1.13c.54.8.83,2.08.89,3.87.01.85.16,1.47.45,1.87.22.33.54.5.94.48l1.67-.06.02,3.33-1.7.09c-1.73.06-3-.46-3.79-1.53l-.1-.13c-.54-.8-.83-2.08-.86-3.84-.04-1.11-.09-1.76-.18-1.93l-.06-.07c-.22-.33-.77-.44-1.63-.33l-1.67.22Z" />
      <path class="cls-9"
        d="M360.67,171c-5.48,2.16-9.3.57-11.46-4.84-2.13-5.4-.47-9.18,5.04-11.34l23.95-9.46c5.48-2.16,9.3-.57,11.42,4.84,2.13,5.4.47,9.18-5.01,11.37l-23.95,9.46v-.03ZM382.36,155.87c1.75-.71,2.33-1.87,1.68-3.49-.65-1.65-1.85-2.13-3.63-1.42l-23.95,9.46c-1.78.71-2.33,1.87-1.68,3.49.65,1.65,1.88,2.13,3.63,1.42l23.95-9.46Z" />
      <path class="cls-9"
        d="M143.95,365.25l-1.89,3.78c-.86,1.71-.5,2.96,1.09,3.75,1.58.79,2.77.33,3.63-1.35l.34-.68c.93-1.81.28-4.79-1.88-8.92-2.16-4.1-2.4-7.89-.65-11.38l3.6-7.13c2.64-5.26,6.56-6.57,11.76-3.97,5.2,2.6,6.48,6.55,3.84,11.81l-2.54,5.07-5.43-2.74,2.54-5.07c.86-1.68.49-2.93-1.09-3.75h-.03c-1.55-.79-2.77-.36-3.63,1.35l-3.53,7c-.86,1.68-.17,4.57,1.99,8.7,2.16,4.1,2.4,7.86.72,11.21l-.58,1.16c-2.64,5.26-6.59,6.6-11.76,4-5.2-2.64-6.48-6.58-3.81-11.84l1.89-3.78,5.43,2.74v.03Z" />
      <path class="cls-9" d="M179.3,347.99l5.81,1.74-11.99,40.3-5.81-1.74,11.99-40.3Z" />
      <path class="cls-9"
        d="M197.68,352.77l6.03.66,3.04,24.88,2.66-24.26,5.57.62-4.61,41.81-6.03-.66-2.93-24.1-2.58,23.48-5.8-.63,4.61-41.81h.03Z" />
      <path class="cls-9"
        d="M247.12,382.56l.43,4.12c.58,5.86-2.01,9.09-7.81,9.68-5.77.58-8.97-2.07-9.55-7.93l-2.57-25.59c-.58-5.86,2.01-9.06,7.78-9.64,5.8-.58,8.97,2.07,9.59,7.93l.55,5.63-6.03.61-.55-5.63c-.19-1.86-1.15-2.74-2.91-2.58h-.03c-1.74.19-2.51,1.21-2.33,3.11l2.57,25.59c.18,1.9,1.14,2.74,2.91,2.58,1.77-.19,2.54-1.21,2.36-3.11l-.43-4.12,6.03-.61v-.03Z" />
      <path class="cls-9"
        d="M255.59,350.5l15.05-4.67,1.76,5.72-9.25,2.85,5.23,16.84,7.97-2.46,1.79,5.72-7.97,2.46,1.92,6.15,9.25-2.85,1.76,5.72-15.05,4.67-12.49-40.15h.03Z" />
      <path class="cls-9"
        d="M317.4,358.58c-2.28-3.02-2.72-6.76-1.34-11.16,1.41-4.44,1.55-7.41.41-8.94l-4.98-6.58c-1.14-1.53-2.41-1.75-3.81-.71h-.03c-1.4,1.08-1.53,2.38-.39,3.88l3.39,4.52-4.86,3.64-3.39-4.52c-3.55-4.72-3-8.82,1.63-12.3,4.66-3.48,8.76-2.9,12.31,1.82l5.07,6.71c2.31,3.09,2.78,6.86,1.4,11.3-1.41,4.44-1.48,7.47-.25,9.1l1.52,2.03,9.08-6.84,3.61,4.79-13.94,10.48-5.42-7.21h-.03Z" />
      <path class="cls-9"
        d="M357.24,322.56c4.45,3.86,4.78,7.98.99,12.36-3.8,4.38-7.92,4.65-12.37.82l-19.48-16.81c-4.45-3.86-4.81-7.98-1.02-12.36,3.8-4.38,7.96-4.68,12.41-.82l19.48,16.81ZM333.8,310.32c-1.44-1.24-2.75-1.21-3.89.14-1.14,1.34-.98,2.62.43,3.86l19.48,16.81c1.44,1.24,2.75,1.21,3.89-.14,1.18-1.34,1.01-2.62-.43-3.86l-19.48-16.81Z" />
      <path class="cls-9"
        d="M376.43,291.86c5.16,2.83,6.35,6.81,3.51,11.9-2.8,5.09-6.78,6.21-11.94,3.34l-22.56-12.41c-5.16-2.86-6.35-6.81-3.54-11.9,2.8-5.09,6.81-6.21,11.98-3.38l22.56,12.41v.03ZM350.94,284.77c-1.68-.92-2.93-.59-3.78.92-.86,1.58-.43,2.8,1.22,3.72l22.56,12.41c1.68.92,2.93.59,3.78-.92.85-1.55.46-2.8-1.22-3.72l-22.56-12.41Z" />
      <path class="cls-9"
        d="M356.99,266.43l-5.74-1.7,5.14-17.18,4.12,1.24,33.78,18.91-1.78,5.96-32.29-18.06-3.23,10.86v-.03Z" />
      <path class="cls-3"
        d="M129.6,263.61c.62-.05,1.28-.04,1.89.11.62.14,1.17.52,1.35.98.15.46-.06.94-.39,1.36-.77.99-2.03,1.71-3.48,2.07-1.45.36-2.98.39-4.45.16-1.63-.23-4.7-1.78-2.64-3.13,1.83-1.2,5.43-1.44,7.72-1.55Z" />
      <path class="cls-3"
        d="M134.32,271.59c.49-.18,1.02-.4,1.58-.39.56.01,1.14.19,1.42.65.41.63.16,1.44-.18,2.08-1.23,2.35-3.62,4.06-6.28,4.46-1.21.17-2.58.07-3.51-.8-.7-.67-1.2-1.82-.59-2.69.71-1.03,2.39-1.35,3.47-1.78,1.35-.52,2.7-1.01,4.09-1.54Z" />
      <path class="cls-9"
        d="M273.22,114.49c1.76.17,1.39,4.9,1.26,6.3-1.25,12.8-7.29,25.33-17.14,33.88,7.35-2.7,15.33-4.18,23.09-3.38,1.4.13,2.84.36,4.2.65,5.11,1.1,10.19,3.28,14.33,6.54.61.47,1.19.98,1.76,1.51,1.18,1.1,5.72,5.52,5.12,7.4-.67,1.98-6.81,1.83-8.38,1.96-2.72.2-5.25.69-7.68,1.58-1.48.55-2.91,1.24-4.33,2.12-.93.57-1.83,1.2-2.6,1.96-4.42,4.3-2.16,8.4.33,12.28.73,1.13,1.42,2.29,2.08,3.44,10.95,19.52,12.76,44.21,4.52,65.01-6.32,16.01-18.41,29.73-33.57,37.93-1.69.91-3.6,1.71-5.61,2.25-5.41,2.13-11.98,3.73-19.17,3.53-.98-.02-1.76-.07-2.55-.16-2.09-.21-4.04-.58-8.51-1.05-1.6-.17-3.52-.34-5.87-.5-.59-.01-1.14-.09-1.7-.14.06.03.13.07.23.1-8.92-.21-17,1.59-25.91,3.7-9.43,2.26-18.79,5.34-27.76,8.91-17.42,6.94-38.42,13.07-57.79,11.11-3.39-.34-6.74-.94-10.02-1.83-13.06-3.54-24.53-11.71-33.81-21.56-10.49-11.12-21.51-26.36-24.88-41.55-1.57-7.06-.25-14.57,6.48-18.29.4-.22.79-.41,1.19-.56,2.41-1.02,5.06-1.15,7.73-.9,3,.3,6.02,1.15,8.91,1.94,7.01,1.93,14.3,3.47,21.6,4.2,12.06,1.23,24.18.31,35.24-4.53,3.1-1.36,6.49-3.5,8-6.64.96-2,.79-4.29,1.94-6.22.78-1.29,1.85-2.44,3.12-3.29.4-.28,3.5-1.68,3.42-2.11-.06-.36-.14-.95-.22-1.64-1.94-13.59.65-27.73,9.21-38.67,17.59-22.41,45.88-30.23,72.81-34.3,6.76-1.02,13.6-1.41,20.25-3.38,8.2-2.45,15.78-6.52,22.38-11.94,5.83-4.79,10.97-10.48,16.92-15.05.6-.48,1.09-.66,1.49-.62M274.42,103.65c-2.25-.22-5.69.06-9.25,2.82-3.73,2.88-7.04,5.97-10.21,8.97-2.41,2.26-4.68,4.4-7.01,6.33-5.53,4.57-11.79,7.92-18.54,9.91-3.85,1.15-8.11,1.67-12.64,2.22-1.97.25-4.03.49-6.1.8-17.25,2.6-30.74,6.1-42.49,10.98-15.81,6.58-28.02,15.54-37.28,27.37-8.9,11.35-13.06,26.01-11.99,41.7-1.7,1.49-3.18,3.22-4.3,5.15-1.57,2.64-2.08,5.11-2.41,6.73,0,.1-.04.19-.07.29-.37.32-1.13.86-2.45,1.41-8.22,3.59-18.25,4.83-29.73,3.64-6.13-.63-12.64-1.9-19.82-3.86-3.18-.89-6.82-1.86-10.7-2.27-4.89-.51-9.15.05-13.05,1.68-.79.34-1.59.71-2.31,1.12-10.17,5.64-14.69,17.22-11.82,30.18,1.83,8.24,5.58,16.91,11.19,25.79,4.47,7.09,10,14.14,16.41,20.92,11.64,12.35,25.1,20.86,38.91,24.61,3.77,1,7.71,1.75,11.78,2.17,17.77,1.82,38.35-2.07,62.93-11.81,9.01-3.58,17.83-6.4,26.28-8.43,8.45-2.02,15.54-3.55,23.12-3.41l1.4.03c1.83.14,3.49.28,5.02.45,2.48.25,4.07.45,5.48.65,1.04.15,1.99.27,3.03.36,1.11.12,2.18.18,3.33.21,4.21.1,8.47-.26,12.77-1.1l7.7-2.07c.86-.27,1.68-.58,2.54-.92,2.57-.76,5.04-1.77,7.36-3.03,8.67-4.69,16.43-10.88,23.08-18.39,6.61-7.48,11.81-15.95,15.43-25.1,4.62-11.71,6.56-24.76,5.66-37.77-.91-12.95-4.66-25.57-10.81-36.59-.72-1.29-1.48-2.55-2.26-3.81.36-.15.69-.31,1.06-.43,1.35-.49,2.83-.82,4.69-.93.16,0,.36,0,.59-.02,1.34-.07,3.6-.14,5.83-.52,7.88-1.38,10.6-6.12,11.52-8.84,2.32-6.9-2.29-12.49-3.78-14.35-1.59-1.93-3.31-3.64-4.21-4.47-.77-.74-1.6-1.44-2.47-2.11-5.26-4.17-11.76-7.16-18.82-8.67-1.76-.37-3.58-.67-5.41-.85-.29,0-.55-.05-.85-.09,2.46-5.85,4.04-12.08,4.68-18.5.21-2.02.22-3.91.13-5.55-.68-8.6-6.42-12.2-11.14-12.67v.03Z" />
      <path class="cls-6"
        d="M300.69,159.99c1.18,1.11,5.72,5.52,5.12,7.4-.67,1.98-6.81,1.83-8.38,1.96-2.72.2-5.24.69-7.68,1.58l-.43-1.12c2.08-.8,4.42-1.92,6.96-3.95,2.2-1.78,3.97-3.24,3.74-4.91-.08-.79-.62-1.48-1.42-2.06l.3-.42c.61.47,1.19.97,1.76,1.51h.03Z" />
      <path class="cls-6"
        d="M300.01,160.96c.19,1.67-1.54,3.13-3.74,4.91-2.57,2.06-4.88,3.15-6.96,3.95-3.73,1.41-6.71,1.87-9.01,4.98-.2.29-2.57,3.6-1.97,7.53.65,4.39,4.97,6.74,5.7,7.9.19.3.35.6.54.89,5.58,10.02,7.97,32.12,6.2,44.9-1.77,12.72-5.15,36.93-25.63,51.86-1.73,1.27-7.05,5.16-14.57,8.08-2.83.78-5.81,1.1-8.51.62,3.04-1.23,5.24-3.14,7.64-5.37,2.74-2.51,5.19-5.3,7.8-7.95,25.38-25.95,32.25-65.19,17.37-98.28-1.24-2.77-2.64-5.78-1.89-8.7.43-1.65,1.54-3.06,2.72-4.31,4.16-4.41,9.72-7.44,15.66-8.64-.71-2.95-4.01-4.37-6.97-5.12-9.39-2.41-19.3-2.35-28.7-.09l-.05-.82c1.12-.5,2.87-1.24,5.08-1.94,10.63-3.28,19.65-1.53,26.06-.21,4.36.92,9.4,1.95,11.84,3.74.8.61,1.31,1.27,1.42,2.06h-.03Z" />
      <path class="cls-6"
        d="M285.19,190.74c10.95,19.52,12.76,44.21,4.52,65.01-6.32,16.01-18.41,29.73-33.57,37.93-1.69.91-3.6,1.71-5.61,2.25,7.52-2.93,12.84-6.82,14.57-8.08,20.48-14.93,23.86-39.14,25.63-51.86,1.77-12.79-.62-34.88-6.2-44.9l.66-.38v.03Z" />
      <path class="cls-6"
        d="M298.92,158.48l-.3.42c-2.41-1.79-7.48-2.85-11.84-3.74-6.41-1.33-15.42-3.1-26.06.2-2.2.67-3.95,1.41-5.08,1.94-.04-.88.07-1.57.21-2.02,0,0,.04-.16.28-.71l1.21.13c8.7-3.19,18.22-4.67,27.29-2.72,5.11,1.1,10.19,3.27,14.33,6.54l-.03-.03Z" />
      <path class="cls-6"
        d="M289.31,169.81l.43,1.12c-1.48.55-2.9,1.24-4.36,2.12-.93.57-1.79,1.2-2.6,1.96-4.42,4.3-2.16,8.37.33,12.28.73,1.13,1.42,2.29,2.08,3.44l-.66.38c-.16-.3-.35-.6-.53-.89-.72-1.16-5.05-3.51-5.7-7.9-.6-3.93,1.77-7.24,1.97-7.53,2.3-3.11,5.28-3.57,9.01-4.98h.03Z" />
      <path class="cls-6"
        d="M284.39,158.17c2.96.76,6.26,2.17,6.97,5.13-5.94,1.2-11.47,4.24-15.66,8.64-1.17,1.24-2.28,2.66-2.71,4.31-.76,2.92.64,5.92,1.89,8.7,14.88,33.09,8.01,72.37-17.37,98.28-2.61,2.65-5.06,5.43-7.8,7.95-2.41,2.23-4.61,4.13-7.64,5.37,2.7.45,5.68.13,8.51-.62-5.41,2.12-11.99,3.73-19.17,3.53-4.44-.1-5.47-.85-16.92-1.74-.59-.01-1.14-.09-1.7-.14-9.81-5.19-21.5-4.55-32.57-2.2,3.15-2.15,6-4.79,8.45-7.83,5.96-7.4,9.32-16.98,8.89-26.66-.32-7.12-5.3-12.37-12.24-12.1-6.54.24-15.29,4.05-20.86-1.24,0,.23,0,.43-.02.65-1.49-.69-2.88-1.34-3.71-1.92-2.38-1.56-3.3-2.62-4.42-7.87.44.57.92,1.1,1.43,1.63.45.43,1.06.87,1.62.59.5-.25.58-.9.53-1.46-.15-1.83-1.06-3.49-1.91-5.07-1.57-2.88-3.16-5.82-5.63-7.97-1.73-1.51-3.83-2.57-5.93-3.53-1.75-.79-3.53-1.58-5.41-1.92-.65-.11-1.34-.19-1.99-.18-.93-7.86.08-15.83,2.74-23.34,6.2-17.52,19.26-26.64,23.77-29.71,17.74-12.02,39.1-11.46,59.48-15.19,14.64-2.69,29.5-7.8,39.66-18.66-1.04,1.09-1.64,4.47-2.23,5.86-.97,2.26-1.97,4.49-3.07,6.69-1.1,2.19-2.23,4.36-3.45,6.51-1.23,2.16-2.49,4.22-3.81,6.31,1.22-.36,2.43-.69,3.65-.99,9.4-2.26,19.31-2.32,28.7.09l-.07.1ZM233.1,260.1c12.46-4.41,26.3-17.44,22.84-31.88-.78-3.18-2.28-5.93-4.46-7.94.51-.93,1.02-1.87,1.57-2.8.31-.51.85-1.42.64-2.04-.74-2.04-3.21,1.62-3.65,2.13-.27.35-.54.67-.81,1.03-1.64-.95-3.52-1.58-5.64-1.83-.46-.04-.88-.09-1.34-.1.41-.9.83-1.78,1.24-2.68.41-.9,1.23-2.42.87-3.47-1.16-3.36-4.71,2.93-5.32,3.86-.61.9-1.19,1.83-1.76,2.73-1.74.38-3.42.93-5.07,1.61-9.14,3.87-18.52,10.67-23.66,19.26-2.48,4.15-3.61,8.79-1.79,13.64,3.84,10.34,17.38,11.57,26.34,8.42v.07ZM201.44,216.33c1.73-.12,8.44-.29,8.21-3.17-.15-1.93-6-3.37-7.53-3.7-2.89-.59-5.9-.56-8.79.02-10.05,2.12-21.06,15.7-14.76,26,1.51,2.45,3.03.53,3.98-1.21.38-.65.75-1.29,1.16-1.9,2.1-3.15,5.14-5.82,8.85-6.78,3.85-.99,8.67,1.02,11.94-.47.6-.28.78-1.06.4-1.59-.89-1.2-2.82-2.22-3.92-2.77-.36-.17-2.07-.96-3.56-1.52-.88-.35-.91-1.56-.05-1.96,1.19-.56,2.5-.82,4.04-.95h.03ZM188.89,203.6c.66-.41,1.36-.95,1.45-1.73.05-.88-.75-1.55-1.56-1.93-1.91-.86-4.13-.78-6.14-.27-2.3.6-4.39,1.79-6.13,3.42-3.41,3.15-4.65,7.24-5.08,11.7-.13,1.34.79,3.94,2.57,3.13,1.85-.8,3.11-4.37,4.29-5.91,2.73-3.62,6.81-5.95,10.62-8.37l-.03-.03Z" />
      <path class="cls-6"
        d="M274.48,120.79c-1.25,12.8-7.29,25.32-17.14,33.88l-1.21-.13c.14-.29.34-.71.62-1.29.04-.1.1-.23.17-.32,10.61-14.9,12.41-21.91,12.41-21.91.65-2.6.9-4.75,1.02-5.98-4.09,2.94-9.83,6.79-16.99,10.86-10.43,5.96-17.13,9.78-26.5,12.34-9.11,2.5-8.57.45-26.82,3.78-12.18,2.23-17.88,4.12-20.02,4.88-5.87,2.05-11.57,4.01-17.94,8.33-10.89,7.35-16.47,16.52-18.78,20.45-1.33,2.25-6.44,11.18-8.1,23.58-.91,6.77-.24,10.18.7,12-.2.06-.36.15-.53.25-.89.47-1.66,1.14-2.2,1.97-.41.61-1.36,2.38-.38,2.37.46.01,1.12-.43,1.58-.52-3.35,2.11-5.73,5.84-6.01,9.78-.56.22-1.06.5-1.4.95l.61-1.1c-.64.77-1.31,1.57-1.56,2.51-.25.94-.02,2.09.88,2.76.55.4,1.26.58,1.98.67.07,1.08-.02,2.12-.43,3.12-1.04,2.49-3.88,3.7-6.45,4.55-13.47,4.35-27.79,5.68-41.88,4.6-6.92-.52-13.75-1.6-20.48-3.22-3.64-.87-15.81-7.19-15.16-.29,3.45,35.24,34.89,63.63,70.51,62.54,14.82-.47,28.93-5.75,43.09-10.42,0,0,.13,0,.23,0,.49.01.98.02,1.47.03,3.56.08,7.1-.49,10.49-1.52-.75,1.29-1.1,2.42-.66,3.05,1.36,1.89,8.62-3.91,20.96-6.01,5.48-.92,11.26-.55,22.28.29.07.04.13.07.23.1-8.92-.21-17,1.59-25.91,3.7-9.43,2.26-18.79,5.34-27.76,8.91-20.49,8.14-45.92,15.21-67.84,9.28-13.06-3.54-24.53-11.71-33.81-21.56-10.49-11.12-21.51-26.36-24.88-41.55-1.57-7.05-.25-14.57,6.48-18.29.4-.22.79-.4,1.19-.56,5.12-2.13,11.19-.46,16.65,1.04,18.64,5.11,39.15,7.42,56.85-.3,3.1-1.36,6.49-3.5,8-6.63.96-2,.79-4.29,1.94-6.22.78-1.29,1.85-2.44,3.12-3.29.4-.29,3.5-1.68,3.42-2.11-.06-.36-.14-.95-.22-1.64-1.94-13.59.65-27.73,9.21-38.66,17.59-22.41,45.88-30.23,72.81-34.3,6.76-1.02,13.6-1.41,20.25-3.38,8.2-2.45,15.78-6.52,22.38-11.95,5.83-4.79,10.97-10.48,16.92-15.04,3.43-2.63,2.91,3.95,2.74,5.68l-.1-.1Z" />
      <path class="cls-6"
        d="M270.32,125c-.1,1.24-.34,3.39-1.02,5.98,0,0-1.8,7.01-12.41,21.91-.07.13-.1.23-.17.32l-.87-.45c1.23-2.13,2.36-4.32,3.45-6.51,1.1-2.19,2.1-4.42,3.07-6.69.59-1.39,1.19-4.77,2.23-5.86-10.16,10.86-25.02,16-39.66,18.66-20.35,3.73-41.72,3.2-59.48,15.19-4.52,3.06-17.61,12.19-23.77,29.71-2.66,7.48-3.63,15.45-2.74,23.34-1.08,0-2.13.18-3.09.58-.91-1.82-1.61-5.2-.7-12,1.66-12.4,6.77-21.29,8.1-23.58,2.31-3.9,7.86-13.07,18.78-20.45,6.38-4.32,12.08-6.28,17.94-8.33,2.14-.73,7.84-2.66,20.02-4.88,18.25-3.33,17.71-1.28,26.83-3.78,9.34-2.56,16.04-6.38,26.5-12.34,7.16-4.08,12.9-7.96,16.99-10.86v.03Z" />
      <path class="cls-6"
        d="M255.94,228.22c3.45,14.45-10.42,27.47-22.84,31.88-8.96,3.15-22.47,1.92-26.34-8.42-1.82-4.84-.66-9.48,1.79-13.64,5.14-8.63,14.51-15.43,23.66-19.26,1.62-.68,3.33-1.26,5.07-1.61-.68,1.13-1.36,2.25-2.01,3.41,0,0-.03.06-.04.1-.92.21-1.81.51-2.67.85-2.7,1.05-5.13,2.56-7.36,4.4-6.1,5.01-16.78,17.27-9.65,25.27,3.02,3.4,8.13,3,12.2,2.31,5.05-.86,10.26-2.57,14.73-5.01.66-.34,1.29-.75,1.92-1.16.33-.22.63-.41.96-.63.46-.32.93-.66,1.4-1.04.3-.25.6-.48.9-.76.73-.63,1.4-1.34,2.04-2.04.27-.29.5-.58.74-.9,1.82-2.34,3.03-5.02,3.13-8.05,0-.33.14-6.13-4.04-10.12.68-1.16,1.33-2.32,2.01-3.48,2.18,2.01,3.68,4.76,4.46,7.94l-.06-.03Z" />
      <path class="cls-6"
        d="M253.52,233.87c-.1,3.03-1.31,5.71-3.13,8.06-.24.29-.47.61-.74.9-.64.74-1.31,1.4-2.04,2.04-.3.25-.6.51-.9.76-.47.35-.9.7-1.4,1.05-.3.22-.63.44-.96.63-.63.41-1.29.79-1.92,1.16-4.5,2.47-9.71,4.18-14.73,5.01-4.07.69-9.18,1.09-12.2-2.31-7.13-8,3.58-20.25,9.65-25.27,2.2-1.81,4.65-3.35,7.36-4.4.86-.34,1.78-.61,2.67-.85-2.29,4.12-4.12,8.55-4.86,13.34-.08.49-.15.98-.2,1.46-.25,2.25,1.26,2.09,2.24.51,3.06-5.09,5.7-10.41,8.25-15.84,2.19.12,4.33.66,6.27,1.78-1.39,2.22-2.53,4.58-3.01,7.14-.04.29-.11.58-.15.88-.19,1.33.82,1.29,1.5.39,1.52-2.09,2.91-4.27,4.2-6.5,4.16,3.98,4.05,9.79,4.04,10.12l.07-.06Z" />
      <path class="cls-6"
        d="M253.66,215.43c.21.62-.33,1.53-.64,2.04-.51.93-1.02,1.87-1.57,2.8-.67-.64-1.44-1.21-2.25-1.68.27-.35.54-.67.81-1.03.4-.55,2.91-4.18,3.65-2.13Z" />
      <path class="cls-6" d="M250.39,241.9c-.23.29-.47.61-.74.9.27-.29.5-.58.74-.9Z" />
      <path class="cls-6"
        d="M251.49,220.28c-.65,1.16-1.33,2.32-2.01,3.48-.19-.17-.38-.37-.58-.54-.64-.54-1.28-.98-1.96-1.35.17-.26.31-.48.48-.74.58-.87,1.18-1.7,1.82-2.54.81.48,1.58,1.05,2.25,1.68Z" />
      <path class="cls-6"
        d="M255.85,152.77l.87.45c-.27.58-.48,1-.62,1.29-.24.52-.28.71-.28.71-.14.45-.26,1.1-.21,2.02l.05.82c-1.22.3-2.43.63-3.65.99,1.32-2.06,2.61-4.15,3.81-6.31l.03.03Z" />
      <path class="cls-6"
        d="M249.48,223.76c-1.33,2.22-2.69,4.41-4.21,6.5-.67.9-1.69.97-1.49-.39.04-.29.08-.59.15-.88.52-2.57,1.62-4.92,3.01-7.14.68.38,1.35.85,1.96,1.35.19.17.38.33.58.54v.03Z" />
      <path class="cls-6" d="M246.74,245.6c.3-.25.6-.48.9-.76-.3.25-.6.51-.9.76Z" />
      <path class="cls-6"
        d="M249.24,218.59c-.64.83-1.25,1.67-1.82,2.54-.17.26-.31.48-.48.74-1.93-1.09-4.08-1.66-6.27-1.78.55-1.13,1.07-2.29,1.58-3.42.46.01.88.02,1.34.1,2.12.25,4,.88,5.64,1.83Z" />
      <path class="cls-6" d="M244.41,247.27c.33-.22.63-.41.96-.63-.33.22-.63.44-.96.63Z" />
      <path class="cls-6"
        d="M244.36,210.55c.37,1.02-.45,2.57-.87,3.47-.41.9-.83,1.78-1.24,2.68-1.67-.04-3.34.12-4.98.47.58-.93,1.15-1.83,1.76-2.73.61-.93,4.19-7.18,5.32-3.86v-.03Z" />
      <path class="cls-6"
        d="M242.25,216.67c-.52,1.13-1.07,2.29-1.58,3.42-1.8-.11-3.63.11-5.44.53,0,0,.03-.07.03-.1.65-1.16,1.3-2.29,2.01-3.41,1.64-.35,3.31-.51,4.98-.47v.03Z" />
      <path class="cls-6"
        d="M240.67,220.09c-2.55,5.39-5.19,10.75-8.25,15.84-.95,1.58-2.46,1.74-2.24-.51.04-.49.12-.98.2-1.46.73-4.75,2.6-9.21,4.86-13.34,1.81-.45,3.64-.63,5.44-.53Z" />
      <path class="cls-6"
        d="M209.65,213.13c.19,2.88-6.48,3.05-8.21,3.17-1.54.13-2.85.39-4.04.95-.86.4-.82,1.61.05,1.96,1.49.59,3.24,1.35,3.56,1.52,1.1.55,3,1.57,3.92,2.77.41.53.23,1.31-.4,1.59-3.27,1.52-8.13-.52-11.94.47-3.72.99-6.75,3.66-8.85,6.78-.41.61-.81,1.25-1.16,1.9-.96,1.74-2.47,3.66-3.98,1.21-6.3-10.27,4.71-23.88,14.76-26,2.89-.62,5.9-.61,8.79-.02,1.53.33,7.41,1.77,7.53,3.7h-.03Z" />
      <path class="cls-6"
        d="M180.17,295.46c11.07-2.35,22.75-2.99,32.57,2.2-11.03-.81-16.81-1.21-22.29-.29-12.34,2.06-19.6,7.9-20.96,6.01-.44-.6-.09-1.77.66-3.05,3.52-1.09,6.9-2.74,9.99-4.86h.03Z" />
      <path class="cls-6"
        d="M197.52,260.96c.43,9.67-2.93,19.23-8.89,26.66-2.43,3.04-5.3,5.69-8.45,7.83-2.66.56-5.29,1.21-7.86,1.94.54-.61,1.11-1.21,1.64-1.69,2.44-2.29,4.78-3.25,6.1-3.84,6.98-3.33,10.8-10.26,12.3-12.97,4.81-8.7,5.88-22.29-.12-26.84-2.7-2.02-7.22-1.67-10.85-1.49-3.27.15-6.54-.09-9.78.23-.36.02-1.47.16-2.8-.29-.58-.21-1-.45-1.16-.52-1.03-.58-2.16-1.13-3.23-1.64,0-.23,0-.42.01-.65,5.56,5.26,14.31,1.48,20.86,1.24,6.94-.26,11.91,4.98,12.24,12.11v-.07Z" />
      <path class="cls-6"
        d="M192.27,252.03c6,4.55,4.9,18.14.12,26.84-1.5,2.71-5.32,9.64-12.3,12.97-1.29.62-3.63,1.55-6.1,3.84-.53.51-1.1,1.08-1.64,1.69-.79.21-1.55.42-2.34.66,2.38-1.38,4.49-3.16,6.65-4.97,1.13-.92,3.07-2.57,5.38-4.97,3.99-4.15,7.64-7.92,9.62-13.16,1.43-3.72,3.47-12.88-.14-17.63-5.49-7.18-14.14-1.93-21.33-3.37-2.34-.48-5.68-2.94-5.82-5.69,1.1.51,2.23,1.06,3.23,1.64.16.1.58.34,1.16.52,1.33.46,2.48.32,2.8.29,3.24-.32,6.54-.07,9.78-.23,3.6-.18,8.15-.53,10.85,1.49l.06.07Z" />
      <path class="cls-6"
        d="M158.02,301.76c-14.17,4.7-28.25,9.98-43.1,10.41-35.65,1.09-67.05-27.33-70.51-62.54-.69-6.9,11.52-.61,15.16.29,6.73,1.59,13.6,2.7,20.48,3.22,14.1,1.05,28.41-.25,41.88-4.6,2.57-.85,5.41-2.03,6.45-4.55.42-1,.51-2.04.43-3.12.16,0,.36.04.52.08,9.22,1.16,18.32,3.7,26.79,7.48.27-1.82-.47-3.8-1.7-5.39s-2.97-2.88-4.81-3.97c-5.58-3.3-12.34-4.92-18.79-4.46-.85.08-1.77.19-2.53.46.29-3.94,2.66-7.67,6.01-9.78.56-.12,1.12-.17,1.67-.16,1.18,0,2.32.19,3.45.44,5.07,1.23,9.71,4.08,13.08,8.08,1.3,1.57,2.44,3.26,3.71,4.85,1.12,5.25,2.04,6.32,4.42,7.87.87.57,2.23,1.2,3.71,1.92.13,2.71,3.47,5.21,5.82,5.69,7.19,1.44,15.84-3.81,21.33,3.37,3.61,4.72,1.57,13.91.14,17.63-2.02,5.24-5.64,9.01-9.62,13.16-2.35,2.43-4.28,4.05-5.38,4.97-2.17,1.81-4.3,3.55-6.65,4.97-1.74.51-3.46,1.03-5.1,1.51-2.31.7-4.61,1.46-6.88,2.22v-.07ZM184.48,271.72c1.65-10.31-12.18-11.48-19.25-11-.36.02-.72.05-1.02.27-1.6,1.14,2.5,3.71,3.2,4.29.61.47,1.22.91,1.87,1.28.87.54,1.74.95,2.58,1.6.23.17.42.4.51.7.06.13.06.29-.01.46-.07.23-.27.39-.44.58-5.85,5.38-12.3,10.12-19.03,14.34-7,4.41-14.38,8.28-21.91,11.7-4.26,1.92-8.59,3.75-12.91,5.57-2.21.93-4.39,1.86-6.57,2.78-.59.25-4.71,1.59-4.3,2.38.09.2.32.27.52.34,1.27.36,2.51.12,3.76-.01,1.97-.21,4-.46,5.87-.84,3.48-.7,6.97-1.76,10.33-2.76,6.98-2.12,13.96-4.31,20.79-6.92,8.9-3.42,17.34-7.66,25.34-12.86,4.18-2.71,9.86-6.46,10.7-11.83v-.07ZM74.76,269.15c.41-.68.72-1.52.38-2.18-.28-.5-.87-.77-1.45-.82-.59-.05-1.15.14-1.71.29-1.48.42-2.93.85-4.41,1.27-1.18.33-2.99.55-3.8,1.58-.71.86-.28,2.12.42,2.88.89,1.03,2.36,1.23,3.6,1.13,2.82-.2,5.47-1.8,6.96-4.18v.03ZM70.48,260.46c.37-.42.64-.9.52-1.39-.15-.52-.7-.93-1.31-1.14-.62-.21-1.3-.26-1.99-.27-2.42-.06-6.24-.11-8.23,1.01-2.28,1.25.84,3.12,2.53,3.52,1.53.33,3.16.47,4.7.18,1.51-.26,2.93-.91,3.84-1.9h-.07Z" />
      <path class="cls-6"
        d="M165.23,260.73c7.07-.49,20.9.72,19.25,11-.84,5.33-6.52,9.09-10.7,11.83-8,5.2-16.43,9.44-25.34,12.86-6.83,2.61-13.78,4.8-20.79,6.92-3.36,1-6.85,2.06-10.33,2.76-1.87.38-3.9.63-5.87.84-1.24.13-2.53.36-3.76.01-.19-.07-.42-.14-.51-.34-.41-.79,3.71-2.13,4.3-2.38,2.18-.93,4.39-1.86,6.57-2.78,4.32-1.82,8.65-3.62,12.91-5.57,7.53-3.41,14.91-7.29,21.91-11.69,6.73-4.22,13.19-8.96,19.03-14.34.17-.16.37-.32.44-.58.04-.16,0-.29,0-.46-.09-.26-.28-.5-.51-.7-.83-.64-1.71-1.05-2.58-1.6-.64-.41-1.29-.85-1.86-1.28-.74-.57-4.8-3.15-3.2-4.29.3-.22.66-.24,1.02-.27v.07Z" />
      <path class="cls-6"
        d="M190.31,201.84c-.05.78-.78,1.32-1.45,1.73-3.82,2.46-7.89,4.74-10.62,8.37-1.18,1.54-2.44,5.1-4.29,5.91-1.78.81-2.7-1.79-2.57-3.13.43-4.46,1.67-8.55,5.08-11.7,1.74-1.59,3.82-2.82,6.13-3.42,2.04-.54,4.23-.59,6.14.28.81.35,1.61,1.05,1.56,1.93l.03.03Z" />
      <path class="cls-6"
        d="M180.17,295.46c-3.09,2.11-6.46,3.77-9.98,4.86.54-.97,1.32-1.99,2.13-2.92,2.57-.69,5.2-1.38,7.86-1.94Z" />
      <path class="cls-6"
        d="M172.31,297.39c-.81.96-1.58,1.99-2.13,2.92-3.39,1.06-6.9,1.6-10.5,1.52-.49-.01-.98-.02-1.47-.04,3.33.14,6.6-1.28,9.61-2.65.76-.34,1.46-.72,2.15-1.12.76-.21,1.55-.45,2.34-.66v.03Z" />
      <path class="cls-6"
        d="M170.01,298.02c-.7.41-1.39.78-2.15,1.12-3.01,1.36-6.28,2.76-9.61,2.65-.07,0-.13,0-.23,0,2.31-.76,4.58-1.49,6.88-2.22,1.65-.52,3.36-1.03,5.1-1.51v-.03Z" />
      <path class="cls-6"
        d="M159.82,239.25c.05.56-.03,1.21-.53,1.46-.56.28-1.17-.16-1.62-.59-.51-.5-.99-1.07-1.43-1.63-.09-.49-.21-.98-.32-1.54-.21-1.02-2.35-6.98-9.49-10.74-4.39-2.32-6.34-1.52-8.24-2.54.39-.09.79-.14,1.18-.2-.17-.95-.31-1.93-.42-2.88.65.01,1.34.03,1.99.18,1.89.34,3.67,1.1,5.41,1.92,2.1.96,4.17,2.02,5.93,3.53,2.47,2.15,4.07,5.09,5.63,7.97.88,1.62,1.75,3.27,1.91,5.07Z" />
      <path class="cls-6"
        d="M154.43,243.04c1.24,1.6,1.98,3.54,1.7,5.39-8.47-3.79-17.57-6.35-26.79-7.48-.16,0-.36-.04-.52-.08-.1-1.44-.42-2.95-.52-4.39-.02-.46,0-.95.03-1.4.76-.28,1.68-.42,2.53-.46,6.42-.47,13.21,1.16,18.79,4.46,1.84,1.09,3.54,2.37,4.81,3.96h-.03Z" />
      <path class="cls-6"
        d="M155.95,236.94c.12.56.2,1.08.32,1.54-1.27-1.57-2.41-3.29-3.71-4.85-3.37-3.96-8.01-6.85-13.08-8.08-1.14-.29-2.31-.45-3.45-.44-.55-.01-1.11.04-1.67.16,1.19-.75,2.48-1.31,3.86-1.61,1.9.99,3.85.22,8.24,2.54,7.13,3.76,9.28,9.68,9.49,10.74Z" />
      <path class="cls-6"
        d="M138.94,220.61c.11.98.25,1.93.42,2.88-.39.06-.79.11-1.18.2-.39-.21-.77-.48-1.16-.88-.35-.33-.8-.83-1.17-1.63.96-.4,2.04-.57,3.09-.58Z" />
      <path class="cls-6"
        d="M137.03,222.82c.42.4.77.67,1.16.88-1.38.29-2.7.85-3.86,1.61-.46.09-1.12.53-1.58.52-.98-.02-.02-1.76.38-2.37.54-.84,1.31-1.5,2.2-1.97.17-.09.33-.19.53-.25.37.79.82,1.26,1.17,1.63v-.03Z" />
      <path class="cls-6"
        d="M128.83,240.87c-.72-.08-1.43-.26-1.98-.67-.9-.64-1.13-1.82-.88-2.76.25-.94.92-1.74,1.56-2.51l-.61,1.1c.37-.42.87-.73,1.4-.95,0,.46-.02.95-.03,1.4.1,1.44.42,2.95.52,4.39h.03Z" />
      <path class="cls-3"
        d="M75.1,266.97c.38.69.03,1.54-.38,2.18-1.49,2.38-4.15,3.98-6.96,4.18-1.28.1-2.74-.13-3.6-1.13-.67-.77-1.13-2.02-.42-2.88.84-1.02,2.61-1.24,3.79-1.58,1.48-.42,2.93-.85,4.41-1.27.56-.15,1.12-.33,1.71-.29.59.05,1.17.29,1.45.82v-.03Z" />
      <path class="cls-3"
        d="M70.97,259.07c.12.49-.15,1.01-.52,1.39-.87.99-2.29,1.64-3.84,1.9-1.51.26-3.14.15-4.7-.18-1.69-.37-4.82-2.27-2.53-3.52,2.02-1.1,5.84-1.04,8.23-1.01.65.02,1.34.03,1.99.27.65.24,1.2.62,1.31,1.14h.07Z" />
      <path class="cls-3"
        d="M172.39,268.86c-.09-.26-.28-.5-.51-.7-.84-.64-1.71-1.05-2.58-1.6-.64-.41-1.29-.85-1.87-1.28-.74-.57-4.8-3.15-3.2-4.29.3-.22.66-.24,1.02-.27,7.07-.49,20.9.72,19.26,11-.84,5.33-6.52,9.09-10.7,11.83-8,5.2-16.43,9.44-25.34,12.86-6.83,2.61-13.81,4.8-20.79,6.92-3.33,1-6.85,2.06-10.33,2.76-1.87.38-3.9.63-5.87.84-1.28.13-2.53.36-3.76,0-.2-.07-.42-.14-.51-.34-.41-.79,3.71-2.13,4.3-2.38,2.18-.96,4.39-1.86,6.57-2.78,4.32-1.83,8.65-3.62,12.91-5.57,7.57-3.41,14.91-7.29,21.91-11.7,6.73-4.22,13.19-8.96,19.03-14.34.17-.16.37-.32.44-.54.04-.16.04-.29.01-.46v.03Z" />
      <path class="cls-2"
        d="M284.03,190.22c5.95,9.54,8.55,32.62,6.7,45.8-1.77,12.72-5.15,36.93-25.63,51.86-1.2.89-4.19,3.04-8.43,5.29-6.19,3.25-15.13,6.63-25.32,6.33-.26,0-.52-.01-.75-.02-3.85-.19-5.4-.88-16.14-1.68-12.14-.9-18.21-1.37-23.98-.4-12.34,2.06-19.6,7.9-20.96,6.01-.95-1.36,1.96-5.37,4.43-7.67,2.44-2.29,4.82-3.25,6.1-3.84,6.98-3.33,10.83-10.26,12.3-12.96,4.81-8.7,5.88-22.29-.12-26.84-2.67-2.02-7.22-1.67-10.82-1.49-3.27.15-6.53-.09-9.78.23-.36.02-1.47.16-2.84-.3-.58-.21-1-.42-1.16-.52-2.42-1.36-5.5-2.58-6.98-3.56-2.61-1.69-3.46-2.82-4.75-9.42-.21-1.02-2.35-6.98-9.49-10.73-5.3-2.77-7.04-1.08-9.43-3.39-1.18-1.14-3.18-3.93-1.87-13.59,1.66-12.4,6.77-21.29,8.1-23.58,2.32-3.93,7.86-13.07,18.78-20.45,6.38-4.32,12.08-6.31,17.94-8.33,2.14-.73,7.84-2.66,20.02-4.88,18.25-3.33,17.71-1.28,26.83-3.78,9.34-2.56,16.03-6.38,26.5-12.34,7.16-4.08,12.9-7.96,16.99-10.87-.09,1.24-.34,3.39-1.02,5.98,0,0-1.8,7.01-12.41,21.91-.89,1.84-1.07,2.33-1.07,2.33-.11.45-.26,1.14-.21,2.02,1.12-.5,2.87-1.24,5.08-1.94,10.63-3.28,19.65-1.53,26.05-.21,5.79,1.21,12.85,2.68,13.23,5.83.19,1.67-1.58,3.13-3.77,4.91-7.1,5.74-12.42,4.08-15.96,8.93-.2.29-2.57,3.6-1.97,7.53.65,4.39,4.97,6.74,5.7,7.9l.1-.06Z" />
      <path class="cls-7"
        d="M225.21,225.87c-6.1,5.01-16.78,17.27-9.65,25.27,3.03,3.4,8.13,3,12.2,2.31,5.05-.86,10.26-2.57,14.73-5.04,5.4-2.94,10.84-8.04,11.06-14.56,0-.33.16-6.66-4.62-10.62-4.65-3.86-10.96-3.85-16.37-1.76-2.7,1.01-5.13,2.56-7.36,4.4Z" />
      <path class="cls-14"
        d="M237.26,258.3c-6.3,1.03-12.93.87-18.41-2.26-1.64-.95-3.34-2.46-3.2-4.38,0-.13,0-.26.04-.36.26-1.33,1.43-2.38,2.72-2.94,1.39-.59,2.93-.72,4.4-.97,6.21-1.19,11.53-5.31,15.25-10.42,1.35-1.86,2.51-3.86,3.54-5.92.93-1.9,1.73-3.84,2.42-5.82.46-1.29.78-2.79,1.43-4.05.1-.19.24-.42.37-.61.74-1.12,1.83-1.46,2.94-1.37.68.05,1.4.26,2.08.57.23.1.49.21.71.34-.03.07-.07.13-.1.19,2.18,2.01,3.68,4.75,4.46,7.94,3.07,12.84-7.54,24.54-18.65,30.09v-.03Z" />
      <path class="cls-3"
        d="M230.34,233.95c.73-4.78,2.64-9.27,4.92-13.4,1.16-2.1,2.45-4.15,3.77-6.15.61-.93,4.19-7.18,5.32-3.86.37,1.05-.45,2.57-.87,3.47-3.48,7.46-6.89,14.92-11.1,21.91-.95,1.58-2.46,1.74-2.24-.51.04-.49.12-.98.2-1.46Z" />
      <path class="cls-3"
        d="M253.05,217.48c-.48.87-.96,1.74-1.47,2.61-.03.07-.07.13-.1.19-.65,1.16-1.33,2.32-2.01,3.48-1.33,2.22-2.69,4.41-4.21,6.5-.67.9-1.69.97-1.49-.39.04-.29.08-.59.15-.85.52-2.57,1.62-4.96,3.01-7.14.17-.26.31-.48.48-.74.44-.67.91-1.32,1.39-1.96.13-.19.3-.39.44-.58.27-.35.54-.67.81-1.03.44-.55,2.91-4.18,3.65-2.14.25.63-.33,1.53-.64,2.04Z" />
      <path class="cls-3"
        d="M255.94,228.22c-.78-3.18-2.28-5.93-4.46-7.94-.19-.17-.38-.37-.61-.54-.51-.44-1.06-.81-1.64-1.15-1.65-.95-3.53-1.58-5.65-1.83-.46-.04-.88-.09-1.34-.1-1.67-.04-3.34.12-4.98.47-1.74.35-3.42.93-5.07,1.61-9.14,3.87-18.52,10.67-23.66,19.26-2.48,4.15-3.61,8.8-1.79,13.64,3.84,10.34,17.38,11.57,26.34,8.42,1.38-.49,2.8-1.08,4.19-1.8,11.15-5.55,21.71-17.25,18.65-30.09v.03ZM251.98,239.52c-.17.32-.37.64-.58.97-.14.23-.27.42-.44.64-.13.19-.27.39-.44.58-.2.29-.4.55-.64.8-.2.22-.4.45-.6.7-.13.13-.27.29-.4.42-.2.22-.4.41-.64.6-1.54,1.47-3.27,2.7-5.02,3.74-.27.16-.5.28-.76.44-2.81,1.53-5.88,2.8-9.04,3.7-1.25.36-2.53.69-3.81.96-.62.12-1.28.26-1.9.35-4,.69-8.98,1.06-12.04-2.14-.06-.07-.1-.1-.16-.17-7.13-8,3.58-20.25,9.65-25.27,2.2-1.84,4.65-3.35,7.36-4.4.86-.34,1.78-.61,2.67-.85.39-.09.76-.18,1.15-.23.56-.12,1.12-.17,1.67-.22.2,0,.39-.02.56-.05.36-.02.75-.05,1.11-.04.29,0,.59.01.91.02,1.6.07,3.19.4,4.68.99.03,0,.1.04.13.07.1.04.23.1.32.14.32.14.61.28.9.45.07.03.13.07.19.1.68.38,1.35.85,1.96,1.35.19.17.38.34.58.54,4.15,3.98,4.05,9.79,4.04,10.12-.05,2.06-.65,3.93-1.57,5.68l.16.04Z" />
      <path class="cls-3"
        d="M158.02,301.79s-.07,0-.1,0c3.43.24,6.83-1.21,9.93-2.61,3.3-1.49,6-3.74,8.8-6.06,1.13-.92,3.07-2.57,5.38-4.97,3.99-4.15,7.64-7.92,9.62-13.16,1.43-3.72,3.47-12.88-.14-17.63-5.49-7.18-14.14-1.93-21.33-3.37-2.54-.52-6.23-3.35-5.8-6.31,5.56,5.26,14.31,1.48,20.86,1.24,6.93-.26,11.91,4.98,12.23,12.1.43,9.67-2.93,19.23-8.89,26.66-7.14,8.88-17.82,14.4-28.93,14.24-.55-.01-1.11-.03-1.67-.04l.04-.1Z" />
      <path class="cls-3"
        d="M40.42,237.66c5.12-2.13,11.19-.46,16.64,1.04,18.64,5.14,39.15,7.42,56.85-.3,3.1-1.36,6.49-3.5,8-6.63.96-2,.79-4.29,1.94-6.22.78-1.29,1.85-2.44,3.12-3.29.4-.28,3.5-1.68,3.42-2.11-.06-.36-.14-.95-.22-1.64-1.94-13.59.65-27.73,9.21-38.66,17.59-22.41,45.88-30.23,72.81-34.3,6.76-1.02,13.6-1.41,20.25-3.38,8.2-2.45,15.78-6.52,22.38-11.95,5.83-4.79,10.97-10.48,16.92-15.04,3.43-2.63,2.91,3.99,2.74,5.68-1.25,12.8-7.29,25.32-17.14,33.88,8.7-3.19,18.25-4.67,27.29-2.72,5.85,1.25,11.68,3.93,16.09,8.05,1.18,1.1,5.72,5.52,5.12,7.4-.67,1.98-6.81,1.83-8.38,1.96-4.35.32-8.17,1.34-12.05,3.73-.93.57-1.79,1.2-2.6,1.96-4.42,4.3-2.16,8.37.33,12.28,12.74,20.02,15.32,46.39,6.6,68.45-6.32,16.01-18.41,29.73-33.58,37.93-4.07,2.22-9.53,3.69-14.12,2.9,3.04-1.23,5.24-3.14,7.64-5.37,2.71-2.51,5.19-5.3,7.8-7.95,25.38-25.91,32.29-65.19,17.37-98.28-1.24-2.77-2.64-5.77-1.89-8.7.43-1.65,1.54-3.07,2.72-4.31,4.16-4.41,9.72-7.44,15.66-8.64-.72-2.95-4.02-4.37-6.97-5.12-10.62-2.73-21.88-2.31-32.35.91,2.68-4.12,5.1-8.4,7.26-12.79,1.1-2.19,2.1-4.42,3.07-6.69.59-1.39,1.19-4.77,2.23-5.86-10.16,10.86-25.02,16-39.66,18.66-20.35,3.73-41.72,3.2-59.48,15.19-4.52,3.06-17.61,12.19-23.77,29.71-2.98,8.42-3.84,17.41-2.32,26.23-6.26.64-11.43,6.72-11.06,12.96.14,2.52,1.06,5.18.09,7.51-1.04,2.49-3.88,3.7-6.45,4.52-13.47,4.35-27.78,5.68-41.88,4.6-6.92-.52-13.76-1.6-20.48-3.22-3.64-.87-15.81-7.19-15.16-.26,3.46,35.24,34.89,63.66,70.5,62.54,17.24-.54,33.48-7.57,49.98-12.64,14.75-4.52,33.5-9.63,48.06-1.81-8.92-.21-17,1.59-25.91,3.7-9.43,2.26-18.79,5.34-27.76,8.91-20.49,8.14-45.92,15.21-67.84,9.28-13.06-3.54-24.53-11.71-33.81-21.56-10.49-11.12-21.51-26.36-24.85-41.55-1.57-7.06-.25-14.57,6.48-18.29.4-.22.79-.41,1.19-.56l-.03-.13Z" />
      <path class="cls-11"
        d="M277.21,186.9c15.85,35.04,8.53,76.66-18.46,104.1-.7.7-1.41,1.44-2.08,2.17-6.19,3.25-15.13,6.63-25.32,6.33-.26,0-.52-.01-.75-.02-3.55-2.08-7.13-5.36-6.82-9.04.5-5.8,5.04-11.44,8.99-15.39,4.85-4.88,10.64-8.99,15.81-13.63,21.04-18.96,30.05-46.66,23.57-72.57-2.18-8.74-5.88-18.35-.6-25.87,1.76-2.54,4.32-4.44,7.27-6,2.87.3,5.73.82,8.53,1.54,3.12.79,6.65,2.31,7.42,5.43-6.3,1.26-12.2,4.48-16.62,9.14-1.27,1.31-2.42,2.82-2.89,4.57-.82,3.11.67,6.28,2.01,9.22l-.07.03Z" />
      <path class="cls-8"
        d="M152.23,210.05c-.38,2.41-.08,10.45-.69,15.56-.28,2.34-.75,4.1-1.54,4.4-.3.12-.63.21-.95.24-2.25-1.78-4.8-3.15-7.49-4.09-.86-.84-1.69-1.74-2.49-2.64.1,0,.2-.03.29-.03-.17-.95-.31-1.93-.42-2.88-.93-7.86.08-15.83,2.74-23.34,6.16-17.52,19.26-26.64,23.77-29.71,3.72-2.52,7.59-4.46,11.58-6.03-3.39,3.58-6.38,7.03-6.98,7.77-9.26,11.76-15.48,25.95-17.82,40.72v.03Z" />
      <path class="cls-13"
        d="M94.28,253.38c-.11.45-.35.91-.59,1.29-2.34,3.77-7.15,5.25-11.56,5.18-4.41-.07-8.73-1.38-13.13-1.88-4.4-.53-9.22-.09-12.58,2.77-1.3,1.11-2.31,2.52-3.74,3.41-1.46.91-3.2,1.17-4.86.87-1.72-4.9-2.87-10.06-3.4-15.36-.69-6.9,11.52-.58,15.13.29,6.73,1.59,13.6,2.7,20.48,3.22,4.73.34,9.47.45,14.21.24l.03-.03Z" />
      <path class="cls-3"
        d="M159.57,241.37c-.56.28-1.45-.82-1.87-1.25-1.95-1.97-3.36-4.36-5.14-6.45-1.05-1.23-2.23-2.37-3.52-3.38-2.25-1.78-4.8-3.15-7.49-4.09-.68-.24-1.4-.42-2.08-.6-1.14-.26-2.31-.45-3.46-.44-.56-.01-1.11.04-1.67.16-.46.09-1.12.53-1.58.52-.98-.02-.02-1.76.38-2.37.54-.84,1.31-1.5,2.2-1.97,1.12-.59,2.37-.83,3.62-.86.69.02,1.34.03,1.99.18,1.89.34,3.67,1.1,5.41,1.92,1.81.83,3.59,1.72,5.19,2.93.26.2.48.4.74.61,2.47,2.15,4.07,5.09,5.63,7.97.88,1.62,1.75,3.27,1.91,5.07.05.56.22,1.87-.28,2.08Z" />
      <path class="cls-3"
        d="M126.91,236.03c.84-1.03,2.45-1.31,3.96-1.41,6.42-.47,13.21,1.16,18.79,4.46,1.84,1.09,3.57,2.37,4.81,3.96,1.24,1.6,1.98,3.54,1.7,5.39-8.48-3.79-17.57-6.32-26.79-7.48-.88-.12-1.83-.24-2.5-.74-.9-.64-1.17-1.82-.88-2.76.28-.94.92-1.74,1.56-2.51" />
      <path class="cls-3"
        d="M183.71,232.37c2.1-3.15,5.14-5.82,8.85-6.78,3.72-.96,8.67,1.02,11.94-.47.6-.28.78-1.06.4-1.59-.92-1.2-2.82-2.22-3.92-2.77-.32-.17-2.07-.96-3.56-1.52-.88-.35-.91-1.56-.05-1.96,1.19-.56,2.5-.82,4.04-.95,1.73-.12,8.44-.29,8.21-3.17-.15-1.93-6-3.37-7.53-3.7-2.9-.59-5.9-.56-8.79.02-10.05,2.12-21.06,15.7-14.76,26,1.51,2.45,3.03.53,3.98-1.21.38-.64.75-1.29,1.16-1.9h.03Z" />
      <path class="cls-3"
        d="M182.61,199.66c2.04-.51,4.23-.59,6.14.27.81.35,1.61,1.05,1.56,1.93-.05.78-.78,1.32-1.45,1.73-3.82,2.46-7.89,4.74-10.62,8.37-1.18,1.54-2.44,5.1-4.29,5.91-1.85.81-2.7-1.79-2.57-3.13.43-4.46,1.67-8.55,5.08-11.7,1.74-1.59,3.82-2.82,6.13-3.41l.03.03Z" />
      <path class="cls-1" d="M279.59,276.27s.03.13.06.2c0,.26-.01.52-.02.78l-.04-.98Z" />
      <path class="cls-4"
        d="M347.95,208.67l12.94-5.41c2.11-.86,4.63.37,4.59,2.29-.02.91-.66,1.75-1.68,2.15l-5.94,2.44c-2.21.89-2.24,3.41-.07,4.37l5.76,2.58c1,.45,1.64,1.31,1.61,2.23-.04,1.93-2.59,3.07-4.66,2.11l-12.68-5.85c-1-.45-1.6-1.31-1.58-2.23l.06-2.58c.02-.91.66-1.71,1.65-2.15v.03Z" />
      <path class="cls-4"
        d="M388.69,198.2l-8.33,30.33c-.32,1.17-1.61,1.95-3.12,1.92-1.96-.05-3.4-1.52-3-3.04l8.33-30.33c.32-1.17,1.61-1.95,3.12-1.92,1.96.05,3.4,1.52,3,3.04Z" />
      <path class="cls-4"
        d="M414.95,217.16l-12.94,5.25c-2.11.87-4.6-.4-4.55-2.29.02-.98.7-1.78,1.72-2.21l5.87-2.31c2.21-.86,2.3-3.37.14-4.37l-5.82-2.71c-1-.45-1.6-1.31-1.58-2.22.04-1.89,2.65-3.04,4.69-2.08l12.67,6.01c.97.45,1.57,1.31,1.55,2.22l-.06,2.58c-.02.91-.66,1.75-1.68,2.15Z" />
    </g>
  </g>
  <g class="spin">
    <path class="cls-5"
      d="M7.12,164.28c-.96,3.94-1.79,7.89-2.52,11.83-20.41,110.54,49.11,219.42,159.67,246.31,16.88,4.11,33.95,6.13,50.88,6.13,21.64,0,43.08-3.31,63.71-9.84,16.28-5.15,32.06-12.3,47.02-21.41,48.76-29.68,83.03-76.57,96.52-132.04.84-3.45,1.59-6.91,2.26-10.37,10.04-52.2.47-105.52-27.37-151.25-29.68-48.76-76.57-83.03-132.04-96.52-16.88-4.1-33.95-6.13-50.88-6.13-25.63,0-50.98,4.65-75.03,13.77-12.29,4.66-24.23,10.49-35.7,17.47C54.89,61.92,20.61,108.81,7.12,164.28Z" />
    <path class="cls-12"
      d="M215.15,428.55c-16.94,0-34.01-2.03-50.88-6.13C53.72,395.53-15.8,286.64,4.61,176.11l-1.07.3c-9.48,51.82.23,104.63,27.85,150,29.82,48.98,76.93,83.42,132.65,96.97,16.96,4.12,34.1,6.16,51.12,6.16,21.62,0,43.05-3.3,63.68-9.78l.03-1.06c-20.63,6.52-42.07,9.84-63.71,9.84Z" />
    <path class="cls-12"
      d="M265.5,6.16c-42.48-10.33-86.08-7.56-126.12,7.54l-.03,1.07C163.4,5.64,188.75.99,214.37.99c16.94,0,34.01,2.03,50.88,6.13,55.46,13.49,102.35,47.77,132.04,96.52,27.84,45.72,37.41,99.05,27.37,151.25l1.07-.3c9.94-52.29.29-105.67-27.58-151.47-29.82-48.98-76.93-83.42-132.65-96.97Z" />
    <path class="cls-10"
      d="M7.12,164.28C20.61,108.81,54.89,61.92,103.64,32.24c11.47-6.98,23.42-12.81,35.7-17.47l.03-1.07c-12.48,4.71-24.61,10.6-36.26,17.69C54.14,61.21,19.7,108.32,6.15,164.04c-1,4.11-1.86,8.24-2.62,12.37l1.07-.3c.73-3.94,1.56-7.89,2.52-11.83Z" />
    <path class="cls-10"
      d="M422.41,265.27c-13.49,55.46-47.77,102.35-96.52,132.04-14.96,9.11-30.74,16.26-47.02,21.41l-.03,1.06c16.48-5.18,32.44-12.4,47.57-21.61,48.98-29.82,83.42-76.93,96.97-132.65.88-3.63,1.66-7.26,2.36-10.9l-1.07.3c-.67,3.46-1.42,6.92-2.26,10.37Z" />
  </g>
</svg>