<svg width="52" height="47" viewBox="0 0 52 47" fill="none" xmlns="http://www.w3.org/2000/svg">
<g clip-path="url(#clip0_1306_1672)">
<path d="M2.55021 22.4973L2.64929 21.3452C2.7096 20.6453 3.12746 20.3253 3.90287 20.3893L5.46231 20.5216C6.03525 20.5685 6.37988 20.8544 6.50481 21.3708C6.53496 21.4945 6.53927 21.6737 6.51773 21.9042L6.50481 22.0322L8.1461 22.1688L8.07717 22.9582L2.5459 22.4931L2.55021 22.4973ZM3.40316 21.7719L5.71647 21.9639L5.7337 21.7804C5.74232 21.6695 5.74232 21.5927 5.7337 21.5543C5.68632 21.4049 5.57431 21.3238 5.39769 21.311L3.83825 21.1787C3.5884 21.1574 3.45055 21.2598 3.43331 21.4903L3.40747 21.7676L3.40316 21.7719Z" fill="white"/>
<path d="M3.2395 17.7649L3.82537 15.7935L4.58355 16.0154L4.22169 17.2273L6.45746 17.8802L6.76763 16.8389L7.52581 17.0608L7.21564 18.1021L8.03413 18.341L8.39599 17.1291L9.15417 17.351L8.56831 19.3225L3.24381 17.7692L3.2395 17.7649Z" fill="white"/>
<path d="M5.76823 11.603L6.4661 11.9657L6.12147 12.6228L10.3432 14.8034L9.97268 15.5075L5.75099 13.327L5.40637 13.9841L4.7085 13.6214L5.77253 11.603H5.76823Z" fill="white"/>
<path d="M13.5869 8.36409L13.9616 8.76095C14.4958 9.31997 14.4786 9.86191 13.9229 10.3868C13.3629 10.9074 12.8201 10.8861 12.2859 10.3228L9.95966 7.87335C9.42549 7.31434 9.44272 6.77239 9.99843 6.25178C10.5584 5.73117 11.1055 5.75251 11.6354 6.31152L12.148 6.8492L11.5665 7.39115L11.0539 6.85347C10.8815 6.67424 10.7135 6.66144 10.5412 6.81933C10.3732 6.97722 10.3775 7.14791 10.5455 7.32714L12.8718 9.77657C13.0441 9.95579 13.2121 9.9686 13.3844 9.81071C13.5567 9.65282 13.5524 9.48212 13.3844 9.3029L13.0096 8.90604L13.5912 8.36409H13.5869Z" fill="white"/>
<path d="M17.2743 6.56326C17.6792 7.22042 17.5543 7.74957 16.8995 8.14642C16.2447 8.53902 15.7149 8.40673 15.3099 7.74957L13.548 4.87768C13.1431 4.22051 13.268 3.69563 13.9228 3.29878C14.5776 2.90192 15.1075 3.0342 15.5124 3.69137L17.2743 6.56326ZM14.8274 4.10103C14.6982 3.89193 14.5345 3.84499 14.3364 3.96021H14.332C14.1339 4.07969 14.1037 4.24612 14.233 4.45948L15.9949 7.33137C16.1241 7.54474 16.2878 7.59168 16.486 7.47219C16.6841 7.35271 16.7186 7.18628 16.5894 6.97292L14.8274 4.10103Z" fill="white"/>
<path d="M20.2812 4.6387L20.0271 0.768265L20.7895 0.529297L22.4567 5.7738L21.7243 6.00424L20.7895 3.0598L21.0739 6.2048L20.5569 6.36696L18.9501 3.63589L19.8849 6.58032L19.1439 6.81076L17.4768 1.56625L18.2393 1.32728L20.2812 4.6387Z" fill="white"/>
<path d="M23.5984 0.0855204L24.7615 0.00444177C25.4723 -0.0424985 25.8514 0.315954 25.9074 1.08407L26.0194 2.62883C26.0582 3.19638 25.8299 3.58044 25.3345 3.77673C25.2138 3.82367 25.0372 3.85781 24.8046 3.87488L24.6753 3.88341L24.7917 5.51352L23.9947 5.569L23.6027 0.0855204H23.5984ZM24.4513 0.810961L24.615 3.1025L24.8003 3.0897C24.9123 3.08116 24.9855 3.06836 25.0286 3.05129C25.1708 2.98301 25.2354 2.86353 25.2224 2.68857L25.1104 1.14381C25.0932 0.892039 24.9683 0.776822 24.7357 0.793892L24.4557 0.815228L24.4513 0.810961Z" fill="white"/>
<path d="M30.0816 4.71977C29.9739 5.48362 29.5431 5.8122 28.7806 5.70979C28.0224 5.60737 27.695 5.17211 27.8027 4.40826L28.4144 0.0172119L29.2071 0.123894L28.5954 4.51494C28.5609 4.76245 28.66 4.899 28.8883 4.93314C29.1209 4.96301 29.2545 4.85633 29.2889 4.61309L29.9006 0.222042L30.6933 0.328725L30.0816 4.71977Z" fill="white"/>
<path d="M35.2898 1.67291L35.027 2.41115L34.3205 2.16365L32.7309 6.61017L31.9771 6.3456L33.5666 1.89908L32.8602 1.65157L33.1229 0.91333L35.2898 1.67291Z" fill="white"/>
<path d="M37.728 4.31013L35.0615 7.67275L34.3679 7.26736L37.9047 2.95312L38.8481 3.50787L36.7286 8.65423L36.0307 8.24457L37.7237 4.31439L37.728 4.31013Z" fill="white"/>
<path d="M38.426 10.152C38.0038 9.67837 38.0296 9.18763 38.5121 8.66702L40.8125 6.19199C41.3381 5.62444 41.8852 5.59884 42.4452 6.11091C43.0095 6.62726 43.031 7.16494 42.5055 7.73249L42.0015 8.2787L41.4113 7.74102L41.9153 7.19481C42.0833 7.01131 42.0833 6.84489 41.9153 6.687C41.7473 6.52911 41.575 6.54191 41.407 6.72541L39.1066 9.20044C38.9386 9.38393 38.9386 9.55462 39.1066 9.70824C39.2789 9.86613 39.4512 9.85333 39.6192 9.66984L40.1232 9.12363L40.7134 9.6613L40.2094 10.2075C39.714 10.7409 39.1971 10.7964 38.6672 10.3697L38.5207 10.4465C38.5983 10.4678 38.6586 10.4977 38.7017 10.5361C38.7447 10.5745 38.7706 10.6257 38.7835 10.6855C38.7964 10.7495 38.7706 10.8135 38.706 10.8818L38.5164 11.0866C38.4087 11.2018 38.2752 11.2018 38.1201 11.0823C38.0986 11.0652 38.0727 11.0482 38.0469 11.0226C38.0339 11.0098 38.021 10.997 38.0081 10.9842C37.8487 10.8305 37.8272 10.6897 37.9435 10.566L37.9995 10.5062L38.245 10.7281L38.189 10.7879C38.189 10.7879 38.1761 10.8305 38.2019 10.8561C38.2278 10.8818 38.2536 10.8818 38.2709 10.8647L38.4604 10.6599C38.482 10.6385 38.482 10.6129 38.4561 10.5873C38.4346 10.566 38.4044 10.5617 38.3743 10.5745L38.1373 10.3569L38.4346 10.1478L38.426 10.152Z" fill="white"/>
<path d="M44.6637 10.6514L40.8427 12.6357L40.3774 11.9828L45.3875 9.48212L46.0207 10.3697L41.9584 14.206L41.4932 13.5531L44.6637 10.6514ZM45.4693 9.3797L45.4133 8.94871L45.633 8.91457C45.913 8.87189 46.1155 8.92737 46.2447 9.08526L46.2576 9.10233C46.3309 9.20474 46.374 9.37117 46.3869 9.60587C46.3912 9.71682 46.4127 9.7979 46.4515 9.84911C46.4817 9.89178 46.5247 9.91311 46.5764 9.90885L46.7961 9.89605L46.8091 10.3313L46.585 10.3484C46.3567 10.3612 46.1887 10.2972 46.081 10.1606L46.0681 10.1435C45.9949 10.0411 45.9518 9.87471 45.9432 9.64428C45.9346 9.49919 45.9259 9.41384 45.913 9.3925L45.9044 9.38397C45.8742 9.3413 45.801 9.3285 45.689 9.34556L45.4693 9.3797Z" fill="white"/>
<path d="M44.487 17.0651C43.7719 17.3638 43.2636 17.1675 42.9621 16.4677C42.6648 15.7678 42.8716 15.2686 43.591 14.9699L46.7185 13.6598C47.4336 13.3611 47.9419 13.5574 48.2392 14.2572C48.5364 14.9571 48.3296 15.4563 47.6145 15.7593L44.487 17.0694V17.0651ZM47.3001 15.0211C47.5284 14.9229 47.6016 14.7693 47.5111 14.5602C47.4207 14.3468 47.2613 14.2871 47.0287 14.3852L43.9012 15.6953C43.6685 15.7934 43.5996 15.9471 43.6901 16.1562C43.7806 16.3695 43.9443 16.4293 44.1726 16.3311L47.3001 15.0211Z" fill="white"/>
<path d="M16.5247 43.1212L16.2878 43.6205C16.1801 43.8466 16.2318 44.0088 16.4429 44.1069C16.654 44.2051 16.8091 44.1411 16.9168 43.9192L16.9598 43.8296C17.0762 43.5906 16.9814 43.2023 16.6841 42.6689C16.3869 42.1397 16.3438 41.6447 16.5635 41.1838L17.0158 40.2408C17.3475 39.5452 17.8602 39.3617 18.5537 39.686C19.2473 40.0103 19.4282 40.5224 19.0965 41.218L18.7778 41.888L18.054 41.5466L18.3728 40.8766C18.4805 40.6547 18.4288 40.4925 18.2177 40.3901H18.2134C18.0066 40.292 17.8473 40.3517 17.7396 40.5779L17.2959 41.5039C17.1882 41.7258 17.2872 42.1013 17.5845 42.6347C17.8817 43.1639 17.9248 43.6546 17.7137 44.0984L17.6405 44.252C17.3088 44.9476 16.7918 45.1354 16.1026 44.8111C15.409 44.4825 15.2281 43.9704 15.5641 43.2748L15.801 42.7755L16.5247 43.1169V43.1212Z" fill="white"/>
<path d="M21.1299 40.7571L21.901 40.9662L20.4449 46.2705L19.6738 46.0614L21.1299 40.7571Z" fill="white"/>
<path d="M23.5682 41.3247L24.3651 41.393L24.8433 44.6361L25.119 41.457L25.8556 41.521L25.3775 47.0002L24.5805 46.9319L24.1196 43.7912L23.8525 46.8679L23.0857 46.8039L23.5639 41.3247H23.5682Z" fill="white"/>
<path d="M30.1762 45.0671L30.2451 45.6048C30.3399 46.3686 30.0082 46.7996 29.2457 46.8935C28.4875 46.9874 28.0568 46.6502 27.962 45.8864L27.5441 42.5494C27.4493 41.7855 27.781 41.3588 28.5392 41.2649C29.3017 41.171 29.7282 41.5082 29.8273 42.272L29.9177 43.006L29.1251 43.1041L29.0346 42.3701C29.0045 42.1269 28.8752 42.016 28.6426 42.0416H28.6383C28.41 42.0714 28.3109 42.208 28.3411 42.4555L28.7589 45.7925C28.7891 46.04 28.9183 46.1467 29.1509 46.1211C29.3836 46.0912 29.4826 45.9547 29.4525 45.7072L29.3836 45.1695L30.1762 45.0713V45.0671Z" fill="white"/>
<path d="M31.193 40.851L33.1617 40.1938L33.4116 40.9364L32.2011 41.3375L32.942 43.5223L33.9845 43.1767L34.2387 43.9192L33.1962 44.2648L33.4676 45.0628L34.6781 44.6617L34.9279 45.4042L32.9592 46.0614L31.1887 40.851H31.193Z" fill="white"/>
<path d="M39.365 41.7173C39.0548 41.3289 38.9859 40.8425 39.1539 40.2621C39.3262 39.6775 39.3349 39.2892 39.1798 39.0929L38.5034 38.2479C38.3484 38.0516 38.1804 38.026 37.9994 38.1669H37.9951C37.8142 38.3119 37.8013 38.4826 37.9563 38.6747L38.4173 39.255L37.7883 39.7458L37.3274 39.1654C36.8449 38.5594 36.9052 38.0218 37.504 37.5524C38.1071 37.083 38.6499 37.147 39.1324 37.7529L39.8216 38.6149C40.1361 39.0118 40.2093 39.5025 40.0413 40.0871C39.869 40.6718 39.869 41.0686 40.037 41.2777L40.2438 41.538L41.4199 40.6163L41.911 41.2308L40.106 42.6433L39.3693 41.7173H39.365Z" fill="white"/>
<path d="M44.5042 36.8867C45.103 37.3775 45.159 37.9151 44.6722 38.4998C44.1854 39.0844 43.6426 39.1313 43.0438 38.6448L40.4247 36.5069C39.8259 36.0162 39.7656 35.4785 40.2524 34.8939C40.7392 34.3093 41.2862 34.2581 41.885 34.7488L44.5042 36.8867ZM41.3767 35.359C41.1829 35.2011 41.0105 35.2097 40.8641 35.3889C40.7176 35.5681 40.7435 35.7346 40.933 35.8924L43.5522 38.0304C43.746 38.1883 43.9183 38.1797 44.0648 38.0005C44.2156 37.8213 44.1897 37.6548 43.9959 37.4969L41.3767 35.359Z" fill="white"/>
<path d="M46.9382 32.8157C47.6275 33.1699 47.7955 33.6862 47.4379 34.3605C47.0847 35.0347 46.5634 35.1926 45.8742 34.8341L42.863 33.2808C42.1737 32.9224 42.0057 32.4103 42.359 31.7361C42.7122 31.0618 43.2378 30.904 43.927 31.2581L46.9382 32.8114V32.8157ZM43.5566 31.9665C43.3326 31.8513 43.1689 31.8982 43.0612 32.0988C42.9535 32.3079 43.0138 32.4658 43.2335 32.581L46.2447 34.1343C46.4687 34.2495 46.6324 34.2026 46.7401 34.002C46.8478 33.7972 46.7918 33.635 46.5677 33.5198L43.5566 31.9665Z" fill="white"/>
<path d="M44.2974 29.5512L43.5349 29.3464L44.1596 27.0847L44.7066 27.2341L49.217 29.6024L49.0016 30.3876L44.6894 28.1259L44.2974 29.5555V29.5512Z" fill="white"/>
<path d="M14.3194 29.8798C14.4012 29.8712 14.4874 29.8712 14.5692 29.8883C14.6511 29.9054 14.7243 29.9523 14.7502 30.012C14.7717 30.0718 14.7459 30.1358 14.7028 30.1913C14.6037 30.3236 14.44 30.4217 14.2505 30.4729C14.0609 30.5241 13.8584 30.5326 13.6646 30.507C13.4492 30.4814 13.0399 30.2894 13.307 30.1059C13.544 29.9438 14.0178 29.9011 14.3194 29.8798Z" fill="black"/>
<path d="M14.9656 30.9081C15.0302 30.8825 15.0991 30.8527 15.1723 30.8527C15.2456 30.8527 15.3231 30.874 15.3619 30.9337C15.4179 31.0148 15.3877 31.1215 15.3446 31.2068C15.1896 31.5184 14.8794 31.7488 14.5305 31.8085C14.3711 31.8341 14.1901 31.8256 14.0652 31.7147C13.9704 31.6293 13.9015 31.48 13.9791 31.3647C14.0695 31.2282 14.2892 31.1812 14.4314 31.1215C14.608 31.049 14.7846 30.9807 14.9656 30.9081Z" fill="black"/>
<path d="M32.7871 9.94716C33.0197 9.96423 32.9852 10.583 32.9723 10.7665C32.8474 12.4435 32.0892 14.0992 30.8184 15.2471C31.779 14.8716 32.8258 14.654 33.8511 14.7351C34.0363 14.7479 34.2259 14.7735 34.4068 14.8076C35.0831 14.9356 35.7595 15.2045 36.3152 15.6184C36.397 15.6781 36.4746 15.7421 36.5521 15.8104C36.7115 15.9512 37.3232 16.5145 37.25 16.762C37.1681 17.0223 36.3583 17.0223 36.1515 17.0437C35.7939 17.0778 35.4622 17.1504 35.1435 17.2741C34.9496 17.3509 34.7644 17.4448 34.5791 17.5643C34.4585 17.6411 34.3422 17.7264 34.2431 17.8289C33.6745 18.4049 33.9846 18.9341 34.325 19.4334C34.424 19.5784 34.5188 19.7278 34.6093 19.8772C36.1127 22.3949 36.4272 25.6167 35.4062 28.3605C34.6222 30.4729 33.0714 32.3035 31.0984 33.4216C30.8787 33.5453 30.6288 33.6563 30.3661 33.7331C29.6596 34.0275 28.798 34.2579 27.8503 34.2537C27.721 34.2537 27.6177 34.2494 27.5143 34.2409C27.2386 34.2195 26.9801 34.1769 26.3899 34.1299C26.1788 34.1129 25.9247 34.0958 25.6145 34.083C25.537 34.083 25.4637 34.0745 25.3905 34.0702C25.3991 34.0745 25.4077 34.0787 25.4207 34.083C24.2446 34.083 23.1849 34.3433 22.0175 34.6463C20.7811 34.9706 19.5577 35.4016 18.3859 35.8966C16.1114 36.8567 13.363 37.723 10.8041 37.5267C10.3561 37.4926 9.91241 37.4243 9.47732 37.3176C7.74556 36.8951 6.20766 35.8624 4.95408 34.6036C3.5368 33.1826 2.03767 31.2239 1.54657 29.2481C1.31826 28.3307 1.46903 27.3449 2.34352 26.8371C2.39522 26.8072 2.44691 26.7816 2.49861 26.7603C2.81308 26.6195 3.16202 26.5939 3.51526 26.6195C3.91158 26.6494 4.31221 26.7518 4.69561 26.8457C5.6261 27.0761 6.59106 27.2553 7.55602 27.3279C9.14992 27.4516 10.7438 27.2937 12.187 26.628C12.5919 26.4403 13.0313 26.1501 13.2208 25.7362C13.3415 25.4716 13.3113 25.1729 13.4578 24.9168C13.5568 24.7461 13.6947 24.5925 13.8584 24.4773C13.9101 24.4389 14.315 24.2469 14.3021 24.1914C14.2935 24.1445 14.2806 24.0676 14.2676 23.978C13.9704 22.2071 14.2676 20.3508 15.3618 18.8957C17.6105 15.9128 21.3153 14.8033 24.852 14.1889C25.7394 14.0352 26.6398 13.9627 27.51 13.6853C28.5826 13.3397 29.5691 12.7849 30.4221 12.0552C31.1759 11.4108 31.835 10.6513 32.6061 10.0368C32.6837 9.97277 32.7483 9.94716 32.8 9.95143M32.912 8.52615C32.6148 8.50482 32.1624 8.55176 31.7015 8.92301C31.219 9.31133 30.7925 9.72526 30.3833 10.1264C30.0731 10.4294 29.7802 10.7153 29.4786 10.9756C28.7635 11.5901 27.9494 12.0467 27.0662 12.3283C26.5622 12.4905 26.0022 12.5715 25.4077 12.6569C25.1493 12.6953 24.8779 12.7337 24.6065 12.7806C22.3405 13.1732 20.5743 13.6725 19.0407 14.3467C16.9773 15.2557 15.3963 16.4633 14.2116 18.038C13.0744 19.5486 12.5703 21.4774 12.7599 23.5257C12.5402 23.7263 12.3506 23.9567 12.2085 24.2127C12.0103 24.5627 11.95 24.887 11.9112 25.1003C11.9112 25.1131 11.9069 25.1259 11.9026 25.1387C11.8552 25.1814 11.7562 25.254 11.5839 25.3308C10.5112 25.8258 9.193 26.0178 7.67664 25.8983C6.86676 25.8343 6.00519 25.6892 5.05316 25.4545C4.63099 25.3478 4.14851 25.2326 3.63588 25.1899C2.9897 25.1387 2.42968 25.2241 1.92136 25.4502C1.81797 25.4972 1.71458 25.5484 1.61981 25.6039C0.297299 26.372 -0.262721 27.8997 0.15514 29.5853C0.422226 30.6564 0.943475 31.7786 1.71027 32.9223C2.32199 33.8355 3.07155 34.7402 3.93743 35.6064C5.50979 37.1853 7.31047 38.2564 9.1413 38.7045C9.64101 38.824 10.1623 38.9093 10.7007 38.952C13.0485 39.1355 15.7495 38.5637 18.9589 37.2152C20.1349 36.7202 21.2894 36.3233 22.3965 36.0331C23.5037 35.743 24.4342 35.5211 25.4336 35.5168H25.6188C25.8601 35.5296 26.0798 35.5424 26.2822 35.5595C26.6096 35.5851 26.8207 35.6064 27.0059 35.6277C27.1438 35.6448 27.2687 35.6576 27.4066 35.6662C27.553 35.679 27.6952 35.6832 27.846 35.6832C28.4017 35.6832 28.9617 35.6235 29.526 35.4997L30.5341 35.2053C30.6461 35.1669 30.7538 35.1242 30.8658 35.0773C31.2018 34.9706 31.5249 34.8298 31.8264 34.6591C32.9551 34.019 33.9588 33.1869 34.8118 32.184C35.6604 31.1855 36.3195 30.0632 36.7675 28.8556C37.3405 27.3108 37.5559 25.5996 37.3965 23.9012C37.2371 22.2114 36.7029 20.5727 35.8586 19.1517C35.7595 18.9853 35.6561 18.8231 35.5484 18.661C35.5958 18.6396 35.6389 18.6183 35.6862 18.6012C35.8629 18.533 36.0567 18.486 36.3023 18.4647C36.3238 18.4647 36.3497 18.4647 36.3798 18.4604C36.5564 18.4476 36.8537 18.4305 37.1466 18.3751C38.1805 18.1702 38.5251 17.5429 38.6371 17.1845C38.9214 16.2756 38.2968 15.5587 38.0943 15.3197C37.8789 15.0722 37.6463 14.8546 37.5257 14.7479C37.4223 14.654 37.3103 14.5644 37.194 14.479C36.4875 13.9499 35.6216 13.5786 34.6868 13.4037C34.4542 13.361 34.213 13.3269 33.9717 13.3098C33.933 13.3098 33.8985 13.3055 33.8597 13.3013C34.1656 12.5289 34.3551 11.7096 34.4197 10.8689C34.4413 10.6043 34.437 10.3568 34.4197 10.1435C34.3034 9.02116 33.5366 8.56882 32.912 8.52188V8.52615Z" fill="white"/>
<path d="M36.5478 15.8104C36.7072 15.9513 37.3189 16.5145 37.2457 16.762C37.1639 17.0223 36.354 17.0223 36.1472 17.0437C35.7897 17.0778 35.4579 17.1504 35.1392 17.2741L35.0789 17.129C35.3503 17.0181 35.6561 16.8645 35.9835 16.5914C36.2678 16.3524 36.4961 16.1561 36.4617 15.9385C36.4488 15.836 36.3755 15.7464 36.2678 15.6739L36.3066 15.6184C36.3884 15.6782 36.466 15.7422 36.5435 15.8104H36.5478Z" fill="#395BB3"/>
<path d="M36.4616 15.9385C36.4918 16.1561 36.2678 16.3524 35.9835 16.5914C35.6518 16.8687 35.3502 17.0181 35.0788 17.129C34.592 17.3253 34.2 17.3936 33.9071 17.8075C33.8812 17.8459 33.5797 18.2855 33.6702 18.7975C33.7692 19.3694 34.3465 19.6638 34.4456 19.8132C34.4714 19.8516 34.493 19.89 34.5188 19.9284C35.2856 21.2214 35.669 24.1018 35.4752 25.7788C35.2813 27.4474 34.9108 30.6222 32.2572 32.6364C32.0332 32.8071 31.3439 33.332 30.3617 33.7374C29.9913 33.8483 29.5993 33.8995 29.2417 33.844C29.638 33.6733 29.9223 33.4173 30.2325 33.1186C30.5857 32.7815 30.9002 32.4102 31.2362 32.056C34.5016 28.5867 35.2856 23.4361 33.2222 19.156C33.0498 18.7975 32.856 18.4092 32.9464 18.0252C32.9981 17.8075 33.1403 17.6198 33.2911 17.4533C33.8252 16.8645 34.549 16.4505 35.3287 16.2756C35.2253 15.8915 34.7859 15.7166 34.3939 15.6269C33.1489 15.341 31.8436 15.3794 30.6116 15.7038L30.603 15.5971C30.7494 15.5288 30.9778 15.4264 31.2664 15.3282C32.6578 14.8674 33.8511 15.0679 34.6997 15.2216C35.277 15.3282 35.9447 15.4477 36.2721 15.6739C36.3798 15.7507 36.4487 15.836 36.466 15.9385H36.4616Z" fill="#395BB3"/>
<path d="M34.6006 19.8772C36.1041 22.3949 36.4186 25.6167 35.3976 28.3606C34.6136 30.4729 33.0627 32.3036 31.0898 33.4216C30.8701 33.5453 30.6202 33.6563 30.3574 33.7331C31.3396 33.3277 32.0289 32.8028 32.2529 32.6321C34.9065 30.618 35.277 27.4431 35.4708 25.7746C35.6647 24.0975 35.2813 21.2171 34.5145 19.9241L34.6006 19.8729V19.8772Z" fill="#395BB3"/>
<path d="M36.311 15.6184L36.2722 15.6739C35.9491 15.4477 35.2771 15.324 34.6998 15.2215C33.8512 15.0679 32.6579 14.8631 31.2665 15.3282C30.9779 15.4221 30.7496 15.5245 30.6031 15.5971C30.5945 15.4818 30.6074 15.3922 30.6246 15.3325C30.6246 15.3325 30.6289 15.3112 30.6591 15.2386L30.8185 15.2514C31.9557 14.8076 33.205 14.5857 34.4069 14.8119C35.0832 14.9399 35.7596 15.2087 36.3153 15.6227L36.311 15.6184Z" fill="#395BB3"/>
<path d="M35.0788 17.129L35.1391 17.2741C34.9452 17.3509 34.76 17.4448 34.5704 17.5643C34.4498 17.6411 34.3378 17.7264 34.2344 17.8289C33.6658 18.4049 33.976 18.9298 34.3163 19.4334C34.4154 19.5785 34.5101 19.7278 34.6006 19.8772L34.5144 19.9284C34.4929 19.89 34.4671 19.8516 34.4412 19.8132C34.3421 19.6638 33.7649 19.3694 33.6658 18.7975C33.5753 18.2855 33.8769 17.8459 33.9027 17.8075C34.1957 17.3936 34.5877 17.3253 35.0745 17.129H35.0788Z" fill="#395BB3"/>
<path d="M34.3939 15.6227C34.7859 15.7123 35.2253 15.8873 35.3287 16.2713C34.549 16.4463 33.8296 16.8602 33.2911 17.4491C33.1403 17.6155 32.9982 17.8033 32.9465 18.0209C32.856 18.405 33.0499 18.7933 33.2222 19.1518C35.2856 23.4319 34.5016 28.5868 31.2362 32.0518C30.9002 32.406 30.5858 32.7772 30.2325 33.1144C29.9224 33.4131 29.638 33.6691 29.2417 33.8398C29.5993 33.891 29.9913 33.8398 30.3618 33.7331C29.6553 34.0276 28.7937 34.258 27.846 34.2537C27.2601 34.2537 27.1223 34.1598 25.6102 34.0788C25.5327 34.0788 25.4594 34.0702 25.3862 34.066C24.0766 33.4173 22.5387 33.5368 21.087 33.8782C21.4962 33.588 21.8624 33.2338 22.1769 32.8285C22.9393 31.8427 23.3529 30.5796 23.2667 29.3165C23.2021 28.3862 22.5301 27.7162 21.6168 27.7717C20.7553 27.8229 19.6137 28.3478 18.8641 27.6736C18.8641 27.7034 18.8641 27.729 18.8641 27.7589C18.666 27.6736 18.4807 27.5925 18.3687 27.5199C18.0499 27.3236 17.925 27.1871 17.7613 26.5043C17.8216 26.5769 17.8862 26.6451 17.9552 26.7134C18.0155 26.7689 18.0973 26.8244 18.1706 26.786C18.2352 26.7518 18.2438 26.6665 18.2352 26.5939C18.2093 26.355 18.0844 26.1416 17.9681 25.9368C17.7527 25.5655 17.533 25.1857 17.2013 24.9126C16.9687 24.7206 16.6887 24.5883 16.4086 24.4688C16.176 24.3707 15.9391 24.2725 15.6892 24.2341C15.6031 24.2213 15.5126 24.2128 15.4265 24.217C15.28 23.1929 15.3877 22.1474 15.7151 21.1574C16.4776 18.8488 18.1706 17.6155 18.7564 17.2016C21.0568 15.5758 23.8741 15.5843 26.5493 15.0338C28.4706 14.637 30.4135 13.9243 31.7187 12.4734C31.5852 12.6185 31.5163 13.0623 31.443 13.2458C31.3224 13.5445 31.1975 13.839 31.0596 14.1292C30.9218 14.4193 30.7796 14.7052 30.6245 14.9912C30.4695 15.2771 30.3101 15.5502 30.1421 15.8275C30.3014 15.7763 30.4608 15.7294 30.6202 15.6867C31.8523 15.3624 33.1575 15.324 34.4025 15.6099L34.3939 15.6227ZM27.9494 29.1031C29.5777 28.4886 31.3612 26.7433 30.8615 24.8657C30.7495 24.4517 30.5427 24.0976 30.2498 23.8415C30.3144 23.7178 30.379 23.594 30.4479 23.4703C30.4867 23.402 30.5556 23.2825 30.5255 23.2014C30.4221 22.9369 30.1076 23.4233 30.0516 23.4916C30.0171 23.5385 29.9827 23.5812 29.9482 23.6282C29.7285 23.5087 29.4786 23.4319 29.1986 23.4063C29.1383 23.402 29.0823 23.3977 29.022 23.3977C29.0737 23.2782 29.1254 23.163 29.1771 23.0435C29.2288 22.9241 29.3322 22.7235 29.2805 22.5869C29.1168 22.1517 28.6688 22.9838 28.5912 23.1076C28.5137 23.227 28.4405 23.3508 28.3672 23.4703C28.1389 23.5257 27.9192 23.6026 27.7038 23.6964C26.5105 24.2298 25.2957 25.1473 24.6452 26.2867C24.3308 26.8372 24.1972 27.4474 24.4514 28.0747C24.9899 29.4146 26.7776 29.5341 27.9494 29.0946V29.1031ZM23.6415 23.4788C23.8698 23.4575 24.7529 23.4148 24.7142 23.0393C24.6883 22.7875 23.9129 22.6168 23.7104 22.5784C23.327 22.5101 22.9307 22.5229 22.5516 22.6083C21.2334 22.9155 19.8248 24.7249 20.6863 26.052C20.8931 26.3678 21.087 26.1117 21.2076 25.8813C21.255 25.7959 21.3024 25.7106 21.3541 25.6295C21.6211 25.2113 22.0132 24.8529 22.4999 24.7163C23.004 24.5755 23.6458 24.823 24.0723 24.6182C24.1498 24.5798 24.1714 24.4774 24.1197 24.4091C23.9991 24.2555 23.7406 24.1274 23.5941 24.0592C23.5467 24.0378 23.3184 23.9397 23.1203 23.8714C23.004 23.8287 22.9953 23.6708 23.1073 23.6154C23.2624 23.5385 23.4347 23.5001 23.6372 23.4788H23.6415ZM21.9485 21.853C22.0347 21.7975 22.1252 21.7249 22.1338 21.6225C22.1381 21.5073 22.0304 21.422 21.9227 21.375C21.6685 21.2683 21.3756 21.2854 21.1128 21.358C20.8113 21.4433 20.5399 21.6055 20.3159 21.8231C19.8765 22.2456 19.7257 22.7832 19.6826 23.3679C19.6697 23.5428 19.7989 23.8799 20.0315 23.769C20.2728 23.658 20.4279 23.1886 20.5786 22.9838C20.9276 22.5016 21.4574 22.1858 21.9528 21.8572L21.9485 21.853Z" fill="#395BB3"/>
<path d="M32.9722 10.7664C32.8472 12.4435 32.089 14.0992 30.8182 15.2471L30.6588 15.2343C30.6761 15.1959 30.7019 15.1404 30.7364 15.0636C30.7407 15.0508 30.7493 15.0337 30.7579 15.0209C32.1106 13.0409 32.326 12.1192 32.326 12.1192C32.4035 11.7778 32.4294 11.4961 32.4423 11.334C31.9124 11.7308 31.1672 12.2514 30.2367 12.8062C28.8797 13.617 28.0095 14.1376 26.7818 14.5003C25.5885 14.8545 25.6531 14.5857 23.258 15.0764C21.6598 15.405 20.9145 15.6696 20.6345 15.7762C19.8677 16.0621 19.1224 16.3353 18.2953 16.9199C16.8824 17.9142 16.1759 19.1303 15.8829 19.6509C15.7149 19.9497 15.0687 21.1317 14.8878 22.7575C14.7887 23.6451 14.8878 24.0889 15.0171 24.3236C14.9912 24.3322 14.9697 24.345 14.9481 24.3578C14.8318 24.4218 14.7327 24.5114 14.6638 24.6223C14.6121 24.7034 14.4915 24.9381 14.6207 24.9339C14.681 24.9339 14.7672 24.8741 14.8275 24.8613C14.3924 25.1472 14.0909 25.6422 14.065 26.1586C13.9918 26.1884 13.9272 26.2268 13.8841 26.2866L13.9616 26.1415C13.8798 26.2439 13.7936 26.3506 13.7635 26.4743C13.7333 26.5981 13.7678 26.7475 13.8884 26.8328C13.9616 26.884 14.0564 26.9053 14.1512 26.9139C14.1641 27.0547 14.1555 27.1913 14.1038 27.3235C13.9746 27.6521 13.6041 27.8185 13.2681 27.938C11.5062 28.5483 9.62363 28.7659 7.76264 28.6677C6.84938 28.6208 5.94473 28.5013 5.05301 28.3093C4.57053 28.2069 2.94647 27.4174 3.05417 28.3178C3.61849 32.9137 7.8488 36.5281 12.54 36.2763C14.4915 36.1696 16.3353 35.4357 18.1876 34.7828C18.1876 34.7828 18.2049 34.7828 18.2178 34.7828C18.2824 34.7828 18.347 34.7828 18.4116 34.7828C18.8812 34.7828 19.3464 34.6974 19.7901 34.5523C19.6954 34.723 19.6523 34.8724 19.7126 34.9535C19.8978 35.1967 20.837 34.4158 22.4567 34.1043C23.1761 33.9677 23.9386 33.9976 25.3947 34.0744C25.4033 34.0787 25.4119 34.0829 25.4248 34.0872C24.2488 34.0872 23.189 34.3475 22.0216 34.6505C20.7853 34.9748 19.5618 35.4058 18.3901 35.9008C15.7149 37.0274 12.385 38.0302 9.47716 37.3218C7.74541 36.8994 6.20751 35.8667 4.95393 34.6078C3.53665 33.1868 2.03752 31.2281 1.54642 29.2524C1.31811 28.3349 1.46888 27.3491 2.34337 26.8413C2.39507 26.8115 2.44676 26.7859 2.49845 26.7645C3.16617 26.4701 3.97174 26.6706 4.69546 26.8499C7.16816 27.4601 9.87779 27.6991 12.1868 26.6365C12.5917 26.4487 13.0311 26.1586 13.2207 25.7446C13.3413 25.4801 13.3111 25.1814 13.4576 24.9253C13.5567 24.7546 13.6945 24.601 13.8582 24.4858C13.9099 24.4474 14.3149 24.2554 14.302 24.1999C14.2933 24.1529 14.2804 24.0761 14.2675 23.9865C13.9702 22.2156 14.2675 20.3593 15.3617 18.9042C17.6104 15.9213 21.3151 14.8118 24.8519 14.1973C25.7393 14.0437 26.6396 13.9712 27.5098 13.6938C28.5825 13.3481 29.569 12.7934 30.4219 12.0637C31.1758 11.4193 31.8349 10.6597 32.606 10.0453C33.0497 9.69107 33.0023 10.5531 32.9851 10.7792L32.9722 10.7664Z" fill="#395BB3"/>
<path d="M32.438 11.3298C32.4294 11.4919 32.4036 11.7736 32.3217 12.1149C32.3217 12.1149 32.1063 13.0367 30.7537 15.0167C30.7451 15.0338 30.7407 15.0466 30.7321 15.0594L30.6158 15.0039C30.7709 14.7223 30.9131 14.4321 31.0509 14.1419C31.1888 13.8517 31.3137 13.5573 31.4343 13.2586C31.5075 13.0751 31.5765 12.6313 31.71 12.4862C30.4047 13.9371 28.4619 14.654 26.5406 15.0466C23.8697 15.5971 21.0524 15.5928 18.7477 17.2144C18.1618 17.6283 16.4646 18.8615 15.7064 21.1702C15.379 22.1559 15.2756 23.2014 15.4177 24.2298C15.2756 24.2341 15.1377 24.2597 15.0128 24.3151C14.8879 24.0804 14.7845 23.6409 14.8836 22.7491C15.0645 21.1232 15.7107 19.9454 15.8787 19.6425C16.1716 19.1261 16.8738 17.9099 18.2911 16.9114C19.1182 16.3268 19.8634 16.0537 20.6302 15.7678C20.9102 15.6653 21.6555 15.3965 23.2537 15.0679C25.6489 14.5772 25.5843 14.846 26.7775 14.4918C28.001 14.1291 28.8711 13.6085 30.2324 12.7977C31.1629 12.243 31.9082 11.7181 32.438 11.3255V11.3298Z" fill="#395BB3"/>
<path d="M30.8615 24.8656C31.3612 26.7432 29.5735 28.4886 27.9494 29.1031C26.7777 29.5426 24.9942 29.4231 24.4514 28.0832C24.1973 27.4559 24.3351 26.8457 24.6453 26.2952C25.2958 25.1515 26.5106 24.2341 27.7038 23.7049C27.9149 23.611 28.1389 23.53 28.3673 23.4788C28.2811 23.6281 28.1949 23.7775 28.1131 23.9311C28.1131 23.9311 28.1088 23.9396 28.1088 23.9439C27.9882 23.9738 27.8719 24.0164 27.7599 24.0634C27.4066 24.2085 27.0921 24.4133 26.8035 24.6608C26.0152 25.335 24.6453 26.9694 25.6102 27.9936C26.0195 28.4288 26.6915 28.3605 27.2257 28.2581C27.8891 28.1301 28.5697 27.8911 29.1513 27.5583C29.2374 27.5114 29.3193 27.4559 29.4011 27.4004C29.4442 27.3705 29.483 27.3449 29.5261 27.3151C29.5864 27.2724 29.6467 27.2254 29.707 27.1742C29.7458 27.1401 29.7845 27.1102 29.8233 27.0718C29.9181 26.9865 30.0042 26.8926 30.0861 26.7987C30.1205 26.7603 30.1507 26.7219 30.1809 26.6792C30.4135 26.3677 30.5643 26.0135 30.5686 25.6167C30.5686 25.574 30.5686 24.8144 30.0042 24.3066C30.0904 24.153 30.1722 23.9994 30.2584 23.8457C30.5513 24.1018 30.7581 24.456 30.8701 24.8699L30.8615 24.8656Z" fill="#395BB3"/>
<path d="M30.56 25.6124C30.5556 26.0093 30.4049 26.3635 30.1722 26.675C30.1421 26.7134 30.1119 26.7561 30.0775 26.7945C29.9956 26.8926 29.9095 26.9822 29.8147 27.0676C29.7759 27.1017 29.7372 27.1359 29.6984 27.17C29.6381 27.2169 29.5821 27.2639 29.5174 27.3108C29.4787 27.3407 29.4356 27.3706 29.3925 27.3962C29.3107 27.4516 29.2245 27.5028 29.1427 27.5541C28.5568 27.8912 27.8762 28.1301 27.2171 28.2539C26.6829 28.3563 26.0109 28.4246 25.6016 27.9893C24.6367 26.9652 26.0109 25.3308 26.7949 24.6566C27.0792 24.4133 27.398 24.2042 27.7512 24.0591C27.8632 24.0122 27.9839 23.9738 28.1002 23.9397C27.8115 24.4859 27.5832 25.0705 27.5014 25.6978C27.4928 25.7618 27.4841 25.8258 27.4798 25.8898C27.454 26.1843 27.6522 26.1586 27.7771 25.9496C28.1648 25.2753 28.4965 24.5712 28.8153 23.8543C29.1039 23.8628 29.3882 23.9269 29.6467 24.0677C29.4701 24.3621 29.3279 24.6736 29.2719 25.0107C29.2676 25.0492 29.259 25.0876 29.2547 25.126C29.2331 25.3009 29.3667 25.2924 29.4528 25.1729C29.6467 24.8955 29.8233 24.6054 29.987 24.3109C30.547 24.8187 30.5513 25.5783 30.5513 25.621L30.56 25.6124Z" fill="#395BB3"/>
<path d="M30.5211 23.2014C30.5513 23.2825 30.4823 23.402 30.4436 23.4702C30.3789 23.594 30.3143 23.7177 30.2454 23.8415C30.1549 23.7604 30.0515 23.6879 29.9438 23.6281C29.9783 23.5812 30.0128 23.5385 30.0472 23.4916C30.0989 23.419 30.4177 22.9368 30.5211 23.2014Z" fill="#395BB3"/>
<path d="M30.1722 26.6707C30.142 26.7091 30.1119 26.7518 30.0774 26.7902C30.1119 26.7518 30.142 26.7134 30.1722 26.6707Z" fill="#395BB3"/>
<path d="M30.2498 23.8415C30.1679 23.9952 30.0818 24.1488 29.9956 24.3024C29.9697 24.2811 29.9439 24.2555 29.9181 24.2341C29.8319 24.1659 29.7457 24.1104 29.6553 24.0634C29.6768 24.0293 29.694 23.9994 29.7156 23.9653C29.7888 23.8501 29.8664 23.7391 29.9482 23.6282C30.0559 23.6879 30.1593 23.7605 30.2498 23.8415Z" fill="#395BB3"/>
<path d="M30.6159 15.004L30.7322 15.0594C30.6978 15.1362 30.6719 15.1917 30.6547 15.2301C30.6246 15.2984 30.6202 15.324 30.6202 15.324C30.603 15.3838 30.5901 15.4691 30.5987 15.5886L30.6073 15.6953C30.4479 15.7379 30.2885 15.7849 30.1292 15.8361C30.2972 15.563 30.4609 15.2856 30.6116 14.9997L30.6159 15.004Z" fill="#395BB3"/>
<path d="M29.9956 24.3024C29.8276 24.5968 29.6553 24.887 29.4615 25.1644C29.3753 25.2839 29.2418 25.2967 29.2633 25.1174C29.2676 25.079 29.2719 25.0406 29.2805 25.0022C29.3408 24.6651 29.4787 24.3536 29.6553 24.0591C29.7458 24.1061 29.8362 24.1658 29.9181 24.2298C29.9439 24.2512 29.9698 24.2725 29.9956 24.2981V24.3024Z" fill="#395BB3"/>
<path d="M29.7026 27.1657C29.7414 27.1316 29.7802 27.1017 29.819 27.0633C29.7802 27.0974 29.7414 27.1316 29.7026 27.1657Z" fill="#395BB3"/>
<path d="M29.9483 23.6281C29.8665 23.7391 29.7889 23.85 29.7157 23.9653C29.6942 23.9994 29.6769 24.0293 29.6554 24.0634C29.3969 23.9268 29.1126 23.8586 28.824 23.85C28.8929 23.7007 28.9575 23.5471 29.0221 23.3977C29.0824 23.3977 29.1384 23.3977 29.1988 23.4062C29.4788 23.4318 29.7286 23.5087 29.9483 23.6281Z" fill="#395BB3"/>
<path d="M29.4011 27.3919C29.4442 27.3621 29.483 27.3365 29.5261 27.3066C29.483 27.3365 29.4442 27.3663 29.4011 27.3919Z" fill="#395BB3"/>
<path d="M29.2805 22.5912C29.3321 22.7235 29.2288 22.9283 29.1771 23.0478C29.1254 23.1673 29.0737 23.2825 29.022 23.402C28.8023 23.402 28.5826 23.4276 28.3672 23.4788C28.4404 23.355 28.5137 23.2355 28.5912 23.116C28.6687 22.9923 29.1211 22.1644 29.2805 22.5954V22.5912Z" fill="#395BB3"/>
<path d="M29.0219 23.3977C28.9573 23.5471 28.8884 23.7007 28.8237 23.85C28.5868 23.8415 28.3456 23.8756 28.1086 23.9354C28.1086 23.9354 28.113 23.9268 28.113 23.9226C28.1948 23.769 28.2766 23.6196 28.3671 23.4702C28.5825 23.419 28.8022 23.3934 29.0219 23.3934V23.3977Z" fill="#395BB3"/>
<path d="M28.8239 23.8501C28.5051 24.5627 28.1734 25.2711 27.7857 25.9453C27.6651 26.1544 27.4669 26.18 27.4884 25.8856C27.4927 25.8216 27.5014 25.7575 27.51 25.6935C27.5918 25.0705 27.8244 24.4816 28.1088 23.9354C28.3457 23.8714 28.5869 23.8415 28.8239 23.8501Z" fill="#395BB3"/>
<path d="M24.7142 23.035C24.7486 23.4105 23.8698 23.4532 23.6415 23.4745C23.439 23.4959 23.2667 23.5343 23.1116 23.6111C22.9996 23.6666 23.0083 23.8245 23.1246 23.8671C23.3227 23.9397 23.5553 24.0336 23.5984 24.0549C23.7449 24.1232 23.9991 24.2512 24.124 24.4048C24.18 24.4731 24.1584 24.5755 24.0766 24.6139C23.6501 24.823 23.0039 24.5712 22.5042 24.7121C22.0174 24.8529 21.6254 25.2113 21.3583 25.6253C21.3067 25.7063 21.255 25.7917 21.2119 25.877C21.0913 26.1075 20.8974 26.3635 20.6906 26.0477C19.8291 24.7249 21.2377 22.9113 22.5559 22.604C22.935 22.5144 23.3313 22.5059 23.7147 22.5741C23.9172 22.6125 24.6969 22.7832 24.7185 23.035H24.7142Z" fill="#395BB3"/>
<path d="M21.0828 33.8867C22.5345 33.5453 24.0724 33.4258 25.382 34.0745C23.9259 34.0019 23.1635 33.9678 22.444 34.1043C20.8243 34.4116 19.8852 35.1968 19.7 34.9535C19.6396 34.8767 19.6827 34.7231 19.7775 34.5524C20.2384 34.3988 20.6778 34.1726 21.0785 33.8867H21.0828Z" fill="#395BB3"/>
<path d="M23.2625 29.325C23.3486 30.5881 22.9351 31.847 22.1726 32.837C21.8624 33.2424 21.492 33.5966 21.0827 33.8867C20.7338 33.9678 20.3891 34.0617 20.0531 34.1641C20.1221 34.083 20.1953 34.0019 20.2642 33.9379C20.5787 33.6307 20.8846 33.4984 21.0569 33.4173C21.9658 32.9607 22.4483 32.0433 22.6378 31.6848C23.2452 30.5326 23.3443 28.7532 22.5388 28.1771C22.1769 27.921 21.5824 27.9808 21.1043 28.0149C20.6735 28.0448 20.2427 28.0235 19.8162 28.0747C19.7688 28.0789 19.6224 28.1003 19.4457 28.0448C19.3682 28.0192 19.3122 27.9893 19.2906 27.9808C19.1528 27.9082 19.002 27.84 18.8599 27.776C18.8599 27.7461 18.8599 27.7205 18.8599 27.6906C19.6094 28.3606 20.751 27.84 21.6126 27.7888C22.5258 27.7333 23.1979 28.4033 23.2625 29.3335V29.325Z" fill="#395BB3"/>
<path d="M22.543 28.1728C23.3486 28.7489 23.2452 30.5284 22.6421 31.6806C22.4525 32.039 21.97 32.9565 21.0611 33.4131C20.8931 33.4984 20.5872 33.6264 20.2684 33.9337C20.1995 34.002 20.1263 34.0788 20.0574 34.1599C19.954 34.1897 19.8549 34.2196 19.7515 34.2537C20.0617 34.066 20.3331 33.827 20.6131 33.5838C20.7595 33.46 21.0094 33.2381 21.3066 32.9181C21.8193 32.3633 22.2888 31.8598 22.5344 31.1685C22.711 30.6777 22.9522 29.4744 22.4611 28.8641C21.7159 27.9424 20.5915 28.6551 19.6395 28.4886C19.3293 28.4332 18.8813 28.1216 18.8555 27.7632C19.0019 27.8272 19.1527 27.8955 19.2863 27.968C19.3078 27.9808 19.3638 28.0107 19.4413 28.032C19.618 28.0875 19.7687 28.0662 19.8118 28.0619C20.2383 28.0107 20.6734 28.032 21.0999 28.0022C21.5737 27.968 22.1725 27.9083 22.5344 28.1643L22.543 28.1728Z" fill="#395BB3"/>
<path d="M18.1834 34.7786C16.331 35.4358 14.4916 36.1697 12.5358 36.2722C7.84026 36.5239 3.61427 32.9053 3.04994 28.3137C2.93794 27.4133 4.5663 28.1984 5.04878 28.3051C5.9405 28.4929 6.84946 28.6166 7.75842 28.6636C9.6194 28.7574 11.5019 28.5441 13.2638 27.9339C13.5999 27.8144 13.9703 27.6522 14.0996 27.3194C14.1513 27.1871 14.1599 27.0505 14.147 26.9097C14.1685 26.9097 14.1943 26.914 14.2159 26.9182C15.435 27.042 16.6412 27.345 17.7698 27.8144C17.8 27.5754 17.6966 27.3194 17.5286 27.1145C17.3606 26.9097 17.128 26.7476 16.8824 26.611C16.1372 26.1971 15.2411 26.005 14.3925 26.0861C14.2805 26.0989 14.1599 26.116 14.0608 26.1544C14.0866 25.6381 14.3882 25.1431 14.8233 24.8571C14.8965 24.8401 14.9697 24.8315 15.043 24.8315C15.1981 24.8273 15.3488 24.8486 15.4996 24.8785C16.1716 25.0236 16.792 25.382 17.2486 25.8941C17.4252 26.0947 17.5803 26.3123 17.7526 26.5171C17.9163 27.1999 18.0412 27.3364 18.36 27.5327C18.4763 27.6053 18.6573 27.6821 18.8554 27.7717C18.8813 28.1259 19.3293 28.4417 19.6395 28.4971C20.5915 28.6636 21.7158 27.9509 22.4611 28.8727C22.9522 29.4786 22.7109 30.6863 22.5343 31.177C22.2845 31.8683 21.8192 32.3719 21.3066 32.9266C21.005 33.2509 20.7552 33.4685 20.613 33.5923C20.333 33.8355 20.0573 34.0702 19.7515 34.2623C19.5231 34.3348 19.2991 34.4074 19.0837 34.4756C18.7822 34.5738 18.4806 34.6805 18.1834 34.7871V34.7786ZM21.578 30.7716C21.7632 29.4189 19.9367 29.3079 19.0062 29.3933C18.9588 29.3975 18.9114 29.4018 18.8727 29.4317C18.6659 29.5853 19.213 29.9096 19.3077 29.9822C19.3896 30.0419 19.4714 30.0974 19.5576 30.1443C19.6739 30.2126 19.7902 30.2638 19.9022 30.3449C19.9324 30.3662 19.9582 30.3961 19.9712 30.4345C19.9798 30.4516 19.9798 30.4729 19.9712 30.4942C19.9625 30.5241 19.9367 30.5454 19.9152 30.5711C19.1613 31.2922 18.3256 31.9323 17.4511 32.5041C16.5421 33.1016 15.5815 33.6307 14.5993 34.1001C14.0436 34.3647 13.4792 34.6164 12.9149 34.8682C12.6263 34.9962 12.342 35.1243 12.0576 35.2523C11.9801 35.2864 11.4416 35.4742 11.4976 35.5766C11.5105 35.6022 11.5407 35.6107 11.5666 35.6193C11.7346 35.6619 11.8983 35.6278 12.062 35.6065C12.3204 35.5723 12.5875 35.5339 12.8331 35.4784C13.2897 35.376 13.7463 35.2267 14.1857 35.0859C15.099 34.7871 16.0122 34.4799 16.904 34.1172C18.0671 33.6435 19.1656 33.0632 20.2038 32.359C20.7466 31.9921 21.4832 31.4843 21.578 30.7801V30.7716ZM7.10793 30.7716C7.15962 30.682 7.1984 30.5711 7.15101 30.4857C7.11224 30.4217 7.0347 30.3876 6.95716 30.3833C6.87961 30.379 6.80638 30.4046 6.73315 30.426C6.53929 30.4857 6.34975 30.5454 6.1559 30.6052C6.00081 30.6521 5.76388 30.6863 5.66049 30.8228C5.57003 30.938 5.63034 31.1002 5.72511 31.1983C5.84573 31.3306 6.03958 31.352 6.20328 31.3349C6.57376 31.3008 6.91839 31.0831 7.10793 30.7673V30.7716ZM6.51776 29.6493C6.56514 29.5938 6.5996 29.5298 6.58237 29.4658C6.56083 29.3975 6.4876 29.3463 6.40575 29.3207C6.3239 29.2951 6.23344 29.2909 6.14297 29.2909C5.82419 29.2909 5.32017 29.2951 5.0617 29.4488C4.76446 29.6194 5.18232 29.8541 5.40633 29.9011C5.6088 29.9395 5.82419 29.9523 6.02666 29.9096C6.22482 29.8712 6.41006 29.7816 6.52637 29.6493H6.51776Z" fill="#395BB3"/>
<path d="M19.0063 29.3933C19.9368 29.3079 21.7633 29.4231 21.5781 30.7716C21.4833 31.4715 20.7467 31.9793 20.2039 32.3505C19.1657 33.0546 18.0672 33.635 16.9041 34.1086C16.0123 34.4714 15.1034 34.7786 14.1858 35.0773C13.7464 35.2181 13.2898 35.3675 12.8332 35.4699C12.5876 35.5254 12.3205 35.5638 12.0621 35.5979C11.8984 35.6193 11.7304 35.6534 11.5667 35.6107C11.5408 35.6022 11.5107 35.5937 11.4977 35.5681C11.4417 35.4656 11.9802 35.2779 12.0577 35.2437C12.3421 35.1157 12.6307 34.9877 12.915 34.8597C13.4793 34.6079 14.0437 34.3604 14.5994 34.0916C15.5816 33.6222 16.5422 33.093 17.4512 32.4956C18.3257 31.9238 19.1614 31.2837 19.9153 30.5625C19.9368 30.5412 19.9626 30.5198 19.9713 30.4857C19.9756 30.4644 19.9713 30.4473 19.9713 30.426C19.9583 30.3918 19.9325 30.362 19.9023 30.3363C19.7903 30.2553 19.674 30.2041 19.5577 30.1358C19.4715 30.0846 19.3854 30.0291 19.3078 29.9736C19.2088 29.9011 18.666 29.5768 18.8728 29.4231C18.9115 29.3933 18.9589 29.389 19.0063 29.3847V29.3933Z" fill="#395BB3"/>
<path d="M22.1295 21.6182C22.1251 21.7207 22.0304 21.7932 21.9442 21.8487C21.4488 22.1815 20.9189 22.493 20.57 22.9752C20.4192 23.1801 20.2642 23.6495 20.0229 23.7604C19.7903 23.8714 19.6611 23.5343 19.674 23.3593C19.7171 22.7747 19.8678 22.237 20.3072 21.8145C20.5312 21.6012 20.8026 21.4348 21.1042 21.3494C21.3713 21.2726 21.6599 21.2598 21.9141 21.3665C22.0218 21.4092 22.1295 21.4988 22.1251 21.614L22.1295 21.6182Z" fill="#395BB3"/>
<path d="M21.0827 33.8867C20.6821 34.1726 20.2427 34.3988 19.7817 34.5524C19.8507 34.4244 19.9497 34.2878 20.0531 34.1641C20.3891 34.0659 20.7338 33.9678 21.0827 33.8867Z" fill="#395BB3"/>
<path d="M20.053 34.1641C19.9496 34.2921 19.8505 34.4287 19.7816 34.5524C19.3379 34.7018 18.8769 34.7829 18.4031 34.7829C18.3385 34.7829 18.2738 34.7829 18.2092 34.7829C18.6486 34.7914 19.0751 34.5951 19.4671 34.4074C19.5662 34.3604 19.6567 34.3092 19.7471 34.2537C19.8462 34.2239 19.9496 34.1897 20.053 34.1599V34.1641Z" fill="#395BB3"/>
<path d="M19.7516 34.2537C19.6612 34.3092 19.5707 34.3604 19.4716 34.4073C19.0796 34.5951 18.6531 34.7871 18.2137 34.7829C18.2051 34.7829 18.1965 34.7829 18.1836 34.7829C18.4851 34.6762 18.7824 34.5738 19.0839 34.4714C19.2993 34.3988 19.5233 34.3263 19.7516 34.258V34.2537Z" fill="#395BB3"/>
<path d="M18.2266 26.6025C18.2352 26.675 18.2266 26.7604 18.162 26.7945C18.0887 26.8329 18.0069 26.7774 17.9466 26.722C17.8776 26.6579 17.813 26.5854 17.7527 26.5129C17.7398 26.4488 17.7226 26.3848 17.7053 26.3123C17.6752 26.18 17.3736 25.4076 16.4216 24.9382C15.8357 24.648 15.5816 24.759 15.3274 24.631C15.3791 24.6182 15.4308 24.6096 15.4825 24.6011C15.4566 24.4774 15.4351 24.3493 15.4179 24.2256C15.504 24.2256 15.5945 24.2256 15.6806 24.2427C15.9305 24.2811 16.1674 24.3749 16.4 24.4774C16.6801 24.5968 16.9558 24.7291 17.1927 24.9212C17.5244 25.1943 17.7441 25.5741 17.9595 25.9453C18.0801 26.1544 18.2007 26.3678 18.2266 26.6025Z" fill="#395BB3"/>
<path d="M17.5287 27.1145C17.6968 27.3193 17.8001 27.5711 17.77 27.8143C16.6413 27.3449 15.4351 27.0377 14.216 26.9182C14.1945 26.9182 14.1686 26.914 14.1471 26.9097C14.1299 26.7219 14.0825 26.5256 14.0652 26.3379C14.0609 26.2781 14.0609 26.2141 14.0652 26.1544C14.1643 26.116 14.2849 26.0946 14.3969 26.0861C15.2413 26.005 16.1416 26.197 16.8869 26.611C17.1324 26.7475 17.3607 26.9097 17.5331 27.1145H17.5287Z" fill="#395BB3"/>
<path d="M17.7096 26.3123C17.7268 26.3848 17.7397 26.4531 17.757 26.5129C17.5847 26.3123 17.4296 26.0904 17.253 25.8898C16.7963 25.382 16.176 25.0193 15.504 24.8742C15.3532 24.8401 15.1981 24.823 15.0473 24.8273C14.9741 24.8273 14.9009 24.8358 14.8276 24.8529C14.9827 24.7505 15.1507 24.6737 15.3317 24.631C15.5858 24.7547 15.84 24.648 16.4258 24.9382C17.3779 25.4076 17.6794 26.1757 17.7096 26.3123Z" fill="#395BB3"/>
<path d="M15.4179 24.2299C15.4351 24.3579 15.4566 24.4816 15.4825 24.6054C15.4308 24.6139 15.3791 24.6224 15.3274 24.6353C15.2757 24.6096 15.224 24.5755 15.1723 24.5243C15.1249 24.4816 15.0646 24.4176 15.0129 24.3152C15.1379 24.2597 15.28 24.2341 15.4179 24.2299Z" fill="#395BB3"/>
<path d="M15.1723 24.5243C15.2283 24.5755 15.2757 24.6096 15.3274 24.6352C15.1465 24.6779 14.9742 24.7547 14.8234 24.8571C14.7631 24.8699 14.6769 24.9297 14.6166 24.9297C14.4874 24.9297 14.608 24.6992 14.6597 24.6182C14.7286 24.5072 14.8277 24.4176 14.944 24.3536C14.9655 24.3408 14.9871 24.328 15.0129 24.3195C15.0646 24.4219 15.1249 24.4816 15.1723 24.5286V24.5243Z" fill="#395BB3"/>
<path d="M14.147 26.9097C14.0523 26.9012 13.9575 26.8798 13.8842 26.8286C13.7636 26.7476 13.7292 26.5939 13.7593 26.4702C13.7895 26.3464 13.8756 26.2397 13.9575 26.1373L13.8799 26.2824C13.9273 26.2269 13.9919 26.1843 14.0609 26.1544C14.0609 26.2141 14.0609 26.2782 14.0609 26.3379C14.0781 26.5257 14.1255 26.7219 14.1427 26.9097H14.147Z" fill="#395BB3"/>
<path d="M7.14688 30.4857C7.19857 30.5753 7.15549 30.6863 7.1038 30.7716C6.91425 31.0874 6.56963 31.305 6.19915 31.3392C6.03115 31.3562 5.83729 31.3306 5.72098 31.2026C5.63052 31.1045 5.5659 30.9423 5.65636 30.8271C5.76406 30.6905 5.99668 30.6564 6.15177 30.6095C6.34562 30.5497 6.53516 30.49 6.72902 30.4302C6.80225 30.4089 6.87548 30.3833 6.95303 30.3876C7.03057 30.3918 7.10811 30.4217 7.14688 30.49V30.4857Z" fill="black"/>
<path d="M6.57816 29.4658C6.59539 29.5298 6.56092 29.5981 6.51354 29.6493C6.40153 29.7816 6.2163 29.8712 6.01383 29.9096C5.81567 29.948 5.60028 29.9395 5.3935 29.9011C5.16949 29.8584 4.75163 29.6194 5.04887 29.4487C5.31165 29.2994 5.81567 29.2951 6.13014 29.2908C6.2163 29.2908 6.30676 29.2908 6.39292 29.3207C6.47908 29.3506 6.55231 29.3975 6.56954 29.4658H6.57816Z" fill="black"/>
<path d="M19.9757 30.4345C19.9627 30.4004 19.9369 30.3705 19.9067 30.3449C19.7947 30.2638 19.6784 30.2126 19.5621 30.1443C19.4759 30.0931 19.3898 30.0376 19.3122 29.9822C19.2132 29.9096 18.6704 29.5853 18.8772 29.4317C18.9159 29.4018 18.9633 29.3975 19.0107 29.3933C19.9412 29.3079 21.7677 29.4231 21.5825 30.7716C21.4877 31.4715 20.7511 31.9793 20.2083 32.3505C19.1701 33.0546 18.0716 33.635 16.9085 34.1086C16.0167 34.4714 15.1035 34.7786 14.1902 35.0773C13.7551 35.2181 13.2942 35.3675 12.8376 35.4699C12.592 35.5254 12.3249 35.5638 12.0664 35.5979C11.8984 35.6193 11.7347 35.6534 11.571 35.6107C11.5452 35.6022 11.515 35.5937 11.5021 35.5681C11.4461 35.4656 11.9846 35.2779 12.0621 35.2437C12.3465 35.1115 12.6351 34.9877 12.9194 34.8597C13.4837 34.6079 14.0481 34.3604 14.6038 34.0916C15.5903 33.6222 16.5466 33.093 17.4556 32.4956C18.3301 31.9238 19.1658 31.2837 19.9197 30.5625C19.9412 30.5412 19.967 30.5198 19.9757 30.49C19.98 30.4686 19.98 30.4516 19.9757 30.4302V30.4345Z" fill="black"/>
<path d="M34.4455 19.8132C35.2597 21.0422 35.6732 24.0506 35.4707 25.7789C35.2769 27.4474 34.9064 30.6222 32.2528 32.6364C32.0977 32.7559 31.71 33.0461 31.1586 33.3533C30.353 33.7971 29.1856 34.2665 27.8415 34.258C27.8071 34.258 27.7726 34.258 27.7425 34.258C27.2341 34.2452 27.0274 34.1598 25.6101 34.0873C24.0076 34.0062 23.2063 33.9635 22.4481 34.1086C20.8284 34.4159 19.8893 35.201 19.704 34.9578C19.5748 34.7828 19.9453 34.2494 20.264 33.9422C20.5785 33.6349 20.8887 33.5027 21.0567 33.4216C21.9656 32.965 22.4524 32.0475 22.6377 31.6891C23.2451 30.5369 23.3442 28.7574 22.5386 28.1813C22.181 27.9253 21.5822 27.985 21.1084 28.0192C20.6776 28.0491 20.2468 28.0277 19.8203 28.0789C19.773 28.0832 19.6265 28.1045 19.4456 28.0491C19.368 28.0235 19.312 27.9978 19.2905 27.985C18.9674 27.8144 18.5581 27.665 18.36 27.5412C18.011 27.3279 17.8947 27.1828 17.7052 26.3251C17.675 26.1928 17.3735 25.4204 16.4214 24.951C15.715 24.6053 15.491 24.8315 15.1679 24.5371C15.0085 24.392 14.7371 24.0335 14.8792 22.7661C15.0602 21.1403 15.7063 19.9625 15.8744 19.6596C16.1673 19.1389 16.8695 17.927 18.2867 16.9285C19.1139 16.3439 19.8591 16.0665 20.6259 15.7848C20.9059 15.6824 21.6512 15.4136 23.2494 15.085C25.6445 14.5943 25.5799 14.8631 26.7732 14.5089C27.9966 14.1462 28.8668 13.6256 30.2281 12.8148C31.1586 12.2601 31.9038 11.7352 32.4337 11.3426C32.4251 11.5047 32.3992 11.7864 32.3174 12.1278C32.3174 12.1278 32.102 13.0495 30.7493 15.0295C30.6373 15.2728 30.6158 15.3368 30.6158 15.3368C30.6029 15.3965 30.5856 15.4861 30.5943 15.6014C30.7407 15.5331 30.969 15.4307 31.2577 15.3325C32.6491 14.8716 33.8424 15.0722 34.691 15.2258C35.4578 15.3667 36.3926 15.5373 36.4529 15.947C36.4831 16.1646 36.2548 16.3609 35.9705 16.5999C35.0529 17.3723 34.3464 17.1717 33.8941 17.8161C33.8682 17.8545 33.5667 18.294 33.6571 18.8061C33.7562 19.3779 34.3335 19.6724 34.4326 19.8217L34.4455 19.8132Z" fill="#37B5D7"/>
<path d="M26.8033 24.6523C26.0149 25.3265 24.6451 26.9609 25.61 27.9851C26.0193 28.4203 26.6913 28.3521 27.2255 28.2496C27.8889 28.1216 28.5695 27.8827 29.1511 27.5455C29.8532 27.1444 30.5554 26.4616 30.564 25.6082C30.564 25.5655 30.564 24.7377 29.9222 24.2341C29.2975 23.7434 28.4661 23.7647 27.7596 24.0549C27.4064 24.1957 27.0919 24.4048 26.8033 24.6523Z" fill="#CA427C"/>
<path opacity="0.14" d="M28.4919 28.8556C27.6648 29.0092 26.7903 29.0092 26.0579 28.6166C25.8382 28.4971 25.6099 28.3051 25.6228 28.0533C25.6228 28.0363 25.6228 28.0192 25.6271 28.0064C25.6573 27.8314 25.8081 27.6906 25.9761 27.6138C26.157 27.5327 26.3595 27.5114 26.5533 27.473C27.3675 27.298 28.0568 26.7433 28.5306 26.0648C28.7029 25.8173 28.8494 25.5527 28.9786 25.2796C29.095 25.0278 29.194 24.7718 29.2802 24.5115C29.3362 24.3408 29.375 24.1445 29.4568 23.9781C29.4697 23.9525 29.487 23.9226 29.5042 23.897C29.599 23.7476 29.7411 23.7007 29.8876 23.7092C29.9781 23.7135 30.0728 23.7391 30.1633 23.7775C30.1935 23.7903 30.2279 23.8031 30.2581 23.8202C30.2538 23.8287 30.2495 23.8372 30.2452 23.8458C30.5381 24.1018 30.7449 24.456 30.8569 24.8699C31.3006 26.5384 29.9393 28.1003 28.4919 28.8598V28.8556Z" fill="#020F2B"/>
<path d="M27.5056 25.6935C27.5874 25.0662 27.8244 24.473 28.113 23.9268C28.2595 23.6495 28.4232 23.3763 28.5912 23.1118C28.6687 22.988 29.121 22.1602 29.2804 22.5912C29.3321 22.7277 29.2287 22.9283 29.177 23.0478C28.7419 24.0335 28.3155 25.0193 27.7813 25.9453C27.6607 26.1544 27.4625 26.18 27.484 25.8855C27.4884 25.8215 27.497 25.7575 27.5056 25.6935Z" fill="black"/>
<path d="M30.448 23.4702C30.3877 23.5855 30.3273 23.7007 30.2627 23.8159C30.2584 23.8244 30.2541 23.833 30.2498 23.8415C30.168 23.9951 30.0818 24.1487 29.9956 24.3024C29.8276 24.5968 29.6553 24.887 29.4615 25.1644C29.3753 25.2838 29.2418 25.2966 29.2633 25.1174C29.2676 25.079 29.2719 25.0406 29.2805 25.0065C29.3408 24.6693 29.4787 24.3536 29.6553 24.0634C29.6769 24.0293 29.6941 23.9994 29.7156 23.9652C29.7716 23.8756 29.8319 23.7903 29.8922 23.7049C29.9095 23.6793 29.931 23.6537 29.9482 23.6281C29.9827 23.5812 30.0172 23.5385 30.0516 23.4916C30.1076 23.419 30.4221 22.9368 30.5255 23.2014C30.56 23.2825 30.4867 23.402 30.448 23.4702Z" fill="black"/>
<path d="M30.8614 24.8657C30.7494 24.4517 30.5426 24.0975 30.2496 23.8415C30.2238 23.8202 30.1979 23.7946 30.1678 23.7732C30.0989 23.7178 30.0256 23.6708 29.9481 23.6281C29.7284 23.5087 29.4785 23.4318 29.1985 23.4062C29.1382 23.402 29.0822 23.3977 29.0219 23.3977C28.8022 23.3977 28.5825 23.4233 28.3671 23.4745C28.1388 23.5257 27.9191 23.6068 27.7037 23.7007C26.5104 24.2341 25.2956 25.1516 24.6451 26.2909C24.3307 26.8414 24.1971 27.4516 24.4513 28.0789C24.9898 29.4189 26.7775 29.5383 27.9493 29.0988C28.1302 29.0305 28.3154 28.9495 28.4964 28.8513C29.9481 28.0917 31.3051 26.5299 30.8614 24.8614V24.8657ZM30.3746 26.3549C30.353 26.3976 30.3272 26.4403 30.3013 26.483C30.2841 26.5128 30.2669 26.5384 30.2453 26.5683C30.2281 26.5939 30.2109 26.6195 30.1893 26.6451C30.1635 26.6835 30.1376 26.7177 30.1075 26.7518C30.0816 26.7817 30.0558 26.8115 30.0299 26.8457C30.0127 26.8627 29.9955 26.8841 29.9782 26.9012C29.9524 26.931 29.9266 26.9566 29.8964 26.9822C29.6982 27.1785 29.4742 27.345 29.2459 27.4858C29.2115 27.5071 29.1813 27.5242 29.1468 27.5455C28.7807 27.7546 28.38 27.9296 27.9665 28.0576C27.8028 28.1088 27.6348 28.1557 27.4668 28.1941C27.3849 28.2112 27.2988 28.2326 27.2169 28.2454C26.6914 28.3478 26.0366 28.4118 25.623 28.0021C25.6144 27.9936 25.6101 27.9893 25.6015 27.9808C24.6365 26.9566 26.0107 25.3223 26.7948 24.648C27.0791 24.4005 27.3978 24.1957 27.7511 24.0506C27.8631 24.0037 27.9837 23.9653 28.1 23.9311C28.1517 23.9183 28.1991 23.9055 28.2508 23.897C28.324 23.8799 28.3973 23.8714 28.4705 23.8628C28.4963 23.8628 28.5222 23.8586 28.5437 23.8543C28.5911 23.85 28.6428 23.8458 28.6902 23.8458C28.729 23.8458 28.7677 23.8458 28.8108 23.8458C29.0219 23.85 29.233 23.8884 29.4312 23.961C29.4355 23.961 29.4441 23.9653 29.4484 23.9695C29.4613 23.9738 29.4785 23.9823 29.4915 23.9866C29.5345 24.0037 29.5733 24.0207 29.6121 24.0421C29.6207 24.0463 29.6293 24.0506 29.6379 24.0549C29.7284 24.1018 29.8189 24.1616 29.9007 24.2256C29.9266 24.2469 29.9524 24.2682 29.9782 24.2938C30.5383 24.8016 30.5426 25.5612 30.5426 25.6039C30.5426 25.8727 30.4693 26.1202 30.353 26.3507L30.3746 26.3549Z" fill="black"/>
<path d="M18.1833 34.7829C18.1833 34.7829 18.1747 34.7829 18.1704 34.7829C18.6227 34.8042 19.0664 34.6036 19.4714 34.4116C19.9022 34.2068 20.2511 33.9038 20.613 33.5923C20.7594 33.4685 21.0093 33.2466 21.3065 32.9266C21.8192 32.3718 22.2887 31.8683 22.5343 31.177C22.7109 30.6863 22.9521 29.4829 22.461 28.8727C21.7158 27.9509 20.5914 28.6636 19.6394 28.4971C19.3034 28.4374 18.808 28.0789 18.8554 27.6906C19.6049 28.3606 20.7465 27.84 21.6081 27.7888C22.5213 27.7333 23.1934 28.4033 23.258 29.3335C23.3441 30.5966 22.9306 31.8555 22.1681 32.8455C21.2548 34.0275 19.8634 34.7829 18.3987 34.7957C18.3255 34.7957 18.2523 34.7957 18.179 34.7957L18.1833 34.7829Z" fill="black"/>
<path d="M2.4856 26.7603C3.15332 26.4659 3.95889 26.6664 4.6826 26.8457C7.15531 27.4602 9.86494 27.6949 12.1739 26.6323C12.5789 26.4445 13.0183 26.1544 13.2078 25.7404C13.3284 25.4759 13.2983 25.1772 13.4448 24.9211C13.5438 24.7504 13.6817 24.5968 13.8454 24.4816C13.8971 24.4432 14.302 24.2512 14.2891 24.1957C14.2805 24.1487 14.2676 24.0719 14.2546 23.9823C13.9574 22.2114 14.2546 20.3551 15.3488 18.9C17.5975 15.9171 21.3023 14.8076 24.839 14.1931C25.7264 14.0395 26.6268 13.967 27.497 13.6896C28.5696 13.3439 29.5561 12.7892 30.4091 12.0595C31.1629 11.4151 31.822 10.6555 32.5931 10.0411C33.0368 9.68687 32.9895 10.5531 32.9722 10.775C32.8473 12.4521 32.0891 14.1078 30.8183 15.2557C31.9556 14.8119 33.2092 14.59 34.4067 14.8162C35.1822 14.9612 35.9576 15.2941 36.552 15.819C36.7114 15.9598 37.3232 16.5231 37.2499 16.7706C37.1681 17.0309 36.3582 17.0309 36.1514 17.0522C35.5785 17.1077 35.0788 17.2528 34.5747 17.5771C34.4541 17.6539 34.3421 17.7393 34.2387 17.8417C33.6701 18.4178 33.9803 18.9426 34.3206 19.4462C36.061 22.0236 36.4831 25.4631 35.4019 28.3734C34.6178 30.4857 33.067 32.3163 31.094 33.4344C30.5641 33.7374 29.849 33.9464 29.2416 33.8568C29.638 33.6861 29.9223 33.4301 30.2324 33.1314C30.5814 32.7943 30.9002 32.423 31.2362 32.0688C34.5015 28.6038 35.2898 23.4489 33.2221 19.1688C33.0498 18.8103 32.8559 18.422 32.9464 18.038C32.9981 17.8203 33.1402 17.6326 33.291 17.4661C33.8252 16.8773 34.5489 16.4633 35.3286 16.2884C35.2252 15.9043 34.7858 15.7294 34.3938 15.6397C32.9851 15.3154 31.5032 15.405 30.1334 15.8574C30.4737 15.3112 30.7795 14.7436 31.0509 14.1633C31.1888 13.8731 31.3137 13.5786 31.4343 13.2799C31.5076 13.0964 31.5765 12.6526 31.71 12.5076C30.4048 13.9584 28.4619 14.6753 26.5406 15.0679C23.8697 15.6184 21.0524 15.6141 18.7477 17.2357C18.1619 17.6496 16.4646 18.8829 15.7064 21.1915C15.3402 22.301 15.2541 23.4788 15.4824 24.6267C14.6596 24.7291 13.9962 25.5399 14.0651 26.3549C14.0909 26.6835 14.2202 27.0292 14.0996 27.3364C13.9703 27.665 13.5998 27.8314 13.2638 27.9466C11.5019 28.5569 9.61939 28.7745 7.75841 28.6763C6.84514 28.6294 5.94049 28.5099 5.04877 28.3179C4.56629 28.2155 2.94223 27.426 3.04993 28.3307C3.61426 32.9266 7.84456 36.5452 12.5358 36.2892C14.806 36.1654 16.9255 35.1968 19.0837 34.4841C21.0136 33.8483 23.4691 33.1229 25.412 34.1001C24.2359 34.1001 23.1762 34.3604 22.0088 34.6634C20.7724 34.9877 19.549 35.4187 18.3772 35.9137C15.7021 37.0402 12.3721 38.0431 9.46431 37.3347C7.73256 36.9122 6.19466 35.8795 4.94107 34.6207C3.52379 33.1997 2.02466 31.241 1.53788 29.2652C1.30956 28.3478 1.46033 27.362 2.33483 26.8542C2.38652 26.8243 2.43822 26.7987 2.48991 26.7774L2.4856 26.7603Z" fill="black"/>
<path d="M33.5365 19.3993C35.7335 23.9311 34.8978 29.3933 31.4257 33.0631C31.3352 33.157 31.2448 33.2552 31.1586 33.3533C30.353 33.7971 29.1856 34.2665 27.8416 34.258C27.8071 34.258 27.7726 34.258 27.7425 34.258C27.2686 33.9977 26.7861 33.5795 26.8163 33.0973C26.8637 32.3377 27.4452 31.5866 27.9536 31.0575C28.5782 30.4046 29.3278 29.8499 29.9955 29.2268C32.7094 26.6835 33.8122 23.035 32.8774 19.6681C32.563 18.533 32.046 17.2869 32.718 16.2884C32.942 15.9513 33.2737 15.6952 33.6571 15.4819C34.0362 15.5117 34.4153 15.5715 34.7858 15.6568C35.1994 15.7507 35.6689 15.9385 35.7809 16.3439C34.9538 16.5274 34.187 16.9669 33.6184 17.5899C33.4547 17.7649 33.3082 17.9654 33.2522 18.1959C33.1531 18.6055 33.3599 19.0152 33.5451 19.395L33.5365 19.3993Z" fill="#34A0D4"/>
<path d="M17.1365 22.8088C17.0934 23.1246 17.158 24.1744 17.0934 24.8443C17.0633 25.1516 17.0073 25.382 16.9039 25.4247C16.8651 25.4417 16.822 25.4545 16.7789 25.4588C16.4774 25.2326 16.1371 25.062 15.7795 24.9467C15.6632 24.8401 15.5512 24.7248 15.4435 24.6096C15.4564 24.6096 15.4694 24.6054 15.4823 24.6054C15.4564 24.4816 15.4349 24.3536 15.4177 24.2298C15.2712 23.2057 15.3789 22.1602 15.7063 21.1702C16.4645 18.8616 18.1618 17.6283 18.7476 17.2144C19.2301 16.873 19.7341 16.6084 20.2554 16.3908C19.8203 16.8687 19.4369 17.3296 19.3593 17.4278C18.1747 18.9939 17.3993 20.8672 17.1365 22.8046V22.8088Z" fill="#41BDDE"/>
<path opacity="0.35" d="M9.63233 28.6508C9.6194 28.7105 9.58925 28.7702 9.55909 28.8215C9.26185 29.3207 8.63291 29.5298 8.05135 29.5341C7.46979 29.5384 6.89685 29.3805 6.31529 29.3293C5.73373 29.2738 5.10047 29.3463 4.66538 29.7304C4.49738 29.8797 4.36814 30.0675 4.1829 30.187C3.99336 30.3107 3.76504 30.3491 3.54534 30.315C3.3041 29.6792 3.1361 29.0092 3.04994 28.3179C2.93794 27.4175 4.5663 28.207 5.04447 28.3094C5.9362 28.4971 6.84515 28.6209 7.75411 28.6678C8.37875 28.6977 9.00338 28.6977 9.62802 28.655L9.63233 28.6508Z" fill="#CDDAFF"/>
<path d="M18.2006 26.8798C18.1274 26.9182 18.0067 26.7774 17.9507 26.7219C17.6879 26.4701 17.4941 26.1629 17.2529 25.894C17.1107 25.7362 16.9513 25.5911 16.779 25.463C16.4774 25.2369 16.1371 25.0662 15.7796 24.951C15.6891 24.9211 15.5943 24.8998 15.5039 24.8784C15.3531 24.8486 15.198 24.8272 15.0472 24.8315C14.974 24.8315 14.9008 24.84 14.8275 24.8571C14.7672 24.8699 14.6811 24.9296 14.6208 24.9296C14.4915 24.9296 14.6121 24.6992 14.6638 24.6181C14.7328 24.5072 14.8318 24.4176 14.9482 24.3535C15.0946 24.2725 15.2583 24.2383 15.422 24.2298C15.5125 24.2298 15.5986 24.2298 15.6848 24.2469C15.9347 24.2853 16.1716 24.3792 16.4042 24.4816C16.6455 24.584 16.8824 24.6949 17.0978 24.8486C17.1322 24.8742 17.1624 24.8998 17.1969 24.9254C17.5286 25.1985 17.7483 25.5783 17.9637 25.9495C18.0843 26.1586 18.2049 26.372 18.2307 26.6067C18.2394 26.6792 18.2652 26.8499 18.2006 26.8798Z" fill="black"/>
<path d="M13.8798 26.2824C13.9875 26.1458 14.1986 26.1032 14.3968 26.0861C15.2411 26.005 16.1414 26.197 16.8867 26.611C17.1323 26.7475 17.3649 26.9097 17.5329 27.1145C17.7009 27.3193 17.8043 27.5711 17.7741 27.8143C16.6455 27.3449 15.4393 27.042 14.2201 26.9182C14.1038 26.9054 13.9789 26.8926 13.8884 26.8286C13.7678 26.7475 13.7291 26.5939 13.7635 26.4702C13.798 26.3464 13.8798 26.2397 13.9617 26.1373" fill="black"/>
<path d="M21.3539 25.6295C21.621 25.2113 22.013 24.8529 22.4998 24.7163C22.9865 24.5797 23.6456 24.823 24.0721 24.6182C24.1497 24.5797 24.1712 24.4773 24.1195 24.4091C23.9946 24.2554 23.7404 24.1274 23.5939 24.0591C23.5509 24.0378 23.3182 23.9397 23.1201 23.8714C23.0038 23.8287 22.9952 23.6708 23.1072 23.6153C23.2622 23.5385 23.4346 23.5001 23.637 23.4788C23.8653 23.4575 24.7484 23.4148 24.7097 23.0393C24.6838 22.7875 23.9084 22.6168 23.7059 22.5784C23.3226 22.5101 22.9262 22.5229 22.5471 22.6083C21.2289 22.9155 19.8203 24.7248 20.6818 26.052C20.8886 26.3677 21.0825 26.1117 21.2031 25.8813C21.2505 25.7959 21.2979 25.7106 21.3496 25.6295H21.3539Z" fill="black"/>
<path d="M21.1083 21.3579C21.3754 21.2854 21.664 21.2683 21.9182 21.375C22.0259 21.4177 22.1336 21.5073 22.1293 21.6225C22.125 21.7249 22.0302 21.7975 21.944 21.8529C21.4486 22.1858 20.9188 22.4973 20.5698 22.9795C20.419 23.1843 20.264 23.6537 20.0227 23.7647C19.7815 23.8756 19.6609 23.5385 19.6738 23.3636C19.7169 22.7789 19.8676 22.2413 20.307 21.8188C20.5311 21.6054 20.8024 21.439 21.104 21.3537L21.1083 21.3579Z" fill="black"/>
<path d="M34.1267 31.0746C34.1267 31.0746 34.131 31.0917 34.1353 31.1002C34.1353 31.1343 34.1353 31.1685 34.1353 31.2026L34.1267 31.0746Z" fill="#CDDAFF"/>
<path d="M42.9276 22.0278L44.6163 21.2811C44.892 21.1616 45.228 21.3152 45.228 21.567C45.228 21.6865 45.1462 21.7974 45.0126 21.8529L44.2372 22.19C43.9486 22.3138 43.9529 22.6423 44.2415 22.7618L45.0083 23.0819C45.1419 23.1373 45.228 23.2483 45.228 23.3678C45.228 23.6195 44.8963 23.7774 44.6206 23.658L42.9319 22.9325C42.7984 22.877 42.7166 22.7661 42.7166 22.6466V22.3095C42.7166 22.19 42.7984 22.0833 42.9276 22.0236V22.0278Z" fill="#FF7D3F"/>
<path d="M48.2651 20.5343L47.2614 24.5242C47.2226 24.6779 47.0546 24.7845 46.8564 24.7845C46.598 24.7845 46.4041 24.5968 46.4515 24.3962L47.4552 20.4063C47.494 20.2527 47.662 20.146 47.8602 20.146C48.1186 20.146 48.3125 20.3338 48.2651 20.5343Z" fill="#FF7D3F"/>
<path d="M51.7846 22.9325L50.0959 23.658C49.8202 23.7774 49.4885 23.6195 49.4885 23.372C49.4885 23.244 49.5747 23.1373 49.7082 23.0776L50.475 22.7576C50.7636 22.6381 50.768 22.3095 50.4793 22.1857L49.7039 21.8486C49.5704 21.7931 49.4885 21.6822 49.4885 21.5627C49.4885 21.3152 49.8288 21.1573 50.1002 21.2768L51.7889 22.0236C51.9182 22.0791 52 22.19 52 22.3095V22.6466C52 22.7661 51.9182 22.877 51.7846 22.9325Z" fill="#FF7D3F"/>
</g>
<defs>
<clipPath id="clip0_1306_1672">
<rect width="52" height="47" fill="white"/>
</clipPath>
</defs>
</svg>
