<svg width="380" height="417" viewBox="0 0 380 417" fill="none" xmlns="http://www.w3.org/2000/svg">
<g clip-path="url(#clip0_1509_13)">
<path d="M149.522 44.1459C150.026 44.9262 151.091 45.752 152.048 45.496C152.765 45.3034 153.136 44.583 153.367 44.1337C154.104 42.6997 153.455 41.9632 154.044 40.6569C154.093 40.5475 154.798 39.0404 156.313 38.6213C157.876 38.1872 159.27 39.1979 159.896 39.6507C160.185 39.8612 162.522 41.5499 162.237 43.5589C162.07 44.7451 161.072 45.4404 159.477 46.5132C156.793 48.3208 155.525 48.0627 152.627 49.939C151.651 50.572 150.842 51.1022 150.005 52.0815C149.911 52.1908 148.265 54.1664 148.01 56.9207C147.967 57.382 147.985 57.619 148.101 57.8552C148.71 59.1079 151.608 59.4988 152.865 58.334C153.783 57.484 153.127 56.4572 154.001 55.1027C154.715 53.9989 155.708 53.8208 157.787 52.9918C161.03 51.7015 162.96 50.9313 164.53 49.2135C165.097 48.5951 166.589 46.9626 166.755 44.4971C166.95 41.613 165.194 39.5556 164.692 38.9653C162.986 36.964 160.869 36.3438 159.761 36.0353C158.461 35.6737 155.549 34.8619 152.76 36.4278C152.418 36.62 150.191 37.9157 149.387 40.5305C149.162 41.2665 148.679 42.8391 149.522 44.1459Z" fill="#E1E1E6" fill-opacity="0.2"/>
<path d="M148.252 60.8885C148.039 61.4746 148.379 62.0547 148.45 62.1754C148.945 63.0161 150.2 63.5686 151.222 63.0662C151.939 62.714 152.582 61.8204 152.327 60.9991C151.997 59.9369 150.445 59.8959 150.259 59.8944C149.67 59.8866 148.547 60.081 148.252 60.8885Z" fill="#E1E1E6" fill-opacity="0.2"/>
<path d="M139.436 50.8626C138.729 51.3467 138.76 51.88 138.24 51.9952C137.738 52.1074 137.095 51.7404 136.862 51.2587C136.423 50.3567 137.341 48.8926 138.458 48.2728C140.023 47.4054 141.801 48.2879 142.18 48.4904C144.118 49.5286 145.385 52.0633 144.719 53.6856C144.052 55.3103 141.935 54.8287 140.902 56.9607C140.418 57.9601 140.412 59.0376 139.674 59.2576C139.158 59.4125 138.674 59.03 138.633 58.9963C138.006 58.4841 138.141 57.3041 138.466 56.5451C138.944 55.4303 139.732 55.5088 141.28 53.767C142.165 52.7728 142.287 52.3182 142.262 51.9296C142.221 51.3529 141.836 50.7366 141.252 50.5041C140.437 50.1779 139.612 50.7438 139.436 50.8626Z" fill="#E1E1E6" fill-opacity="0.2"/>
<path d="M140.231 62.3601C139.828 62.0976 139.037 61.8431 138.485 62.3127C138.008 62.7192 137.981 63.4374 138.208 63.9363C138.462 64.5036 139.116 64.9501 139.815 64.7955C140.515 64.6409 140.986 63.9418 140.904 63.3105C140.833 62.7528 140.353 62.4404 140.231 62.3601Z" fill="#E1E1E6" fill-opacity="0.2"/>
</g>
<g clip-path="url(#clip1_1509_13)">
<path d="M85.1968 42.9266C87.6247 43.5566 91.2496 43.2536 92.6858 40.9955C93.7596 39.3027 93.1796 37.1942 92.8186 35.8786C91.6638 31.6819 89.0288 31.403 87.8131 27.7302C87.7119 27.4223 86.3604 23.1384 88.6053 19.539C90.9209 15.8198 95.5382 15.2826 97.6101 15.0388C98.5693 14.9294 106.299 14.018 109.402 18.5329C111.236 21.1966 110.523 24.401 109.312 29.4473C107.278 37.9444 104.286 39.7468 101.952 48.7714C101.168 51.8126 100.528 54.3445 100.654 57.8189C100.667 58.2077 101.003 65.1423 105.527 71.0842C106.285 72.0796 106.753 72.5178 107.415 72.7755C110.914 74.1531 117.388 69.6375 117.76 65.0254C118.032 61.6589 114.852 60.8161 114.116 56.5259C113.519 53.0276 115.168 50.86 117.786 45.4145C121.877 36.9243 124.306 31.869 124.29 25.5852C124.287 23.3206 124.272 17.3488 120.098 12.1444C115.217 6.05502 107.968 5.17232 105.891 4.91652C98.8438 4.0545 93.5035 6.68766 90.7377 8.09788C87.4911 9.7555 80.2199 13.4602 77.5366 21.6671C77.2081 22.6739 75.146 29.3192 78.3244 35.9856C79.2216 37.8599 81.1338 41.8686 85.1968 42.9266Z" fill="#E1E1E6" fill-opacity="0.2"/>
<path d="M113.256 78.5304C113.903 80.0842 115.638 80.6171 116 80.727C118.521 81.4928 122.025 80.2988 123.138 77.4343C123.92 75.4248 123.566 72.4739 121.558 71.3069C118.962 69.7981 115.802 72.5516 115.431 72.8869C114.245 73.9478 112.369 76.3849 113.256 78.5304Z" fill="#E1E1E6" fill-opacity="0.2"/>
<path d="M77.4165 74.7022C76.8942 76.9571 77.9299 77.9607 77.1081 79.1383C76.3134 80.2798 74.3658 80.7239 73.0232 80.1916C70.5023 79.2007 69.6533 74.6129 70.741 71.341C72.2675 66.7578 77.415 65.2635 78.5383 64.9739C84.2862 63.499 91.4361 66.2224 93.0753 70.6645C94.7162 75.1134 89.6286 78.0227 91.4695 84.1481C92.3331 87.0185 94.2896 89.1715 93.225 90.9563C92.4805 92.2083 90.8205 92.3314 90.6773 92.3393C88.4955 92.4663 86.6074 89.8745 85.8688 87.7705C84.7819 84.6818 86.4914 83.3987 86.387 77.1087C86.3314 73.5144 85.7433 72.3881 84.9825 71.6622C83.8491 70.5894 81.9575 70.0679 80.371 70.673C78.1552 71.513 77.5488 74.1453 77.4165 74.7022Z" fill="#E1E1E6" fill-opacity="0.2"/>
<path d="M99.9988 96.1074C98.718 96.3215 96.6803 97.2608 96.4406 99.2032C96.2347 100.883 97.4939 102.359 98.8556 102.937C100.399 103.599 102.513 103.294 103.621 101.708C104.73 100.123 104.389 97.8724 103.073 96.7668C101.913 95.788 100.389 96.0431 99.9988 96.1074Z" fill="#E1E1E6" fill-opacity="0.2"/>
</g>
<g clip-path="url(#clip2_1509_13)">
<path d="M377.404 305.795C374.715 321.835 371.718 339.731 358.003 358.076C353.119 364.605 341.933 379.176 321.207 387.568C317.414 389.103 297.37 396.885 272.369 391.59C265.839 390.209 260.427 388.239 256.353 386.476C260.842 382.059 263.786 377.662 265.679 374.833C272.249 365.02 275.045 355.509 276.236 349.752C277.969 349.624 279.822 349.336 281.735 348.022C286.559 344.704 287.395 337.861 287.756 331.265C288.265 322.076 287.843 313.932 287.255 307.906C286.606 301.184 285.749 297.081 285.749 297.081C280.692 272.851 276.43 273.153 277.052 262.227C278.042 244.793 289.529 232.95 291.77 230.724C303.926 218.639 318.35 216.89 325.89 215.978C329.315 215.563 334.039 214.986 339.29 215.308C345.231 215.67 351.841 217.178 358.003 221.341C360.077 222.742 363.656 225.503 367.369 230.724C385.299 255.96 378.455 299.535 377.404 305.795Z" fill="#2F60A2"/>
<path d="M377.605 305.829C376.421 312.846 375.183 319.877 373.29 326.754C371.423 333.631 368.888 340.348 365.563 346.668L364.947 347.855L364.285 349.014L362.954 351.333L361.515 353.592L360.799 354.725L360.037 355.824C358.016 358.773 355.862 361.609 353.581 364.363C349.031 369.88 343.786 374.833 338.006 379.069C335.109 381.187 332.052 383.071 328.914 384.813L326.512 386.033L325.308 386.643L324.077 387.193L321.615 388.285C320.786 388.634 319.943 388.956 319.1 389.271C312.343 391.744 305.278 393.272 298.133 394.023C290.981 394.693 283.736 394.559 276.611 393.487C269.486 392.421 262.501 390.417 255.871 387.582C255.256 387.32 254.968 386.603 255.229 385.986C255.289 385.839 255.383 385.712 255.49 385.604L255.503 385.591C257.952 383.158 260.159 380.49 262.173 377.668C263.177 376.261 264.167 374.8 265.097 373.338C266.047 371.891 266.91 370.389 267.746 368.874C269.385 365.825 270.83 362.668 272.014 359.417C273.212 356.166 274.162 352.828 274.844 349.45C274.971 348.813 275.507 348.371 276.122 348.324C277.567 348.217 278.838 347.962 279.982 347.372C281.126 346.782 282.137 345.918 282.919 344.852C284.505 342.714 285.268 339.885 285.696 337.01C286.124 334.121 286.231 331.091 286.338 328.075C286.425 325.059 286.425 322.042 286.331 319.033C286.144 313.007 285.615 306.981 284.699 301.043C284.458 299.555 284.224 298.087 283.883 296.652C283.542 295.185 283.24 293.703 282.859 292.242C282.15 289.313 281.347 286.411 280.457 283.549C279.554 280.68 278.524 277.898 277.42 275.043C276.871 273.615 276.33 272.12 275.888 270.545C275.44 268.964 275.212 267.288 275.105 265.652C275.078 264.835 275.038 264.017 275.079 263.219C275.092 262.817 275.092 262.415 275.119 262.013L275.226 260.82C275.306 260.029 275.346 259.231 275.46 258.44L275.848 256.081C276.457 252.957 277.36 249.894 278.551 246.952C280.986 241.087 284.405 235.698 288.633 230.979C292.914 226.281 298.106 222.413 303.826 219.692C309.533 216.924 315.721 215.315 321.876 214.457C323.415 214.229 324.94 214.068 326.452 213.894C327.971 213.726 329.516 213.565 331.075 213.458C334.186 213.237 337.344 213.217 340.495 213.505C346.783 214.082 353.086 216.052 358.377 219.645C361.04 221.421 363.395 223.613 365.449 225.999C366.479 227.192 367.436 228.446 368.326 229.732C369.175 231.046 370.058 232.347 370.788 233.727C371.577 235.075 372.233 236.489 372.908 237.89C373.524 239.317 374.146 240.738 374.661 242.2C375.725 245.109 376.621 248.071 377.297 251.074C378.702 257.073 379.438 263.186 379.772 269.299C380.094 275.412 380.06 281.531 379.659 287.624C379.291 293.717 378.635 299.796 377.598 305.808L377.605 305.829ZM377.21 305.761C379.077 293.743 379.672 281.491 378.635 269.399C378.08 263.36 377.123 257.361 375.531 251.543C374.755 248.627 373.778 245.779 372.648 243.011C372.099 241.616 371.443 240.269 370.801 238.922C370.099 237.608 369.43 236.274 368.62 235.028C365.556 229.954 361.549 225.416 356.631 222.38C351.727 219.269 346.014 217.647 340.194 217.252C337.283 217.037 334.34 217.105 331.389 217.359C329.911 217.487 328.432 217.661 326.934 217.855C325.428 218.05 323.937 218.244 322.465 218.458C316.584 219.31 310.871 220.845 305.626 223.418C303.017 224.712 300.488 226.18 298.18 227.956C297.577 228.365 297.042 228.861 296.474 229.31C295.912 229.773 295.343 230.228 294.821 230.738L293.222 232.226C292.707 232.742 292.205 233.258 291.717 233.801C287.783 238.118 284.558 243.138 282.284 248.513C281.16 251.208 280.337 254.016 279.735 256.858L279.353 259.003C279.24 259.72 279.2 260.444 279.113 261.168L278.999 262.254C278.972 262.616 278.972 262.971 278.952 263.333C278.905 264.057 278.932 264.761 278.952 265.465C279.032 266.866 279.193 268.226 279.561 269.58C279.922 270.941 280.404 272.322 280.926 273.743C281.983 276.585 283.033 279.527 283.923 282.483C284.806 285.446 285.595 288.435 286.284 291.431C286.652 292.926 286.94 294.434 287.268 295.935C287.609 297.47 287.837 299.012 288.064 300.54C288.934 306.66 289.389 312.799 289.523 318.959C289.589 322.036 289.556 325.112 289.442 328.189C289.302 331.259 289.168 334.335 288.68 337.472C288.432 339.034 288.091 340.609 287.556 342.164C287.027 343.712 286.298 345.247 285.254 346.628C284.217 348.002 282.852 349.168 281.28 349.953C279.701 350.757 277.922 351.065 276.336 351.159L277.621 350.033C276.865 353.559 275.848 357.017 274.577 360.382C273.319 363.747 271.787 367.011 270.054 370.155C269.171 371.716 268.261 373.271 267.258 374.759C266.281 376.261 265.277 377.709 264.22 379.163C262.113 382.059 259.778 384.82 257.202 387.334L256.834 385.35C263.257 388.165 270.021 390.176 276.952 391.282C283.876 392.394 290.948 392.589 297.945 392.006C304.937 391.362 311.894 389.988 318.531 387.676C319.361 387.381 320.183 387.079 321 386.757L323.428 385.725L324.646 385.209L325.83 384.633L328.205 383.48C331.309 381.817 334.353 380.034 337.243 378.01C343.017 373.955 348.295 369.183 352.925 363.814C355.226 361.126 357.421 358.324 359.468 355.435L360.244 354.356L360.973 353.244L362.432 351.018L363.79 348.733L364.465 347.587L365.094 346.414C368.513 340.193 371.075 333.511 372.955 326.661C374.875 319.81 376.039 312.779 377.21 305.761Z" fill="#0F195E"/>
<path opacity="0.24" d="M341.966 216.649C336.942 218.921 330.78 222.514 325.555 229.049C317.039 239.706 314.711 253.172 314.711 253.172C314.423 254.834 314.269 256.228 314.182 257.2C313.252 254.271 312.376 250.075 312.844 245.135C312.985 243.674 313.226 242.334 313.513 241.114C311.874 243.594 310.168 246.724 308.83 250.498C305.124 260.967 306.415 270.384 307.492 275.298C306.007 272.717 303.813 268.045 303.478 261.892C303.304 258.702 303.679 255.954 304.147 253.849C300.053 266.108 299.35 275.941 299.464 282.671C299.598 290.66 300.949 297.443 296.788 303.449C294.881 306.197 292.352 308.02 289.93 309.247C289.282 302.524 288.425 298.422 288.425 298.422C283.367 274.192 279.106 274.493 279.728 263.568C280.718 246.134 292.205 234.29 294.446 232.065C306.602 219.98 321.026 218.231 328.566 217.319C331.991 216.903 336.715 216.327 341.966 216.649Z" fill="white"/>
<path d="M144.587 268.93L97.0872 289.038C90.8989 281.766 82.3957 265.739 81.6999 262.227C81.3922 260.679 81.0443 258.909 80.7633 256.979C79.9003 251.128 79.6461 243.741 83.038 236.087C87.9084 225.087 99.8235 214.625 114.482 214.638C119.018 214.638 124.49 215.65 129.441 217.855C135.428 220.509 140.66 224.913 142.58 231.395C145.932 242.722 137.114 253.413 135.89 254.854C134.88 256.041 131.24 260.123 125.005 262.797L144.587 268.93Z" fill="#45BDCD"/>
<path opacity="0.44" d="M129.441 217.855C127.715 218.988 125.627 219.92 123.513 220.335C121.419 220.744 120.342 220.436 118.161 220.335C109.203 219.926 101.924 223.982 100.098 225.027C98.0774 226.187 92.7788 229.303 88.7246 235.752C86.3429 239.539 83.426 244.184 84.0415 249.827C84.2957 252.16 85.0517 253.748 84.0415 255.189C83.3725 256.134 82.1214 256.751 80.7633 256.979C79.9003 251.128 79.6461 243.741 83.038 236.087C87.9084 225.087 99.8235 214.625 114.482 214.638C119.018 214.638 124.49 215.65 129.441 217.855Z" fill="white"/>
<path d="M91.0663 252.173C93.3543 255.933 96.4987 259.131 100.212 261.269C103.925 263.414 108.173 264.439 112.374 264.325C116.582 264.205 120.724 263.079 124.544 261.309C128.31 259.539 131.689 256.912 134.311 253.795C136.894 250.605 138.988 246.831 140.145 242.964C141.296 239.083 141.43 235.028 140.105 231.415C138.821 227.802 136.151 224.786 132.826 222.594C129.494 220.409 125.607 218.887 121.593 218.043C119.586 217.614 117.539 217.359 115.519 217.292C113.498 217.239 111.498 217.379 109.518 217.741C105.571 218.485 101.764 220.034 98.3318 222.232C91.4878 226.636 86.0755 233.573 83.8276 241.342C82.7036 245.249 82.4026 249.398 82.717 253.574C82.8709 255.665 83.1719 257.763 83.5533 259.888L83.8343 261.497L83.8677 261.698L83.8878 261.798L83.9012 261.859C83.9212 261.939 83.9279 261.999 83.9614 262.113C84.0082 262.308 84.0885 262.536 84.1621 262.764C84.4832 263.695 84.8913 264.68 85.3195 265.652C87.0589 269.567 89.086 273.448 91.2269 277.215C93.3878 280.975 95.6223 284.735 98.2448 288.06L96.5054 287.644L108.494 282.885L120.503 278.173C128.518 275.056 136.539 271.953 144.594 268.937C136.82 272.623 129.006 276.216 121.185 279.809L109.444 285.151L97.6828 290.446C97.0874 290.714 96.405 290.553 95.9902 290.084L95.9434 290.03C94.4181 288.321 93.0533 286.531 91.7487 284.708C90.4441 282.885 89.1998 281.035 88.0223 279.145C85.6674 275.358 83.4462 271.511 81.4459 267.455C80.9508 266.43 80.4691 265.404 80.0276 264.272C79.9205 263.977 79.8068 263.688 79.7064 263.353C79.6529 263.206 79.6061 262.998 79.5593 262.81L79.4589 262.361L79.111 260.726C78.6695 258.527 78.2814 256.269 78.054 253.976C77.5924 249.392 77.7931 244.613 79.004 240.014C80.1814 235.403 82.4093 231.113 85.2258 227.373C88.0557 223.626 91.5079 220.349 95.4617 217.768C97.4286 216.468 99.5427 215.375 101.737 214.464C103.938 213.579 106.246 212.929 108.594 212.506C110.943 212.098 113.344 211.95 115.719 212.031C118.088 212.131 120.416 212.439 122.704 212.949C127.26 213.968 131.736 215.663 135.683 218.432C137.65 219.806 139.483 221.448 141.022 223.378C142.567 225.295 143.798 227.514 144.581 229.873C145.37 232.233 145.718 234.733 145.624 237.186C145.557 239.639 145.022 242.025 144.273 244.271C143.51 246.523 142.48 248.641 141.296 250.638C140.098 252.636 138.76 254.506 137.188 256.269C135.603 258.031 133.823 259.546 131.903 260.86C129.99 262.18 127.936 263.273 125.795 264.144C125.26 264.365 124.711 264.546 124.169 264.754C123.641 264.935 123.099 265.116 122.55 265.277C121.453 265.605 120.336 265.88 119.212 266.101C116.957 266.53 114.656 266.705 112.368 266.604C107.785 266.41 103.249 264.962 99.5561 262.341C95.8297 259.767 92.9462 256.161 91.0931 252.173H91.0663Z" fill="#0F195E"/>
<path d="M280.698 323.859C280.457 314.857 279.554 305.875 277.962 297.014V296.994C276.122 286.793 273.379 276.759 269.673 267.08C263.558 251.094 251.911 238.781 242.852 224.591C242.043 223.325 241.253 222.044 240.491 220.744C239.815 219.591 238.979 218.123 238.095 216.448C238.082 216.428 238.069 216.401 238.055 216.374C237.821 215.938 237.594 215.489 237.353 215.033C237.259 214.866 237.179 214.692 237.099 214.524C235.694 211.729 234.255 208.538 233.172 205.355C233.172 205.355 233.172 205.341 233.165 205.335C231.459 200.321 230.636 195.334 232.222 191.969C232.248 191.909 232.275 191.842 232.309 191.782C232.309 191.782 232.309 191.761 232.322 191.755C233.64 189.181 237.781 186.627 239.668 184.254C239.855 184.02 240.042 183.785 240.23 183.537C240.41 183.296 240.598 183.055 240.772 182.813C241.133 182.324 241.487 181.835 241.829 181.332C241.996 181.084 242.163 180.836 242.33 180.581C242.498 180.327 242.665 180.072 242.825 179.817C242.986 179.563 243.147 179.308 243.3 179.046C243.668 178.443 244.03 177.827 244.378 177.183C244.531 176.908 244.685 176.62 244.832 176.332C244.973 176.077 245.107 175.816 245.234 175.548C245.401 175.226 245.562 174.897 245.716 174.562C245.863 174.261 246.003 173.952 246.137 173.644C246.278 173.336 246.418 173.021 246.552 172.706C246.686 172.384 246.819 172.062 246.947 171.74C248.592 167.618 252.593 157.189 249.623 144.93C249.154 142.992 248.559 141.203 247.897 139.567C247.736 139.179 247.883 138.73 248.251 138.522C248.392 138.441 248.545 138.361 248.699 138.28C249.014 138.12 249.355 137.952 249.723 137.798C249.917 137.717 250.124 137.637 250.338 137.557C250.526 137.49 250.713 137.429 250.907 137.362C251.161 137.282 251.422 137.208 251.69 137.141C251.87 137.094 252.058 137.054 252.245 137.014C252.479 136.967 252.72 136.926 252.968 136.886C253.878 136.752 254.754 136.719 255.597 136.766C260.079 137.007 263.638 139.487 265.679 140.908C266.816 141.699 267.826 142.55 268.716 143.415C268.897 143.589 269.071 143.763 269.238 143.938C269.358 144.051 269.472 144.179 269.586 144.299C269.706 144.427 269.82 144.554 269.934 144.682C270.342 145.131 270.71 145.573 271.051 146.015C271.165 146.163 271.272 146.304 271.379 146.444C271.513 146.619 271.64 146.8 271.767 146.974C272.202 147.591 273.145 147.363 273.272 146.652C273.272 146.632 273.286 146.605 273.286 146.578C273.286 146.558 273.286 146.545 273.286 146.525C273.379 145.104 273.413 143.281 273.225 141.23C272.857 137.154 271.633 132.161 268.348 127.502C263.451 120.552 256.159 117.462 252.961 116.108C251.536 115.505 250.218 115.042 249.054 114.687C248.331 114.466 248.244 113.48 248.92 113.132C252.847 111.094 258.688 107.307 263.665 100.692C267.024 96.2208 268.97 91.8104 270.128 88.3384C270.402 87.5207 269.412 86.8705 268.77 87.4469C266.314 89.6521 263.076 92.0316 258.982 93.9888C256.353 95.2489 250.091 98.1579 241.588 98.0104C236.59 97.9233 232.87 96.8106 230.214 95.9996C222.648 93.6805 218.206 90.4162 214.158 87.9563C212.994 87.2459 208.365 84.4843 201.842 81.9574C197.486 80.2683 192.288 78.6865 186.729 77.9023C172.579 75.8981 161.212 79.7589 157.292 81.2536C146.086 85.53 139.081 92.1053 136.553 94.6591C128.752 102.528 125.153 110.772 123.172 115.438C123.172 115.438 121.567 119.218 120.496 122.811C120.095 124.158 119.767 125.559 119.519 126.993C115.766 148.12 127.22 177.934 133.207 193.189C136.486 201.527 139.148 207.339 139.898 216.649C140.045 218.479 140.219 221.689 139.951 225.697C139.938 225.878 139.991 226.066 140.098 226.22C141.162 227.769 142.012 229.491 142.574 231.395C145.925 242.722 137.108 253.413 135.884 254.854C134.867 256.047 131.194 260.163 124.905 262.837C124.825 262.871 124.744 262.918 124.678 262.978C122.998 264.52 100.245 285.338 97.0339 288.978C86.5303 300.895 84.249 304.897 82.3624 309.146C79.9673 314.535 75.224 325.528 76.3413 339.309C78.355 364.182 97.9437 379.532 102.433 382.876C105.457 385.283 109.819 388.42 115.459 391.402C115.579 391.469 115.693 391.53 115.813 391.59C128.297 398.112 139.168 399.74 147.926 400.974C162.932 403.085 175.155 402.18 191.412 400.974C191.539 400.967 191.659 400.954 191.78 400.947C195.225 400.692 198.323 400.404 200.965 400.129C201.199 400.102 201.427 400.082 201.654 400.055C201.721 400.049 201.795 400.042 201.862 400.035C202.156 400.002 202.444 399.975 202.718 399.942C203.655 399.841 204.524 399.74 205.314 399.653C205.414 399.64 205.508 399.647 205.601 399.667C205.628 399.673 205.655 399.68 205.688 399.687C205.869 399.734 206.076 399.781 206.284 399.834C206.485 399.874 206.699 399.928 206.926 399.982C207.093 400.015 207.261 400.055 207.441 400.089C210.311 400.699 214.72 401.436 220.005 401.537H220.086C228.147 401.664 238.243 400.317 248.044 394.794C248.345 394.626 248.646 394.452 248.947 394.271C259.511 388.024 265.298 379.391 268.348 374.833C270.844 371.1 272.891 367.165 274.55 363.09C277.28 356.401 278.959 349.323 279.869 342.104C280.631 336.071 280.852 329.945 280.692 323.859H280.698Z" fill="#45BDCD"/>
<path opacity="0.44" d="M201.554 82.8355C201.367 83.3181 200.805 83.7805 200.149 84.0487C195.847 85.8182 189.719 84.6117 185.136 85.0675C164.29 87.1319 148.996 104.753 136.231 119.788C133.341 123.193 130.879 126.49 130.879 126.49C129.501 128.334 128.377 129.942 127.534 131.182C126.042 130.68 122.63 129.406 119.533 126.986C119.78 125.552 120.108 124.151 120.509 122.804C121.58 119.211 123.186 115.431 123.186 115.431C125.166 110.766 128.765 102.521 136.566 94.6524C139.095 92.0986 146.099 85.5233 157.305 81.2469C170.906 76.059 187.09 76.3003 200.691 81.5083C201.554 81.8435 201.748 82.3395 201.561 82.8288L201.554 82.8355Z" fill="white"/>
<path d="M280.698 323.859C280.558 319.361 280.257 314.864 279.788 310.393C279.333 305.916 278.631 301.465 277.795 297.048V297.021V297.001V297.035C276.383 289.595 274.389 282.275 271.927 275.137C270.67 271.584 269.325 268.032 267.779 264.634C266.201 261.235 264.347 257.971 262.34 254.807C258.32 248.473 253.63 242.575 249.027 236.536C246.726 233.513 244.444 230.456 242.263 227.299C241.153 225.738 240.143 224.089 239.099 222.473C238.075 220.838 237.145 219.149 236.162 217.48L236.276 217.674C236.215 217.587 236.135 217.44 236.108 217.386L236.062 217.306L235.975 217.145L235.794 216.823L235.439 216.18L234.697 214.752C234.222 213.827 233.76 212.902 233.319 211.957C232.422 210.073 231.626 208.136 230.917 206.139L230.79 205.375C230.79 205.65 230.843 205.971 230.97 206.273C231.091 206.575 231.285 206.843 231.479 207.03L230.91 206.119C230.107 203.826 229.465 201.447 229.144 198.9C228.99 197.626 228.937 196.306 229.064 194.932C229.117 194.248 229.244 193.544 229.425 192.841C229.519 192.492 229.639 192.13 229.759 191.782L229.973 191.272L230.081 191.017L230.254 190.656C230.275 190.609 230.301 190.568 230.335 190.528L230.636 190.146L230.683 190.086L230.234 190.696C230.87 189.509 231.626 188.692 232.348 187.941C233.078 187.204 233.814 186.56 234.523 185.944C235.232 185.327 235.921 184.744 236.543 184.161C236.858 183.872 237.152 183.584 237.406 183.309C237.547 183.169 237.654 183.035 237.767 182.9C237.875 182.78 238.028 182.579 238.156 182.418C239.226 181.037 240.256 179.563 241.166 178.081C241.614 177.331 242.063 176.56 242.491 175.782C242.705 175.387 242.906 175.005 243.093 174.623L243.675 173.436C244.043 172.645 244.404 171.841 244.732 171.023C245.066 170.185 245.394 169.348 245.689 168.516C246.284 166.847 246.792 165.165 247.201 163.456C247.609 161.747 247.923 160.024 248.11 158.288C248.231 157.423 248.258 156.552 248.325 155.681C248.325 154.809 248.391 153.938 248.338 153.073C248.244 149.601 247.689 146.149 246.612 142.852C246.478 142.443 246.338 142.027 246.184 141.625L245.655 140.244C245.388 139.42 245.475 138.468 245.916 137.697C246.137 137.309 246.438 136.967 246.799 136.705C246.886 136.638 246.98 136.585 247.073 136.524L247.187 136.457L247.368 136.357C247.85 136.095 248.338 135.888 248.826 135.653C249.328 135.452 249.803 135.264 250.312 135.117C250.84 134.956 251.375 134.815 251.91 134.715C252.967 134.5 254.078 134.406 255.162 134.426C257.336 134.46 259.464 134.976 261.384 135.767C263.31 136.551 265.063 137.63 266.635 138.723C268.241 139.802 269.873 141.176 271.205 142.604C271.566 142.979 271.894 143.361 272.215 143.757C272.529 144.145 272.891 144.547 273.158 144.916L273.607 145.519C273.754 145.72 273.593 145.479 273.433 145.359C273.272 145.224 273.065 145.117 272.857 145.057C272.436 144.95 272.041 145.01 271.687 145.218C271.339 145.419 271.031 145.861 270.977 146.257L271.058 145.948C270.984 146.156 270.951 146.384 270.957 146.599L271.071 145.875C270.864 146.96 271.018 146.176 270.971 146.304L270.984 146.089L271.004 145.727L271.031 145.01C271.044 144.534 271.044 144.051 271.031 143.576C271.011 142.617 270.944 141.665 270.837 140.714C270.623 138.817 270.208 136.96 269.619 135.17C268.428 131.591 266.435 128.347 263.759 125.679C261.083 123.012 257.825 120.9 254.285 119.265C253.409 118.863 252.459 118.454 251.563 118.078C250.666 117.716 249.756 117.381 248.84 117.093L248.492 116.986C248.458 116.972 248.391 116.959 248.11 116.852C247.896 116.771 247.676 116.644 247.475 116.503C246.645 115.92 246.157 114.948 246.137 114.003C246.09 113.058 246.545 112.033 247.314 111.429C247.488 111.275 247.716 111.148 247.87 111.067L248.03 110.98L248.351 110.813C249.208 110.35 250.051 109.861 250.873 109.345C257.47 105.202 262.842 99.1767 266.127 92.1187C266.542 91.2407 266.923 90.3425 267.271 89.4309C267.445 88.9752 267.612 88.5194 267.773 88.0569L267.893 87.7083C267.927 87.6212 267.927 87.5944 267.887 87.7418C267.873 87.8357 267.846 87.9563 267.853 88.0703C267.84 88.5797 268.127 89.0623 268.455 89.2969C268.783 89.5449 269.271 89.6655 269.766 89.5315C270.007 89.4577 270.208 89.3438 270.348 89.2097L270.047 89.4712C269.639 89.8331 269.225 90.1816 268.81 90.5235C267.967 91.2072 267.104 91.864 266.214 92.4874C264.434 93.7341 262.561 94.8467 260.621 95.8119C258.714 96.757 256.714 97.6284 254.647 98.3188C250.519 99.6995 246.144 100.423 241.762 100.363C239.574 100.336 237.379 100.122 235.232 99.7129C233.078 99.3041 231.004 98.7142 229.003 98.0775C226.956 97.4273 224.942 96.6431 222.982 95.7382C221.035 94.8266 219.142 93.7877 217.336 92.6952C215.529 91.6026 213.81 90.4632 212.124 89.4779C210.418 88.4791 208.639 87.5542 206.846 86.6895C199.647 83.2443 191.947 80.7576 184.113 79.9667C176.272 79.2093 168.25 80.1141 160.737 82.5472C153.258 85.0071 146.24 89.0221 140.372 94.2837C138.901 95.5907 137.529 96.9983 136.218 98.4729C134.907 99.9475 133.669 101.482 132.532 103.091C130.237 106.308 128.297 109.767 126.638 113.4C126.223 114.311 125.821 115.23 125.42 116.168C125.039 117.066 124.664 118.011 124.309 118.943C123.607 120.813 122.925 122.717 122.463 124.567C122.189 125.485 122.035 126.45 121.834 127.395C121.694 128.36 121.513 129.312 121.433 130.291C121.205 132.235 121.145 134.212 121.132 136.189C121.178 144.132 122.597 152.148 124.55 160.004C126.524 167.873 129.079 175.621 131.916 183.276C133.334 187.103 134.826 190.93 136.338 194.737C137.85 198.551 139.436 202.466 140.546 206.621C141.677 210.777 142.246 215.074 142.393 219.337C142.466 221.475 142.433 223.599 142.292 225.744C142.292 225.805 142.286 225.945 142.292 225.731C142.292 225.597 142.272 225.476 142.239 225.362C142.206 225.248 142.165 225.141 142.112 225.041C142.025 224.886 142.012 224.88 142.085 224.987C142.252 225.228 142.406 225.469 142.56 225.717C142.868 226.207 143.149 226.716 143.416 227.232C143.945 228.265 144.387 229.344 144.734 230.456C145.343 232.688 145.765 235.007 145.651 237.307C145.571 239.599 145.183 241.858 144.527 243.996C143.182 248.272 141.028 252.12 138.325 255.585C135.522 259.111 132.003 261.879 128.083 263.943C127.588 264.191 127.099 264.446 126.584 264.667L125.821 265.009C125.888 264.989 126.042 264.915 126.129 264.841C126.276 264.714 126.236 264.734 126.169 264.801L125.888 265.056L123.62 267.134L119.084 271.303C113.063 276.873 106.995 282.456 101.155 288.127L100.084 289.192L99.5559 289.722L99.0742 290.231C98.7664 290.546 98.4119 290.969 98.084 291.344L97.0738 292.497C95.7425 294.038 94.4112 295.587 93.1266 297.155C91.8354 298.717 90.5777 300.299 89.3869 301.901C88.196 303.503 87.0854 305.131 86.1421 306.8C85.6671 307.638 85.2323 308.49 84.8242 309.374C84.4228 310.259 84.0013 311.218 83.6066 312.129C82.8171 313.979 82.1013 315.836 81.4724 317.719C80.8502 319.603 80.3016 321.506 79.8601 323.437C79.4386 325.367 79.0707 327.304 78.8566 329.261C78.7295 330.24 78.6693 331.218 78.5957 332.197C78.5689 333.182 78.4886 334.161 78.5154 335.14V336.614L78.6023 338.082C78.6291 339.067 78.783 340.033 78.9034 341.011C79.2914 344.919 80.3485 348.733 81.6798 352.433L82.7636 355.181L84.0481 357.848C84.4495 358.753 84.9781 359.591 85.4531 360.456L86.1823 361.743C86.4298 362.172 86.7175 362.574 86.9851 362.996C89.1059 366.341 91.5545 369.491 94.2707 372.4C96.9735 375.322 99.9305 378.004 103.082 380.443C104.747 381.724 106.273 382.923 107.925 384.069C109.564 385.216 111.237 386.301 112.956 387.32C113.813 387.836 114.682 388.319 115.559 388.808L116.863 389.505L118.208 390.182C120.001 391.094 121.821 391.892 123.66 392.656C127.36 394.144 131.16 395.37 135.054 396.295C138.941 397.24 142.915 397.897 146.956 398.474C150.983 399.057 154.97 399.486 159.004 399.7C167.059 400.136 175.175 399.774 183.337 399.204C187.397 398.903 191.565 398.588 195.579 398.206L201.661 397.683L204.698 397.388L204.885 397.368C204.986 397.368 204.912 397.354 205.233 397.348C205.474 397.348 205.728 397.361 205.963 397.394C206.23 397.441 206.13 397.428 206.244 397.455L206.979 397.649C207.468 397.777 207.896 397.864 208.431 397.991C212.298 398.849 216.285 399.372 220.226 399.506C224.233 399.647 228.201 399.419 232.128 398.742C236.055 398.085 239.895 396.965 243.581 395.424C247.254 393.855 250.74 391.845 253.964 389.432C257.176 387.005 260.133 384.217 262.762 381.12C264.08 379.579 265.324 377.963 266.522 376.308C267.719 374.645 268.897 372.976 269.954 371.234C274.195 364.256 277.065 356.448 278.698 348.398C280.39 340.348 280.839 332.076 280.671 323.859H280.698ZM280.698 323.859C280.959 332.083 280.457 340.341 279.006 348.458C277.507 356.548 274.938 364.518 270.89 371.77C269.9 373.593 268.776 375.349 267.652 377.072C266.522 378.801 265.324 380.51 264.046 382.152C261.504 385.45 258.614 388.507 255.389 391.201C252.171 393.889 248.599 396.201 244.806 398.065C240.999 399.901 236.971 401.302 232.823 402.194C228.689 403.099 224.434 403.554 220.226 403.574C215.951 403.588 211.743 403.192 207.562 402.428C207.093 402.334 206.511 402.234 206.003 402.127L205.247 401.959C205.247 401.959 205.013 401.899 205.153 401.946C205.267 401.979 205.387 401.986 205.501 401.972C205.695 401.946 205.501 401.972 205.467 401.972L205.273 401.999L202.183 402.381C200.149 402.616 198.061 402.804 195.994 402.985C191.826 403.373 187.799 403.615 183.671 403.889C175.456 404.459 167.126 404.841 158.764 404.385C154.596 404.164 150.408 403.708 146.307 403.119C142.219 402.535 138.071 401.859 133.977 400.86C129.876 399.881 125.841 398.588 121.921 397.006C119.974 396.195 118.027 395.337 116.154 394.392L114.749 393.688L113.338 392.93C112.414 392.421 111.491 391.905 110.588 391.362C108.775 390.283 106.995 389.137 105.269 387.924C103.543 386.73 101.837 385.39 100.245 384.163C96.8932 381.576 93.7421 378.714 90.8654 375.604C87.9752 372.501 85.346 369.136 83.0647 365.536C82.777 365.087 82.4759 364.652 82.2016 364.189L81.4122 362.795C80.8971 361.857 80.3284 360.952 79.8869 359.973L78.4953 357.078L77.3112 354.088C75.8594 350.06 74.7087 345.877 74.2738 341.588C74.1467 340.522 73.9795 339.456 73.946 338.377L73.859 336.768L73.8457 335.153C73.8122 334.074 73.8992 333.001 73.9326 331.929C74.0129 330.857 74.0865 329.784 74.2203 328.725C74.4545 326.594 74.8492 324.482 75.3108 322.398C75.7925 320.313 76.3745 318.262 77.0502 316.238C77.7193 314.22 78.4886 312.236 79.3182 310.299C79.7397 309.321 80.1411 308.396 80.5893 307.41C81.0443 306.432 81.5393 305.446 82.0812 304.495C83.1583 302.584 84.3759 300.808 85.6337 299.112C86.8914 297.41 88.196 295.774 89.5207 294.172C90.8453 292.564 92.19 290.989 93.5481 289.42L94.5717 288.254C94.9196 287.859 95.2273 287.49 95.6354 287.068L96.2108 286.458L96.7728 285.895L97.89 284.789C103.844 279.011 109.879 273.454 115.927 267.864L120.469 263.688L122.744 261.604L123.032 261.343C123.032 261.343 123.112 261.255 123.373 261.068C123.573 260.927 123.834 260.779 124.008 260.699L124.651 260.411C125.079 260.23 125.5 260.002 125.928 259.794C129.273 258.038 132.344 255.605 134.659 252.683C137.021 249.673 138.927 246.214 140.051 242.642C140.6 240.846 140.901 239.016 140.968 237.199C141.068 235.376 140.714 233.6 140.265 231.871C139.998 231.019 139.663 230.188 139.255 229.391C139.048 228.995 138.827 228.6 138.593 228.218C138.472 228.023 138.352 227.836 138.225 227.655C138.225 227.655 138.138 227.541 137.991 227.279C137.877 227.065 137.783 226.837 137.723 226.602C137.656 226.361 137.623 226.113 137.616 225.852C137.616 225.503 137.629 225.523 137.629 225.449C137.757 223.486 137.79 221.495 137.723 219.517C137.583 215.556 137.067 211.648 136.031 207.861C135.014 204.061 133.515 200.328 131.996 196.5C130.471 192.666 128.972 188.819 127.534 184.938C124.657 177.17 122.048 169.267 120.014 161.17C118.991 157.122 118.141 153.02 117.506 148.864C116.863 144.708 116.482 140.492 116.455 136.229C116.462 134.098 116.529 131.953 116.783 129.808C116.877 128.736 117.071 127.663 117.231 126.598C117.459 125.532 117.633 124.459 117.94 123.4C118.482 121.262 119.198 119.285 119.941 117.301C120.315 116.316 120.697 115.344 121.118 114.352C121.52 113.4 121.948 112.428 122.383 111.47C124.142 107.622 126.236 103.869 128.725 100.39C129.963 98.6405 131.307 96.9715 132.726 95.3763C134.144 93.781 135.642 92.2394 137.248 90.8117C143.624 85.0943 151.17 80.7777 159.299 78.1033C167.421 75.4759 176.058 74.4973 184.574 75.3217C193.111 76.1863 201.273 78.8473 208.873 82.4869C210.773 83.4052 212.646 84.3771 214.486 85.4562C216.339 86.5421 218.052 87.6815 219.764 88.707C221.47 89.746 223.19 90.6843 224.963 91.5155C226.735 92.3332 228.555 93.0437 230.422 93.6335C232.335 94.2435 234.215 94.7797 236.102 95.1283C237.988 95.4835 239.902 95.6779 241.815 95.698C245.655 95.7516 249.495 95.1216 253.155 93.895C254.988 93.285 256.761 92.5142 258.534 91.6361C260.266 90.7715 261.939 89.7795 263.525 88.6668C264.321 88.1105 265.09 87.5274 265.846 86.9107C266.221 86.6024 266.589 86.2874 266.957 85.9656L267.238 85.7176C267.579 85.4227 267.994 85.1613 268.489 85.0272C269.479 84.739 270.522 84.987 271.258 85.5434C272.008 86.0796 272.556 87.0716 272.543 88.0904C272.543 88.3384 272.516 88.5864 272.456 88.8009C272.389 89.0824 272.349 89.1762 272.335 89.2097L272.202 89.5918C272.028 90.1012 271.84 90.6106 271.646 91.12C271.258 92.1321 270.83 93.1308 270.369 94.1094C266.709 101.978 260.695 108.721 253.369 113.319C252.452 113.896 251.516 114.439 250.566 114.948L250.204 115.136L250.024 115.23C250.071 115.216 250.178 115.143 250.258 115.076C250.626 114.794 250.84 114.285 250.82 113.856C250.813 113.427 250.586 112.951 250.178 112.669C250.091 112.596 249.97 112.549 249.883 112.502C249.723 112.441 249.776 112.468 249.863 112.495L250.251 112.616C251.288 112.944 252.312 113.319 253.315 113.728C254.319 114.144 255.256 114.546 256.246 115.002C260.153 116.805 263.913 119.204 267.064 122.355C270.221 125.498 272.65 129.44 274.048 133.669C274.751 135.787 275.226 137.965 275.48 140.157C275.607 141.25 275.681 142.356 275.707 143.455C275.721 144.005 275.721 144.554 275.707 145.104L275.681 145.928L275.66 146.337L275.647 146.505C275.594 146.753 275.747 146.103 275.52 147.316L275.634 146.592C275.634 146.86 275.587 147.135 275.507 147.389L275.587 147.081C275.446 147.932 274.871 148.79 274.115 149.226C273.372 149.675 272.483 149.816 271.613 149.575C271.185 149.461 270.77 149.239 270.435 148.958C270.094 148.696 269.807 148.254 269.813 148.274L269.439 147.765C269.158 147.383 268.897 147.108 268.629 146.779C268.368 146.464 268.094 146.136 267.82 145.848C266.629 144.588 265.418 143.562 263.966 142.577C262.508 141.565 261.089 140.707 259.597 140.097C258.112 139.487 256.594 139.132 255.068 139.105C254.306 139.091 253.57 139.158 252.82 139.306C252.446 139.373 252.091 139.474 251.737 139.574C251.362 139.688 250.981 139.829 250.626 139.976C250.285 140.15 249.923 140.291 249.596 140.472L249.469 140.539C249.469 140.539 249.402 140.573 249.435 140.559C249.482 140.533 249.515 140.506 249.562 140.479C249.736 140.352 249.883 140.184 249.99 139.996C250.204 139.628 250.245 139.179 250.117 138.79L250.097 138.723C250.097 138.723 250.077 138.669 250.091 138.703L250.124 138.79L250.191 138.964L250.325 139.306L250.586 139.996C250.753 140.459 250.914 140.921 251.068 141.384C252.292 145.111 252.921 149.032 253.028 152.946C253.081 153.925 253.014 154.903 253.008 155.882C252.934 156.854 252.901 157.832 252.767 158.797C252.566 160.735 252.212 162.652 251.763 164.542C251.315 166.425 250.753 168.282 250.104 170.092C249.783 171.003 249.435 171.888 249.087 172.759C248.733 173.657 248.338 174.535 247.923 175.42L247.288 176.721C247.06 177.163 246.839 177.599 246.612 178.014C246.15 178.852 245.669 179.676 245.173 180.514C244.15 182.177 243.066 183.732 241.875 185.273C241.715 185.474 241.594 185.649 241.394 185.876C241.213 186.098 241.026 186.319 240.838 186.507C240.47 186.909 240.102 187.257 239.734 187.599C239.005 188.276 238.289 188.886 237.6 189.483C236.918 190.079 236.269 190.662 235.707 191.239C235.145 191.808 234.67 192.398 234.442 192.847L233.994 193.457H234.014L234.396 192.941C234.396 192.955 234.396 192.955 234.396 192.975L234.335 193.122L234.215 193.41C234.155 193.611 234.088 193.806 234.034 194.014C233.941 194.436 233.86 194.872 233.827 195.347C233.753 196.279 233.807 197.291 233.934 198.31C234.188 200.368 234.777 202.479 235.453 204.577L234.884 203.666C235.085 203.867 235.272 204.141 235.399 204.443C235.526 204.751 235.587 205.08 235.587 205.361L235.459 204.597C236.062 206.434 236.791 208.25 237.553 210.06C237.941 210.965 238.343 211.863 238.764 212.761L239.373 214.055L239.721 214.752L239.895 215.1L239.982 215.275L240.029 215.362C240.029 215.362 239.982 215.275 239.948 215.241L240.062 215.436C243.421 222.051 247.522 228.311 251.817 234.525C256.105 240.738 260.521 246.985 264.287 253.654C266.167 256.986 267.873 260.431 269.318 263.977L270.342 266.664C270.663 267.563 270.977 268.461 271.278 269.359C271.887 271.162 272.456 272.978 273.004 274.795C275.212 282.074 276.871 289.494 278.156 296.974V297.008V297.028V296.994C278.905 301.438 279.454 305.909 279.909 310.393C280.344 314.877 280.618 319.375 280.718 323.872L280.698 323.859Z" fill="#0F195E"/>
<path opacity="0.62" d="M198.838 328.082C197.948 328.028 197.031 327.974 196.101 327.914C194.596 327.82 188.408 328.524 176.031 329.925C174.265 330.126 170.779 330.562 170.01 332.606C169.575 333.759 170.184 334.959 170.679 335.957C175.329 345.247 175.362 345.341 175.362 345.341C175.362 345.341 183.116 363.767 189.411 381.536C190.836 385.557 196.904 390.223 199.112 395.947C198.202 397.616 192.917 399.472 191.786 400.947C191.666 400.954 191.545 400.967 191.418 400.974C175.161 402.18 162.938 403.085 147.932 400.974C139.095 399.727 128.103 398.078 115.472 391.409C106.467 380.236 102.526 364.973 96.425 341.319C95.1739 336.473 93.3877 328.115 96.425 319.2C98.1979 313.986 101.282 309.595 101.777 309.817C102.219 310.011 100.044 313.543 100.439 318.53C100.586 320.394 101.302 325.025 105.122 328.584C107.363 330.669 109.772 331.547 111.143 331.936C111.103 330.769 111.076 329.161 111.143 327.244C111.398 319.971 112.769 314.596 113.15 313.168C114.294 308.858 115.659 305.701 116.495 303.784C117.573 301.311 118.717 299.072 119.84 297.081C119.151 297.691 118.201 298.59 117.164 299.763C113.853 303.509 112.294 307.102 111.143 309.817C109.952 312.618 108.541 316.707 107.798 321.882C107.705 319.361 107.771 315.883 108.467 311.827C109.678 304.736 112.147 299.742 113.819 296.411C115.064 293.938 118.516 287.47 125.193 280.325C131.381 273.702 134.291 272.972 138.573 268.93C150.635 257.549 144.775 247.119 155.967 228.714C158.851 223.975 162.309 219.618 165.621 216.166C165.688 220.422 163.922 224.531 162.657 229.384C162.149 231.341 158.081 247.662 163.326 262.227C166.444 270.887 171.896 276.269 178.045 282.335C181.544 285.787 185.257 289.454 189.572 292.43C192.964 303.858 194.844 310.266 195.439 312.498C195.854 314.053 197.366 319.911 198.844 328.082H198.838Z" fill="white"/>
<path d="M159.306 171.07C162.202 165.668 168.197 162.31 169.341 161.686C177.864 157.035 189.692 155.761 198.972 158.811C201.868 159.763 204.819 161.552 205.695 164.481C206.973 168.724 203.949 173.497 201.199 176.473C197.125 180.89 191.271 183.477 185.491 184.737C180.4 185.85 175.175 186.024 169.976 186.017C165.875 186.011 161.667 185.696 159.299 181.801C157.533 178.892 157.847 176.003 157.961 175.099C158.088 174.06 158.416 172.732 159.299 171.077L159.306 171.07Z" fill="#92617F"/>
<path d="M159.219 171.023C160.45 168.724 162.196 166.747 164.156 165.051C166.123 163.355 168.257 161.841 170.592 160.668C175.215 158.248 180.346 156.78 185.605 156.271C188.234 156.016 190.896 156.002 193.559 156.271C194.221 156.344 194.884 156.438 195.553 156.525L197.54 156.894L199.507 157.39C200.182 157.578 200.845 157.832 201.494 158.121C202.798 158.697 204.076 159.461 205.193 160.54C206.304 161.599 207.24 163.101 207.548 164.703C207.909 166.284 207.769 167.893 207.408 169.341C207.04 170.795 206.458 172.129 205.755 173.363C204.31 175.789 202.497 177.894 200.356 179.69C198.215 181.466 195.794 182.793 193.305 183.846C188.281 185.897 182.929 186.607 177.717 186.755C175.101 186.828 172.505 186.761 169.916 186.654C167.34 186.533 164.591 186.319 162.216 184.998C161.032 184.355 160.035 183.39 159.332 182.264C158.603 181.151 158.162 179.884 157.907 178.604C157.426 176.017 157.934 173.295 159.225 171.03L159.219 171.023ZM159.393 171.117C158.79 172.25 158.329 173.463 158.128 174.723C157.927 175.99 157.927 177.284 158.175 178.537C158.429 179.79 158.904 181.004 159.627 182.049C160.329 183.108 161.293 183.993 162.423 184.576C164.705 185.769 167.361 185.856 169.909 185.87C172.485 185.87 175.061 185.83 177.63 185.649C182.755 185.3 187.893 184.355 192.589 182.25C194.924 181.198 197.152 179.878 199.105 178.209C201.052 176.553 202.731 174.562 204.016 172.35C204.651 171.244 205.18 170.071 205.494 168.838C205.815 167.612 205.923 166.318 205.655 165.091C205.421 163.851 204.765 162.725 203.875 161.834C202.986 160.936 201.902 160.239 200.744 159.696C200.169 159.428 199.574 159.186 198.971 158.985L197.125 158.436L195.252 158.007C194.616 157.899 193.987 157.779 193.352 157.685C190.809 157.323 188.227 157.229 185.665 157.37C180.54 157.665 175.436 158.858 170.793 161.083C168.471 162.182 166.303 163.61 164.337 165.259C162.376 166.921 160.63 168.858 159.393 171.117Z" fill="#0F195E"/>
<path d="M198.777 297.081C195.385 295.989 192.348 294.353 189.565 292.43C185.25 289.454 181.537 285.787 178.038 282.335C171.89 276.269 166.437 270.887 163.32 262.227C158.075 247.662 162.142 231.341 162.651 229.384C163.915 224.531 165.681 220.422 165.614 216.166C165.594 214.571 165.313 212.962 164.658 211.287C163.634 208.679 162.523 208.009 159.975 202.573C157.272 196.815 155.92 193.933 156.629 191.178C157.867 186.359 163.855 184.167 166.665 183.135C174.472 180.273 181.55 182.358 184.059 183.135C185.531 183.591 192.95 185.997 198.777 193.189C202.758 198.102 204.263 203.19 205.467 207.265C207.521 214.202 206.244 214.966 208.144 222.011C209.896 228.513 211.729 235.296 217.51 238.768" fill="#45BDCD"/>
<path d="M198.697 297.336C196.376 296.86 194.108 296.049 191.92 295.051C189.746 294.025 187.672 292.785 185.685 291.438C183.684 290.097 181.818 288.589 179.992 287.074C178.165 285.546 176.406 284.018 174.619 282.47C171.1 279.346 167.528 275.981 164.544 271.873C163.039 269.835 161.761 267.603 160.69 265.27L159.934 263.507L159.286 261.704C158.817 260.505 158.516 259.278 158.162 258.051C156.844 253.138 156.395 248.091 156.462 243.118C156.509 240.631 156.676 238.151 156.957 235.684C157.245 233.204 157.633 230.785 158.222 228.251C158.79 225.778 159.567 223.506 160.108 221.428C160.67 219.343 160.978 217.54 160.898 215.952C160.811 214.403 160.363 212.976 159.486 211.561C158.984 210.744 158.222 209.577 157.6 208.458C156.957 207.332 156.369 206.199 155.833 205.073C154.83 202.881 153.833 200.837 152.863 198.263C152.401 196.976 151.906 195.488 151.746 193.565C151.665 192.613 151.732 191.527 151.946 190.501C152.047 189.965 152.207 189.529 152.361 189.06C152.502 188.591 152.716 188.162 152.923 187.733C153.773 186.017 154.964 184.636 156.181 183.564C157.412 182.485 158.683 181.667 159.941 180.99C161.199 180.313 162.457 179.77 163.668 179.308L164.557 178.973C164.838 178.872 165.119 178.778 165.474 178.671C166.143 178.47 166.805 178.242 167.481 178.095C172.907 176.727 178.54 177.109 183.597 178.577C184.24 178.758 184.835 178.953 185.451 179.16C186.093 179.382 186.735 179.616 187.351 179.878C188.582 180.394 189.772 180.963 190.917 181.62C193.198 182.927 195.332 184.469 197.272 186.238C199.212 188.001 200.945 189.985 202.437 192.137C203.915 194.295 205.146 196.628 206.03 199.021C206.939 201.407 207.575 203.826 208.117 206.119C208.699 208.451 209.187 211.059 209.261 213.545C209.301 214.779 209.308 215.878 209.381 216.97C209.455 218.056 209.595 219.149 209.776 220.248C209.97 221.334 210.204 222.5 210.438 223.633C210.679 224.759 210.9 225.892 211.174 226.991C211.703 229.203 212.385 231.348 213.402 233.339C213.89 234.344 214.506 235.276 215.202 236.167C215.904 237.052 216.74 237.823 217.65 238.533L217.684 238.56C217.797 238.654 217.818 238.821 217.731 238.935C217.644 239.043 217.496 239.069 217.376 238.996C216.373 238.359 215.409 237.642 214.573 236.797C213.75 235.939 212.987 235.014 212.365 234.009C211.094 232.005 210.184 229.799 209.448 227.574C208.706 225.335 208.103 223.083 207.515 220.804C207.24 219.658 207.006 218.499 206.839 217.332C206.672 216.166 206.578 214.986 206.464 213.834C206.25 211.521 205.728 209.269 205.046 207.044C204.384 204.805 203.675 202.593 202.738 200.475C201.815 198.35 200.664 196.339 199.293 194.483C197.908 192.64 196.322 190.944 194.563 189.456C191.044 186.48 186.869 184.254 182.413 183.108C177.971 181.929 173.228 181.741 168.806 182.961C167.702 183.256 166.625 183.651 165.541 184.067C164.47 184.489 163.42 184.958 162.417 185.508C160.436 186.594 158.576 188.048 157.613 190.025C157.138 191.011 156.877 192.077 156.984 193.156C157.078 194.241 157.412 195.334 157.814 196.4C158.637 198.538 159.674 200.649 160.664 202.754C161.165 203.8 161.681 204.839 162.243 205.844C162.798 206.856 163.413 207.821 164.029 208.847C165.28 210.904 166.022 213.304 166.109 215.73C166.203 218.157 165.708 220.53 165.072 222.795C164.437 225.067 163.694 227.279 163.106 229.518C161.975 234.009 161.359 238.647 161.159 243.285C161.139 244.445 161.085 245.611 161.125 246.771L161.165 248.513L161.286 250.249C161.339 251.409 161.533 252.555 161.654 253.708C161.734 254.285 161.855 254.848 161.948 255.424C162.055 255.994 162.129 256.57 162.283 257.126C162.564 258.253 162.798 259.385 163.179 260.478L163.708 262.133L164.33 263.755C165.213 265.894 166.303 267.945 167.568 269.882C170.09 273.776 173.321 277.161 176.62 280.452C179.938 283.736 183.203 287.081 186.829 289.997C190.435 292.912 194.449 295.392 198.864 296.813C199.005 296.86 199.078 297.008 199.038 297.148C198.998 297.283 198.864 297.356 198.731 297.329H198.704L198.697 297.336Z" fill="#0F195E"/>
<path opacity="0.37" d="M279.969 341.876C279.059 349.095 277.38 356.173 274.65 362.862C272.991 366.937 270.944 370.872 268.449 374.605C265.398 379.163 259.611 387.796 249.047 394.043C248.746 394.224 248.445 394.398 248.144 394.566C238.343 400.089 228.248 401.436 220.186 401.309H220.106C215.135 401.135 210.994 400.438 208.264 399.861C208.084 399.828 207.91 399.787 207.742 399.754C207.515 399.7 207.301 399.653 207.087 399.606C206.846 399.546 206.605 399.492 206.398 399.439C206.351 399.425 206.297 399.419 206.25 399.405C206.204 399.412 206.157 399.419 206.103 399.425C206.003 399.439 205.896 399.446 205.789 399.459C205.073 399.539 204.297 399.627 203.467 399.714C203.18 399.747 202.892 399.774 202.598 399.807C202.297 399.841 201.996 399.868 201.688 399.901C201.708 399.875 201.728 399.854 201.755 399.828C203.427 397.931 206.552 395.612 211.69 391.362C217.778 386.335 220.822 383.815 222.568 381.978C228.308 375.919 229.873 366.461 232.757 347.794C235.373 330.897 234.496 327.646 232.757 325.005C230.034 320.869 227.284 321.392 217.804 315.621C212.452 312.357 207.669 308.309 198.095 300.205C194.034 296.76 196.958 299.079 180.427 284.118C178.587 282.449 174.111 278.548 169.548 272.724C166.263 268.528 164.946 265.954 164.116 264.01C163.052 261.523 162.443 259.224 162.075 257.307C163.882 261.188 167.321 267.261 173.629 272.724C177.878 276.404 188.174 285.332 200.136 282.778C201.293 282.53 209.943 280.553 213.73 273.394C216.199 268.722 215.924 263.125 215.771 259.989C215.657 257.757 215.356 255.907 215.088 254.626C213.128 253.453 210.345 251.53 207.615 248.594C200.644 241.1 198.858 232.159 197.419 224.464C194.676 209.839 197.955 206.186 193.338 201.005C192 199.503 188.655 196.373 185.183 190.95C183.069 187.646 182.467 185.937 183.143 184.918C184.206 183.329 187.317 184 187.899 184.248C192.663 186.259 197.6 190.146 200.136 193.632C201.206 195.099 203.24 198.122 204.892 202.345C206.25 205.817 206.792 208.679 207.615 213.069C208.619 218.418 208.184 218.251 208.973 221.783C210.097 226.85 210.893 230.383 213.73 233.848C214.64 234.961 217.497 238.352 222.568 239.88C225.378 240.725 227.833 240.691 229.358 240.551C226.849 239.585 223.371 237.829 220.527 234.518C217.142 230.584 217.55 227.829 215.088 219.772C211.094 206.695 207.147 204.564 207.615 196.313C207.823 192.599 208.793 189.898 209.649 187.599C214.486 174.576 222.835 174.294 230.723 160.788C233.861 155.413 236.811 148.133 238.196 144.702C241.267 137.128 241.762 134.353 244.993 131.966C250.599 127.817 258.146 129.493 259.946 129.956C266.803 131.718 270.456 136.565 271.499 137.999C272.229 138.998 272.831 140.01 273.326 141.002C274.262 142.865 274.824 144.675 275.159 146.297C275.159 146.317 275.159 146.33 275.152 146.351C275.072 147.363 274.978 148.174 274.898 148.723C274.53 148.1 274.102 147.436 273.607 146.746C273.527 146.639 273.453 146.531 273.366 146.424C273.319 146.357 273.266 146.283 273.212 146.216C273.105 146.076 272.991 145.928 272.878 145.787C272.53 145.345 272.162 144.903 271.747 144.454C271.633 144.326 271.513 144.199 271.392 144.072C271.272 143.951 271.158 143.824 271.038 143.71C270.871 143.535 270.69 143.361 270.509 143.187C269.606 142.322 268.576 141.471 267.418 140.68C265.124 139.105 260.949 136.236 255.691 136.538C255.303 136.558 254.908 136.598 254.506 136.658C254.259 136.692 254.011 136.739 253.777 136.786C253.576 136.826 253.396 136.866 253.209 136.913C252.941 136.98 252.673 137.054 252.412 137.134C252.218 137.195 252.018 137.262 251.837 137.329C251.616 137.409 251.409 137.49 251.215 137.57C250.84 137.724 250.492 137.885 250.171 138.053C250.017 138.133 249.857 138.213 249.716 138.294C249.482 138.421 249.268 138.549 249.074 138.669C249.168 138.89 249.261 139.112 249.355 139.339C250.031 140.975 250.633 142.765 251.108 144.702C254.125 156.961 250.064 167.39 248.392 171.513C248.265 171.834 248.124 172.156 247.99 172.478C247.856 172.793 247.709 173.108 247.569 173.416C247.435 173.724 247.288 174.033 247.141 174.334C246.987 174.67 246.819 174.998 246.652 175.32C246.525 175.588 246.385 175.849 246.244 176.104C246.097 176.392 245.936 176.68 245.782 176.955C245.428 177.599 245.06 178.215 244.685 178.819C244.531 179.08 244.371 179.335 244.204 179.589C244.043 179.844 243.869 180.099 243.702 180.353C243.535 180.608 243.361 180.856 243.193 181.104C242.846 181.607 242.484 182.096 242.116 182.585C241.942 182.827 241.748 183.068 241.568 183.309C241.38 183.557 241.186 183.792 240.999 184.027C238.249 187.432 235.52 189.918 233.519 191.554C233.493 191.574 233.466 191.601 233.439 191.621C233.439 191.661 233.432 191.701 233.432 191.741C233.245 195.032 233.332 199.101 234.122 203.686C234.122 203.686 234.215 204.229 234.389 205.107C234.396 205.113 234.396 205.12 234.396 205.127C234.724 206.675 235.312 209.249 236.155 211.729C236.456 212.6 236.804 213.458 237.192 214.296C237.273 214.464 237.353 214.638 237.447 214.805C237.661 215.261 237.902 215.704 238.149 216.146C238.162 216.173 238.176 216.2 238.189 216.22C239.072 217.895 239.909 219.363 240.584 220.516C241.347 221.817 242.136 223.097 242.946 224.364C252.004 238.553 263.652 250.866 269.767 266.852C273.473 276.531 276.216 286.565 278.056 296.766V296.787C279.648 305.648 280.551 314.629 280.792 323.631C280.953 329.717 280.732 335.843 279.969 341.876Z" fill="#3676B6"/>
<path d="M132.545 89.9672C134.01 89.002 136.245 90.1414 137.228 90.6374C140.272 92.1858 143.356 95.4567 144.587 100.021C144.735 100.571 146.715 108.299 142.58 112.086C142.447 112.207 140.406 114.043 139.235 113.427C138.031 112.79 138.687 110.055 138.566 105.383C138.466 101.503 138.506 99.5387 137.897 98.6807C135.991 95.9862 131.916 96.5358 131.207 93.9888C130.933 92.9968 131.207 91.978 131.207 91.978C131.227 91.9109 131.602 90.5905 132.545 89.9672Z" fill="#0F195E"/>
<path d="M159.975 116.778C159.051 120.391 159.841 125.331 159.975 126.162C160.617 130.19 162.999 132.952 164.658 134.875C166.083 136.531 170.431 141.571 176.7 142.248C178.961 142.49 181.136 142.134 181.383 142.919C181.631 143.703 179.771 144.997 178.707 145.6C173.917 148.308 168.197 146.552 167.334 146.27C158.63 143.462 155.539 134.299 155.291 133.535C153.298 127.301 154.536 120.498 157.299 117.448C157.559 117.16 159.433 115.096 159.975 115.438C160.282 115.632 160.041 116.503 159.975 116.778Z" fill="#0F195E"/>
<path d="M149.939 159.005C150.013 153.328 152 147.363 155.88 143.18C156.563 142.443 157.874 141.256 158.978 141.779C161.299 142.872 160.135 147.637 159.707 149.494C159.058 152.323 157.921 155.031 156.349 157.47C155.626 158.596 151.538 164.247 150.147 161.103C149.973 160.701 149.946 160.252 149.939 159.816C149.939 159.548 149.939 159.28 149.939 159.012V159.005Z" fill="#0F195E"/>
<path d="M139.57 190.843C134.472 194.791 129.916 196.795 124.851 198.886C110.207 204.946 102.881 207.969 96.0837 209.611C89.6143 211.173 63.7837 217.399 39.2175 204.249C18.2841 193.042 0.642167 169.039 2.42174 145.265C3.27139 133.91 8.9647 117.133 18.7791 113.876C18.8996 113.836 19.0267 113.795 19.1471 113.762C22.3383 112.823 25.8372 113.092 25.8372 113.092C31.4703 113.521 34.6348 116.322 41.2246 120.465C46.5298 123.796 50.6644 125.867 54.6048 127.838C56.4179 128.749 58.3246 129.694 60.3851 130.639C63.8974 132.241 67.8647 133.837 72.6682 135.211C77.2309 136.518 81.807 137.791 88.0555 137.892C91.1999 137.939 95.1805 138.006 100.098 136.551C109.317 133.823 115.773 127.549 116.154 127.167C118.389 124.949 119.098 123.635 121.506 122.475C121.807 122.328 127.855 119.526 132.21 122.475C133.709 123.494 135.368 125.438 136.225 130.519C137.496 138.106 135.783 145.647 133.649 151.512L134.887 148.616C135.087 150.66 135.134 154.608 140.239 160.011C143.37 163.329 145.189 162.799 148.267 166.713C149.665 168.496 151.15 170.373 151.612 172.746C153.097 180.36 143.095 188.115 139.57 190.843Z" fill="#2F60A2"/>
<path opacity="0.44" d="M60.3853 130.639C58.4585 130.82 56.5318 131.001 54.605 131.189C50.4571 131.544 44.4828 131.45 37.8796 129.178C35.0497 128.206 28.0786 125.706 22.4923 119.124C21.1877 117.582 19.7226 115.86 18.7793 113.876C18.8997 113.836 19.0268 113.795 19.1473 113.762C22.3385 112.823 25.8374 113.092 25.8374 113.092C31.4705 113.521 34.6349 116.322 41.2247 120.465C46.53 123.796 50.6645 125.867 54.605 127.838C56.418 128.749 58.3247 129.694 60.3853 130.639Z" fill="white"/>
<path d="M134.887 148.616C135.047 150.05 135.281 151.478 135.796 152.812C136.292 154.152 137.007 155.399 137.83 156.552C138.66 157.712 139.603 158.771 140.6 159.783C141.102 160.279 141.624 160.741 142.172 161.17C142.727 161.593 143.316 161.961 143.932 162.33C145.163 163.04 146.467 163.871 147.518 164.944C148.046 165.473 148.541 166.043 148.996 166.606C149.458 167.169 149.913 167.739 150.348 168.342C151.217 169.542 151.993 170.923 152.341 172.471C152.689 174.019 152.595 175.641 152.194 177.143C151.364 180.152 149.592 182.666 147.678 184.911C145.731 187.15 143.544 189.127 141.282 190.977C139.041 192.827 136.606 194.563 134.044 196.024C131.481 197.499 128.805 198.726 126.149 199.872C120.851 202.144 115.579 204.45 110.213 206.621C107.531 207.707 104.814 208.753 102.045 209.698C100.653 210.167 99.2482 210.603 97.8232 210.998C96.3848 211.387 94.9933 211.729 93.5616 212.057C87.8482 213.364 82.0077 214.169 76.1271 214.397C70.2465 214.598 64.3257 214.229 58.5053 213.163C52.6848 212.104 46.9581 210.355 41.5658 207.855C36.1468 205.388 31.0957 202.171 26.4862 198.444C21.8834 194.704 17.6954 190.461 14.0292 185.789C10.3697 181.118 7.21194 176.017 4.81018 170.534C2.40173 165.065 0.762645 159.2 0.214053 153.174C-0.0669327 150.164 -0.0535524 147.121 0.214053 144.098C0.51511 141.089 1.0637 138.146 1.79962 135.244C2.54891 132.349 3.48553 129.5 4.67638 126.725C5.8806 123.957 7.3056 121.255 9.16546 118.749C11.032 116.269 13.3535 113.903 16.4376 112.441C17.207 112.086 18.0232 111.785 18.8327 111.563C19.6355 111.349 20.4383 111.201 21.2278 111.094C22.0172 110.994 22.8067 110.927 23.5894 110.9C23.9841 110.886 24.3722 110.88 24.7669 110.886L25.3623 110.9L25.6633 110.913H25.8172L25.8975 110.927C25.9577 110.927 25.8975 110.927 25.8306 110.927H25.9979C27.7908 111.081 29.6105 111.496 31.2964 112.153C32.9824 112.817 34.501 113.681 35.9193 114.559C38.7426 116.342 41.3183 118.145 44.0345 119.794C46.7373 121.457 49.5003 122.998 52.3303 124.466C55.1736 125.921 58.0369 127.429 60.8936 128.783C63.757 130.143 66.6672 131.35 69.6443 132.382C71.1362 132.905 72.6215 133.367 74.1669 133.816C75.6989 134.265 77.2176 134.694 78.7429 135.05C81.7803 135.78 84.8577 136.189 87.9753 136.283C91.1732 136.404 94.2306 136.35 97.2612 135.747C103.289 134.554 109.002 131.544 113.859 127.61C114.462 127.114 115.057 126.611 115.586 126.075C116.148 125.532 116.683 124.962 117.251 124.366C117.82 123.776 118.449 123.152 119.185 122.616C119.921 122.073 120.697 121.664 121.533 121.323C123.139 120.699 124.805 120.304 126.544 120.203C128.263 120.103 130.09 120.351 131.702 121.175C132.505 121.584 133.248 122.12 133.863 122.784C134.485 123.441 134.967 124.198 135.348 124.976C136.104 126.537 136.519 128.173 136.793 129.801C137.342 133.066 137.342 136.377 136.954 139.621C136.559 142.865 135.783 146.042 134.733 149.105C133.682 152.175 132.371 155.138 130.872 158C133.562 152.142 135.482 145.895 135.997 139.527C136.238 136.35 136.098 133.146 135.442 130.063C135.121 128.528 134.659 127.02 133.957 125.699C133.254 124.372 132.244 123.333 130.939 122.744C128.324 121.55 125.072 122.093 122.329 123.253C121.687 123.541 121.038 123.916 120.496 124.352C119.941 124.788 119.439 125.317 118.904 125.907C118.375 126.497 117.833 127.12 117.258 127.724C116.669 128.347 116.04 128.903 115.418 129.453C110.394 133.749 104.473 137.128 97.87 138.636C94.5852 139.393 91.1598 139.547 87.9218 139.5C84.5968 139.474 81.245 139.091 78.0003 138.381C76.3746 138.032 74.7891 137.617 73.2169 137.195C71.6648 136.772 70.0591 136.317 68.5003 135.807C65.3693 134.795 62.2986 133.582 59.3081 132.241C56.3109 130.887 53.4274 129.473 50.5239 128.019C47.6137 126.557 44.7236 124.996 41.9204 123.313C39.1038 121.651 36.3743 119.788 33.725 118.166C32.4003 117.368 31.0891 116.657 29.7644 116.155C28.4398 115.665 27.0883 115.37 25.67 115.27H25.8373L25.2352 115.257H24.7535C24.4257 115.257 24.0979 115.257 23.77 115.277C23.1144 115.31 22.4655 115.37 21.8366 115.458C21.201 115.551 20.5855 115.679 20.0035 115.84C19.4281 116.007 18.8996 116.215 18.3577 116.463C16.2303 117.502 14.3503 119.339 12.7848 121.457C9.66053 125.753 7.60666 131.041 6.23518 136.39C5.56617 139.078 5.0644 141.819 4.80349 144.554C4.56933 147.282 4.56933 150.024 4.83694 152.752C5.36546 158.214 6.87743 163.59 9.07849 168.677C11.2795 173.771 14.2232 178.564 17.6419 182.974C21.0739 187.385 25.0077 191.406 29.3295 194.945C33.6714 198.464 38.3813 201.521 43.4123 203.9C48.4366 206.3 53.7887 208.009 59.2813 209.081C64.7739 210.154 70.4003 210.583 76.02 210.455C81.6464 210.348 87.2729 209.691 92.8056 208.538C94.1771 208.25 95.5954 207.935 96.9401 207.6C98.2982 207.252 99.6429 206.863 100.994 206.44C103.69 205.583 106.367 204.611 109.043 203.592C114.388 201.547 119.747 199.416 125.086 197.291C127.742 196.232 130.344 195.126 132.813 193.792C135.295 192.465 137.603 190.917 139.864 189.168C142.125 187.452 144.286 185.628 146.2 183.577C148.086 181.533 149.779 179.247 150.575 176.687C150.963 175.414 151.083 174.086 150.843 172.799C150.602 171.519 150 170.293 149.237 169.133C148.856 168.55 148.434 167.98 148.006 167.41C147.578 166.834 147.15 166.298 146.681 165.788C145.751 164.763 144.641 163.972 143.417 163.194C142.808 162.799 142.199 162.377 141.624 161.901C141.055 161.425 140.52 160.909 140.018 160.366C139.041 159.273 138.145 158.12 137.375 156.874C136.606 155.634 135.957 154.307 135.549 152.912C135.114 151.518 134.974 150.064 134.907 148.623L134.887 148.616Z" fill="#0F195E"/>
<path d="M109.859 246.965C109.966 246.925 110.086 246.892 110.214 246.851C114.923 245.565 120.262 248.909 123.975 251.45C128.324 254.426 132.94 259.084 134.552 264.232C134.974 265.579 135.148 266.759 135.221 267.583C135.108 266.343 132.438 264.104 131.548 263.226C126.25 257.985 119.607 253.172 112.475 250.826C111.19 250.404 106.909 248.018 109.859 246.959V246.965Z" fill="#0F195E"/>
<path d="M109.859 246.965C110.561 246.731 111.304 246.617 112.04 246.563C112.782 246.55 113.525 246.583 114.261 246.724C115.726 246.979 117.151 247.454 118.502 248.078C119.861 248.694 121.172 249.405 122.45 250.176C123.721 250.947 124.978 251.758 126.176 252.656C128.564 254.459 130.779 256.55 132.565 259.017C133.442 260.257 134.231 261.584 134.806 263.018C135.375 264.459 135.736 265.981 135.883 267.516L134.552 267.636C134.545 267.509 134.412 267.207 134.231 266.953C134.05 266.685 133.843 266.416 133.609 266.162C133.154 265.639 132.639 265.136 132.117 264.64C131.595 264.158 131.046 263.608 130.545 263.099C130.036 262.583 129.508 262.087 128.986 261.591C126.885 259.6 124.664 257.73 122.289 256.061C119.914 254.398 117.399 252.91 114.729 251.751C113.411 251.141 111.953 250.813 110.728 249.988C110.113 249.599 109.498 249.17 109.069 248.574C108.862 248.286 108.728 247.863 108.956 247.542C109.17 247.24 109.518 247.072 109.859 246.952V246.965ZM109.859 246.965C109.518 247.093 109.176 247.26 108.962 247.562C108.742 247.877 108.882 248.286 109.083 248.574C109.511 249.164 110.133 249.579 110.749 249.961C111.98 250.766 113.445 251.02 114.796 251.597C117.532 252.636 120.162 253.97 122.657 255.525C125.152 257.08 127.521 258.836 129.762 260.753C130.879 261.725 131.923 262.75 133 263.715C133.542 264.218 134.077 264.734 134.592 265.304C134.846 265.585 135.094 265.887 135.328 266.229C135.549 266.571 135.796 266.926 135.883 267.529L134.552 267.65C134.325 264.794 133.227 262.087 131.615 259.68C130.016 257.261 128.002 255.089 125.755 253.192C124.631 252.24 123.433 251.376 122.215 250.538C120.991 249.707 119.74 248.909 118.422 248.252C117.097 247.595 115.706 247.059 114.254 246.777C113.525 246.63 112.782 246.59 112.046 246.597C111.311 246.643 110.568 246.744 109.859 246.972V246.965Z" fill="#0F195E"/>
<path d="M184.019 189.308C184.039 189.208 184.059 189.107 184.079 188.987C184.695 184.791 181.778 180.34 179.577 177.264C177.001 173.657 173.134 169.931 169.127 168.858C168.076 168.577 167.173 168.503 166.544 168.49C167.488 168.51 169.381 170.695 170.11 171.412C174.472 175.702 178.6 181.191 180.908 187.271C181.323 188.37 183.444 191.949 184.026 189.302L184.019 189.308Z" fill="#0F195E"/>
<path d="M184.019 189.308C184.233 188.095 184.166 186.848 183.879 185.655C183.591 184.462 183.109 183.329 182.554 182.244C181.403 180.085 179.918 178.115 178.379 176.238C176.807 174.388 175.021 172.719 173.034 171.412C171.054 170.098 168.846 169.173 166.531 169.167L166.558 167.826C167.153 167.88 167.441 168.108 167.742 168.295C168.03 168.496 168.284 168.704 168.525 168.919C169.006 169.348 169.441 169.797 169.863 170.239C170.672 171.11 171.555 171.995 172.365 172.92C173.984 174.777 175.462 176.754 176.787 178.825C178.112 180.896 179.256 183.075 180.199 185.327C180.714 186.44 180.989 187.646 181.664 188.665C181.992 189.174 182.34 189.69 182.822 190.052C183.049 190.233 183.41 190.354 183.644 190.126C183.859 189.912 183.952 189.603 184.026 189.308H184.019ZM184.019 189.308C183.952 189.603 183.865 189.912 183.651 190.133C183.417 190.374 183.036 190.253 182.808 190.072C182.313 189.704 181.952 189.194 181.617 188.692C180.915 187.68 180.574 186.48 180.025 185.401C178.968 183.209 177.67 181.151 176.232 179.201C174.8 177.25 173.201 175.427 171.515 173.704C170.686 172.826 169.803 172.029 168.933 171.131C168.511 170.702 168.09 170.279 167.655 169.904C167.441 169.716 167.22 169.542 166.999 169.394C166.799 169.247 166.538 169.153 166.524 169.16L166.551 167.819C167.856 167.853 169.147 168.114 170.358 168.583C171.562 169.053 172.666 169.716 173.69 170.46C175.723 171.968 177.423 173.832 178.901 175.816C180.346 177.833 181.678 179.911 182.721 182.156C183.243 183.276 183.665 184.442 183.925 185.642C184.2 186.842 184.247 188.095 184.019 189.302V189.308Z" fill="#0F195E"/>
<path d="M170.05 188.095C170.077 188.021 170.104 187.948 170.124 187.861C170.926 184.797 167.889 181.667 165.594 179.509C162.912 176.975 158.824 174.395 154.495 173.745C153.365 173.577 152.381 173.55 151.699 173.557C152.729 173.543 154.71 175.065 155.486 175.561C160.088 178.53 164.41 182.378 166.725 186.714C167.14 187.499 169.341 190.025 170.05 188.088V188.095Z" fill="#0F195E"/>
<path d="M170.05 188.095C170.391 187.07 170.231 185.944 169.843 184.965C169.428 183.98 168.806 183.102 168.117 182.291C167.421 181.486 166.638 180.756 165.842 180.045C165.046 179.335 164.223 178.671 163.353 178.075C159.874 175.688 155.827 174.133 151.706 174.227L151.686 172.893C152.107 172.893 152.401 173.007 152.682 173.115C152.963 173.222 153.211 173.356 153.458 173.483C153.94 173.751 154.388 174.046 154.823 174.341L156.081 175.233C156.516 175.527 156.937 175.836 157.359 176.144C159.031 177.411 160.617 178.792 162.075 180.293C163.534 181.795 164.845 183.437 165.929 185.213C166.504 186.084 166.845 187.09 167.608 187.814C167.969 188.176 168.364 188.531 168.846 188.718C169.08 188.819 169.361 188.826 169.582 188.698C169.816 188.578 169.93 188.323 170.043 188.095H170.05ZM170.05 188.095C169.943 188.33 169.836 188.584 169.595 188.712C169.374 188.846 169.08 188.839 168.839 188.745C168.344 188.564 167.943 188.209 167.575 187.854C167.213 187.485 166.865 187.09 166.605 186.634C166.344 186.185 166.069 185.749 165.782 185.327C164.598 183.631 163.166 182.143 161.627 180.782C160.088 179.422 158.429 178.209 156.717 177.096C156.288 176.814 155.86 176.533 155.425 176.265C154.99 175.997 154.529 175.688 154.114 175.42C153.693 175.139 153.264 174.877 152.843 174.649C152.435 174.428 151.946 174.234 151.712 174.241L151.692 172.907C153.907 172.867 156.155 173.302 158.182 174.147C160.222 174.991 162.075 176.178 163.761 177.538C164.604 178.222 165.4 178.966 166.143 179.744C166.892 180.514 167.608 181.325 168.264 182.177C168.926 183.021 169.501 183.953 169.889 184.952C170.264 185.95 170.405 187.083 170.05 188.102V188.095Z" fill="#0F195E"/>
<path d="M162.089 189.818C162.102 189.777 162.122 189.731 162.136 189.684C162.631 187.907 160.791 186.111 159.399 184.864C157.774 183.41 155.285 181.922 152.649 181.56C151.96 181.466 151.365 181.453 150.943 181.459C151.572 181.446 152.776 182.324 153.245 182.612C156.041 184.321 158.664 186.533 160.062 189.033C160.316 189.483 161.647 190.944 162.082 189.818H162.089Z" fill="#0F195E"/>
<path d="M162.089 189.818C162.303 189.208 162.196 188.537 161.942 187.968C161.674 187.391 161.273 186.889 160.844 186.433C159.955 185.535 158.944 184.744 157.881 184.107C155.72 182.84 153.352 182.069 150.956 182.13L150.93 180.796C151.505 180.823 151.786 181.01 152.107 181.158C152.408 181.319 152.682 181.493 152.95 181.66L154.475 182.72C155.486 183.464 156.436 184.288 157.305 185.2C158.168 186.104 158.958 187.083 159.613 188.135C159.961 188.651 160.162 189.255 160.624 189.664C160.844 189.871 161.079 190.079 161.366 190.18C161.507 190.233 161.674 190.233 161.801 190.166C161.942 190.099 162.015 189.952 162.082 189.818H162.089ZM162.089 189.818C162.022 189.952 161.955 190.106 161.815 190.18C161.681 190.253 161.507 190.26 161.36 190.206C161.059 190.113 160.818 189.912 160.59 189.704C160.369 189.489 160.149 189.268 159.981 189C159.821 188.739 159.647 188.491 159.466 188.243C158.724 187.271 157.827 186.433 156.871 185.689C155.907 184.945 154.897 184.288 153.853 183.678L152.268 182.753C152.013 182.599 151.766 182.451 151.518 182.331C151.291 182.21 150.997 182.123 150.956 182.136L150.93 180.803C152.274 180.776 153.646 181.024 154.884 181.526C156.128 182.022 157.252 182.726 158.269 183.551C158.777 183.96 159.252 184.409 159.7 184.871C160.155 185.327 160.584 185.809 160.985 186.312C161.393 186.808 161.741 187.358 161.988 187.954C162.229 188.544 162.316 189.228 162.089 189.831V189.818Z" fill="#0F195E"/>
<path d="M123.36 239.941C123.46 239.887 123.574 239.833 123.701 239.787C128.203 237.896 133.93 240.504 137.944 242.535C142.641 244.914 147.832 248.929 150.1 253.822C150.695 255.102 151.017 256.248 151.204 257.059C150.93 255.846 147.993 253.976 146.996 253.219C141.055 248.715 133.843 244.82 126.464 243.433C125.132 243.185 120.576 241.382 123.366 239.947L123.36 239.941Z" fill="#0F195E"/>
<path d="M123.36 239.941C124.029 239.619 124.744 239.404 125.474 239.257C126.21 239.15 126.952 239.076 127.695 239.123C129.18 239.183 130.652 239.465 132.077 239.907C133.502 240.336 134.9 240.872 136.265 241.469C137.63 242.065 138.981 242.702 140.286 243.44C142.888 244.914 145.357 246.69 147.457 248.902C148.494 250.015 149.444 251.228 150.2 252.575C150.956 253.929 151.512 255.384 151.86 256.892L150.555 257.187C150.528 257.059 150.361 256.778 150.147 256.55C149.933 256.309 149.692 256.074 149.431 255.846C148.909 255.39 148.334 254.962 147.752 254.533C147.17 254.124 146.554 253.648 145.992 253.212C145.424 252.77 144.835 252.347 144.246 251.918C141.905 250.223 139.456 248.661 136.88 247.32C134.305 245.987 131.622 244.84 128.819 244.043C127.434 243.614 125.942 243.48 124.617 242.823C123.962 242.515 123.293 242.179 122.784 241.636C122.543 241.375 122.349 240.973 122.537 240.631C122.711 240.303 123.038 240.095 123.36 239.927V239.941ZM123.36 239.941C123.038 240.108 122.717 240.323 122.55 240.651C122.369 240.993 122.563 241.382 122.804 241.636C123.306 242.166 123.975 242.494 124.637 242.796C125.962 243.426 127.447 243.493 128.866 243.882C131.716 244.552 134.492 245.531 137.168 246.744C139.844 247.957 142.426 249.385 144.895 250.994C146.133 251.805 147.297 252.689 148.494 253.507C149.097 253.936 149.699 254.372 150.281 254.874C150.575 255.122 150.856 255.39 151.13 255.692C151.398 256.007 151.686 256.322 151.853 256.912L150.548 257.207C149.946 254.405 148.508 251.872 146.594 249.693C144.694 247.501 142.413 245.611 139.938 244.029C138.7 243.238 137.402 242.535 136.084 241.864C134.766 241.201 133.422 240.577 132.023 240.095C130.625 239.619 129.173 239.264 127.695 239.183C126.959 239.13 126.216 239.19 125.48 239.291C124.751 239.431 124.035 239.632 123.366 239.947L123.36 239.941Z" fill="#0F195E"/>
<path d="M127.581 229.116C127.655 229.062 127.728 229.002 127.815 228.942C130.986 226.756 135.796 227.487 139.195 228.137C143.176 228.901 147.778 230.718 150.274 233.7C150.93 234.485 151.351 235.222 151.619 235.751C151.224 234.954 148.675 234.21 147.792 233.875C142.533 231.864 136.392 230.517 130.498 230.959C129.434 231.039 125.654 230.651 127.581 229.116Z" fill="#0F195E"/>
<path d="M127.581 229.116C128.484 228.432 129.541 227.976 130.645 227.742C131.749 227.487 132.879 227.386 134.017 227.393C136.291 227.4 138.533 227.708 140.774 228.144C143.002 228.626 145.209 229.344 147.25 230.476C148.26 231.053 149.237 231.73 150.093 232.561C150.95 233.399 151.665 234.377 152.214 235.45L151.016 236.046C151.016 236.046 150.983 235.993 150.909 235.932C150.842 235.872 150.756 235.812 150.655 235.745C150.454 235.624 150.234 235.503 149.993 235.396C149.518 235.175 149.009 234.987 148.488 234.8C147.41 234.418 146.407 233.975 145.363 233.62C143.289 232.869 141.162 232.226 138.994 231.77C136.827 231.314 134.612 231.013 132.384 230.972C131.274 230.932 130.15 231.107 129.039 230.912C128.491 230.825 127.929 230.724 127.434 230.443C127.2 230.316 126.959 230.047 127.059 229.759C127.153 229.491 127.367 229.29 127.581 229.116ZM127.581 229.116C127.367 229.29 127.153 229.498 127.072 229.759C126.979 230.047 127.213 230.295 127.454 230.423C127.942 230.691 128.504 230.785 129.053 230.865C130.163 231.039 131.267 230.798 132.391 230.791C134.632 230.698 136.887 230.812 139.115 231.113C141.349 231.422 143.557 231.891 145.725 232.527C146.808 232.849 147.879 233.245 148.916 233.587C149.451 233.774 149.993 233.962 150.535 234.203C150.809 234.324 151.077 234.458 151.358 234.625C151.632 234.806 151.933 234.967 152.214 235.45L151.016 236.046C150.093 234.123 148.508 232.628 146.661 231.462C144.821 230.289 142.754 229.411 140.613 228.787C139.543 228.479 138.446 228.238 137.342 228.017C136.238 227.802 135.127 227.621 134.01 227.567C132.893 227.514 131.762 227.547 130.658 227.775C129.554 227.996 128.491 228.432 127.581 229.102V229.116Z" fill="#0F195E"/>
<path d="M184.929 319.415C185.718 318.182 191.565 321.298 195.754 324.509C195.754 324.509 207.04 333.162 211.85 354.35C212.017 355.1 212.399 356.816 211.81 357.373C211.228 357.929 209.963 357.031 209.542 356.729C204.551 353.177 200.115 340.911 200.115 340.911C194.77 326.158 183.872 321.071 184.929 319.415Z" stroke="white" stroke-miterlimit="10"/>
<path d="M105.162 195.207C105.309 194.798 105.55 194.416 105.825 194.074C107.47 192.063 116.408 183.102 117.459 182.022C121.192 178.195 125.949 175.273 131.187 174.1C134.304 173.403 137.75 173.483 140.065 175.997C140.553 176.526 140.961 177.143 141.108 177.847C141.369 179.093 140.767 180.347 140.051 181.399C138.934 183.028 137.502 184.415 135.99 185.682C133.682 187.613 130.986 189.355 127.976 189.436C127.668 189.442 127.287 189.389 127.173 189.101C127.066 188.832 127.26 188.544 127.44 188.323C128.685 186.808 129.949 185.307 131.207 183.799C133.241 181.171 133.448 180.38 133.214 179.777C132.679 178.416 130.431 178.255 129.26 178.584C128.464 178.812 127.735 179.241 127.046 179.71C125.045 181.077 123.594 183.028 121.975 184.791C119.011 188.035 115.652 190.937 112.388 193.866C110.635 195.435 108.628 196.856 106.32 197.291C105.938 197.365 105.477 197.385 105.222 197.09C105.102 196.956 105.055 196.775 105.022 196.601C104.935 196.118 105.002 195.642 105.162 195.2V195.207Z" fill="#0F195E"/>
<path d="M246.946 372.152C246.217 376.75 245 384.11 240.925 392.26C237.092 399.928 230.589 412.938 218.179 415.049C215.683 415.472 209.154 416.109 200.784 411.028C198.55 405.672 196.576 400.712 194.85 396.228C192.643 390.504 190.836 385.557 189.411 381.536C188.327 378.479 187.204 375.403 186.08 372.407C180.681 357.976 175.362 345.341 175.362 345.341C175.362 345.341 175.328 345.247 170.679 335.957C170.184 334.959 169.575 333.759 170.01 332.606C170.779 330.562 174.265 330.126 176.031 329.925C178.212 329.677 180.199 329.449 182.005 329.248H182.012C190.448 328.303 194.864 327.834 196.101 327.914C197.031 327.974 197.948 328.028 198.838 328.082C217.102 329.228 226.796 330.092 235.573 334.617C238.564 336.158 242.424 337.117 244.939 340.649C246.264 342.513 247.308 345.019 247.615 354.055C247.843 360.757 248.004 365.456 246.946 372.152Z" fill="#2F60A2"/>
<path d="M115.151 375.503C113.9 379.693 111.224 392.113 103.108 398.293C99.3954 401.121 96.7059 401.061 95.7493 400.974C92.2169 400.652 89.8017 397.958 88.3901 396.282C81.2049 387.769 76.6355 378.111 76.3479 377.514C71.1362 366.535 62.3588 358.15 54.5714 352.989C52.8454 351.843 51.1662 350.857 49.5873 350.033C36.4679 343.21 25.1348 345.174 24.8338 341.99C24.5929 339.476 31.4905 336.728 37.5785 334.771C40.4954 333.833 43.2317 333.068 44.9042 332.606C60.994 328.135 79.1042 323.108 99.0943 330.595C106.4 333.33 111.98 336.996 115.82 339.979C117.392 346.246 119.854 359.718 115.151 375.503Z" fill="#2F60A2"/>
<path d="M39.552 324.563C39.9133 323.597 45.4193 324.563 49.5872 325.903C49.5872 325.903 60.82 329.516 69.6577 342.66C69.9721 343.122 70.6746 344.195 70.3267 344.671C69.9788 345.147 68.7411 344.791 68.3196 344.671C63.4158 343.257 56.9464 335.957 56.9464 335.957C49.1591 327.177 39.0703 325.856 39.552 324.563Z" fill="#0F195E"/>
<path d="M61.1946 314.602C61.877 313.664 67.4299 316.372 71.4506 319.093C71.4506 319.093 82.282 326.413 87.6341 343.377C87.8214 343.98 88.2429 345.355 87.7277 345.763C87.2059 346.179 86.0017 345.415 85.5936 345.16C80.8168 342.137 76.1806 332.251 76.1806 332.251C70.601 320.353 60.2781 315.869 61.1946 314.602Z" fill="#0F195E"/>
<path d="M180.393 316.084C180.681 314.676 185.21 316.064 188.642 318.001C188.642 318.001 197.894 323.215 205.233 342.311C205.494 342.988 206.076 344.537 205.795 345.234C205.508 345.931 204.491 345.415 204.15 345.241C200.116 343.196 194.75 332.606 194.75 332.606C188.301 319.857 180.005 317.974 180.393 316.09V316.084Z" fill="#0F195E"/>
<path d="M208.752 316.379C209.268 315.353 212.967 317.377 215.603 319.596C215.603 319.596 222.715 325.581 225.558 341.916C225.658 342.492 225.879 343.82 225.505 344.295C225.123 344.778 224.334 344.161 224.059 343.954C220.915 341.521 218.206 332.19 218.206 332.19C214.948 320.963 208.05 317.759 208.746 316.379H208.752Z" fill="#0F195E"/>
<path d="M128.872 111.617C127.768 111.094 126.464 112.281 125.775 113.018C123.226 115.759 121.5 119.278 120.596 122.971L129.073 121.255C129.28 120.625 129.454 119.982 129.601 119.332C130.03 117.468 131.194 112.71 128.872 111.617Z" fill="#0F195E"/>
<path d="M26.7071 136.377C27.3092 136.296 27.9381 136.33 28.5469 136.424C40.7564 138.227 30.0655 146.263 25.2486 140.64C24.0712 139.266 23.7768 137.463 25.7771 136.625C26.0715 136.498 26.3859 136.424 26.7071 136.377Z" fill="#0F195E"/>
<path d="M29.5304 148.985C30.1125 148.569 31.0223 148.341 32.3202 148.428C34.7822 148.596 39.1575 150.412 37.291 153.127C34.441 157.269 25.8575 151.605 29.5371 148.985H29.5304Z" fill="#0F195E"/>
<path d="M112.073 129.728C113.304 128.93 114.615 128.193 116.094 127.784C116.83 127.59 117.619 127.456 118.449 127.563C118.857 127.616 119.278 127.724 119.666 127.911C120.041 128.112 120.429 128.34 120.723 128.649C121.339 129.252 121.787 129.989 122.068 130.74C122.356 131.491 122.563 132.261 122.684 133.025C122.931 134.56 122.971 136.089 122.918 137.59C122.811 140.6 122.61 143.609 121.767 146.471C121.366 147.906 120.871 149.306 120.302 150.68C119.733 152.055 119.091 153.402 118.282 154.682C118.241 154.749 118.154 154.769 118.088 154.722C118.041 154.695 118.021 154.648 118.021 154.595C118.094 153.087 118.275 151.626 118.482 150.178C118.683 148.73 118.904 147.296 119.151 145.875C119.392 144.454 119.68 143.046 120.001 141.652C120.335 140.258 120.596 138.85 120.777 137.436C120.938 136.028 121.011 134.614 120.911 133.24C120.817 131.879 120.536 130.499 119.76 129.574C119.031 128.588 117.633 128.354 116.261 128.588C114.883 128.809 113.518 129.346 112.2 129.956C112.133 129.989 112.053 129.956 112.02 129.895C111.993 129.835 112.013 129.761 112.066 129.721L112.073 129.728Z" fill="#0F195E"/>
<path opacity="0.37" d="M192.422 224.357C192.629 224.357 192.368 227.366 193.091 231.73C193.88 236.502 195.359 239.981 196.436 242.454C196.57 242.756 199.246 248.849 202.457 252.508C204.29 254.593 206.063 255.625 206.471 255.86C207.167 256.255 207.829 256.476 207.809 256.53C207.762 256.671 203.942 256.021 201.119 254.519C193.365 250.404 192.161 239.445 191.753 235.752C191.084 229.639 192.147 224.35 192.422 224.357Z" fill="#3676B6"/>
<path d="M298.079 369.008C301.11 366.81 304.107 364.859 307.017 362.808C308.456 361.77 309.934 360.798 311.332 359.725L313.466 358.17C314.176 357.647 314.858 357.091 315.554 356.561C316.959 355.509 318.337 354.41 319.695 353.284C321.107 352.218 322.398 351.012 323.796 349.906C326.512 347.6 329.208 345.234 332.145 342.908L332.359 343.069C331.282 344.53 330.152 345.958 328.988 347.359C327.81 348.746 326.579 350.087 325.315 351.394C322.772 353.994 320.056 356.434 317.186 358.68C314.289 360.885 311.239 362.889 308.067 364.665C304.903 366.468 301.585 367.983 298.179 369.25L298.086 369.002L298.079 369.008Z" fill="#0F195E"/>
<path d="M312.108 371.696C314.028 370.014 315.975 368.459 317.855 366.817C318.812 366.019 319.755 365.221 320.678 364.397L323.508 361.964C325.355 360.315 327.235 358.753 328.988 357.051C330.781 355.395 332.52 353.706 334.166 351.916C335.865 350.187 337.464 348.364 338.996 346.481C339.397 346.025 339.779 345.556 340.153 345.073C340.528 344.597 340.923 344.128 341.284 343.639C341.993 342.653 342.763 341.702 343.478 340.71C346.328 336.742 348.918 332.546 351.527 328.182L351.781 328.276C350.068 332.995 347.894 337.546 345.265 341.822C342.622 346.092 339.558 350.107 336.106 353.753C332.64 357.386 328.807 360.657 324.78 363.64C320.772 366.636 316.611 369.464 312.242 371.911L312.108 371.676V371.696Z" fill="#0F195E"/>
<path d="M310.924 352.949C313.627 354.135 316.096 355.261 318.591 356.206C321.093 357.118 323.582 357.869 326.117 358.458C328.66 359.021 331.235 359.417 333.905 359.705C336.574 359.966 339.304 360.08 342.247 360.295L342.314 360.556C339.598 361.314 336.788 361.756 333.965 361.837C331.142 361.93 328.305 361.669 325.535 361.072C322.779 360.422 320.103 359.43 317.608 358.096C316.357 357.433 315.159 356.682 314.008 355.858C312.864 355.02 311.781 354.115 310.75 353.15L310.931 352.949H310.924Z" fill="#0F195E"/>
<path d="M300.193 363.653C302.281 363.599 304.134 363.861 305.953 364.169C307.76 364.498 309.506 364.906 311.232 365.396C312.958 365.885 314.664 366.448 316.377 367.112C318.089 367.795 319.809 368.539 321.562 369.672L321.535 369.94C319.675 369.799 317.815 369.565 315.982 369.223C314.142 368.888 312.316 368.472 310.516 367.983C308.716 367.467 306.944 366.864 305.204 366.187C303.458 365.523 301.752 364.752 300.086 363.901L300.2 363.66L300.193 363.653Z" fill="#0F195E"/>
<path opacity="0.44" d="M162.316 201.568C163.326 200.877 166.444 203.062 168.337 205.589C171.033 209.195 171.027 213.217 171.013 218.324C170.993 225.945 168.899 228.425 168.337 229.049C167.227 230.275 165.548 231.462 164.992 231.06C164.129 230.436 167.126 226.83 167.668 221.006C167.902 218.505 168.23 214.946 166.33 211.622C164.972 209.249 163.186 208.223 162.316 204.919C162.095 204.068 161.567 202.077 162.316 201.568Z" fill="white"/>
<path d="M159.647 113.125C158.603 113.373 157.68 114.037 156.964 114.841C156.288 115.598 155.767 116.49 155.278 117.381C155.138 117.636 154.643 119.198 154.288 119.124C153.994 119.064 153.893 117.67 154.288 116.443C154.843 114.707 156.683 113.045 158.382 112.462C159.011 112.247 159.6 112.287 160.142 112.689C160.195 112.73 160.256 112.783 160.262 112.85C160.276 112.991 160.095 113.051 159.955 113.071C159.848 113.085 159.747 113.105 159.64 113.132L159.647 113.125Z" fill="#0F195E"/>
<path d="M205.133 298.087C205.08 298.449 207.274 299.132 209.147 299.427C212.894 300.011 216.52 299.193 216.506 298.757C216.5 298.469 214.867 298.315 212.492 298.087C210.024 297.852 205.207 297.564 205.133 298.087Z" fill="#0F195E"/>
<path d="M172.351 165.373C171.642 164.998 173.75 157.893 179.042 153.308C179.864 152.597 180.814 151.773 181.049 151.967C181.892 152.651 173.395 165.922 172.351 165.373Z" fill="#0F195E"/>
<path d="M180.38 165.373C179.67 164.998 181.778 157.893 187.07 153.308C187.893 152.597 188.843 151.773 189.077 151.967C189.92 152.651 181.423 165.922 180.38 165.373Z" fill="#0F195E"/>
<path opacity="0.62" d="M54.5714 352.989C52.8454 351.843 51.1662 350.857 49.5873 350.033C36.4679 343.21 25.1348 345.174 24.8338 341.99C24.5929 339.476 31.4905 336.728 37.5785 334.771C41.0707 335.83 45.1584 337.747 48.5838 341.655C51.3736 344.838 53.7352 349.349 54.5714 352.989Z" fill="white"/>
<path d="M24.8337 341.99C24.7869 341.474 25.0411 340.984 25.3622 340.596C25.69 340.207 26.0714 339.865 26.4728 339.557C27.2823 338.94 28.1721 338.437 29.0619 337.948C29.9583 337.465 30.8816 337.036 31.8115 336.614C32.7347 336.185 33.6714 335.776 34.6147 335.388C38.3679 333.799 42.2147 332.371 46.0548 331.031C47.9749 330.361 49.9017 329.697 51.8552 329.094C53.7953 328.464 55.7756 327.907 57.7893 327.512C61.8034 326.667 65.8576 325.883 69.9788 325.488C78.2009 324.663 86.684 325.085 94.7055 327.411C102.747 329.63 110.273 333.544 116.843 338.645C117.151 338.88 117.352 339.208 117.439 339.563C119.171 346.487 119.854 353.666 119.419 360.791C119.205 364.35 118.703 367.902 117.927 371.381C117.733 372.253 117.546 373.124 117.291 373.982L116.589 376.529C116.127 378.171 115.666 379.9 115.124 381.589C114.053 384.981 112.735 388.346 110.922 391.516C110.006 393.091 109.002 394.64 107.791 396.047C107.216 396.778 106.54 397.428 105.885 398.092C105.557 398.427 105.176 398.708 104.821 399.023C104.46 399.325 104.105 399.64 103.717 399.908C102.185 401.014 100.446 401.972 98.4319 402.428C97.4418 402.649 96.3312 402.743 95.2742 402.589C94.2238 402.462 93.2002 402.14 92.277 401.691C90.4105 400.793 88.9453 399.425 87.7143 398.045C86.5235 396.671 85.433 395.297 84.3559 393.869C82.2351 391.02 80.2816 388.064 78.4886 385.015C77.5921 383.493 76.7358 381.945 75.9129 380.37C75.5048 379.592 75.1034 378.768 74.7221 377.99L73.5714 375.738C70.3467 369.813 65.958 364.518 60.9136 359.987L58.9802 358.331C58.3179 357.801 57.6622 357.265 56.9731 356.769L52.8721 353.766C50.1157 351.796 47.2189 350.033 44.1147 348.592C41.0105 347.151 37.7323 346.018 34.3538 345.234C32.6678 344.812 30.9552 344.523 29.2492 344.161C28.3995 343.98 27.5432 343.813 26.7136 343.538C26.2988 343.404 25.8907 343.25 25.5228 343.009C25.1615 342.774 24.8538 342.405 24.8203 341.963L24.8337 341.99ZM24.8337 341.99C24.8738 342.432 25.1816 342.794 25.5495 343.022C25.9108 343.257 26.3256 343.411 26.7404 343.538C27.5767 343.779 28.4263 343.934 29.2893 344.061L34.4608 344.751C37.9129 345.234 41.3851 345.844 44.7904 346.876C48.189 347.888 51.514 349.323 54.5981 351.126C56.1636 351.99 57.6488 352.996 59.0404 354.102C59.7495 354.644 60.4252 355.228 61.121 355.777L63.1481 357.52C68.4467 362.279 73.0696 367.856 76.515 374.163L77.7393 376.562C78.1207 377.347 78.4886 378.084 78.8833 378.848C79.6728 380.363 80.5024 381.858 81.3721 383.332C83.1048 386.281 84.9914 389.143 87.0319 391.878C88.0555 393.232 89.126 394.586 90.2164 395.839C91.2869 397.053 92.4443 398.078 93.7288 398.688C94.3643 398.996 95.0266 399.198 95.6957 399.278C96.358 399.378 97.0136 399.325 97.7094 399.171C99.0943 398.862 100.486 398.138 101.764 397.207C102.091 396.986 102.386 396.718 102.694 396.463C102.995 396.201 103.316 395.967 103.597 395.679C104.159 395.102 104.741 394.553 105.242 393.909C106.3 392.682 107.203 391.295 108.032 389.867C109.678 386.985 110.922 383.835 111.946 380.597C112.468 378.969 112.903 377.333 113.384 375.624C113.639 374.746 113.839 373.968 114.073 373.137C114.314 372.326 114.488 371.495 114.676 370.664C115.412 367.353 115.887 363.981 116.094 360.597C116.502 353.82 115.86 346.977 114.207 340.388L114.803 341.306C108.554 336.46 101.416 332.747 93.8091 330.649C90.0224 329.543 86.1154 328.906 82.1816 328.625C78.2478 328.343 74.2738 328.437 70.3267 328.832C66.3728 329.228 62.439 329.918 58.5386 330.836C57.5619 331.051 56.5918 331.332 55.6083 331.527L52.6513 332.137L46.7038 333.37C42.7231 334.174 38.7559 334.952 34.8622 336.071C32.9221 336.648 30.9953 337.278 29.1622 338.129C28.239 338.545 27.3358 339.007 26.5129 339.604C26.0981 339.892 25.7168 340.227 25.3823 340.616C25.0612 340.998 24.8069 341.48 24.8404 341.996L24.8337 341.99Z" fill="#0F195E"/>
<path opacity="0.62" d="M191.753 367.125C190.495 369.116 188.468 371.113 186.08 372.407C180.681 357.976 175.362 345.341 175.362 345.341C175.362 345.341 175.328 345.247 170.679 335.957C170.184 334.959 169.575 333.759 170.01 332.606C170.779 330.562 174.265 330.126 176.031 329.925C178.212 329.677 180.199 329.449 182.005 329.248H182.012C185.611 333.511 187.786 339.215 189.746 344.336C192.763 352.238 195.934 360.529 191.753 367.125Z" fill="white"/>
<path d="M246.946 372.152C246.03 378.144 244.899 384.143 242.819 389.961C241.748 392.877 240.571 395.658 239.239 398.46C238.912 399.164 238.564 399.854 238.189 400.531C237.834 401.222 237.44 401.899 237.052 402.569C236.282 403.93 235.379 405.223 234.376 406.45C232.362 408.876 230.107 411.195 227.425 413.019C224.755 414.862 221.651 416.162 218.406 416.705C215.148 417.248 211.837 416.993 208.712 416.209C205.581 415.425 202.644 414.078 199.921 412.456H199.908C199.594 412.261 199.373 411.98 199.246 411.671C196.222 404.091 193.091 396.557 190.348 388.875L188.22 383.138L186.146 377.414C184.755 373.607 183.323 369.806 181.858 366.019C180.393 362.232 178.901 358.458 177.389 354.691L175.094 349.054L173.93 346.246C173.817 345.958 173.703 345.743 173.596 345.522L173.261 344.852L172.586 343.511L169.896 338.136L169.227 336.788C169.006 336.339 168.739 335.83 168.525 335.207C168.311 334.597 168.123 333.833 168.23 332.961C168.317 332.09 168.765 331.252 169.307 330.669C170.438 329.503 171.662 329.127 172.773 328.799C173.89 328.497 174.994 328.363 176.018 328.242L182.072 327.559C186.12 327.116 190.12 326.627 194.262 326.299C194.79 326.258 195.299 326.232 195.934 326.232C196.309 326.232 196.489 326.258 196.764 326.272L197.52 326.319L200.564 326.506L206.658 326.915C210.726 327.217 214.8 327.552 218.888 328.102C220.928 328.39 222.976 328.718 225.016 329.161C227.057 329.61 229.084 330.159 231.084 330.85C232.074 331.218 233.064 331.587 234.034 332.023C234.523 332.224 234.998 332.458 235.473 332.686L236.838 333.357C238.557 334.181 240.557 334.925 242.491 336.091C243.461 336.668 244.384 337.398 245.167 338.276C245.943 339.161 246.585 340.133 247.08 341.226C247.575 342.311 247.85 343.424 248.024 344.49C248.204 345.562 248.291 346.615 248.351 347.66C248.452 349.752 248.425 351.809 248.351 353.86L248.131 359.98C248.044 362.024 247.923 364.062 247.736 366.086C247.528 368.11 247.288 370.134 246.96 372.145L246.946 372.152ZM246.946 372.152C247.582 368.13 247.736 364.042 247.435 359.993C247.294 357.969 247.094 355.938 246.88 353.914C246.665 351.896 246.405 349.892 246.03 347.942C245.675 346.005 245.187 344.068 244.344 342.6C243.923 341.876 243.354 341.185 242.732 340.602C242.109 340.006 241.42 339.483 240.664 338.98C239.152 337.975 237.313 337.311 235.366 336.38L233.994 335.709C233.559 335.495 233.125 335.28 232.67 335.099C231.787 334.697 230.87 334.362 229.953 334.02C228.107 333.383 226.214 332.874 224.287 332.445C222.36 332.023 220.393 331.708 218.413 331.426C214.452 330.897 210.425 330.555 206.391 330.26L200.33 329.851L197.292 329.663L196.53 329.616C196.295 329.603 195.968 329.576 195.84 329.583C195.459 329.583 194.957 329.603 194.469 329.643C190.515 329.958 186.448 330.448 182.42 330.89L176.372 331.574C175.375 331.681 174.459 331.808 173.616 332.036C172.786 332.251 172.024 332.606 171.743 332.941C171.609 333.102 171.549 333.209 171.529 333.35C171.508 333.491 171.535 333.752 171.662 334.094C171.896 334.751 172.458 335.77 172.9 336.674L175.663 342.218L176.352 343.605L176.7 344.295C176.814 344.53 176.941 344.765 177.008 344.952L178.178 347.781L180.487 353.445C182.012 357.225 183.504 361.012 184.976 364.819C186.448 368.62 187.886 372.44 189.284 376.267L191.365 382.018L193.479 387.722C196.208 395.364 199.319 402.857 202.323 410.391L201.648 409.607C204.13 411.088 206.765 412.288 209.515 412.978C212.258 413.669 215.115 413.87 217.844 413.414C220.587 412.945 223.203 411.866 225.531 410.264C227.853 408.662 229.933 406.631 231.7 404.325C232.583 403.172 233.459 401.999 234.336 400.813C235.212 399.626 236.021 398.386 236.831 397.126C237.647 395.873 238.41 394.579 239.199 393.286C239.975 391.972 240.751 390.698 241.44 389.365C242.852 386.71 244.016 383.915 244.933 381.026C245.374 379.579 245.756 378.111 246.097 376.629C246.425 375.148 246.686 373.653 246.926 372.152H246.946Z" fill="#0F195E"/>
</g>
<defs>
<clipPath id="clip0_1509_13">
<rect width="24.3365" height="35.4097" fill="white" transform="translate(147.932 29.3447) rotate(28.1199)"/>
</clipPath>
<clipPath id="clip1_1509_13">
<rect width="65.7035" height="95.5988" fill="white" transform="translate(55 16.4055) rotate(-14.4591)"/>
</clipPath>
<clipPath id="clip2_1509_13">
<rect width="380" height="342" fill="white" transform="translate(0 75)"/>
</clipPath>
</defs>
</svg>
