<svg xmlns:inkscape="http://www.inkscape.org/namespaces/inkscape" xmlns:sodipodi="http://sodipodi.sourceforge.net/DTD/sodipodi-0.dtd" xmlns="http://www.w3.org/2000/svg" xmlns:svg="http://www.w3.org/2000/svg" version="1.1" id="svg2" sodipodi:docname="Orni - rascunho.ai" viewBox="192 319.15 1049.32 756.85">
  <defs id="defs6">
    <clipPath clipPathUnits="userSpaceOnUse" id="clipPath20">
      <path d="M 0,1080 H 1080 V 0 H 0 Z" id="path18"></path>
    </clipPath>
    <clipPath clipPathUnits="userSpaceOnUse" id="clipPath40">
      <path d="M 648.438,584.295 H 878.829 V 314.46 H 648.438 Z" id="path38"></path>
    </clipPath>
    <clipPath clipPathUnits="userSpaceOnUse" id="clipPath140">
      <path d="M 421.944,835.271 H 674.453 V 280.712 H 421.944 Z" id="path138"></path>
    </clipPath>
    <clipPath clipPathUnits="userSpaceOnUse" id="clipPath164">
      <path d="M 262.919,707.121 H 381.458 V 666 H 262.919 Z" id="path162"></path>
    </clipPath>
  </defs>
  <sodipodi:namedview id="namedview4" pagecolor="#ffffff" bordercolor="#000000" borderopacity="0.25" inkscape:showpageshadow="2" inkscape:pageopacity="0.0" inkscape:pagecheckerboard="0" inkscape:deskcolor="#d1d1d1"></sodipodi:namedview>
  <g id="g8" inkscape:groupmode="layer" inkscape:label="Orni - rascunho" transform="matrix(1.3333333,0,0,-1.3333333,0,1440)">
    <g id="g10" transform="translate(144,279)">
      <path d="M 0,0 H 693 Z" style="fill:#000000;fill-opacity:1;fill-rule:nonzero;stroke:none" id="path12"></path>
    </g>
    <g id="g14">
      <g id="g16" clip-path="url(#clipPath20)">
        <g id="g22" transform="translate(144,279)">
          <path d="M 0,0 C 57.75,2.482 115.5,3.782 173.25,4.664 231,5.542 288.75,6.008 346.5,5.998 404.25,6.03 462,5.552 519.75,4.682 577.5,3.803 635.25,2.498 693,0 635.25,-2.498 577.5,-3.803 519.75,-4.682 462,-5.552 404.25,-6.03 346.5,-5.998 288.75,-6.008 231,-5.542 173.25,-4.664 115.5,-3.782 57.75,-2.482 0,0" style="fill:#000000;fill-opacity:1;fill-rule:nonzero;stroke:none" id="path24"></path>
        </g>
        <g id="g26" transform="translate(876.8848,373.9229)">
          <path d="m 0,0 c -9.157,-9.249 -19.038,-17.851 -29.598,-25.528 -45.831,-33.344 -98.151,-43.195 -152.907,-43.888 -8.864,-0.123 -17.805,0 -26.776,0.309 -2.081,0.077 -4.132,0.154 -6.12,0.231 -0.941,0.046 -1.866,0.077 -2.776,0.139 -1.818,0.077 -3.606,0.169 -5.348,0.261 -0.832,0.046 -1.65,0.093 -2.467,0.155 h -0.016 c -11.006,0.647 -20.347,1.495 -27.547,2.219 2.25,5.073 4.517,10.128 6.768,15.201 0.616,1.371 1.232,2.743 1.834,4.115 1.233,5.226 2.467,10.452 3.7,15.678 8.216,2.281 18.837,5.965 29.906,12.131 0.987,0.54 1.973,1.111 2.959,1.727 1.65,0.956 3.299,2.004 4.964,3.114 1.558,1.033 3.13,2.127 4.687,3.283 4.008,2.96 7.969,6.306 11.793,10.082 0.339,0.339 0.693,0.679 1.033,1.034 36.38,36.874 41.39,96.685 46.292,144.936 1.804,17.929 6.136,36.628 18.638,49.839 17.234,18.206 48.158,24.156 72.499,21.612 26.669,-2.775 49.9,-16.541 67.12,-35.841 l 0.014,-0.015 C 30.445,167.598 39.433,151.797 44.828,135.164 61.508,83.568 36.581,36.921 0,0" style="fill:#263b9c;fill-opacity:1;fill-rule:nonzero;stroke:none" id="path28"></path>
        </g>
        <g id="g30" transform="translate(650.9951,309.6016)">
          <path d="m 0,0 0.197,-0.012 c 0.791,-0.059 1.582,-0.104 2.388,-0.148 1.72,-0.092 3.494,-0.183 5.298,-0.26 l 0.099,-0.005 c 0.597,-0.041 1.2,-0.067 1.81,-0.094 l 0.892,-0.041 c 1.946,-0.075 3.994,-0.152 6.073,-0.229 9.274,-0.319 18.218,-0.424 26.572,-0.306 63.42,0.803 111.275,14.505 150.609,43.122 10.067,7.32 19.86,15.767 29.109,25.109 l 0.001,0.001 c 43.152,43.552 57.91,87.668 43.864,131.118 -5.265,16.227 -14.013,31.489 -25.301,44.136 v 0.001 l -0.068,0.075 c -17.638,19.769 -40.562,32.03 -64.55,34.526 -22.595,2.361 -52.748,-3.026 -69.18,-20.384 C 94.99,243.059 91.648,223.017 90.25,209.12 l -0.448,-4.437 C 85.029,157.389 79.09,98.53 42.826,61.774 42.612,61.552 42.353,61.294 42.095,61.04 L 41.773,60.723 C 37.967,56.962 33.853,53.444 29.528,50.251 28.023,49.133 26.388,47.987 24.677,46.853 22.809,45.606 21.134,44.555 19.565,43.645 18.59,43.036 17.574,42.444 16.464,41.836 7.768,36.991 -1.808,33.016 -12.009,30.012 L -15.254,16.263 -15.4,15.929 c -0.607,-1.383 -1.228,-2.767 -1.849,-4.149 -1.096,-2.468 -2.202,-4.95 -3.31,-7.431 C -20.957,3.454 -21.355,2.56 -21.755,1.665 -14.251,0.967 -7.088,0.418 0,0 m 36.569,-9.142 c -6.448,0 -13.18,0.121 -20.098,0.358 -2.094,0.078 -4.148,0.155 -6.138,0.232 l -0.895,0.041 c -0.655,0.03 -1.303,0.058 -1.944,0.101 -1.816,0.077 -3.602,0.169 -5.343,0.262 -0.839,0.045 -1.657,0.092 -2.474,0.153 l -0.031,0.002 c -8.951,0.526 -18.015,1.257 -27.711,2.233 l -5.496,0.553 2.24,5.049 c 1.149,2.591 2.302,5.178 3.457,7.764 1.104,2.478 2.21,4.956 3.31,7.436 0.569,1.266 1.131,2.518 1.681,3.768 l 4.16,17.625 2.279,0.632 c 10.448,2.901 20.215,6.862 29.031,11.772 1.021,0.559 1.924,1.086 2.786,1.625 l 0.113,0.068 c 1.439,0.834 2.992,1.809 4.75,2.982 1.603,1.062 3.12,2.126 4.522,3.166 4.026,2.973 7.847,6.241 11.367,9.716 l 0.344,0.341 c 0.204,0.201 0.411,0.406 0.612,0.616 34.322,34.788 40.104,92.09 44.751,138.132 l 0.449,4.44 c 1.515,15.058 5.207,36.856 19.712,52.183 19.56,20.663 53.067,25.218 75.82,22.842 25.948,-2.7 50.677,-15.874 69.637,-37.099 l 0.064,-0.07 c 12.049,-13.482 21.385,-29.756 26.998,-47.061 8.058,-24.924 7.212,-50.409 -2.511,-75.752 -8.217,-21.419 -22.779,-42.771 -43.28,-63.462 l 0.001,10e-4 C 219.181,51.859 209.058,43.129 198.645,35.558 157.906,5.919 108.587,-8.27 43.436,-9.095 41.188,-9.126 38.896,-9.142 36.569,-9.142" style="fill:#010027;fill-opacity:1;fill-rule:nonzero;stroke:none" id="path32"></path>
        </g>
        <g id="g34">
          <g id="g36"></g>
          <g id="g48">
            <g clip-path="url(#clipPath40)" opacity="0.75" id="g46">
              <g transform="translate(838.6377,384.54)" id="g44">
                <path d="m 0,0 c -8.185,-9.265 -17,-17.851 -26.418,-25.543 -47.466,-38.739 -84.208,-46.375 -141.667,-44.201 -8.101,0.308 -15.528,0.786 -22.115,1.325 0.547,1.373 1.094,2.744 1.64,4.116 1.093,5.227 -1.506,19.162 -0.413,24.389 12.978,4.054 31.436,7.039 48.056,25.937 32.443,36.874 41.924,93.41 46.296,141.66 1.611,17.928 3.876,36.752 15.031,49.963 6.95,8.229 12.869,13.226 19.298,16.372 11.188,5.474 21.182,5.733 28.367,5.737 9.441,0.004 34.718,0.017 52.62,-16.68 7.783,-7.259 11.312,-15.731 13.158,-19.93 2.694,-6.129 5.499,-14.881 6.102,-27.981 C 43.772,52.254 0,0 0,0" style="fill:#3d66bc;fill-opacity:1;fill-rule:nonzero;stroke:none" id="path42"></path>
              </g>
            </g>
          </g>
        </g>
        <g id="g50" transform="translate(406.8677,347.5762)">
          <path d="m 0,0 c 0,0 -0.084,-1.526 -0.248,-3.091 -3.022,-28.962 -16.208,-45.457 -16.208,-45.457 -5.921,-7.408 -11.065,-13.843 -21.202,-17.491 -19.115,-6.88 -39.09,2.229 -42.652,3.916 -1.355,1.137 -2.65,2.293 -3.911,3.595 -1.425,1.467 -2.792,3.138 -3.875,4.771 -2.215,3.343 -3.57,6.112 -5.265,8.814 -3.31,5.393 -7.327,10.601 -11.556,15.791 -4.488,5.48 -8.493,11.039 -12.615,16.276 -2.05,2.624 -4.147,5.17 -6.326,7.6 -2.143,2.438 -4.464,4.654 -7.114,7.443 -1.284,1.428 -2.71,2.983 -3.946,5.082 -1.226,2.06 -2.026,4.762 -1.944,7.278 0.13,2.886 1.201,5.121 2.38,7.084 1.26,1.934 2.732,3.537 4.287,5.004 3.11,2.906 6.526,5.17 10.012,7.172 3.605,2.012 6.821,3.614 10.46,5.306 7.162,3.294 14.925,6.053 23.076,7.696 8.151,1.651 16.667,2.254 25.007,1.622 2.061,-0.223 4.169,-0.281 6.207,-0.66 2.026,-0.312 4.17,-0.603 6.031,-0.991 3.84,-0.719 7.798,-1.526 11.685,-2.585 7.798,-2.061 15.513,-5.19 21.98,-9.815 C -9.235,29.793 -4.464,23.545 -2.085,16.937 -0.836,13.448 -0.177,9.911 0.023,6.403 0.188,4.246 0.165,2.108 0,0" style="fill:#3d66bc;fill-opacity:1;fill-rule:nonzero;stroke:none" id="path52"></path>
        </g>
        <g id="g54" transform="translate(455.3086,285.8135)">
          <path d="m 0,0 c -0.125,-0.01 -0.242,-0.019 -0.358,-0.027 l -17.587,-1.388 -17.596,-1.227 c -11.73,-0.85 -23.469,-1.513 -35.199,-2.22 -11.731,-0.735 -23.47,-1.344 -35.218,-1.944 -0.162,-0.017 -0.332,0 -0.493,0.009 h -0.143 c -6.25,0.537 -12.573,1.737 -18.67,4.074 -0.761,0.287 -1.523,0.591 -2.266,0.923 -5.247,2.292 -10.19,5.596 -14.354,9.689 -0.143,0.152 -0.295,0.295 -0.429,0.447 -1.03,1.048 -2.016,2.113 -2.974,3.313 -1.083,1.353 -2.122,2.893 -2.945,4.397 -1.684,3.08 -2.714,5.633 -4.003,8.122 -2.516,4.97 -5.57,9.77 -8.785,14.551 -3.411,5.051 -6.456,10.173 -9.59,14.999 -1.558,2.418 -3.152,4.763 -4.808,7.002 -1.63,2.248 -3.394,4.289 -5.409,6.859 -0.976,1.317 -2.06,2.749 -3,4.684 -0.931,1.898 -1.54,4.387 -1.477,6.707 0.098,2.659 0.913,4.718 1.808,6.527 0.959,1.782 2.078,3.26 3.26,4.611 2.364,2.678 4.961,4.764 7.611,6.609 2.74,1.853 5.185,3.331 7.952,4.889 5.444,3.036 11.345,5.579 17.542,7.092 6.196,1.523 12.671,2.077 19.01,1.495 1.567,-0.206 3.17,-0.259 4.719,-0.608 1.54,-0.287 3.17,-0.556 4.585,-0.914 2.919,-0.662 5.928,-1.405 8.883,-2.382 5.928,-1.898 11.793,-4.781 16.709,-9.044 4.943,-4.208 8.569,-9.966 10.378,-16.055 0.949,-3.214 1.451,-6.474 1.603,-9.707 0.125,-1.988 0.107,-3.958 -0.018,-5.901 -0.036,-0.958 -0.108,-1.907 -0.188,-2.848 -0.573,-6.07 -2.113,-11.881 -3.761,-17.604 -1.039,-3.465 -2.346,-6.841 -3.886,-10.101 -0.994,-2.122 -2.095,-4.19 -3.286,-6.196 2.319,5.436 4.011,11.095 5.104,16.816 1.021,5.571 1.808,11.194 1.934,16.728 0.009,0.187 0.009,0.385 0.009,0.582 0.018,1.128 -0.009,2.256 -0.054,3.375 -0.206,4.576 -0.949,9.062 -2.579,13.119 -1.961,5.077 -5.167,9.491 -9.456,12.67 -2.122,1.604 -4.459,2.964 -6.94,4.057 -2.489,1.092 -5.094,1.961 -7.79,2.704 -2.678,0.734 -5.435,1.29 -8.292,1.8 -2.856,0.483 -5.471,0.824 -8.22,0.94 -10.897,0.421 -21.571,-2.901 -31.054,-8.605 -4.836,-2.964 -9.609,-6.044 -12.59,-9.689 -0.734,-0.895 -1.379,-1.809 -1.782,-2.668 -0.394,-0.815 -0.591,-1.595 -0.582,-1.898 0.036,-0.636 0.125,-1.111 0.483,-1.854 0.367,-0.717 1.039,-1.683 1.854,-2.705 1.656,-2.059 3.77,-4.441 5.65,-6.957 1.89,-2.48 3.6,-5.023 5.256,-7.549 3.314,-5.068 6.331,-10.083 9.555,-14.802 3.349,-5.005 6.626,-10.208 9.42,-15.787 1.415,-2.766 2.624,-5.676 3.761,-7.79 0.582,-1.084 1.173,-2.014 1.934,-2.964 0.717,-0.949 1.594,-1.916 2.498,-2.847 2.015,-2.077 4.299,-3.868 6.779,-5.4 6.241,-3.85 13.745,-6.035 21.508,-6.868 0.09,-0.009 0.18,-0.017 0.269,-0.009 6.367,0.108 12.743,0.233 19.118,0.314 5.176,0.08 10.369,0.152 15.545,0.187 3.188,0.037 6.376,0.073 9.564,0.108 8.569,0.09 17.129,0.161 25.708,0.143 l 17.64,0.018 17.64,-0.143 h 0.35 C 2.319,3.832 2.445,0.196 0,0" style="fill:#010027;fill-opacity:1;fill-rule:nonzero;stroke:none" id="path56"></path>
        </g>
        <g id="g58" transform="translate(290.9751,382.1641)">
          <path d="M 0,0 C 2.204,1.256 4.83,1.669 7.416,1.403 8.712,1.269 10,0.946 11.233,0.466 c 0.614,-0.246 1.211,-0.536 1.788,-0.864 0.589,-0.31 1.137,-0.687 1.675,-1.08 2.16,-1.57 3.811,-3.756 4.853,-6.111 1.002,-2.371 1.481,-4.949 1.021,-7.456 -1.368,2.113 -2.658,3.968 -4.042,5.649 -1.399,1.661 -2.857,3.125 -4.507,4.331 l -0.612,0.461 C 11.2,-4.456 10.973,-4.336 10.761,-4.19 10.344,-3.887 9.892,-3.645 9.447,-3.376 8.543,-2.871 7.597,-2.421 6.604,-2.011 4.613,-1.184 2.451,-0.588 0,0" style="fill:#010027;fill-opacity:1;fill-rule:nonzero;stroke:none" id="path60"></path>
        </g>
        <g id="g62" transform="translate(316.79,387.0537)">
          <path d="M 0,0 C 2.204,1.255 4.83,1.668 7.416,1.402 8.712,1.268 10,0.945 11.233,0.465 c 0.614,-0.246 1.211,-0.535 1.788,-0.863 0.589,-0.311 1.137,-0.688 1.675,-1.08 2.16,-1.57 3.811,-3.756 4.853,-6.111 1.002,-2.371 1.481,-4.949 1.021,-7.456 -1.368,2.112 -2.658,3.967 -4.042,5.649 -1.399,1.661 -2.857,3.124 -4.507,4.33 l -0.612,0.462 c -0.209,0.148 -0.436,0.268 -0.648,0.413 -0.417,0.304 -0.869,0.546 -1.314,0.815 -0.904,0.505 -1.85,0.955 -2.843,1.365 C 4.613,-1.184 2.451,-0.589 0,0" style="fill:#010027;fill-opacity:1;fill-rule:nonzero;stroke:none" id="path64"></path>
        </g>
        <g id="g66" transform="translate(674.751,376.874)">
          <path d="m 0,0 c -0.093,-0.678 -0.169,-1.356 -0.262,-2.035 -2.775,-20.919 -9.173,-40.188 -19.023,-57.283 -6.212,-10.791 -14.166,-20.411 -23.647,-28.766 -5.935,-5.227 -13.581,-8.078 -21.489,-8.078 h -215.325 c -2.605,1.511 -5.164,3.083 -7.661,4.717 -3.315,2.143 -6.536,4.393 -9.65,6.737 -31.756,23.816 -49.099,58.579 -50.178,100.54 -0.786,31.001 8.432,62.803 26.684,92.016 0.108,0.184 0.232,0.384 0.355,0.554 10.837,17.296 24.711,31.663 38.123,45.553 5.426,5.627 11.052,11.439 16.417,17.389 14.475,16.078 20.749,31.201 18.653,44.936 -0.57,3.731 -1.187,7.338 -1.834,10.729 -1.665,8.834 -3.669,17.389 -5.812,24.789 -0.555,1.911 -2.436,3.73 -4.625,5.827 -1.079,1.033 -2.204,2.112 -3.268,3.299 -0.216,0.231 -0.447,0.509 -0.678,0.77 -2.251,2.529 -4.502,5.288 -6.66,8.217 -0.909,1.233 -1.849,2.559 -2.774,3.946 -10.745,16.017 -17.142,34.578 -18.499,53.693 -0.201,2.558 -0.293,5.195 -0.293,7.8 0,1.434 0.031,2.882 0.092,4.301 0.447,11.978 2.852,23.74 7.168,34.962 1.234,3.238 2.652,6.506 4.24,9.697 19.639,39.494 61.816,65.023 107.462,65.023 5.164,0 10.343,-0.324 15.431,-0.972 2.004,-0.231 3.992,-0.524 5.966,-0.879 6.027,-1.047 12.024,-2.558 17.851,-4.516 12.933,1.326 23.986,5.272 32.882,11.762 0.986,0.709 1.957,1.48 3.005,2.374 1.018,0.848 2.282,1.295 3.577,1.295 0.801,0 1.603,-0.17 2.342,-0.524 1.958,-0.894 3.16,-2.837 3.053,-4.918 -0.17,-2.883 -0.972,-11.392 -5.087,-19.963 13.18,-2.513 24.155,-7.754 32.696,-15.647 1.541,-1.418 2.975,-2.898 4.347,-4.486 1.372,-1.603 1.604,-3.854 0.602,-5.688 -0.941,-1.711 -2.79,-2.775 -4.78,-2.775 -0.138,0 -0.293,0.016 -0.446,0.031 -0.324,0.015 -1.558,0.108 -3.361,0.108 -2.929,0 -7.693,-0.231 -12.455,-1.434 15.091,-19.547 23.323,-43.333 23.323,-67.751 0,-18.175 -4.347,-35.548 -12.949,-51.688 -1.45,-9.373 -1.804,-18.653 -1.095,-28.334 1.974,-26.638 15.016,-55.65 26.53,-81.24 2.653,-5.889 5.165,-11.454 7.538,-16.973 5.674,-13.195 12.256,-28.857 18.083,-45.013 C -1.202,72.623 4.101,33.93 0,0" style="fill:#38bcde;fill-opacity:1;fill-rule:nonzero;stroke:none" id="path68"></path>
        </g>
        <g id="g70" transform="translate(495.5166,495.4062)">
          <path d="m 0,0 c -0.062,-0.478 -0.139,-0.955 -0.231,-1.448 -0.17,-0.849 -0.386,-1.712 -0.647,-2.544 -3.993,-12.672 -16.989,-16.494 -18.407,-16.88 -7.353,-2.035 -9.604,1.033 -16.587,-0.602 -6.274,-1.479 -9.681,-5.194 -13.118,-9.357 -2.128,-2.574 -4.271,-5.333 -7.092,-7.846 -1.88,-1.665 -3.884,-3.052 -6.012,-4.209 -0.431,-0.246 -0.863,-0.477 -1.31,-0.693 -0.493,-0.247 -0.987,-0.478 -1.495,-0.709 -12.765,-5.581 -28.781,-3.993 -43.657,-2.528 -25.02,2.481 -23.077,10.066 -46.447,10.852 -5.319,0.185 -10.128,-0.046 -14.491,0.108 -2.805,0.092 -5.411,0.339 -7.877,0.987 -0.139,0.015 -0.277,0.046 -0.417,0.092 -1.726,0.463 -3.376,1.126 -4.948,2.066 -1.048,0.601 -2.05,1.325 -3.036,2.189 -0.478,0.416 -0.926,0.863 -1.342,1.31 -5.041,5.287 -6.212,11.932 -6.49,13.766 -2.25,13.951 7.477,25.312 10.853,29.259 2.744,3.191 7.97,8.525 23.817,14.891 4.162,1.665 9.049,3.407 14.83,5.195 3.083,0.956 6.397,1.927 10.004,2.914 0.262,0.061 0.54,0.138 0.817,0.215 2.405,0.648 4.979,1.311 7.723,1.99 0.355,0.091 0.709,0.169 1.08,0.261 10.559,2.559 23.523,5.18 38.539,7.107 l 3.021,-0.91 45.213,-13.627 1.419,-0.416 1.495,-0.462 23.956,-7.215 c 0.509,-0.309 1.064,-0.679 1.649,-1.141 1.388,-1.017 2.945,-2.42 4.394,-4.286 C -0.925,13.335 0.879,6.567 0,0" style="fill:#38bcde;fill-opacity:1;fill-rule:nonzero;stroke:none" id="path72"></path>
        </g>
        <g id="g74" transform="translate(495.5166,495.4062)">
          <path d="m 0,0 c 0.283,2.282 0.28,4.602 -0.061,6.875 -0.319,2.276 -0.971,4.504 -1.901,6.602 -0.926,2.102 -2.177,4.056 -3.691,5.779 -0.758,0.858 -1.585,1.657 -2.466,2.388 -0.872,0.743 -1.847,1.355 -2.785,2.002 l 0.029,-0.014 c -6.267,1.857 -12.568,3.604 -18.853,5.406 -6.293,1.775 -12.558,3.612 -18.868,5.339 l -18.908,5.222 -18.93,5.152 0.709,-0.059 c -13.334,-2.089 -26.564,-4.949 -39.501,-8.503 l -4.864,-1.375 -2.432,-0.687 c -0.898,-0.247 -1.651,-0.503 -2.458,-0.755 -3.185,-1.025 -6.374,-1.991 -9.545,-3.058 -6.328,-2.165 -12.586,-4.497 -18.508,-7.322 -2.958,-1.412 -5.823,-2.956 -8.487,-4.68 -2.67,-1.726 -5.114,-3.596 -7.14,-5.768 -4.206,-4.703 -7.981,-9.985 -9.858,-15.665 -0.946,-2.834 -1.451,-5.74 -1.399,-8.617 -0.027,-0.721 0.062,-1.441 0.146,-2.162 0.064,-0.712 0.162,-1.471 0.313,-2.166 0.292,-1.421 0.716,-2.83 1.257,-4.171 1.076,-2.686 2.624,-5.117 4.637,-7.008 0.451,-0.495 1.034,-0.94 1.558,-1.338 0.271,-0.198 0.545,-0.387 0.823,-0.563 0.248,-0.156 0.662,-0.401 0.914,-0.543 0.584,-0.327 1.193,-0.612 1.828,-0.861 0.317,-0.126 0.64,-0.244 0.97,-0.353 l 0.54,-0.168 c 0.399,-0.121 0.069,0 -0.021,-0.032 l 0.543,-0.1 c 3.324,-0.942 7.306,-1.045 11.386,-1.107 4.092,-0.052 8.353,-0.017 12.645,-0.379 4.279,-0.307 8.639,-0.963 12.894,-2.22 2.138,-0.594 4.183,-1.419 6.171,-2.232 1.956,-0.836 3.842,-1.7 5.687,-2.466 3.685,-1.57 7.441,-2.712 11.369,-3.577 3.935,-0.826 7.943,-1.347 12.077,-1.851 8.187,-0.986 16.37,-1.861 24.473,-1.304 4.04,0.285 8.058,0.919 11.889,2.169 3.805,1.259 7.443,3.152 10.579,5.673 3.153,2.522 5.741,5.741 8.472,8.89 1.37,1.573 2.809,3.125 4.459,4.46 1.64,1.339 3.494,2.45 5.481,3.186 1.981,0.752 4.067,1.19 6.181,1.286 2.121,0.109 4.198,-0.312 6.231,-0.565 4.094,-0.596 8.234,0.556 11.926,2.363 3.702,1.807 7.14,4.303 9.686,7.58 1.325,1.597 2.319,3.436 3.165,5.319 0.348,0.975 0.784,1.922 0.994,2.941 l 0.387,1.505 C -0.158,-1.024 -0.086,-0.511 0,0 m 0,0 c -0.083,-0.511 -0.153,-1.025 -0.249,-1.534 l -0.379,-1.508 c -0.205,-1.02 -0.636,-1.971 -0.979,-2.948 -0.838,-1.891 -1.825,-3.739 -3.144,-5.348 -2.548,-3.285 -5.944,-5.851 -9.644,-7.729 -3.679,-1.881 -7.866,-3.093 -12.068,-2.64 -2.08,0.197 -4.116,0.543 -6.148,0.375 -2.025,-0.153 -4.033,-0.639 -5.904,-1.416 -1.88,-0.762 -3.6,-1.865 -5.128,-3.192 -1.538,-1.323 -2.885,-2.864 -4.188,-4.455 -2.57,-3.206 -5.038,-6.638 -8.256,-9.465 -3.205,-2.827 -6.945,-5.003 -10.94,-6.535 -3.999,-1.494 -8.183,-2.421 -12.388,-2.944 -8.43,-1.047 -16.878,-0.6 -25.177,-0.066 -4.117,0.273 -8.367,0.583 -12.595,1.231 -4.217,0.673 -8.494,1.727 -12.509,3.239 -2.021,0.734 -3.942,1.509 -5.835,2.216 -1.881,0.666 -3.722,1.314 -5.605,1.74 -3.747,0.937 -7.662,1.298 -11.651,1.475 -3.984,0.218 -8.022,0.066 -12.217,-0.009 -2.105,-0.037 -4.24,-0.052 -6.453,0.049 -2.215,0.106 -4.53,0.347 -6.876,0.928 l 0.543,-0.101 c -0.503,0.064 -1.258,0.266 -1.258,0.266 l -0.68,0.19 c -0.48,0.142 -0.959,0.299 -1.435,0.474 -0.949,0.354 -1.886,0.773 -2.791,1.261 -0.489,0.266 -0.808,0.449 -1.283,0.734 -0.444,0.27 -0.874,0.555 -1.292,0.851 -0.835,0.61 -1.611,1.195 -2.336,1.924 -2.973,2.721 -5.209,6.119 -6.67,9.713 -0.737,1.8 -1.304,3.649 -1.704,5.548 -0.21,0.963 -0.339,1.885 -0.439,2.861 -0.116,0.963 -0.227,1.927 -0.211,2.907 -0.105,3.905 0.588,7.776 1.823,11.356 1.223,3.595 2.961,6.917 4.983,9.968 0.995,1.54 2.096,2.99 3.224,4.392 1.153,1.408 2.222,2.688 3.563,4.094 2.661,2.738 5.669,4.997 8.76,6.837 3.092,1.866 6.264,3.444 9.47,4.857 6.426,2.8 12.951,5.081 19.555,7.003 3.305,0.943 6.653,1.792 9.972,2.688 0.823,0.216 1.691,0.461 2.438,0.628 l 2.493,0.581 4.988,1.162 c 13.399,2.961 26.889,5.044 40.461,6.421 l 0.408,0.042 0.302,-0.1 18.622,-6.165 18.643,-6.095 c 6.208,-2.044 12.459,-3.985 18.684,-5.978 6.232,-1.968 12.45,-3.991 18.7,-5.903 l 0.02,-0.006 0.01,-0.008 c 0.945,-0.672 1.913,-1.303 2.783,-2.066 0.877,-0.752 1.697,-1.57 2.447,-2.446 1.492,-1.762 2.719,-3.739 3.644,-5.848 0.922,-2.11 1.564,-4.345 1.871,-6.625 C 0.305,4.602 0.294,2.28 0,0" style="fill:#050505;fill-opacity:1;fill-rule:nonzero;stroke:none" id="path76"></path>
        </g>
        <g id="g78" transform="translate(433.5703,544.5522)">
          <path d="m 0,0 c -3.515,-11.5 -6.274,-16.726 -7.415,-18.298 -10.852,-15.015 -20.271,-31 -30.476,-46.448 -27.362,-41.467 -15.261,-82.149 -28.041,-84.153 -8.263,-1.295 -25.149,16.554 -28.093,31.306 2.759,8.371 6.104,16.556 9.943,24.48 1.727,3.545 3.515,7.122 5.395,10.683 10.036,19.069 22.353,37.846 38.616,51.734 12.502,10.653 24.48,22.553 31.71,36.983 2.929,5.811 4.778,12.209 5.087,11.006 C -1.856,11.697 2.035,6.675 0,0" style="fill:#e1f9ff;fill-opacity:1;fill-rule:nonzero;stroke:none" id="path80"></path>
        </g>
        <g id="g82" transform="translate(540.3115,720.0029)">
          <path d="m 0,0 c 0,-11.549 -9.363,-20.912 -20.912,-20.912 -11.549,0 -20.911,9.363 -20.911,20.912 0,11.549 9.362,20.912 20.911,20.912 C -9.363,20.912 0,11.549 0,0" style="fill:#a43e6a;fill-opacity:1;fill-rule:nonzero;stroke:none" id="path84"></path>
        </g>
        <g id="g86" transform="translate(522.4316,730.7451)">
          <path d="m 0,0 c 0.524,1.775 1.307,3.357 2.149,4.896 0.858,1.525 1.812,2.979 2.85,4.371 1.037,1.392 2.16,2.72 3.38,3.975 1.234,1.245 2.532,2.443 4.088,3.447 -0.522,-1.777 -1.302,-3.36 -2.146,-4.897 C 9.463,10.266 8.509,8.812 7.468,7.422 6.428,6.033 5.305,4.705 4.084,3.45 2.849,2.206 1.554,1.007 0,0" style="fill:#ed6ca4;fill-opacity:1;fill-rule:nonzero;stroke:none" id="path88"></path>
        </g>
        <g id="g90" transform="translate(528.4639,729.0488)">
          <path d="m 0,0 c 0.374,1.195 0.933,2.26 1.533,3.295 0.612,1.028 1.293,2.006 2.033,2.943 0.74,0.937 1.541,1.831 2.412,2.677 0.88,0.837 1.805,1.644 2.916,2.32 C 8.521,10.039 7.964,8.973 7.363,7.938 6.751,6.911 6.07,5.932 5.328,4.997 4.585,4.061 3.784,3.167 2.914,2.322 2.032,1.485 1.108,0.677 0,0" style="fill:#ed6ca4;fill-opacity:1;fill-rule:nonzero;stroke:none" id="path92"></path>
        </g>
        <g id="g94" transform="translate(401.4614,752.5352)">
          <path d="m 0,0 c -0.505,0.94 -1.991,2.276 -2.844,2.815 -2.605,1.647 -5.815,-0.184 -6.615,-2.922 -0.647,-2.213 1.126,-4.682 1.961,-6.681 0.683,-1.635 1.366,-3.27 2.049,-4.905 0.633,-1.515 1.265,-3.029 1.898,-4.544 1.109,-2.654 4.232,-3.924 6.701,-2.182 0.841,0.594 1.469,1.483 1.747,2.475 0.484,1.72 -0.068,3.519 -0.566,5.169 -0.526,1.744 -1.181,3.448 -1.882,5.128 -0.416,0.995 -0.85,1.981 -1.29,2.966 C 0.759,-1.786 0.464,-0.865 0,0" style="fill:#010027;fill-opacity:1;fill-rule:nonzero;stroke:none" id="path96"></path>
        </g>
        <g id="g98" transform="translate(516.0264,746.4976)">
          <path d="m 0,0 c -0.083,0 -0.166,-0.002 -0.25,-0.006 -13.478,-0.656 -22.202,-2.579 -28.176,-9.446 0.503,1.712 0.138,1.557 1.213,3.213 5.677,8.741 16.952,9.054 18.494,9.054 0.08,0 0.134,0 0.159,-10e-4 0.052,-10e-4 0.104,-0.002 0.155,-0.002 2.489,0 4.51,2.034 4.557,4.537 0.05,2.553 -1.979,4.663 -4.534,4.713 -0.092,0.002 -0.221,0.004 -0.384,0.004 -3.051,0 -18.048,-0.712 -26.203,-13.268 -6.176,-9.508 -5.325,-21.822 -2.806,-27.151 1.347,-2.852 3.277,-3.635 4.659,-3.791 0.23,-0.025 0.451,-0.038 0.664,-0.038 3.839,0 5.029,4.019 5.617,6.004 0.627,2.124 1.488,5.032 3.406,7.676 4.048,5.577 11.998,8.691 23.628,9.257 C 2.75,-9.121 4.718,-6.952 4.593,-4.4 4.472,-1.933 2.47,0 0,0" style="fill:#010027;fill-opacity:1;fill-rule:nonzero;stroke:none" id="path100"></path>
        </g>
        <g id="g102" transform="translate(477.4438,754.2461)">
          <path d="m 0,0 c -1.318,1.077 -3.261,0.881 -4.338,-0.438 -1.353,-1.659 -2.485,-3.526 -3.362,-5.55 -1.141,-2.637 -1.832,-5.476 -2.05,-8.439 -0.125,-1.698 1.15,-3.176 2.848,-3.302 0.077,-0.005 0.154,-0.008 0.23,-0.008 1.599,0 2.952,1.236 3.071,2.857 0.168,2.272 0.692,4.439 1.559,6.44 0.651,1.504 1.486,2.883 2.48,4.102 C 1.516,-3.019 1.319,-1.076 0,0" style="fill:#010027;fill-opacity:1;fill-rule:nonzero;stroke:none" id="path104"></path>
        </g>
        <g id="g106" transform="translate(530.9219,412.2285)">
          <path d="m 0,0 c -0.262,-10.205 -1.233,-20.377 -2.944,-30.438 -0.126,-0.765 -0.256,-1.528 -0.391,-2.29 -0.406,-2.29 -2.101,-4.1 -4.308,-4.608 -4.936,-1.135 -9.716,-2.707 -14.355,-4.641 -5.75,-2.396 -11.207,-5.506 -16.51,-9.109 -1.458,-0.99 -2.896,-2.023 -4.323,-3.09 -1.312,-0.981 -2.119,-2.52 -2.25,-4.184 -0.018,-0.226 -0.036,-0.452 -0.056,-0.676 -0.632,-6.984 -2.358,-13.664 -4.193,-20.235 -1.222,-4.178 -2.761,-8.248 -4.585,-12.157 -1.576,-3.378 0.382,-7.377 3.95,-8.117 l 10.377,-2.154 c 4.069,-0.845 5.897,-5.821 3.328,-9.178 -4.422,-5.781 -9.302,-11.236 -14.611,-16.21 -2.05,-1.952 -4.178,-3.809 -6.367,-5.586 -0.216,-0.19 -0.431,-0.381 -0.663,-0.556 h -73.785 c -1.032,0 -2.043,0.297 -2.925,0.849 l -0.013,0.009 c -3.098,1.951 -6.15,3.982 -9.141,6.109 -11.13,7.888 -21.366,17.013 -30.184,27.392 -47.233,55.593 -34.577,130.705 3.638,187.535 4.024,5.983 8.34,11.76 12.98,17.314 20.318,24.36 49.33,40.31 53.615,74.383 0.586,4.602 37.306,-13.76 40.158,-15.886 12.826,-9.57 21.412,-21.044 29.459,-34.708 C -11.222,90.935 1.187,45.149 0,0" style="fill:#b8e1f0;fill-opacity:1;fill-rule:nonzero;stroke:none" id="path108"></path>
        </g>
        <g id="g110" transform="translate(524.5972,528.6797)">
          <path d="m 0,0 c -20.102,-2.5 -36.659,-6.173 -48.804,-9.35 -37.88,-9.909 -46.989,-18.699 -50.979,-23.223 -3.479,-3.946 -13.498,-15.308 -11.191,-29.256 0.328,-1.982 1.707,-9.641 8.083,-15.081 8.194,-6.993 18.398,-4.991 31.706,-5.429 24.082,-0.791 22.085,-8.376 47.871,-10.858 19.136,-1.842 40.101,-3.86 54.088,8.143 7.608,6.53 48.357,61.383 46.627,62.434 z" style="fill:#38bcde;fill-opacity:1;fill-rule:nonzero;stroke:none" id="path112"></path>
        </g>
        <g id="g114" transform="translate(522.8779,433.3262)">
          <path d="m 0,0 c -7.24,0 -14.63,0.712 -21.673,1.391 -12.625,1.213 -18.553,3.601 -24.286,5.91 -5.799,2.335 -11.277,4.541 -23.533,4.942 -2.847,0.094 -5.535,0.077 -8.136,0.058 -9.335,-0.055 -17.409,-0.119 -24.068,5.565 -4.335,3.698 -7.298,9.216 -8.342,15.536 -2.366,14.3 7.973,26.026 11.371,29.879 3.145,3.566 11.496,13.034 51.376,23.466 15.886,4.157 32.342,7.31 48.909,9.371 L 1.82,94.589 C -14.676,92.537 -31.061,89.397 -46.877,85.26 -86.284,74.952 -94.403,65.744 -97.46,62.279 c -3.28,-3.719 -13.259,-15.036 -11.01,-28.633 0.987,-5.967 3.764,-11.16 7.823,-14.624 6.205,-5.294 13.623,-5.236 23.008,-5.18 2.617,0.018 5.321,0.036 8.201,-0.057 12.545,-0.413 18.151,-2.671 24.088,-5.061 5.626,-2.266 11.443,-4.609 23.834,-5.801 18.635,-1.793 39.754,-3.826 53.483,7.955 7.861,6.746 45.926,58.449 46.416,61.753 -0.016,-0.105 0.043,-0.385 0.316,-0.552 l 0.844,1.307 0.422,-0.696 C 80.297,68.798 39.428,15.223 33.019,9.722 24.064,2.038 12.248,0 0,0" style="fill:#050505;fill-opacity:1;fill-rule:nonzero;stroke:none" id="path116"></path>
        </g>
        <g id="g118" transform="translate(524.4155,529.5801)">
          <path d="m 0,0 c -14.548,-5.424 -29.971,-8.201 -44.782,-12.068 -7.421,-1.873 -14.743,-3.994 -21.699,-6.766 -3.475,-1.401 -6.89,-2.918 -10.193,-4.612 -3.305,-1.692 -6.471,-3.599 -9.492,-5.648 -6.008,-4.123 -11.391,-9.046 -15.147,-14.81 -1.776,-2.746 -3.032,-5.827 -3.766,-8.989 -0.664,-3.16 -0.855,-6.422 -0.22,-9.384 0.242,-1.507 0.801,-2.873 1.37,-4.196 0.358,-0.619 0.638,-1.287 1.076,-1.844 0.209,-0.286 0.376,-0.602 0.609,-0.869 l 0.691,-0.801 c 1.905,-2.171 4.521,-3.708 7.498,-4.867 3.002,-1.142 6.436,-1.823 10.016,-2.305 3.589,-0.484 7.366,-0.737 11.267,-1.067 3.894,-0.322 8.012,-0.833 11.936,-1.528 3.949,-0.691 7.83,-1.527 11.648,-2.439 7.627,-1.86 15.038,-3.912 22.382,-5.597 7.318,-1.697 14.643,-2.897 21.915,-3.19 7.254,-0.256 14.468,0.451 21.132,2.779 3.33,1.161 6.564,2.688 9.645,4.555 3.084,1.864 6.005,4.062 8.81,6.449 5.602,4.8 10.561,10.509 15.121,16.571 9.373,12.285 18.643,24.592 27.766,37.105 -7.042,-13.804 -15.186,-27.016 -23.317,-40.167 -4.191,-6.644 -8.951,-13.057 -14.66,-18.788 -5.697,-5.707 -12.508,-10.66 -20.307,-13.816 -3.888,-1.582 -7.95,-2.696 -12.042,-3.396 -4.095,-0.695 -8.22,-0.979 -12.304,-0.99 -8.179,-0.033 -16.191,1.133 -23.954,2.688 -7.753,1.565 -15.25,3.564 -22.658,5.218 -3.698,0.845 -7.371,1.624 -11.03,2.239 -3.684,0.629 -7.236,1.043 -11.037,1.352 -3.789,0.344 -7.719,0.623 -11.781,1.189 -4.052,0.586 -8.261,1.361 -12.466,3.023 -4.164,1.676 -8.383,4.208 -11.544,7.908 l -1.168,1.418 c -0.383,0.477 -0.691,1.008 -1.035,1.513 -0.71,1.002 -1.214,2.109 -1.77,3.189 -0.961,2.21 -1.718,4.509 -2.054,6.828 -1.477,9.306 1.159,18.37 6.24,25.655 4.968,7.034 11.554,12.362 18.467,16.608 6.955,4.238 14.371,7.399 21.96,9.78 7.611,2.359 15.305,3.988 22.995,5.259 C -30.479,-4.358 -15.184,-3.075 0,0" style="fill:#010027;fill-opacity:1;fill-rule:nonzero;stroke:none" id="path120"></path>
        </g>
        <g id="g122" transform="translate(551.2314,376.3809)">
          <path d="m 0,0 c -6.768,-0.231 -13.18,-0.679 -19.408,-1.804 -6.213,-1.109 -12.178,-2.898 -17.928,-5.225 -5.75,-2.328 -11.207,-5.35 -16.511,-8.849 -2.173,-1.434 -4.3,-2.96 -6.413,-4.548 -0.77,-0.6 -1.556,-1.186 -2.327,-1.803 -0.756,-0.586 -1.496,-1.171 -2.235,-1.773 -1.511,-1.218 -3.022,-2.467 -4.548,-3.746 1.187,2.883 2.713,5.611 4.501,8.17 0.709,1.049 1.465,2.051 2.266,3.037 0.74,0.925 1.526,1.835 2.359,2.713 0.832,0.926 1.696,1.819 2.605,2.682 5.01,4.717 10.899,8.633 17.373,11.239 6.475,2.636 13.428,4.085 20.349,4.116 0.54,0 1.094,-0.016 1.634,-0.031 C -11.932,3.992 -5.657,2.667 0,0" style="fill:#010027;fill-opacity:1;fill-rule:nonzero;stroke:none" id="path124"></path>
        </g>
        <g id="g126" transform="translate(507.7402,284.6904)">
          <path d="m 0,0 c -9.7,-1.82 -19.39,-3.101 -29.09,-3.44 -5,-0.18 -10,-0.34 -15,-0.52 -0.29,-0.011 -0.59,0 -0.88,0.02 -15.11,1.48 -24.96,6.44 -31.53,11.71 -2.01,1.599 -3.7,3.24 -5.15,4.82 -7.56,8.239 -4.75,11.01 -19.26,32.38 -6.21,9.17 -11.63,19.13 -18.56,27.62 -4.45,5.489 -7.6,8.649 -7.551,13.43 0.021,1.49 0.391,8.45 14.431,17.36 7.61,4.84 26.22,16.92 51.55,11.84 10.57,-2.12 30.11,-6.05 38.26,-23.95 3.86,-8.491 4.27,-18.43 3.28,-27.59 -0.89,-8.3 -2.95,-16.611 -5.83,-24.43 -0.48,-1.301 -0.41,-0.23 -0.55,-1.61 -0.02,-0.191 0.109,-0.35 0.359,-0.491 0.911,-0.49 3.471,-0.67 6.901,-0.679 C -7.23,36.449 2,0.369 0,0" style="fill:#38bcde;fill-opacity:1;fill-rule:nonzero;stroke:none" id="path128"></path>
        </g>
        <g id="g130" transform="translate(423.2729,544.5522)">
          <path d="m 0,0 c -3.515,-11.5 -6.274,-16.726 -7.415,-18.298 -10.852,-15.015 -20.271,-31 -30.476,-46.448 -27.363,-41.467 -15.261,-82.149 -28.041,-84.153 -8.263,-1.295 -25.149,16.554 -28.093,31.306 2.759,8.371 6.104,16.556 9.942,24.48 1.727,3.545 3.515,7.122 5.396,10.683 10.036,19.069 22.353,37.846 38.616,51.734 12.502,10.653 24.48,22.553 31.71,36.983 2.929,5.811 4.778,12.209 5.087,11.006 C -1.856,11.697 2.035,6.675 0,0" style="fill:#e1f9ff;fill-opacity:1;fill-rule:nonzero;stroke:none" id="path132"></path>
        </g>
        <g id="g134">
          <g id="g136"></g>
          <g id="g148">
            <g clip-path="url(#clipPath140)" opacity="0.419998" id="g146">
              <g transform="translate(673.1064,376.874)" id="g144">
                <path d="m 0,0 c -0.093,-0.678 -0.169,-1.356 -0.262,-2.035 -2.775,-20.919 -9.173,-40.188 -19.023,-57.283 -6.212,-10.791 -14.166,-20.411 -23.647,-28.766 -5.935,-5.227 -13.582,-8.078 -21.489,-8.078 h -184.794 c -1.783,0 -2.631,2.213 -1.29,3.388 12.334,10.807 33.059,20.042 45.385,24.36 4.767,1.67 8.392,5.242 12.575,7.917 3.712,2.374 7.837,3.514 12.233,3.451 4.696,-0.066 9.347,-1.178 14.056,-0.765 6.567,0.577 13.141,2.225 19.503,3.905 5.914,1.561 11.892,3.715 16.475,7.918 6.421,5.889 10.391,13.718 14.752,21.127 5.734,9.742 12.721,18.559 18.83,28.008 5.378,8.318 9.954,17.143 13.083,26.56 1.398,4.211 2.516,8.515 3.36,12.871 2.425,12.49 2.28,23.652 1.35,32.441 -0.218,2.057 -3.055,2.411 -3.743,0.459 -2.157,-6.129 -5.666,-12.966 -11.481,-19.026 -29.352,-30.6 -93.526,-16.418 -97.118,0 -2.297,10.498 21.613,15.385 55.496,55.496 7.985,9.465 18.422,23.108 27.748,41.621 10.976,21.783 19.438,38.571 13.874,55.497 -3.653,11.13 -10.359,13.195 -13.874,27.748 -2.806,11.654 -1.172,21.289 0,27.748 10.868,60.043 14.829,68.938 13.874,83.244 -0.447,6.582 -2.205,32.511 -27.748,69.37 -11.272,16.27 -21.594,19.004 -30.835,26.92 -1.491,1.278 -0.37,3.743 1.563,3.397 0.02,-0.003 0.04,-0.007 0.06,-0.011 5.89,-1.024 11.751,-2.49 17.453,-4.383 0.262,-0.087 0.543,-0.119 0.817,-0.089 12.754,1.367 23.664,5.298 32.462,11.718 0.987,0.709 1.958,1.48 3.006,2.374 1.017,0.848 2.282,1.295 3.577,1.295 0.801,0 1.603,-0.17 2.342,-0.524 1.958,-0.894 3.16,-2.837 3.053,-4.918 -0.155,-2.642 -0.842,-10.007 -4.122,-17.816 -0.47,-1.118 0.206,-2.37 1.391,-2.63 12.136,-2.671 22.314,-7.746 30.34,-15.164 1.541,-1.418 2.975,-2.898 4.347,-4.486 1.372,-1.603 1.604,-3.854 0.602,-5.688 -0.941,-1.711 -2.79,-2.775 -4.78,-2.775 -0.138,0 -0.293,0.016 -0.446,0.031 -0.324,0.015 -1.558,0.108 -3.361,0.108 -2.299,0 -5.727,-0.142 -9.399,-0.785 -1.431,-0.25 -2.092,-1.901 -1.235,-3.075 13.932,-19.072 21.502,-41.908 21.502,-65.325 0,-18.066 -4.295,-35.34 -12.795,-51.398 -0.102,-0.192 -0.171,-0.401 -0.204,-0.615 -1.407,-9.263 -1.745,-18.44 -1.045,-28.009 1.974,-26.638 15.016,-55.65 26.53,-81.24 2.652,-5.889 5.165,-11.454 7.538,-16.973 5.674,-13.195 12.256,-28.857 18.083,-45.013 C -1.202,72.623 4.101,33.93 0,0" style="fill:#2f7ac5;fill-opacity:1;fill-rule:nonzero;stroke:none" id="path142"></path>
              </g>
            </g>
          </g>
        </g>
        <g id="g150" transform="translate(579.3965,829.8848)">
          <path d="M 0,0 C 0.015,-0.025 0.03,-0.041 0.042,-0.047 Z M -183.475,-543.777 H 37.504 c 0.859,0 1.702,0.274 2.39,0.79 12.442,9.325 22.477,20.532 29.855,33.349 9.495,16.478 15.669,35.083 18.35,55.301 l 0.255,1.978 c 4,33.113 -1.239,71.02 -15.152,109.621 -5.782,16.029 -12.324,31.597 -17.962,44.712 -2.249,5.229 -4.63,10.511 -7.148,16.103 l -0.354,0.784 c -11.692,25.985 -24.945,55.436 -26.99,83.057 -0.741,10.118 -0.368,19.784 1.143,29.557 l 0.139,0.905 0.431,0.808 c 8.173,15.334 12.315,31.87 12.315,49.151 0,23.023 -7.883,45.913 -22.199,64.454 l -1.346,1.743 c -1.739,2.253 -0.598,5.55 2.162,6.247 l 2.135,0.539 c 4.587,1.157 9.15,1.504 12.476,1.574 1.777,0.037 2.629,2.228 1.322,3.434 -0.012,0.011 -0.024,0.022 -0.037,0.034 -7.772,7.182 -17.881,11.996 -30.054,14.317 l -1.843,0.351 c -2.548,0.486 -3.946,3.254 -2.823,5.593 l 0.812,1.691 c 2.971,6.187 4.029,12.39 4.406,16.003 0.114,1.103 -0.244,2.193 -0.98,3.022 L -3.639,4.091 -2.8,3.108 c 1.5,-1.757 1.179,-4.421 -0.696,-5.772 -9.628,-7.026 -21.577,-11.324 -35.481,-12.749 l -1.161,-0.118 -1.107,0.371 c -5.523,1.856 -11.261,3.308 -17.057,4.316 -6.67,1.176 -13.553,1.77 -20.472,1.77 -43.608,0 -83.893,-24.348 -102.631,-62.03 -1.47,-2.954 -2.825,-6.054 -4.028,-9.213 -4.102,-10.664 -6.394,-21.843 -6.819,-33.244 -0.06,-1.375 -0.089,-2.744 -0.089,-4.1 0,-2.552 0.093,-5.036 0.277,-7.38 1.292,-18.209 7.377,-35.868 17.6,-51.106 0.812,-1.218 1.695,-2.474 2.635,-3.748 1.99,-2.701 4.125,-5.335 6.349,-7.834 l 0.295,-0.339 c 0.102,-0.117 0.199,-0.233 0.294,-0.334 1.019,-1.136 2.056,-2.127 3.057,-3.086 2.513,-2.406 5.109,-4.892 6.076,-8.219 2.185,-7.546 4.236,-16.291 5.933,-25.294 0.656,-3.438 1.284,-7.114 1.866,-10.913 2.353,-15.419 -4.369,-32.026 -19.978,-49.362 -5.149,-5.714 -10.513,-11.274 -15.7,-16.651 l -0.843,-0.874 c -13.224,-13.695 -26.896,-27.853 -37.434,-44.672 l -0.351,-0.549 c -17.681,-28.301 -26.626,-59.082 -25.866,-89.019 1.034,-40.254 17.64,-73.576 48.021,-96.362 3.022,-2.274 6.164,-4.467 9.342,-6.522 1.701,-1.112 3.456,-2.212 5.251,-3.29 0.616,-0.369 1.324,-0.562 2.042,-0.562 m 224.278,-10.791 h -218.806 c -6.414,0 -12.709,1.802 -18.115,5.254 -0.192,0.123 -0.37,0.237 -0.532,0.343 -3.37,2.178 -6.722,4.518 -9.941,6.94 -33.108,24.831 -51.205,61.042 -52.328,104.715 -0.813,32.036 8.683,64.865 27.463,94.948 0.146,0.248 0.309,0.508 0.473,0.745 11.125,17.719 25.162,32.255 38.738,46.315 l 0.841,0.872 c 5.126,5.313 10.424,10.807 15.45,16.382 13.339,14.815 19.168,28.445 17.327,40.51 -0.56,3.667 -1.166,7.212 -1.8,10.531 -1.59,8.432 -3.491,16.595 -5.512,23.667 -0.153,0.534 -0.403,1.027 -0.766,1.446 -0.694,0.801 -1.824,1.884 -2.591,2.617 -1.093,1.047 -2.335,2.235 -3.555,3.596 -0.108,0.114 -0.303,0.337 -0.5,0.565 l -0.205,0.237 c -2.428,2.727 -4.775,5.622 -6.957,8.586 -1.04,1.408 -2.024,2.807 -2.922,4.154 -11.259,16.784 -17.968,36.257 -19.39,56.302 -0.203,2.583 -0.307,5.349 -0.307,8.182 0,1.512 0.033,3.04 0.098,4.536 0.469,12.557 3,24.905 7.523,36.665 1.322,3.469 2.819,6.895 4.444,10.162 20.546,41.317 64.624,68.015 112.293,68.015 7.544,0 15.058,-0.65 22.333,-1.931 5.638,-0.981 11.238,-2.35 16.667,-4.074 0.546,-0.173 1.128,-0.233 1.697,-0.16 11.112,1.411 20.609,4.948 28.251,10.523 0.881,0.633 1.723,1.3 2.684,2.12 3.292,2.745 8.03,3.312 11.751,1.534 3.901,-1.782 6.333,-5.747 6.113,-10.062 -0.134,-2.264 -0.57,-6.794 -2.002,-12.164 -0.542,-2.029 0.62,-4.131 2.62,-4.773 9.814,-3.149 18.284,-7.982 25.264,-14.434 1.692,-1.558 3.256,-3.169 4.768,-4.92 2.861,-3.345 3.347,-7.97 1.252,-11.803 -1.892,-3.448 -5.535,-5.583 -9.513,-5.583 -0.266,0 -0.562,0.018 -0.859,0.046 l -0.113,0.006 c -0.45,0.026 -1.457,0.086 -2.834,0.086 -0.767,0 -1.78,-0.019 -2.954,-0.085 12.444,-18.971 19.216,-41.274 19.216,-63.704 0,-18.534 -4.317,-36.287 -12.834,-52.796 -0.137,-0.426 -0.272,-0.846 -0.409,-1.272 -1.19,-8.43 -1.457,-16.808 -0.815,-25.56 1.905,-25.72 14.744,-54.25 26.069,-79.42 l 0.352,-0.782 c 2.54,-5.635 4.936,-10.957 7.223,-16.273 5.701,-13.261 12.322,-29.015 18.201,-45.315 14.482,-40.18 19.915,-79.801 15.711,-114.579 l -0.272,-2.122 c -2.864,-21.599 -10.551,-40.97 -19.693,-59.242 -10.147,-20.277 -30.353,-33.82 -35.678,-38.554 -0.724,-0.643 -1.651,-0.992 -2.619,-0.992" style="fill:#010027;fill-opacity:1;fill-rule:nonzero;stroke:none" id="path152"></path>
        </g>
        <g id="g154" transform="translate(485.4067,642.561)">
          <path d="m 0,0 c -1.511,-4.979 -6.12,-20.117 -20.842,-31.278 -9.943,-7.523 -21.797,-11.346 -35.27,-11.346 -8.356,0 -15.416,1.48 -19.856,2.728 -6.536,1.835 -12.779,4.671 -18.56,8.464 l -2.389,1.572 -2.652,-1.11 c -7.353,-3.083 -22.352,-8.262 -40.311,-8.262 -10.329,0 -20.365,1.695 -29.845,5.056 -23.709,8.386 -39.603,21.843 -47.202,39.988 -1.65,3.931 -3.068,8.586 -4.07,13.55 -2.96,14.706 -2.112,32.003 8.078,40.451 4.131,3.421 8.925,4.748 17.096,4.748 6.382,0 14.398,-0.849 24.556,-1.912 11.578,-1.218 19.887,-3.083 26.561,-4.579 6.891,-1.556 12.317,-2.775 18.422,-2.775 3.607,0 7.338,0.432 11.361,1.342 2.852,0.632 6.644,1.48 10.883,3.052 4.24,1.557 8.926,3.838 13.551,7.338 5.072,3.838 7.769,7.384 9.943,10.251 2.528,3.33 4.347,5.735 8.54,7.122 1.835,0.617 3.869,0.925 6.027,0.925 7.739,0 17.112,-4.178 23.34,-10.39 2.867,-2.852 4.27,-5.473 5.642,-7.985 1.834,-3.391 3.73,-6.891 8.879,-11.346 1.927,-1.68 3.037,-2.39 4.733,-3.453 1.541,-0.971 3.638,-2.297 7.384,-5.041 C -7.168,40.651 -2.744,37.414 -0.493,34.315 7.199,23.694 2.328,7.692 0,0" style="fill:#3d66bc;fill-opacity:1;fill-rule:nonzero;stroke:none" id="path156"></path>
        </g>
        <g id="g158">
          <g id="g160"></g>
          <g id="g172">
            <g clip-path="url(#clipPath164)" opacity="0.5" id="g170">
              <g transform="translate(381.3984,701.0767)" id="g168">
                <path d="m 0,0 c -1.002,-6.592 -14.275,-10.939 -17.697,-12.062 -5.334,-1.753 -10.236,-2.356 -17.898,-2.566 -19.315,-0.547 -22.337,2.244 -34.176,1.641 -3.854,-0.197 -19.007,-1.122 -32.989,-9.509 -7.092,-4.264 -11.238,-8.864 -14.229,-12.581 -2.96,13.38 -2.112,29.116 8.078,36.802 4.131,3.113 8.926,4.32 17.096,4.32 6.382,0 14.398,-0.772 24.557,-1.739 11.577,-1.108 19.886,-2.806 26.561,-4.166 6.89,-1.416 12.317,-2.524 18.422,-2.524 3.607,0 7.337,0.392 11.36,1.22 2.852,0.575 6.644,1.346 10.884,2.777 C 0.092,1.01 0.077,0.477 0,0" style="fill:#e1f9ff;fill-opacity:1;fill-rule:nonzero;stroke:none" id="path166"></path>
              </g>
            </g>
          </g>
        </g>
        <g id="g174" transform="translate(480.2402,644.1313)">
          <path d="m 0,0 c -1.386,-4.562 -5.605,-18.445 -18.935,-28.544 -8.98,-6.803 -19.748,-10.252 -32.01,-10.252 -7.745,0 -14.282,1.375 -18.401,2.527 -4.86,1.361 -9.545,3.349 -13.978,5.905 4.696,3.57 10.01,8.594 14.066,14.419 2.9,4.164 4.814,8.348 6.087,12.181 0.513,-0.188 1.045,-0.29 1.574,-0.29 1.557,0 3.076,0.786 3.949,2.21 0.742,1.212 3.019,5.528 1.152,10.172 -2.203,5.481 -8.92,8.261 -15.289,6.32 -2.445,-0.743 -3.822,-3.328 -3.079,-5.771 0.611,-2.011 2.471,-3.278 4.473,-3.257 -0.662,-4.361 -2.328,-10.349 -6.457,-16.28 -6.434,-9.239 -15.777,-15.235 -18.271,-16.26 -0.208,-0.085 -0.393,-0.2 -0.58,-0.31 l -0.791,-0.332 c -6.975,-2.929 -21.214,-7.843 -38.218,-7.843 -9.715,0 -19.15,1.595 -28.045,4.743 -22.225,7.861 -37.037,20.304 -44.023,36.984 -5.732,13.686 -8.912,38.332 2.469,47.763 2.541,2.106 5.835,3.509 13.649,3.509 6.096,0 13.995,-0.828 23.995,-1.877 11.259,-1.181 19.395,-3.012 25.949,-4.488 7.207,-1.623 12.9,-2.904 19.604,-2.904 4.008,0 8.11,0.482 12.541,1.474 6.109,1.368 16.332,3.659 26.503,11.355 5.662,4.285 8.735,8.329 10.985,11.29 2.541,3.345 3.463,4.442 5.945,5.272 1.292,0.431 2.745,0.65 4.32,0.65 6.304,0 14.335,-3.625 19.53,-8.815 2.306,-2.303 3.422,-4.363 4.72,-6.758 1.966,-3.628 4.195,-7.741 10.074,-12.839 2.237,-1.941 3.627,-2.821 5.391,-3.937 1.55,-0.981 3.48,-2.202 7.094,-4.843 C -6.17,35.446 -1.44,31.988 0.304,29.581 6.424,21.128 2.086,6.861 0,0 m 9.044,35.909 c -2.745,3.789 -7.41,7.198 -16.701,13.99 -3.883,2.838 -6.074,4.225 -7.675,5.237 -1.588,1.005 -2.464,1.559 -4.087,2.968 -4.403,3.818 -5.914,6.607 -7.664,9.838 -1.48,2.731 -3.157,5.827 -6.576,9.243 -6.61,6.604 -17.165,11.972 -27.157,11.972 -2.647,0 -5.254,-0.376 -7.739,-1.206 -5.761,-1.927 -8.364,-5.353 -11.12,-8.982 -2.073,-2.727 -4.422,-5.819 -8.903,-9.211 -8.303,-6.281 -16.755,-8.175 -22.35,-9.429 -3.812,-0.854 -7.075,-1.214 -10.182,-1.214 -5.504,0 -10.518,1.129 -17.233,2.641 -6.815,1.535 -15.297,3.445 -27.194,4.693 -10.335,1.084 -18.462,1.936 -25.121,1.936 -8.863,0 -15.127,-1.51 -20.534,-5.991 -16.64,-13.789 -12.227,-44.268 -5.537,-60.241 8.212,-19.606 25.162,-34.07 50.377,-42.988 11.044,-3.908 21.783,-5.361 31.644,-5.361 18.441,0 33.815,5.081 42.396,8.685 6.248,-4.095 12.983,-7.168 20.057,-9.149 4.548,-1.273 12.211,-2.927 21.31,-2.927 h 0.006 c 11.663,0 25.686,2.719 38.52,12.441 16.122,12.214 21.106,28.62 22.744,34.01 2.591,8.52 7.983,26.25 -1.281,39.045" style="fill:#010027;fill-opacity:1;fill-rule:nonzero;stroke:none" id="path176"></path>
        </g>
        <g id="g178" transform="translate(318.7705,669.5708)">
          <path d="m 0,0 c 2.093,0.178 4.168,0.571 6.222,1.205 1.466,0.468 2.924,1.033 4.36,1.852 0.769,0.438 0.666,1.611 -0.167,1.909 C 8.859,5.523 7.325,5.827 5.8,6.035 3.667,6.302 1.556,6.329 -0.537,6.141 -2.629,5.955 -4.704,5.562 -6.758,4.929 -8.22,4.46 -9.673,3.897 -11.105,3.086 c -0.772,-0.437 -0.669,-1.614 0.167,-1.911 1.55,-0.55 3.08,-0.852 4.601,-1.06 C -4.205,-0.152 -2.093,-0.179 0,0" style="fill:#010027;fill-opacity:1;fill-rule:nonzero;stroke:none" id="path180"></path>
        </g>
        <g id="g182" transform="translate(335.0161,661.2891)">
          <path d="m 0,0 c -1.556,0.557 -3.089,0.861 -4.615,1.068 -2.132,0.267 -4.244,0.295 -6.336,0.107 -2.093,-0.187 -4.168,-0.579 -6.221,-1.213 -1.462,-0.468 -2.916,-1.031 -4.348,-1.842 -0.772,-0.437 -0.669,-1.614 0.167,-1.911 1.551,-0.55 3.08,-0.853 4.602,-1.061 2.132,-0.267 4.243,-0.294 6.336,-0.114 2.094,0.178 4.168,0.571 6.222,1.204 1.466,0.469 2.924,1.034 4.36,1.853 C 0.936,-1.471 0.833,-0.298 0,0" style="fill:#010027;fill-opacity:1;fill-rule:nonzero;stroke:none" id="path184"></path>
        </g>
        <g id="g186" transform="translate(217.7568,416.6406)">
          <path d="m 0,0 -62.208,99.091 c -3.208,5.11 -3.385,11.314 -0.475,16.596 2.91,5.278 8.246,8.438 14.276,8.456 l 147.658,0.52 c 6.587,0 12.826,-3.123 16.744,-8.353 1.302,-1.737 2.315,-3.65 3.009,-5.684 L 155.017,6.345 152.257,2.366 10.288,-1.217 2.614,-1.404 Z" style="fill:#dee1f4;fill-opacity:1;fill-rule:nonzero;stroke:none" id="path188"></path>
        </g>
        <g id="g190" transform="translate(317.0649,544.3032)">
          <path d="m 0,0 h -0.062 l -147.666,-0.521 c -7.131,-0.019 -13.447,-3.76 -16.89,-10.007 -3.444,-6.249 -3.235,-13.591 0.561,-19.639 l 62.208,-99.091 5.228,-2.808 7.672,0.188 141.973,3.583 5.52,7.957 -36.016,104.292 c -0.79,2.313 -1.95,4.504 -3.443,6.495 C 14.605,-3.572 7.47,0 0,0 m 0,-6 c 5.718,0 10.971,-2.728 14.286,-7.152 1.083,-1.444 1.964,-3.076 2.571,-4.853 l 36.016,-104.292 -141.969,-3.582 -7.671,-0.189 -62.208,99.091 c -5.577,8.885 0.78,20.428 11.268,20.457 L -0.046,-6 H 0" style="fill:#010027;fill-opacity:1;fill-rule:nonzero;stroke:none" id="path192"></path>
        </g>
        <g id="g194" transform="translate(369.938,422.0059)">
          <path d="m 0,0 -141.969,-3.582 -57.686,91.895 c -5.577,8.871 0.78,20.428 11.254,20.458 l 147.661,0.505 c 0.722,0 1.445,-0.044 2.153,-0.13 1.083,-1.445 1.964,-3.077 2.571,-4.854 z" style="fill:#a6abc7;fill-opacity:1;fill-rule:nonzero;stroke:none" id="path196"></path>
        </g>
        <g id="g198" transform="translate(292.2446,464.1055)">
          <path d="m 0,0 c -4.02,2.539 -6.688,7.021 -6.688,12.117 0,4.801 2.356,9.049 5.975,11.651 1.015,0.73 0.667,2.272 -0.567,2.48 -1.059,0.18 -2.157,0.242 -3.283,0.173 -5.948,-0.367 -10.993,-4.529 -12.761,-10.01 -3.639,3.1 -9.065,5.07 -15.133,5.07 -0.009,0 -0.018,-0.001 -0.027,-0.001 0.752,3.341 1.594,6.22 4.703,7.468 0.928,0.372 0.974,1.692 0.054,2.082 -0.693,0.294 -1.421,0.532 -2.183,0.703 -6.794,1.54 -13.521,-2.604 -15.028,-9.257 -0.306,-1.349 -0.362,-2.694 -0.218,-3.999 -1.355,-0.845 -2.567,-1.899 -3.569,-3.136 -2.253,-2.311 -3.568,-5.128 -3.568,-8.177 0,-1.257 0.231,-2.484 0.65,-3.641 2.211,-6.082 9.824,-10.575 18.897,-10.675 h 0.289 c 8.483,0 15.706,3.856 18.539,9.264 2.602,-2.659 6.232,-4.311 10.25,-4.311 1.145,0 2.257,0.136 3.323,0.389 C 0.517,-1.604 0.749,-0.474 0,0" style="fill:#a43e6a;fill-opacity:1;fill-rule:nonzero;stroke:none" id="path200"></path>
        </g>
        <g id="g202" transform="translate(214.5205,418.2354)">
          <path d="m 0,0 230.625,5.82 c 5.123,0.129 9.905,-2.555 12.462,-6.997 1.863,-3.235 1.856,-7.219 -0.019,-10.449 -2.329,-4.012 -6.588,-6.513 -11.227,-6.593 L 0,-22.235 Z" style="fill:#a6abc7;fill-opacity:1;fill-rule:nonzero;stroke:none" id="path204"></path>
        </g>
        <g id="g206" transform="translate(217.5205,415.3105)">
          <path d="m 0,0 v -16.258 l 228.79,3.964 c 3.565,0.062 6.893,2.016 8.684,5.1 1.332,2.294 1.337,5.147 0.014,7.445 -2.01,3.49 -5.744,5.571 -9.788,5.495 z m -3,-22.311 c -0.786,0 -1.542,0.309 -2.103,0.861 C -5.677,-20.886 -6,-20.115 -6,-19.311 V 2.925 c 0,1.627 1.297,2.958 2.924,2.999 l 230.625,5.82 c 6.23,0.177 12.03,-3.1 15.138,-8.499 2.391,-4.152 2.382,-9.307 -0.024,-13.452 -2.84,-4.891 -8.116,-7.989 -13.77,-8.087 L -2.948,-22.311 Z" style="fill:#010027;fill-opacity:1;fill-rule:nonzero;stroke:none" id="path208"></path>
        </g>
        <g id="g210" transform="translate(759.3193,530.5918)">
          <path d="m 0,0 c 13.128,2.996 27.185,2.406 40.161,-1.596 6.467,-2.1 12.59,-5.053 18.443,-8.362 5.872,-3.285 11.575,-6.862 17.065,-10.768 10.997,-7.679 21.249,-16.801 29.662,-27.413 4.18,-5.323 7.982,-10.942 11.261,-16.847 1.676,-2.931 3.144,-5.974 4.598,-9.009 1.407,-3.063 2.696,-6.174 3.834,-9.336 0.029,-0.078 -0.011,-0.164 -0.089,-0.192 -0.072,-0.026 -0.15,0.005 -0.184,0.07 -6.315,11.829 -13.517,23.054 -21.917,33.314 -4.177,5.142 -8.57,10.116 -13.306,14.763 -4.731,4.627 -9.766,9.031 -14.859,13.348 -2.57,2.123 -5.197,4.184 -7.951,6.067 -2.752,1.885 -5.614,3.61 -8.572,5.146 -1.471,0.784 -3.008,1.437 -4.512,2.146 -1.555,0.602 -3.084,1.256 -4.654,1.804 -3.132,1.107 -6.296,2.1 -9.512,2.871 -6.397,1.639 -12.884,2.911 -19.48,3.499 C 13.396,0.098 6.738,0.128 0.043,-0.297 -0.04,-0.302 -0.111,-0.238 -0.116,-0.156 -0.121,-0.081 -0.07,-0.016 0,0" style="fill:#2f7ac5;fill-opacity:1;fill-rule:nonzero;stroke:none" id="path212"></path>
        </g>
        <g id="g214" transform="translate(759.3232,488.3164)">
          <path d="m 0,0 c 4.811,1.152 9.783,1.612 14.751,1.581 2.486,-0.015 4.974,-0.172 7.444,-0.476 1.235,-0.156 2.469,-0.328 3.696,-0.543 1.222,-0.234 2.438,-0.509 3.648,-0.801 4.832,-1.247 9.419,-3.215 13.934,-5.177 4.52,-1.969 8.959,-4.109 13.319,-6.448 4.377,-2.339 8.543,-4.93 12.592,-7.832 4.04,-2.892 7.87,-6.099 11.369,-9.643 6.94,-7.129 12.727,-15.441 16.516,-24.568 0.031,-0.077 -0.005,-0.165 -0.082,-0.197 -0.068,-0.028 -0.144,-0.003 -0.183,0.055 -2.746,4.083 -5.636,8.008 -8.705,11.764 -3.101,3.731 -6.344,7.319 -9.809,10.683 -3.429,3.397 -7.026,6.63 -10.815,9.644 -1.905,1.491 -3.845,2.938 -5.816,4.397 -1.962,1.455 -3.91,2.917 -5.922,4.294 -4.002,2.782 -8.285,5.191 -12.836,6.953 -4.545,1.791 -9.344,2.793 -14.094,3.635 -4.755,0.85 -9.527,1.566 -14.357,1.937 -4.829,0.399 -9.688,0.457 -14.614,0.443 -0.084,0 -0.151,0.068 -0.152,0.151 0,0.072 0.05,0.131 0.116,0.148" style="fill:#2f7ac5;fill-opacity:1;fill-rule:nonzero;stroke:none" id="path216"></path>
        </g>
        <g id="g218" transform="translate(759.3203,460.5557)">
          <path d="m 0,0 c 8.674,2.32 18.124,2.047 26.784,-0.661 4.32,-1.427 8.335,-3.559 12.238,-5.733 3.906,-2.185 7.732,-4.5 11.468,-6.989 7.472,-4.877 14.406,-10.899 20.072,-17.934 2.792,-3.549 5.332,-7.299 7.47,-11.265 2.167,-3.946 3.981,-8.076 5.369,-12.334 0.027,-0.079 -0.017,-0.165 -0.096,-0.19 -0.069,-0.023 -0.142,0.007 -0.177,0.067 -4.531,7.687 -9.413,15.001 -15.05,21.704 -2.782,3.374 -5.702,6.636 -8.815,9.721 -1.556,1.548 -3.185,3.007 -4.807,4.501 -1.653,1.481 -3.269,2.989 -4.956,4.42 -3.339,2.895 -6.979,5.46 -10.932,7.439 -3.945,2.005 -8.237,3.184 -12.465,4.191 -4.238,1.002 -8.501,1.855 -12.852,2.293 C 8.902,-0.31 4.512,-0.237 0.042,-0.297 -0.041,-0.299 -0.11,-0.233 -0.112,-0.149 -0.114,-0.079 -0.065,-0.019 0,0" style="fill:#2f7ac5;fill-opacity:1;fill-rule:nonzero;stroke:none" id="path220"></path>
        </g>
        <g id="g222" transform="translate(745.4463,432.8076)">
          <path d="m 0,0 c 8.674,2.32 18.124,2.047 26.784,-0.661 4.32,-1.427 8.335,-3.559 12.238,-5.733 3.906,-2.185 7.733,-4.5 11.468,-6.989 7.472,-4.877 14.406,-10.899 20.072,-17.933 2.792,-3.55 5.332,-7.3 7.47,-11.266 2.167,-3.946 3.981,-8.076 5.369,-12.334 0.027,-0.079 -0.017,-0.164 -0.096,-0.19 -0.069,-0.023 -0.142,0.007 -0.177,0.067 -4.531,7.687 -9.413,15.001 -15.05,21.704 -2.782,3.374 -5.702,6.636 -8.815,9.721 -1.555,1.548 -3.185,3.007 -4.807,4.502 -1.653,1.48 -3.269,2.988 -4.956,4.419 -3.339,2.895 -6.979,5.46 -10.931,7.439 -3.946,2.005 -8.238,3.184 -12.466,4.191 -4.238,1.002 -8.501,1.855 -12.852,2.293 C 8.903,-0.31 4.512,-0.237 0.042,-0.297 -0.041,-0.299 -0.11,-0.233 -0.112,-0.149 -0.114,-0.079 -0.065,-0.019 0,0" style="fill:#2f7ac5;fill-opacity:1;fill-rule:nonzero;stroke:none" id="path224"></path>
        </g>
        <g id="g226" transform="translate(787.2383,558.2104)">
          <path d="m 0,0 c 0.374,-1.992 0.739,-3.988 1.017,-5.996 0.313,-2.005 0.581,-4.017 0.802,-6.034 0.443,-4.035 0.737,-8.09 0.897,-12.15 0.289,-8.12 0.086,-16.278 -0.847,-24.358 -0.961,-8.082 -2.66,-16.039 -4.374,-23.951 -1.741,-7.91 -3.616,-15.794 -5.872,-23.594 -2.22,-7.809 -4.953,-15.485 -8.179,-22.95 -1.583,-3.746 -3.313,-7.425 -5.071,-11.092 -1.783,-3.656 -3.686,-7.232 -5.63,-10.798 -7.886,-14.224 -17.323,-27.6 -28.272,-39.552 -0.056,-0.062 -0.151,-0.066 -0.212,-0.01 -0.057,0.053 -0.065,0.138 -0.021,0.199 9.462,13.128 18.119,26.716 25.696,40.893 3.822,7.093 7.587,14.195 10.931,21.505 3.347,7.307 6.446,14.734 9.196,22.311 2.733,7.58 4.97,15.36 6.482,23.285 0.417,1.973 0.708,3.97 1.009,5.964 0.29,1.995 0.573,3.99 0.762,5.997 0.203,2.005 0.456,4.002 0.624,6.008 0.182,2.004 0.306,4.013 0.446,6.018 0.575,8.017 0.963,16.041 1.008,24.087 0.026,8.044 -0.241,16.096 -0.69,24.181 -0.005,0.083 0.058,0.154 0.141,0.159 C -0.081,0.127 -0.015,0.073 0,0" style="fill:#2f7ac5;fill-opacity:1;fill-rule:nonzero;stroke:none" id="path228"></path>
        </g>
        <g id="g230" transform="translate(828.8584,558.2202)">
          <path d="m 0,0 c 2.129,-8.229 3.476,-16.675 4.104,-25.182 0.295,-4.254 0.473,-8.523 0.398,-12.791 -0.024,-4.269 -0.274,-8.537 -0.75,-12.778 -1.016,-8.479 -2.643,-16.864 -4.892,-25.063 -0.521,-2.059 -0.936,-4.145 -1.544,-6.181 -0.6,-2.037 -1.221,-4.068 -1.795,-6.115 -1.075,-4.118 -2.594,-8.093 -3.937,-12.137 -0.628,-2.041 -1.507,-3.981 -2.289,-5.964 -0.798,-1.976 -1.599,-3.956 -2.449,-5.912 l -2.8,-5.754 -1.417,-2.873 c -0.489,-0.948 -1.041,-1.862 -1.56,-2.794 l -3.157,-5.575 c -1.092,-1.834 -2.273,-3.614 -3.407,-5.424 l -1.724,-2.702 c -0.591,-0.889 -1.237,-1.741 -1.852,-2.613 -1.253,-1.729 -2.479,-3.479 -3.754,-5.193 -10.473,-13.49 -22.733,-25.619 -36.599,-35.456 -0.067,-0.048 -0.161,-0.033 -0.209,0.035 -0.045,0.062 -0.034,0.148 0.023,0.199 6.294,5.686 12.381,11.549 18.071,17.772 5.701,6.209 11.102,12.667 16.163,19.381 10.022,13.484 18.814,27.941 25.432,43.477 l 2.377,5.869 c 0.379,0.985 0.832,1.946 1.15,2.952 l 0.965,3.018 c 0.654,2.009 1.26,4.033 1.888,6.052 0.345,1.001 0.546,2.04 0.782,3.07 l 0.695,3.092 1.309,6.199 c 0.305,2.091 0.642,4.175 0.897,6.269 0.508,4.19 0.923,8.385 1.146,12.589 0.593,8.395 0.781,16.808 0.517,25.227 -0.29,8.417 -1.01,16.832 -2.077,25.249 -0.01,0.082 0.048,0.158 0.13,0.168 C -0.089,0.121 -0.019,0.072 0,0" style="fill:#2f7ac5;fill-opacity:1;fill-rule:nonzero;stroke:none" id="path232"></path>
        </g>
        <g id="g234" transform="translate(870.4834,530.4414)">
          <path d="m 0,0 c 0.371,-8.399 0.022,-16.85 -1.031,-25.219 -0.24,-2.095 -0.576,-4.178 -0.885,-6.265 -0.382,-2.076 -0.719,-4.16 -1.163,-6.223 -0.8,-4.146 -1.888,-8.231 -3.071,-12.28 -2.526,-8.059 -5.643,-15.906 -9.152,-23.543 -0.844,-1.925 -1.717,-3.836 -2.539,-5.77 -0.871,-1.911 -1.867,-3.763 -2.762,-5.666 l -1.376,-2.838 c -0.45,-0.951 -0.88,-1.912 -1.402,-2.826 l -2.998,-5.557 -1.497,-2.784 -1.634,-2.705 c -1.084,-1.807 -2.187,-3.605 -3.304,-5.396 -1.158,-1.763 -2.387,-3.477 -3.579,-5.219 -1.198,-1.738 -2.404,-3.473 -3.731,-5.115 l -3.895,-4.996 c -1.32,-1.648 -2.728,-3.222 -4.089,-4.837 l -2.066,-2.405 c -0.709,-0.782 -1.45,-1.535 -2.174,-2.303 -1.465,-1.522 -2.891,-3.082 -4.389,-4.57 -12.066,-11.822 -25.66,-22.099 -40.452,-30.096 -0.074,-0.039 -0.165,-0.013 -0.205,0.06 -0.036,0.069 -0.015,0.153 0.047,0.196 13.769,9.593 26.629,20.277 38.346,32.102 11.679,11.843 22.316,24.756 31.209,38.904 l 3.279,5.342 c 1.116,1.771 2.011,3.662 3.002,5.503 0.967,1.854 1.947,3.703 2.843,5.592 0.848,1.911 1.646,3.845 2.472,5.766 1.661,3.837 3.049,7.787 4.264,11.784 1.277,3.976 2.335,8.015 3.376,12.049 2.038,8.077 3.89,16.196 5.223,24.428 0.696,4.112 1.257,8.246 1.76,12.394 l 0.698,6.236 0.575,6.262 c 0.006,0.083 0.079,0.144 0.161,0.138 C -0.062,0.137 -0.004,0.073 0,0" style="fill:#2f7ac5;fill-opacity:1;fill-rule:nonzero;stroke:none" id="path236"></path>
        </g>
        <g id="g238" transform="translate(450.001,476.5996)">
          <path d="m 0,0 c -4.786,-0.662 -9.444,-1.758 -13.615,-3.678 -2.091,-0.934 -4.036,-2.095 -5.812,-3.415 -1.797,-1.287 -3.39,-2.801 -4.788,-4.449 -1.395,-1.66 -2.455,-3.565 -3.365,-5.502 -0.918,-1.934 -1.866,-3.824 -2.913,-5.761 l -1.521,-2.982 c -0.446,-0.892 -0.866,-1.834 -1.215,-2.849 -0.73,-2.027 -1.203,-4.306 -1.682,-6.869 l -10e-4,-0.006 c -0.044,-0.236 -0.272,-0.392 -0.508,-0.348 -0.111,0.02 -0.205,0.082 -0.268,0.165 -1.615,2.125 -2.615,4.708 -2.952,7.497 -0.164,1.393 -0.146,2.837 0.056,4.269 0.154,1.308 0.398,2.612 0.743,3.896 0.671,2.574 1.813,5.06 3.458,7.22 1.616,2.179 3.589,4.074 5.587,5.845 2.033,1.744 4.234,3.274 6.583,4.464 2.357,1.176 4.82,2.052 7.307,2.653 5,1.152 10.045,1.266 14.904,0.651 C 0.219,0.772 0.375,0.57 0.347,0.35 0.324,0.165 0.176,0.024 0,0" style="fill:#010027;fill-opacity:1;fill-rule:nonzero;stroke:none" id="path240"></path>
        </g>
        <g id="g242" transform="translate(441.001,494.5996)">
          <path d="m 0,0 c -4.786,-0.662 -9.444,-1.758 -13.615,-3.678 -2.091,-0.934 -4.036,-2.095 -5.812,-3.415 -1.797,-1.287 -3.39,-2.801 -4.788,-4.449 -1.395,-1.66 -2.455,-3.565 -3.365,-5.502 -0.918,-1.934 -1.866,-3.824 -2.913,-5.761 l -1.521,-2.982 c -0.446,-0.892 -0.866,-1.834 -1.215,-2.849 -0.73,-2.027 -1.203,-4.306 -1.682,-6.869 l -10e-4,-0.006 c -0.044,-0.236 -0.272,-0.392 -0.508,-0.348 -0.111,0.02 -0.205,0.082 -0.268,0.165 -1.615,2.125 -2.615,4.708 -2.952,7.497 -0.164,1.393 -0.146,2.837 0.056,4.269 0.154,1.308 0.398,2.612 0.743,3.896 0.671,2.574 1.813,5.06 3.458,7.22 1.616,2.179 3.589,4.074 5.587,5.845 2.033,1.744 4.234,3.274 6.583,4.464 2.357,1.176 4.82,2.052 7.307,2.653 5,1.152 10.045,1.266 14.904,0.651 C 0.219,0.772 0.375,0.57 0.347,0.35 0.324,0.165 0.176,0.024 0,0" style="fill:#010027;fill-opacity:1;fill-rule:nonzero;stroke:none" id="path244"></path>
        </g>
        <g id="g246" transform="translate(468.001,467.5996)">
          <path d="m 0,0 c -4.786,-0.662 -9.444,-1.758 -13.615,-3.678 -2.091,-0.934 -4.036,-2.095 -5.812,-3.415 -1.797,-1.287 -3.39,-2.801 -4.788,-4.449 -1.395,-1.66 -2.455,-3.565 -3.365,-5.502 -0.918,-1.934 -1.866,-3.824 -2.913,-5.761 l -1.521,-2.982 c -0.446,-0.892 -0.866,-1.834 -1.215,-2.849 -0.73,-2.027 -1.203,-4.306 -1.682,-6.869 l -10e-4,-0.006 c -0.044,-0.236 -0.272,-0.392 -0.508,-0.348 -0.111,0.02 -0.205,0.082 -0.268,0.165 -1.615,2.125 -2.615,4.708 -2.952,7.497 -0.164,1.393 -0.146,2.837 0.056,4.269 0.154,1.308 0.398,2.612 0.743,3.896 0.671,2.574 1.813,5.06 3.458,7.22 1.616,2.179 3.589,4.074 5.587,5.845 2.033,1.744 4.234,3.274 6.583,4.464 2.357,1.176 4.82,2.052 7.307,2.653 5,1.152 10.045,1.266 14.904,0.651 C 0.219,0.772 0.375,0.57 0.347,0.35 0.324,0.165 0.176,0.024 0,0" style="fill:#010027;fill-opacity:1;fill-rule:nonzero;stroke:none" id="path248"></path>
        </g>
        <g id="g250" transform="translate(490.9697,355.96)">
          <path d="m 0,0 c 0,0 -0.071,-1.57 -0.21,-3.18 -2.566,-29.804 -13.76,-46.78 -13.76,-46.78 -5.027,-7.623 -9.393,-14.245 -18,-18 -16.228,-7.08 -33.185,2.294 -36.21,4.03 -1.15,1.17 -2.25,2.36 -3.32,3.701 -1.21,1.509 -2.37,3.229 -3.29,4.909 -1.88,3.44 -3.03,6.29 -4.47,9.07 -2.81,5.55 -6.219,10.91 -9.81,16.25 -3.81,5.64 -7.21,11.36 -10.71,16.75 -1.74,2.7 -3.52,5.32 -5.37,7.82 -1.82,2.51 -3.789,4.79 -6.039,7.66 -1.091,1.47 -2.301,3.07 -3.351,5.23 -1.04,2.12 -1.72,4.9 -1.649,7.49 0.109,2.97 1.019,5.27 2.019,7.29 1.07,1.99 2.32,3.64 3.64,5.15 2.64,2.99 5.54,5.32 8.5,7.381 3.06,2.069 5.79,3.719 8.88,5.459 6.08,3.39 12.671,6.23 19.59,7.92 6.92,1.7 14.15,2.32 21.23,1.67 1.75,-0.23 3.54,-0.29 5.27,-0.68 1.72,-0.32 3.54,-0.619 5.121,-1.02 3.259,-0.74 6.619,-1.57 9.919,-2.66 6.62,-2.12 13.17,-5.34 18.66,-10.1 5.52,-4.7 9.57,-11.13 11.59,-17.93 C -0.71,13.84 -0.15,10.2 0.021,6.59 0.16,4.37 0.14,2.17 0,0" style="fill:#3d66bc;fill-opacity:1;fill-rule:nonzero;stroke:none" id="path252"></path>
        </g>
        <g id="g254" transform="translate(581.7197,282.7197)">
          <path d="M 0,0 C -0.14,-0.01 -0.27,-0.02 -0.399,-0.029 L -20.04,-1.58 -39.689,-2.95 C -52.79,-3.899 -65.9,-4.64 -79,-5.43 c -13.1,-0.82 -26.21,-1.5 -39.33,-2.17 -0.18,-0.02 -0.37,0 -0.55,0.01 h -0.16 c -6.98,0.601 -14.04,1.941 -20.85,4.55 -0.85,0.32 -1.7,0.66 -2.53,1.03 -5.86,2.56 -11.38,6.25 -16.03,10.821 -0.16,0.169 -0.33,0.33 -0.48,0.5 -1.15,1.169 -2.25,2.359 -3.32,3.7 -1.21,1.51 -2.37,3.229 -3.29,4.909 -1.88,3.44 -3.03,6.29 -4.47,9.07 -2.81,5.55 -6.219,10.91 -9.81,16.25 -3.81,5.64 -7.21,11.361 -10.71,16.75 -1.74,2.7 -3.52,5.321 -5.37,7.821 -1.82,2.509 -3.789,4.79 -6.039,7.66 -1.091,1.469 -2.301,3.069 -3.351,5.229 -1.04,2.12 -1.72,4.901 -1.649,7.49 0.109,2.97 1.019,5.27 2.019,7.29 1.07,1.991 2.32,3.64 3.64,5.15 2.64,2.99 5.54,5.32 8.5,7.381 3.06,2.069 5.79,3.719 8.88,5.46 6.08,3.389 12.671,6.229 19.59,7.92 6.92,1.699 14.15,2.319 21.23,1.67 1.75,-0.231 3.54,-0.29 5.27,-0.681 1.72,-0.319 3.54,-0.619 5.121,-1.02 3.259,-0.74 6.619,-1.57 9.919,-2.66 6.62,-2.12 13.17,-5.34 18.66,-10.099 5.52,-4.701 9.57,-11.13 11.59,-17.931 1.06,-3.59 1.62,-7.23 1.791,-10.84 0.139,-2.22 0.119,-4.42 -0.021,-6.59 -0.04,-1.07 -0.12,-2.13 -0.21,-3.179 -0.64,-6.781 -2.36,-13.271 -4.2,-19.661 -1.16,-3.87 -2.62,-7.639 -4.34,-11.28 -1.11,-2.37 -2.34,-4.68 -3.67,-6.92 2.59,6.071 4.481,12.39 5.7,18.78 1.14,6.22 2.02,12.5 2.16,18.68 0.01,0.21 0.01,0.43 0.01,0.651 0.02,1.259 -0.01,2.519 -0.06,3.769 -0.23,5.11 -1.06,10.12 -2.88,14.65 -2.19,5.67 -5.77,10.6 -10.56,14.15 -2.37,1.79 -4.98,3.31 -7.75,4.53 -2.78,1.22 -5.69,2.191 -8.7,3.021 -2.99,0.819 -6.07,1.439 -9.26,2.009 -3.19,0.54 -6.11,0.92 -9.179,1.05 -12.171,0.47 -24.091,-3.24 -34.681,-9.61 -5.4,-3.31 -10.73,-6.75 -14.06,-10.819 -0.82,-1 -1.54,-2.021 -1.99,-2.981 -0.44,-0.91 -0.66,-1.78 -0.65,-2.12 0.04,-0.71 0.14,-1.239 0.54,-2.069 0.41,-0.801 1.16,-1.88 2.07,-3.021 1.85,-2.3 4.21,-4.96 6.31,-7.769 2.11,-2.771 4.02,-5.611 5.87,-8.431 3.7,-5.659 7.07,-11.26 10.67,-16.529 3.74,-5.591 7.4,-11.401 10.52,-17.63 1.58,-3.091 2.93,-6.341 4.2,-8.7 0.65,-1.21 1.31,-2.25 2.161,-3.311 0.799,-1.06 1.779,-2.14 2.79,-3.18 2.25,-2.32 4.799,-4.32 7.569,-6.03 6.97,-4.3 15.35,-6.74 24.02,-7.67 0.1,-0.01 0.2,-0.019 0.3,-0.01 7.111,0.12 8.67,-7.42 15.79,-7.33 5.781,0.09 11.58,0.17 17.36,0.21 l 10.68,0.12 c 9.57,0.1 19.13,0.18 28.71,0.161 l 19.7,0.019 19.701,-0.16 H -5.72 C -2.97,-3.399 2.73,0.221 0,0" style="fill:#010027;fill-opacity:1;fill-rule:nonzero;stroke:none" id="path256"></path>
        </g>
        <g id="g258" transform="translate(398.1992,390.3213)">
          <path d="m 0,0 c 2.461,1.401 5.394,1.863 8.282,1.566 1.447,-0.15 2.886,-0.51 4.263,-1.046 0.685,-0.276 1.351,-0.599 1.997,-0.965 0.658,-0.346 1.269,-0.767 1.87,-1.205 2.413,-1.754 4.256,-4.196 5.42,-6.826 1.118,-2.647 1.654,-5.526 1.14,-8.326 -1.528,2.36 -2.969,4.431 -4.514,6.309 -1.562,1.854 -3.191,3.488 -5.034,4.836 l -0.683,0.515 c -0.234,0.165 -0.487,0.299 -0.724,0.461 -0.465,0.34 -0.971,0.611 -1.467,0.91 C 9.54,-3.206 8.484,-2.704 7.375,-2.246 5.151,-1.322 2.738,-0.657 0,0" style="fill:#010027;fill-opacity:1;fill-rule:nonzero;stroke:none" id="path260"></path>
        </g>
        <g id="g262" transform="translate(427.0278,395.7812)">
          <path d="m 0,0 c 2.462,1.401 5.394,1.863 8.282,1.566 1.447,-0.15 2.886,-0.51 4.263,-1.046 0.686,-0.276 1.352,-0.598 1.997,-0.965 0.658,-0.346 1.27,-0.767 1.871,-1.205 2.412,-1.754 4.255,-4.196 5.42,-6.826 1.118,-2.647 1.653,-5.526 1.139,-8.326 -1.528,2.36 -2.969,4.431 -4.514,6.309 -1.562,1.854 -3.19,3.489 -5.034,4.836 l -0.683,0.516 c -0.233,0.164 -0.487,0.299 -0.723,0.46 -0.465,0.34 -0.971,0.611 -1.468,0.91 C 9.541,-3.206 8.485,-2.704 7.376,-2.246 5.152,-1.322 2.738,-0.657 0,0" style="fill:#010027;fill-opacity:1;fill-rule:nonzero;stroke:none" id="path264"></path>
        </g>
      </g>
    </g>
  </g>
</svg>