<?xml version="1.0" encoding="UTF-8"?>
<svg id="Camada_1" data-name="Camada 1" xmlns="http://www.w3.org/2000/svg" viewBox="0 0 675.74 537.11">
  <defs>
    <style>
      .cls-1 {
        fill: #41bdde;
      }

      .cls-2 {
        fill: #395bb3;
      }

      .cls-3 {
        fill: #ca427c;
      }

      .cls-4 {
        stroke: #cddaff;
        stroke-miterlimit: 10;
        stroke-width: 22px;
      }

      .cls-4, .cls-5, .cls-6 {
        fill: #cddaff;
      }

      .cls-5 {
        opacity: .35;
      }

      .cls-5, .cls-7 {
        isolation: isolate;
      }

      .cls-7 {
        fill: #020f2b;
        opacity: .14;
      }

      .cls-8 {
        fill: #34a0d4;
      }

      .cls-9 {
        fill: #37b5d7;
      }
    </style>
  </defs>
  <g>
    <path class="cls-4" d="m448.26,449.32l30.06-13.46c4.89-2.18,10.91.64,10.91,5.11h0c0,2.14-1.46,4.11-3.81,5.14l-13.82,6.03c-5.12,2.24-5.08,8.13.09,10.32l13.64,5.76c2.41,1.01,3.9,3.01,3.9,5.18v.09c0,4.44-5.94,7.26-10.83,5.15l-30.07-13.03c-2.36-1.02-3.83-3-3.83-5.15v-6.04c0-2.11,1.43-4.08,3.75-5.11h0Z"/>
    <path class="cls-4" d="m543.39,422.43l-17.91,71.79c-.69,2.74-3.7,4.72-7.19,4.72h-.02c-4.62,0-8.1-3.38-7.19-7l17.91-71.79c.69-2.74,3.7-4.72,7.19-4.72h.02c4.62,0,8.1,3.38,7.19,7Z"/>
    <path class="cls-4" d="m606.16,465.63l-30.06,13.03c-4.88,2.11-10.83-.71-10.83-5.15v-.09c0-2.17,1.5-4.16,3.9-5.18l13.64-5.76c5.16-2.18,5.22-8.08.09-10.32l-13.82-6.03c-2.35-1.02-3.81-3-3.81-5.14h0c0-4.47,6.03-7.3,10.91-5.11l30.06,13.46c2.31,1.03,3.75,2.99,3.75,5.11v6.04c0,2.15-1.48,4.13-3.83,5.15h-.01Z"/>
  </g>
  <path class="cls-6" d="m572.55,25.17c4.09.32,3.48,11.17,3.23,14.43-2.21,29.55-15.45,58.79-37.65,79.02,16.78-6.64,35.02-10.44,52.93-9.03,3.26.26,6.51.68,9.74,1.3,11.82,2.24,23.62,6.99,33.32,14.3,1.43,1.07,2.82,2.21,4.15,3.4,2.76,2.47,13.48,12.42,12.15,16.74-1.41,4.55-15.55,4.62-19.17,4.98-6.28.62-12.03,1.85-17.61,4.07-3.35,1.33-6.62,3.02-9.89,5.14-2.1,1.36-4.1,2.86-5.85,4.63-9.95,10.14-4.49,19.45,1.43,28.29,1.72,2.57,3.36,5.18,4.93,7.84,26.23,44.41,31.74,101.16,13.94,149.57-13.7,37.25-40.74,69.52-75.22,89.23-3.85,2.2-8.23,4.12-12.82,5.51-12.37,5.17-27.4,9.28-43.94,9.17-2.22-.01-4.07-.1-5.88-.24-4.82-.38-9.32-1.14-19.63-1.95-3.68-.29-8.09-.58-13.52-.86-1.33-.07-2.64-.13-3.9-.2.16.08.33.16.5.24-20.55.07-39.05,4.56-59.42,9.95-21.58,5.72-42.94,13.31-63.44,22.02-39.76,16.91-87.76,32.22-132.44,28.72-7.85-.61-15.6-1.81-23.18-3.68-30.27-7.47-57.1-25.65-79.02-47.84-24.78-25.08-50.92-59.57-59.47-94.42-3.96-16.19-1.36-33.55,13.95-42.53.88-.52,1.78-.97,2.69-1.38,5.51-2.45,11.55-2.96,17.73-2.47,6.89.54,13.95,2.31,20.62,3.98,16.27,4.07,33.12,7.2,49.97,8.52,27.86,2.18,55.71-.6,80.84-12.31,7.03-3.27,14.72-8.44,18.03-15.76,2.11-4.66,1.57-9.93,4.14-14.48,1.72-3.04,4.12-5.71,6.96-7.74.93-.67,7.94-4.09,7.78-5.04-.14-.84-.37-2.16-.64-3.79-5.17-31.2,0-63.97,19.13-89.6,39.25-52.61,103.98-72.16,165.74-83,15.51-2.71,31.24-3.95,46.39-8.87,18.74-6.09,35.95-15.91,50.84-28.77,13.15-11.37,24.65-24.72,38.16-35.61,1.39-1.12,2.5-1.55,3.39-1.48m1.96-25.09c-5.2-.41-13.08.47-21.15,6.97-8.45,6.81-15.87,14.14-23.05,21.23-5.41,5.35-10.52,10.39-15.78,14.94-12.52,10.82-26.71,18.85-42.16,23.88-8.8,2.86-18.58,4.3-28.94,5.82-4.54.67-9.24,1.36-14.01,2.19-39.55,6.94-70.43,15.72-97.21,27.63-36.05,16.04-63.65,37.34-84.37,65.1-19.87,26.63-28.7,60.61-25.34,96.74-3.83,3.51-7.11,7.63-9.65,12.12-3.47,6.14-4.51,11.88-5.19,15.67-.04.21-.08.45-.13.69-.83.74-2.58,2.03-5.55,3.41-18.76,8.74-41.72,12.11-68.26,10.03-14.17-1.11-29.16-3.67-45.83-7.84-7.39-1.85-15.77-3.95-24.77-4.65-11.25-.88-21.05.61-29.93,4.57-1.82.81-3.58,1.72-5.24,2.69-23.07,13.57-32.89,40.46-25.61,70.19,4.64,18.91,13.77,38.69,27.13,58.82,10.69,16.1,23.78,32.02,38.88,47.31,27.48,27.81,58.91,46.69,90.89,54.58,8.69,2.14,17.86,3.6,27.25,4.34,41.01,3.21,88.2-6.82,144.25-30.65,20.53-8.72,40.74-15.74,60.04-20.85,19.37-5.12,35.58-9.05,53.06-9.11h3.26c4.25.22,8.07.47,11.62.74,5.68.44,9.37.87,12.62,1.24,2.37.27,4.61.53,7.01.71,2.56.2,5.01.3,7.69.32,9.7.06,19.5-1.02,29.32-3.24l17.6-5.19c1.92-.7,3.84-1.44,5.76-2.22,5.86-1.87,11.49-4.35,16.76-7.37,19.68-11.25,37.23-25.95,52.14-43.67,14.84-17.63,26.34-37.39,34.18-58.72,10-27.2,13.79-57.4,10.97-87.33-2.81-29.76-12.1-58.71-26.87-83.72-1.71-2.9-3.53-5.8-5.41-8.63.79-.4,1.59-.76,2.4-1.08,3.09-1.23,6.5-1.99,10.77-2.42.36-.03.83-.05,1.36-.09,3.11-.19,8.3-.5,13.4-1.52,18.09-3.62,24.06-14.68,26.01-20.96v-.03s.02-.03.02-.03c4.93-16.02-5.92-28.68-9.49-32.84-3.73-4.35-7.83-8.17-9.95-10.06-1.83-1.64-3.77-3.23-5.77-4.73h0c-12.32-9.29-27.46-15.84-43.78-18.94-4.06-.77-8.26-1.33-12.47-1.66-.65-.05-1.29-.1-1.94-.14,5.33-13.59,8.68-28.08,9.79-42.88.36-4.69.34-9-.06-12.79-2.05-19.75-15.45-27.75-26.3-28.61h0s0,0,0,0Z"/>
  <path d="m250.04,376.62c1.45-.12,2.95-.18,4.35.13s2.71,1.09,3.12,2.18c.4,1.05-.1,2.19-.79,3.15-1.7,2.33-4.62,4.07-7.87,4.98-3.25.91-6.82,1.04-10.23.63-3.75-.45-10.94-3.84-6.24-7.08,4.12-2.83,12.43-3.58,17.66-4h0Z"/>
  <path d="m261.32,394.75c1.16-.47,2.35-.95,3.61-1,1.25-.05,2.6.39,3.3,1.43.95,1.41.43,3.32-.32,4.84-2.7,5.5-8.14,9.57-14.18,10.62-2.75.48-5.96.33-8.1-1.68-1.64-1.54-2.86-4.11-1.53-6.18,1.57-2.43,5.42-3.27,7.92-4.28,3.1-1.25,6.2-2.5,9.3-3.75h0Z"/>
  <g>
    <g>
      <g>
        <path class="cls-2" d="m638.27,128.58c2.76,2.47,13.48,12.42,12.15,16.74-1.41,4.56-15.55,4.62-19.17,4.98-6.28.62-12.03,1.85-17.61,4.07l-1.05-2.54c4.77-1.95,10.05-4.63,15.82-9.51,4.96-4.2,8.93-7.66,8.38-11.5-.26-1.81-1.49-3.35-3.37-4.69l.71-.95c1.43,1.07,2.82,2.21,4.15,3.4h0Z"/>
        <path class="cls-2" d="m636.79,130.82c.55,3.84-3.42,7.3-8.38,11.5-5.77,4.89-11.04,7.56-15.82,9.51-8.5,3.49-15.37,4.67-20.46,11.96-.47.67-5.73,8.43-4.17,17.44,1.74,10.08,11.85,15.28,13.56,17.89.43.65.84,1.32,1.25,2.02,13.37,22.8,20.11,73.61,16.7,103.16-3.41,29.43-9.88,85.39-56.21,120.89-3.92,3-15.96,12.23-33.09,19.39-6.46,1.96-13.31,2.84-19.53,1.9,6.91-3.03,11.88-7.5,17.3-12.78,6.13-5.97,11.67-12.5,17.5-18.76,57.05-61.13,70.75-152,34.71-227.46-3-6.29-6.41-13.13-4.8-19.92.92-3.86,3.38-7.17,6.04-10.11,9.35-10.35,21.95-17.71,35.56-20.76-1.82-6.75-9.51-9.86-16.34-11.45-21.74-5.06-44.54-4.39-66.07,1.33l-.12-1.9c2.56-1.23,6.55-3.02,11.59-4.7,24.33-8.14,45.14-4.57,59.98-1.85,10.07,1.84,21.76,3.99,27.42,8.01,1.89,1.34,3.11,2.88,3.37,4.69h0Z"/>
        <path class="cls-2" d="m604.26,200.28c26.22,44.41,31.73,101.16,13.94,149.57-13.7,37.25-40.75,69.52-75.22,89.24-3.85,2.2-8.23,4.12-12.82,5.5,17.13-7.16,29.17-16.39,33.09-19.39,46.33-35.5,52.8-91.46,56.21-120.89,3.42-29.56-3.32-80.36-16.7-103.16l1.49-.87Z"/>
        <path class="cls-2" d="m634.12,125.18l-.71.95c-5.66-4.01-17.36-6.16-27.42-8.01-14.84-2.72-35.65-6.29-59.98,1.85-5.04,1.68-9.03,3.47-11.59,4.7-.18-2.05.1-3.61.36-4.65,0,0,.11-.41.61-1.64l2.75.22c19.84-7.84,41.71-11.71,62.67-7.74,11.82,2.24,23.63,6.99,33.32,14.3h0Z"/>
        <path class="cls-2" d="m612.59,151.83l1.05,2.54c-3.35,1.33-6.62,3.02-9.9,5.14-2.09,1.36-4.09,2.86-5.84,4.64-9.95,10.13-4.49,19.44,1.43,28.28,1.72,2.57,3.36,5.18,4.93,7.84l-1.49.87c-.41-.71-.83-1.37-1.25-2.02-1.71-2.61-11.82-7.81-13.56-17.89-1.56-9,3.7-16.76,4.17-17.44,5.09-7.29,11.96-8.47,20.46-11.96h0Z"/>
        <path class="cls-2" d="m600.61,125.25c6.82,1.59,14.52,4.7,16.34,11.45-13.61,3.05-26.21,10.41-35.56,20.76-2.66,2.94-5.12,6.25-6.04,10.11-1.62,6.78,1.8,13.62,4.8,19.92,36.04,75.46,22.34,166.33-34.71,227.46-5.84,6.26-11.37,12.79-17.5,18.76-5.42,5.28-10.38,9.75-17.3,12.78,6.22.94,13.07.06,19.53-1.9-12.37,5.17-27.4,9.28-43.94,9.17-10.25-.06-12.66-1.68-39.03-3.05-1.33-.07-2.64-.13-3.91-.2-22.84-11.4-49.72-9.29-75.08-3.28,7.13-5.15,13.56-11.39,19.01-18.52,13.32-17.4,20.55-39.66,19.05-61.9-1.11-16.37-12.84-28.23-28.8-27.24-15.02.95-34.97,10.14-48.08-1.7-.06.5-.07.99-.03,1.47-3.45-1.54-6.68-2.94-8.68-4.19-5.56-3.46-7.77-5.87-10.61-17.92,1.08,1.27,2.2,2.5,3.39,3.66,1.03.99,2.5,1.98,3.75,1.3,1.11-.6,1.26-2.12,1.12-3.36-.48-4.18-2.6-7.96-4.69-11.61-3.73-6.54-7.58-13.23-13.38-18.04-4.07-3.39-8.93-5.69-13.81-7.8-4.05-1.76-8.2-3.42-12.57-4.1-1.52-.23-3.07-.34-4.61-.29-2.52-18.09-.67-36.53,5.01-53.92,13.28-40.69,42.91-62.43,53.14-69.71,40.21-28.62,89.4-28.52,136.07-38.24,33.52-6.98,67.52-19.59,90.28-45.17-2.3,2.59-3.5,10.38-4.8,13.64-2.09,5.26-4.32,10.46-6.71,15.59s-4.92,10.19-7.6,15.18-5.51,9.89-8.46,14.72c2.76-.92,5.54-1.75,8.35-2.5,21.52-5.72,44.33-6.39,66.07-1.33h0Zm-112.58,237.62c28.43-10.8,59.61-41.58,50.89-74.68-1.93-7.32-5.55-13.55-10.65-18.05,1.15-2.16,2.29-4.35,3.44-6.52.65-1.23,1.89-3.3,1.33-4.75-1.8-4.66-7.33,3.88-8.27,5.13-.6.79-1.19,1.59-1.77,2.4-3.82-2.14-8.2-3.49-13.1-3.92-1.02-.09-2.05-.14-3.07-.14.91-2.08,1.81-4.15,2.71-6.23.91-2.1,2.68-5.66,1.8-8.03-2.84-7.63-10.71,7.02-12.06,9.17-1.33,2.12-2.62,4.25-3.9,6.41-3.97.94-7.85,2.33-11.56,4-20.85,9.39-42.06,25.56-53.44,45.7-5.46,9.69-7.84,20.44-3.42,31.51,9.44,23.64,40.64,25.75,61.07,17.99h0Zm-75.2-99.18c4.01-.39,19.39-1.13,18.75-7.74-.42-4.41-14.02-7.46-17.56-8.11-6.68-1.2-13.61-1.01-20.21.55-23,5.43-47.62,37.34-32.56,60.68,3.62,5.6,6.98,1.04,9.1-2.99.8-1.52,1.66-3,2.57-4.45,4.66-7.34,11.5-13.66,20.01-16.11,8.79-2.52,20,1.9,27.49-1.75,1.39-.68,1.76-2.49.79-3.71-2.14-2.73-6.61-4.93-9.15-6.17-.79-.39-4.85-2.08-8.29-3.32-2.03-.74-2.16-3.55-.22-4.5,2.71-1.32,5.71-2.06,9.28-2.41h0Zm-29.59-28.65c1.49-1.01,3.11-2.28,3.21-4.08.11-2.02-1.81-3.55-3.67-4.34-4.43-1.88-9.53-1.61-14.16-.29-5.24,1.48-10.03,4.38-13.93,8.17-7.65,7.43-10.31,16.89-11.05,27.21-.22,3.07,2.04,8.99,6.1,7.06,4.18-1.98,6.92-10.21,9.53-13.86,6.06-8.5,15.32-14.04,23.97-19.88h0Z"/>
        <path class="cls-2" d="m575.78,39.6c-2.22,29.55-15.45,58.79-37.65,79.02l-2.75-.22c.3-.71.72-1.69,1.33-3.02.11-.24.24-.5.36-.77,23.63-34.91,27.38-51.15,27.38-51.15,1.39-6.02,1.84-11,2.02-13.87-9.27,6.96-22.27,16.18-38.5,25.97-23.72,14.32-38.92,23.49-60.31,29.88-20.85,6.22-19.74,1.49-61.57,10.14-27.92,5.77-40.95,10.47-45.84,12.31-13.38,5.02-26.37,9.89-40.85,20.18-24.71,17.56-36.99,38.99-42.1,48.13-2.96,5.29-14.19,26.09-17.37,54.74-1.75,15.66.04,23.44,2.24,27.59-.41.17-.81.38-1.21.6-2,1.11-3.74,2.73-4.96,4.67-.9,1.42-2.98,5.56-.74,5.51,1.02-.02,2.53-1.03,3.6-1.27-7.59,5.08-12.89,13.76-13.3,22.88-1.27.51-2.4,1.22-3.2,2.24l1.33-2.53c-1.46,1.8-2.95,3.67-3.5,5.87-.54,2.2.09,4.84,2.21,6.31,1.31.91,2.96,1.24,4.6,1.44.21,2.48.09,4.91-.82,7.23-2.29,5.82-8.7,8.72-14.61,10.8-30.74,10.77-63.68,14.56-96.14,12.88-15.91-.82-31.75-2.96-47.34-6.29-8.42-1.8-36.81-15.72-34.88.19,9.86,81,83.71,144.78,165.69,140.34,34.11-1.86,66.29-14.78,98.61-26.35h0c.17,0,.34.02.5.01,1.12.05,2.24.06,3.36.06,8.23-.07,16.33-1.49,24.06-4.09-1.66,3.01-2.41,5.66-1.38,7.04,3.2,4.29,19.6-9.5,47.92-14.95,12.56-2.42,25.86-1.87,51.28-.56.16.08.33.16.5.24-20.54.07-39.04,4.56-59.41,9.95-21.58,5.72-42.95,13.31-63.44,22.02-46.74,19.88-104.88,37.56-155.62,25.04-30.28-7.47-57.1-25.65-79.02-47.83-24.79-25.08-50.93-59.57-59.47-94.43-3.96-16.19-1.37-33.55,13.95-42.53.88-.51,1.77-.97,2.68-1.38,11.65-5.18,25.71-1.66,38.36,1.51,43.17,10.79,90.48,15,130.82-3.78,7.04-3.28,14.71-8.45,18.03-15.77,2.11-4.66,1.58-9.93,4.14-14.48,1.72-3.04,4.12-5.71,6.97-7.74.93-.67,7.94-4.08,7.78-5.04-.15-.83-.37-2.16-.64-3.79-5.17-31.19,0-63.97,19.13-89.6,39.25-52.61,103.98-72.16,165.73-82.99,15.51-2.72,31.25-3.96,46.4-8.88,18.73-6.09,35.95-15.91,50.84-28.77,13.15-11.37,24.65-24.72,38.16-35.61,7.75-6.26,6.93,8.98,6.63,12.94h0Z"/>
        <path class="cls-2" d="m566.47,49.59c-.18,2.87-.63,7.85-2.02,13.87,0,0-3.75,16.25-27.38,51.15-.12.27-.25.52-.36.77l-2.06-1.01c2.68-4.99,5.22-10.04,7.6-15.18,2.38-5.13,4.62-10.33,6.71-15.59,1.29-3.26,2.5-11.05,4.8-13.64-22.76,25.59-56.76,38.19-90.28,45.17-46.67,9.72-95.86,9.62-136.07,38.24-10.23,7.28-39.86,29.02-53.14,69.71-5.68,17.4-7.53,35.83-5.01,53.92-2.45.07-4.87.54-7.08,1.53-2.2-4.15-3.99-11.93-2.24-27.59,3.19-28.65,14.42-49.45,17.37-54.74,5.11-9.14,17.39-30.57,42.1-48.13,14.47-10.29,27.47-15.16,40.85-20.18,4.89-1.83,17.92-6.54,45.84-12.31,41.83-8.65,40.72-3.92,61.57-10.14,21.39-6.39,36.59-15.56,60.31-29.88,16.23-9.79,29.23-19.01,38.5-25.97h0Z"/>
        <path class="cls-2" d="m538.92,288.19c8.71,33.1-22.46,63.88-50.89,74.68-20.43,7.76-51.63,5.65-61.07-17.99-4.42-11.07-2.04-21.82,3.42-31.51,11.37-20.14,32.59-36.31,53.44-45.7,3.71-1.67,7.59-3.06,11.56-4-1.53,2.61-3.02,5.25-4.43,7.95-.03.07-.08.14-.11.22-.39.1-.77.21-1.17.33-.42.13-.83.25-1.26.39-.83.27-1.66.56-2.48.87-.4.16-.81.32-1.22.48-6.14,2.52-11.68,6.18-16.67,10.5-13.73,11.89-37.71,40.71-20.86,58.79,3.86,4.15,9.07,5.71,14.51,5.99.61.03,1.23.04,1.86.04.62,0,1.24-.02,1.86-.04,3.42-.15,6.82-.69,9.97-1.3,4.33-.84,8.71-1.96,13.03-3.35,7.2-2.31,14.23-5.34,20.6-9.04,1.47-.85,2.93-1.77,4.39-2.76.72-.5,1.43-1,2.15-1.53,1.06-.79,2.11-1.61,3.13-2.48.68-.57,1.35-1.17,2.01-1.77,1.63-1.52,3.18-3.13,4.6-4.83.57-.68,1.11-1.37,1.63-2.08,4.03-5.46,6.67-11.75,6.75-18.71,0-.74-.05-14.15-9.83-23.08,1.5-2.69,2.97-5.4,4.42-8.12,5.1,4.49,8.72,10.72,10.65,18.05h0Z"/>
        <path class="cls-2" d="m533.69,301.34c-.08,6.96-2.72,13.25-6.75,18.71-.52.71-1.06,1.4-1.63,2.08-1.42,1.7-2.97,3.31-4.6,4.83-.65.6-1.33,1.2-2.01,1.77-1.02.86-2.07,1.69-3.13,2.48-.71.53-1.43,1.04-2.15,1.53-1.45.99-2.92,1.91-4.39,2.76-6.38,3.7-13.4,6.73-20.6,9.04-4.32,1.38-8.7,2.5-13.03,3.34-3.14.6-6.55,1.15-9.97,1.31-.63.03-1.25.04-1.86.04-.63,0-1.24-.01-1.86-.04-5.44-.28-10.65-1.83-14.51-5.99-16.85-18.07,7.13-46.89,20.86-58.79,4.99-4.32,10.53-7.98,16.67-10.5.41-.16.81-.33,1.22-.48.82-.31,1.65-.6,2.48-.87.42-.14.83-.26,1.26-.39.39-.11.77-.22,1.17-.32-5,9.59-9.03,19.94-10.47,30.95-.14,1.11-.27,2.22-.36,3.36-.43,5.22,3.04,4.75,5.17,1.08,6.78-11.88,12.58-24.33,18.15-36.91,4.88.15,9.67,1.23,14.08,3.5.16.09.32.17.48.26-3.08,5.14-5.54,10.69-6.57,16.62-.11.66-.21,1.32-.29,2-.37,3.11,1.99,2.94,3.47.8,3.4-4.91,6.45-10.02,9.35-15.22,9.78,8.93,9.84,22.34,9.83,23.08h0Z"/>
        <path class="cls-2" d="m533.04,258.87c.56,1.45-.69,3.52-1.33,4.75-1.14,2.17-2.29,4.36-3.44,6.52-1.61-1.43-3.37-2.69-5.27-3.74.58-.81,1.17-1.6,1.77-2.4.94-1.25,6.47-9.79,8.27-5.13h0Z"/>
        <path class="cls-2" d="m526.94,320.05c-.52.71-1.06,1.4-1.63,2.08.57-.68,1.11-1.37,1.63-2.08Z"/>
        <path class="cls-2" d="m528.27,270.14c-1.46,2.72-2.92,5.43-4.42,8.12-.44-.41-.88-.8-1.36-1.17-1.47-1.17-3.02-2.18-4.61-3.03,0,0,0,0,0,0,.33-.57.69-1.14,1.04-1.7,1.28-2.03,2.65-4.01,4.07-5.95,1.9,1.06,3.66,2.31,5.27,3.74Z"/>
        <path class="cls-2" d="m534.66,114.36l2.06,1.01c-.61,1.33-1.03,2.31-1.33,3.02-.5,1.23-.61,1.64-.61,1.64-.27,1.04-.54,2.59-.36,4.65l.12,1.9c-2.81.74-5.59,1.58-8.35,2.5,2.96-4.83,5.78-9.73,8.46-14.72h0Z"/>
        <path class="cls-2" d="m523.85,278.26c-2.9,5.2-5.96,10.3-9.35,15.22-1.49,2.15-3.84,2.32-3.47-.8.08-.68.18-1.34.29-2,1.03-5.93,3.5-11.48,6.57-16.62,1.59.84,3.14,1.85,4.61,3.03.48.37.92.76,1.36,1.17h0Z"/>
        <path class="cls-2" d="m518.69,328.73c.68-.57,1.35-1.17,2.01-1.77-.65.6-1.33,1.2-2.01,1.77Z"/>
        <path class="cls-2" d="m523,266.4c-1.42,1.94-2.79,3.91-4.07,5.95-.35.56-.71,1.13-1.04,1.7-.16-.09-.31-.17-.48-.25-4.4-2.26-9.2-3.35-14.08-3.5,1.17-2.65,2.33-5.31,3.49-7.96,1.03,0,2.05.05,3.07.14,4.9.43,9.29,1.78,13.1,3.92h0Z"/>
        <path class="cls-2" d="m513.42,332.74c.72-.5,1.44-1,2.15-1.53-.71.53-1.43,1.04-2.15,1.53Z"/>
        <path class="cls-2" d="m517.89,274.05s0,0,0,0c-.15-.1-.31-.17-.48-.26.16.08.31.16.48.25h0Z"/>
        <path class="cls-2" d="m511.34,248.08c.88,2.37-.89,5.93-1.8,8.03-.9,2.08-1.8,4.15-2.71,6.23-3.85-.06-7.68.43-11.44,1.32,1.27-2.15,2.57-4.29,3.9-6.41,1.35-2.16,9.22-16.8,12.06-9.17h0Z"/>
        <path class="cls-2" d="m506.83,262.34c-1.16,2.66-2.32,5.32-3.49,7.96-.7-.03-1.4-.03-2.1-.01-.86.03-1.73.07-2.58.14-.87.08-1.73.18-2.59.3-.86.13-1.71.28-2.57.46-.43.09-.86.19-1.28.28-.46.1-.91.22-1.37.34.03-.07.08-.14.11-.22,1.41-2.69,2.9-5.34,4.43-7.95,3.76-.89,7.6-1.38,11.44-1.32h0Z"/>
        <path class="cls-2" d="m501.23,270.29c.7-.01,1.4-.01,2.1.01-5.57,12.59-11.37,25.04-18.15,36.91-2.13,3.68-5.6,4.14-5.17-1.08.09-1.13.21-2.25.36-3.36,1.44-11.01,5.47-21.36,10.47-30.95h0c.46-.12.92-.25,1.37-.35.42-.1.85-.2,1.28-.28.86-.18,1.71-.33,2.57-.46.86-.12,1.72-.22,2.59-.3.86-.07,1.72-.12,2.58-.14h0Z"/>
        <path class="cls-2" d="m498.65,270.43c.86-.07,1.72-.12,2.58-.14-.86.03-1.73.07-2.58.14Z"/>
        <path class="cls-2" d="m493.49,271.2c.86-.19,1.71-.33,2.57-.46-.86.13-1.71.29-2.57.46Z"/>
        <path class="cls-2" d="m490.84,271.82c.46-.12.92-.24,1.37-.34-.46.1-.92.23-1.37.34Z"/>
        <path class="cls-2" d="m490.84,271.82h0c-.39.11-.77.22-1.17.33.39-.12.78-.23,1.17-.33Z"/>
        <path class="cls-2" d="m485.94,273.41c.82-.31,1.65-.6,2.48-.87-.83.27-1.66.56-2.48.87Z"/>
        <path class="cls-2" d="m475.39,347.87c4.33-.84,8.71-1.96,13.03-3.34-4.33,1.39-8.7,2.51-13.03,3.35-3.14.6-6.55,1.14-9.97,1.3,3.42-.15,6.82-.7,9.97-1.31Z"/>
        <path class="cls-2" d="m461.71,349.18c.61.03,1.23.04,1.86.04-.63,0-1.24-.01-1.86-.04Z"/>
        <path class="cls-2" d="m431.58,255.95c.63,6.61-14.74,7.35-18.75,7.74-3.57.35-6.56,1.09-9.28,2.41-1.94.94-1.81,3.76.22,4.5,3.44,1.24,7.49,2.93,8.29,3.32,2.54,1.24,7.01,3.44,9.15,6.17.96,1.22.6,3.03-.79,3.71-7.48,3.65-18.7-.77-27.49,1.75-8.5,2.45-15.35,8.77-20.01,16.11-.92,1.44-1.77,2.93-2.57,4.45-2.12,4.03-5.48,8.59-9.1,2.99-15.06-23.35,9.57-55.26,32.56-60.68,6.6-1.56,13.53-1.75,20.21-.55,3.54.64,17.14,3.7,17.56,8.11h0Z"/>
        <path class="cls-2" d="m368.2,447.23c25.37-6.02,52.25-8.12,75.08,3.28-25.42-1.31-38.72-1.86-51.28.56-28.32,5.45-44.72,19.24-47.92,14.95-1.02-1.38-.27-4.03,1.38-7.04,8.07-2.71,15.74-6.69,22.73-11.74h0Z"/>
        <path class="cls-2" d="m406.26,366.81c1.5,22.24-5.73,44.5-19.05,61.9-5.45,7.13-11.88,13.38-19.01,18.52-6.11,1.44-12.12,3.1-17.96,4.88,1.2-1.46,2.45-2.83,3.66-4.02,5.52-5.42,10.87-7.71,13.81-9.2,15.88-8.04,24.34-24.25,27.64-30.56,10.6-20.32,12.37-51.69-1.71-61.84-6.28-4.53-16.72-3.49-25.02-2.89-7.5.53-15.06.14-22.52,1.04-.81.1-3.42.44-6.51-.51-1.39-.43-2.36-.95-2.72-1.15-2.38-1.28-5.01-2.48-7.54-3.62-.04-.49-.03-.97.03-1.47,13.12,11.83,33.06,2.64,48.08,1.7,15.95-1,27.69,10.86,28.8,27.24Z"/>
        <path class="cls-2" d="m393.64,346.48c14.07,10.15,12.31,41.52,1.71,61.84-3.3,6.31-11.76,22.52-27.64,30.56-2.94,1.49-8.29,3.78-13.81,9.2-1.22,1.2-2.46,2.57-3.66,4.02-1.79.52-3.55,1.08-5.31,1.62,5.39-3.34,10.16-7.49,15.06-11.77,2.53-2.21,6.91-6.06,12.14-11.77,8.96-9.78,17.12-18.69,21.45-30.87,3.07-8.64,7.26-29.87-1.3-40.59-13.01-16.28-32.63-3.66-49.24-6.62-5.43-.96-13.25-6.51-13.7-12.77,2.53,1.14,5.17,2.34,7.54,3.62.36.2,1.33.72,2.72,1.15,3.09.95,5.69.6,6.51.51,7.46-.9,15.02-.51,22.52-1.04,8.3-.59,18.73-1.64,25.02,2.89h0Z"/>
        <path class="cls-2" d="m317.54,462.99c-32.32,11.57-64.5,24.5-98.61,26.35-81.98,4.44-155.83-59.34-165.69-140.34-1.93-15.91,26.46-1.99,34.88-.19,15.59,3.33,31.43,5.47,47.34,6.29,32.46,1.68,65.4-2.11,96.14-12.88,5.9-2.07,12.32-4.97,14.61-10.8.91-2.32,1.03-4.75.82-7.23.41.05.82.09,1.22.13,21.28,2.14,42.37,7.51,62.07,15.8.55-4.25-1.25-8.7-4.2-12.32-2.96-3.63-7-6.5-11.27-8.91-13-7.33-28.68-10.67-43.45-9.25-1.99.19-4.06.52-5.82,1.24.41-9.11,5.71-17.79,13.3-22.88,1.26-.29,2.55-.43,3.84-.47,2.68-.09,5.37.27,7.99.84,11.72,2.55,22.58,8.91,30.54,17.89,3.11,3.5,5.79,7.38,8.8,10.95,2.84,12.05,5.05,14.46,10.61,17.92,2,1.25,5.22,2.65,8.68,4.19.45,6.26,8.27,11.81,13.7,12.77,16.62,2.96,36.23-9.66,49.24,6.62,8.57,10.72,4.37,31.94,1.3,40.59-4.33,12.18-12.5,21.09-21.45,30.87-5.23,5.71-9.61,9.55-12.14,11.77-4.9,4.28-9.66,8.43-15.06,11.77-3.99,1.25-7.87,2.53-11.66,3.79-5.25,1.75-10.5,3.59-15.73,5.47h0s0,0,0,0Zm59.3-70.63c3.26-23.83-28.63-25.82-44.9-24.33-.82.08-1.69.17-2.35.66-3.6,2.7,5.91,8.46,7.62,9.7,1.41,1.04,2.88,2,4.39,2.9,2.04,1.21,4.09,2.12,6.01,3.55.53.39,1.01.94,1.21,1.54.11.34.14.69.04,1.05-.15.52-.56.93-.96,1.31-13.18,12.73-27.75,23.97-43.03,34.09-15.91,10.53-32.62,19.85-49.81,28.13-9.73,4.68-19.59,9.09-29.43,13.51-5,2.25-10.01,4.5-15,6.79-1.36.63-10.77,3.94-9.81,5.73.23.42.74.61,1.2.72,2.91.75,5.78.16,8.68-.24,4.48-.61,9.19-1.29,13.45-2.27,7.98-1.82,15.98-4.43,23.62-6.94,15.98-5.26,31.91-10.71,47.46-17.1,20.34-8.37,39.53-18.57,57.63-31.01,9.47-6.51,22.36-15.44,23.99-27.8Zm-252.72-.05c.91-1.55,1.61-3.51.73-5.07-.66-1.15-2.03-1.73-3.36-1.78s-2.62.36-3.88.75c-3.36,1.07-6.72,2.12-10.09,3.18-2.71.85-6.83,1.43-8.69,3.85-1.57,2.06-.5,4.87,1.1,6.63,2.09,2.29,5.46,2.71,8.38,2.43,6.44-.61,12.49-4.45,15.8-10h0Zm-10.31-19.79c.81-.95,1.43-2.1,1.1-3.24-.35-1.18-1.66-2.1-3.11-2.55s-3.03-.5-4.56-.5c-5.54,0-14.34.1-18.91,2.75-5.21,3.01,2.07,7.17,5.98,7.96,3.56.71,7.32.87,10.81.17,3.49-.69,6.7-2.27,8.69-4.58h0Z"/>
        <path class="cls-2" d="m331.93,368.04c16.27-1.49,48.16.5,44.9,24.33-1.63,12.36-14.52,21.29-23.99,27.8-18.1,12.44-37.29,22.64-57.63,31.01-15.55,6.39-31.48,11.84-47.46,17.1-7.64,2.51-15.64,5.12-23.62,6.94-4.27.98-8.97,1.65-13.45,2.27-2.89.4-5.77.99-8.68.24-.46-.11-.97-.3-1.2-.72-.96-1.79,8.45-5.1,9.81-5.73,4.99-2.29,9.99-4.54,15-6.79,9.85-4.42,19.71-8.83,29.43-13.51,17.19-8.29,33.91-17.61,49.81-28.13,15.28-10.12,29.85-21.36,43.03-34.09.4-.38.81-.79.96-1.31.1-.36.07-.71-.04-1.05-.2-.6-.68-1.16-1.21-1.54-1.93-1.43-3.98-2.34-6.01-3.55-1.51-.89-2.98-1.86-4.39-2.9-1.71-1.25-11.21-7-7.62-9.7.66-.49,1.53-.58,2.35-.66Z"/>
        <path class="cls-2" d="m386.44,230.97c-.09,1.8-1.72,3.07-3.21,4.08-8.65,5.84-17.91,11.38-23.97,19.88-2.6,3.65-5.35,11.88-9.53,13.86-4.07,1.93-6.33-3.99-6.1-7.06.74-10.32,3.4-19.78,11.05-27.21,3.9-3.79,8.69-6.69,13.93-8.17,4.63-1.32,9.73-1.6,14.16.29,1.86.78,3.78,2.32,3.67,4.34h0Z"/>
        <path class="cls-2" d="m368.2,447.23c-7,5.05-14.67,9.03-22.73,11.74,1.22-2.22,2.92-4.63,4.77-6.86,5.84-1.78,11.85-3.44,17.96-4.88h0Z"/>
        <path class="cls-2" d="m350.24,452.11c-1.85,2.23-3.55,4.64-4.77,6.86-7.73,2.6-15.83,4.03-24.06,4.09-1.12,0-2.24,0-3.36-.06,7.67.12,15.13-3.3,21.97-6.57,1.71-.82,3.33-1.72,4.91-2.7,1.75-.55,3.52-1.1,5.31-1.62Z"/>
        <path class="cls-2" d="m344.94,453.73c-1.58.98-3.2,1.88-4.91,2.7-6.84,3.27-14.31,6.7-21.97,6.57-.17,0-.34,0-.5-.01,5.23-1.88,10.48-3.72,15.73-5.47,3.78-1.26,7.67-2.54,11.66-3.79Z"/>
        <path class="cls-2" d="m318.32,318.83c.14,1.24-.01,2.77-1.12,3.36-1.25.68-2.72-.32-3.75-1.3-1.19-1.16-2.31-2.39-3.39-3.66-.26-1.1-.52-2.28-.8-3.54-.52-2.37-5.77-15.94-22.42-24.19-10.26-5.09-14.7-3.17-19.13-5.39.88-.21,1.77-.38,2.68-.49-.44-2.2-.81-4.42-1.13-6.63,1.54-.06,3.09.05,4.61.29,4.37.68,8.52,2.34,12.57,4.1,4.87,2.11,9.73,4.42,13.81,7.8,5.79,4.81,9.65,11.51,13.38,18.04,2.09,3.65,4.21,7.44,4.69,11.61Z"/>
        <path class="cls-2" d="m306.12,327.83c2.95,3.62,4.74,8.07,4.2,12.32-19.7-8.28-40.79-13.65-62.07-15.8-.41-.04-.82-.08-1.22-.13-.27-3.33-1.13-6.75-1.4-10.1-.08-1.07-.1-2.15-.05-3.22,1.76-.71,3.83-1.05,5.82-1.24,14.77-1.42,30.45,1.92,43.45,9.25,4.27,2.41,8.31,5.29,11.27,8.91h0Z"/>
        <path class="cls-2" d="m309.26,313.69c.27,1.27.54,2.45.8,3.54-3.01-3.56-5.69-7.45-8.8-10.95-7.96-8.98-18.82-15.34-30.54-17.89-2.62-.57-5.31-.93-7.99-.84-1.29.04-2.59.18-3.84.47,2.69-1.81,5.67-3.16,8.83-3.91,4.43,2.22,8.87.3,19.13,5.39,16.64,8.25,21.9,21.83,22.42,24.19h0Z"/>
        <path class="cls-2" d="m269.26,276.99c.31,2.21.68,4.43,1.13,6.63-.91.12-1.8.28-2.68.49-.9-.44-1.8-1.06-2.74-1.93-.84-.78-1.85-1.88-2.79-3.66,2.21-1,4.63-1.46,7.08-1.53h0Z"/>
        <path class="cls-2" d="m264.97,282.18c.94.88,1.84,1.49,2.74,1.93-3.16.75-6.14,2.1-8.83,3.91-1.07.24-2.58,1.25-3.6,1.27-2.24.06-.16-4.09.74-5.51,1.22-1.94,2.95-3.56,4.96-4.67.39-.22.8-.42,1.21-.6.94,1.77,1.95,2.88,2.79,3.66h0Z"/>
        <path class="cls-2" d="m247.02,324.21c-1.64-.19-3.29-.53-4.6-1.44-2.12-1.47-2.75-4.1-2.21-6.31.55-2.2,2.04-4.07,3.5-5.87l-1.33,2.53c.8-1.01,1.92-1.73,3.2-2.24-.06,1.07-.04,2.15.05,3.22.27,3.34,1.13,6.76,1.4,10.1h0Z"/>
        <path d="m124.84,387.25c.88,1.56.17,3.52-.73,5.07-3.31,5.56-9.36,9.39-15.8,10-2.92.28-6.29-.15-8.38-2.43-1.6-1.76-2.67-4.57-1.1-6.63,1.85-2.42,5.97-2.99,8.69-3.85,3.37-1.06,6.73-2.12,10.09-3.18,1.27-.4,2.56-.8,3.88-.75s2.7.62,3.36,1.78h0Z"/>
        <path d="m114.9,369.29c.33,1.14-.28,2.3-1.1,3.24-1.99,2.31-5.19,3.89-8.69,4.58-3.5.7-7.25.54-10.81-.17-3.91-.78-11.19-4.94-5.98-7.96,4.56-2.64,13.37-2.74,18.91-2.75,1.53,0,3.11.05,4.56.5,1.45.45,2.76,1.38,3.11,2.55h0Z"/>
      </g>
      <path d="m348.81,386.39c-.2-.6-.68-1.16-1.21-1.55-1.92-1.43-3.98-2.34-6.02-3.55-1.51-.89-2.98-1.86-4.39-2.89-1.71-1.25-11.21-7-7.61-9.7.66-.49,1.52-.59,2.34-.66,16.28-1.49,48.16.5,44.91,24.32-1.63,12.37-14.53,21.3-23.99,27.8-18.1,12.44-37.3,22.65-57.63,31.01-15.56,6.4-31.48,11.85-47.46,17.1-7.64,2.51-15.64,5.12-23.62,6.94-4.26.97-8.97,1.66-13.45,2.27-2.9.4-5.78.98-8.68.24-.47-.12-.97-.3-1.2-.73-.96-1.79,8.45-5.1,9.81-5.73,4.98-2.29,9.99-4.54,14.99-6.79,9.85-4.42,19.71-8.83,29.43-13.51,17.19-8.28,33.9-17.6,49.81-28.14,15.28-10.11,29.85-21.35,43.03-34.08.4-.38.8-.79.96-1.32.1-.35.08-.71-.04-1.04h0Z"/>
    </g>
    <g>
      <g>
        <path class="cls-9" d="m601.53,199.12c14.19,21.68,21.47,74.72,17.94,105.19-3.41,29.43-9.87,85.39-56.21,120.89-2.74,2.11-9.45,7.25-19.11,12.61h-.01c-14.1,7.83-34.49,16.1-57.9,15.96-.62,0-1.2-.02-1.77-.02-8.86-.23-12.48-1.75-37.27-3.03-28-1.46-41.99-2.18-55.18.36-28.32,5.45-44.72,19.24-47.92,14.95-2.27-3.06,4.25-12.47,9.82-17.93,5.53-5.43,10.88-7.73,13.81-9.2,15.89-8.04,24.34-24.26,27.64-30.56,10.59-20.33,12.37-51.7-1.71-61.84-6.28-4.53-16.71-3.49-25.01-2.89-7.5.53-15.07.14-22.52,1.03-.8.1-3.42.44-6.51-.51-1.38-.42-2.35-.94-2.71-1.13-5.61-3.03-12.75-5.67-16.23-7.82-6.07-3.77-8.14-6.3-11.4-21.46-.52-2.36-5.77-15.94-22.42-24.2-12.33-6.11-16.25-2.11-21.87-7.32-2.79-2.59-7.53-8.87-5.03-31.25,3.19-28.66,14.42-49.46,17.38-54.74,5.1-9.14,17.4-30.57,42.1-48.13,14.48-10.29,27.46-15.16,40.85-20.18,4.9-1.83,17.93-6.54,45.85-12.3,41.83-8.65,40.73-3.92,61.57-10.15,21.39-6.38,36.58-15.55,60.3-29.87,16.23-9.8,29.24-19.01,38.5-25.98-.17,2.87-.63,7.85-2.02,13.87,0,0-3.75,16.24-27.38,51.15-1.99,4.26-2.3,5.42-2.3,5.42-.26,1.03-.52,2.6-.36,4.65,2.57-1.23,6.56-3.01,11.59-4.71,24.33-8.14,45.15-4.57,59.99-1.85,13.41,2.46,29.75,5.47,30.8,12.69.55,3.84-3.43,7.3-8.39,11.5-16.03,13.6-28.34,10.09-36.27,21.48-.48.67-5.72,8.43-4.17,17.43,1.74,10.07,11.85,15.28,13.57,17.89h0Z"/>
        <g>
          <g>
            <path class="cls-3" d="m468.05,284.4c-13.73,11.89-37.71,40.71-20.86,58.78,7.15,7.67,18.88,6.5,28.2,4.69,11.55-2.24,23.44-6.47,33.64-12.38,12.26-7.11,24.49-19.07,24.65-34.16,0-.78-.06-15.37-11.19-24.25-10.88-8.68-25.4-8.27-37.77-3.19-6.14,2.52-11.67,6.19-16.67,10.51h0Z"/>
            <path class="cls-7" d="m497.59,358.53h-.01c-14.42,2.68-29.73,2.71-42.53-4.21-3.86-2.09-7.79-5.51-7.57-9.9,0-.28.04-.57.09-.84.55-3.09,3.18-5.57,6.08-6.9,3.16-1.43,6.69-1.78,10.08-2.52,14.19-3.06,26.28-12.86,34.55-24.79,3.02-4.37,5.59-9.03,7.8-13.85,2.04-4.41,3.77-8.96,5.28-13.58,1.01-3.04,1.65-6.5,3.11-9.44.24-.48.51-.96.8-1.41,1.68-2.6,4.11-3.46,6.72-3.32,1.58.1,3.23.55,4.84,1.2.56.22,1.1.47,1.65.74-.08.15-.15.28-.24.43,5.11,4.5,8.73,10.72,10.65,18.06,7.74,29.41-16,56.97-41.32,70.34h0Z"/>
          </g>
          <g>
            <path d="m480.37,302.78c1.45-11.09,5.53-21.52,10.58-31.18,2.58-4.92,5.41-9.68,8.33-14.35,1.35-2.16,9.22-16.8,12.06-9.17.88,2.37-.89,5.93-1.8,8.03-7.57,17.38-15.02,34.78-24.35,51.11-2.13,3.68-5.6,4.15-5.17-1.08.09-1.13.21-2.25.36-3.36h0Z"/>
            <path d="m531.71,263.62c-1.07,2.03-2.14,4.05-3.21,6.08-.08.15-.15.28-.24.43-1.44,2.72-2.9,5.44-4.41,8.13-2.91,5.18-5.96,10.29-9.35,15.21-1.5,2.14-3.85,2.31-3.48-.8.08-.67.17-1.33.28-1.99,1.03-5.93,3.49-11.49,6.56-16.63.34-.58.69-1.15,1.06-1.71.98-1.57,2.02-3.09,3.08-4.58.33-.46.66-.91.98-1.36.59-.81,1.18-1.6,1.78-2.4.94-1.25,6.47-9.78,8.28-5.14.57,1.46-.69,3.52-1.33,4.76h0Z"/>
          </g>
          <path d="m538.91,288.19c-1.93-7.33-5.54-13.55-10.65-18.06-.46-.41-.92-.8-1.41-1.17-1.22-.95-2.5-1.8-3.86-2.56-3.82-2.13-8.2-3.49-13.09-3.92-1.02-.09-2.04-.13-3.07-.14-3.84-.06-7.68.42-11.44,1.32-3.97.93-7.85,2.32-11.57,4.01-20.84,9.38-42.06,25.56-53.43,45.69-5.46,9.69-7.83,20.44-3.42,31.52,9.44,23.63,40.64,25.75,61.06,17.99,3.17-1.2,6.38-2.66,9.56-4.34h.01c25.32-13.37,49.06-40.93,41.32-70.34h0Zm-8.53,26.29c-.39.78-.81,1.54-1.26,2.29-.31.51-.63,1.02-.95,1.52-.31.46-.62.91-.95,1.36-.45.64-.93,1.26-1.43,1.88-.43.56-.88,1.09-1.36,1.63-.3.34-.6.67-.9.99-.46.5-.94.99-1.42,1.47-3.45,3.42-7.37,6.39-11.35,8.84-.58.37-1.16.7-1.74,1.04-6.37,3.7-13.4,6.74-20.6,9.04-2.88.93-5.79,1.73-8.69,2.41-1.45.34-2.9.65-4.34.93-9.17,1.78-20.65,2.94-27.82-4.31-.13-.13-.26-.25-.38-.39-16.85-18.07,7.13-46.89,20.86-58.78,4.99-4.33,10.54-7.99,16.67-10.51,1.99-.82,4.04-1.52,6.13-2.07.88-.24,1.75-.44,2.64-.63,1.28-.27,2.56-.48,3.86-.63.43-.04.87-.09,1.31-.13.85-.09,1.72-.13,2.58-.14.69-.02,1.39-.02,2.09,0,3.71.11,7.36.77,10.85,2.07.11.05.21.08.31.13.26.1.52.21.78.3.72.3,1.44.64,2.14,1,.16.08.31.16.47.25,1.6.84,3.14,1.85,4.61,3.03.48.38.93.76,1.37,1.18,9.78,8.92,9.83,22.33,9.83,23.07-.05,4.7-1.28,9.09-3.3,13.14h0Z"/>
        </g>
      </g>
      <g>
        <path d="m317.54,463c-.08,0-.16,0-.24-.01,7.93.37,15.66-3.18,22.72-6.56,7.54-3.61,13.64-8.93,19.97-14.47,2.53-2.21,6.91-6.06,12.14-11.77,8.96-9.78,17.12-18.69,21.45-30.86,3.07-8.64,7.26-29.87-1.3-40.59-13.01-16.28-32.62-3.65-49.24-6.61-5.85-1.04-14.49-7.4-13.66-14.25,13.11,11.84,33.06,2.64,48.08,1.7,15.96-1,27.68,10.86,28.8,27.23,1.51,22.24-5.72,44.5-19.04,61.9-15.94,20.84-40.22,34.14-65.8,34.36-1.29.01-2.58-.01-3.86-.07h0Z"/>
        <g>
          <g>
            <g>
              <path d="m43.44,321.59c11.65-5.19,25.71-1.66,38.36,1.5,43.17,10.8,90.48,15,130.81-3.78,7.04-3.28,14.72-8.44,18.03-15.76,2.11-4.66,1.57-9.93,4.14-14.48,1.72-3.04,4.12-5.71,6.97-7.74.93-.66,7.94-4.09,7.78-5.04-.14-.84-.37-2.16-.64-3.79-5.17-31.19,0-63.97,19.13-89.6,39.25-52.61,103.98-72.16,165.74-82.99,15.51-2.72,31.24-3.96,46.39-8.88,18.74-6.08,35.95-15.91,50.84-28.77,13.15-11.37,24.65-24.72,38.16-35.61,7.76-6.25,6.92,8.99,6.63,12.95-2.21,29.55-15.44,58.79-37.65,79.01,19.84-7.84,41.72-11.72,62.67-7.74,13.56,2.58,27.11,8.45,37.46,17.7,2.76,2.47,13.49,12.43,12.16,16.74-1.41,4.56-15.55,4.62-19.17,4.98-10.03,1-18.76,3.55-27.5,9.22-2.09,1.36-4.1,2.85-5.84,4.63-9.95,10.14-4.49,19.45,1.43,28.29,30.41,45.42,37.73,106.1,18.88,157.4-13.69,37.26-40.75,69.52-75.22,89.24-9.28,5.31-21.73,9.01-32.35,7.41,6.92-3.03,11.88-7.5,17.3-12.78,6.13-5.97,11.66-12.51,17.5-18.76,57.05-61.12,70.76-152,34.72-227.46-3.01-6.29-6.41-13.14-4.8-19.92.92-3.86,3.38-7.16,6.04-10.11,9.34-10.35,21.95-17.71,35.56-20.76-1.82-6.76-9.51-9.87-16.33-11.45-24.57-5.72-50.52-4.12-74.42,3.83,5.92-9.65,11.28-19.64,16.06-29.9,2.39-5.13,4.63-10.33,6.71-15.59,1.29-3.26,2.5-11.05,4.8-13.64-22.76,25.58-56.76,38.19-90.28,45.17-46.67,9.72-95.86,9.61-136.08,38.24-10.22,7.28-39.86,29.01-53.14,69.71-6.37,19.53-7.93,40.36-3.89,60.55-14.34,1.81-25.93,16.09-24.76,30.5.48,5.83,2.71,11.88.58,17.32-2.28,5.82-8.7,8.73-14.61,10.79-30.75,10.77-63.68,14.56-96.14,12.88-15.92-.82-31.76-2.96-47.34-6.3-8.43-1.8-36.82-15.71-34.88.19,9.87,81.01,83.71,144.78,165.69,140.34,39.65-2.15,76.68-19.27,114.36-31.82,33.68-11.22,76.6-24.02,110.5-6.77-20.54.06-39.04,4.56-59.41,9.95-21.58,5.71-42.94,13.31-63.44,22.02-46.75,19.87-104.88,37.55-155.63,25.04-30.28-7.47-57.11-25.65-79.02-47.83-24.78-25.08-50.93-59.57-59.47-94.43-3.96-16.18-1.36-33.54,13.95-42.53.88-.52,1.77-.97,2.68-1.38h0Z"/>
              <g>
                <path class="cls-8" d="m585.63,191.8c38.33,79.93,23.79,176.19-36.83,240.92-1.57,1.67-3.12,3.37-4.66,5.09h-.01c-14.1,7.83-34.49,16.1-57.9,15.96-.62,0-1.2-.02-1.77-.02-8.28-4.6-16.69-11.99-16.2-20.43.79-13.43,10.99-26.61,19.86-35.96,10.88-11.48,24.02-21.32,35.62-32.29,47.4-44.8,66.64-109.19,50.35-168.49-5.5-19.99-14.49-41.99-2.81-59.61,3.93-5.91,9.67-10.46,16.37-14.21,6.61.56,13.21,1.58,19.72,3.1,7.24,1.68,15.42,4.98,17.35,12.14-14.45,3.23-27.84,11-37.78,21.97-2.82,3.11-5.44,6.61-6.42,10.71-1.7,7.19,1.91,14.44,5.11,21.11h0Z"/>
                <path class="cls-1" d="m299.25,251.93c-.76,5.57.39,24.05-.73,35.9-.5,5.41-1.47,9.45-3.3,10.26-.7.3-1.44.5-2.21.58-5.26-3.96-11.2-7.03-17.47-9-2.05-1.87-4.02-3.89-5.86-5.95.23-.05.47-.08.7-.11-.44-2.2-.82-4.42-1.12-6.64-2.52-18.09-.67-36.52,5.01-53.9,13.28-40.7,42.91-62.43,53.13-69.71,8.42-5.98,17.21-10.72,26.31-14.55-7.6,8.46-14.32,16.52-15.64,18.29-20.68,27.62-34.2,60.62-38.83,94.82h0Z"/>
                <path class="cls-5" d="m168.21,354.9c-.26,1.06-.72,2.1-1.25,3.01-5.18,8.78-16.18,12.47-26.36,12.56-10.19.1-21.17-5.24-31.31-6.19-10.13-.95-21.23.28-28.82,7.07-2.91,2.61-4.18,8.49-7.44,10.65-3.29,2.19-7.27,2.83-11.17,2.26-4.2-11.24-7.14-23.04-8.62-35.23-1.94-15.9,26.44-1.98,34.87-.18,15.59,3.34,31.44,5.47,47.35,6.3,10.9.56,21.84.5,32.74-.22h0Z"/>
              </g>
            </g>
            <path d="m317.81,323.67c-1.26.67-3.35-1.79-4.36-2.78-4.57-4.41-7.99-9.86-12.19-14.61-2.49-2.8-5.26-5.35-8.25-7.61-5.26-3.96-11.2-7.03-17.47-9-1.59-.51-3.2-.93-4.82-1.29-2.62-.56-5.31-.93-8-.83-1.29.04-2.58.18-3.83.47-1.07.24-2.59,1.25-3.6,1.27-2.25.06-.15-4.09.74-5.52,1.22-1.93,2.96-3.55,4.95-4.65,2.52-1.41,5.39-2.05,8.29-2.15,1.54-.05,3.09.06,4.61.3,4.37.68,8.51,2.33,12.58,4.1,4.19,1.82,8.39,3.77,12.07,6.46.59.43,1.16.87,1.73,1.34,5.79,4.81,9.64,11.5,13.37,18.05,2.09,3.65,4.21,7.43,4.68,11.6.15,1.26.62,4.25-.49,4.85Z"/>
            <path d="m242.39,313.14c1.91-2.41,5.59-3.15,9.01-3.48,14.77-1.41,30.45,1.93,43.45,9.26,4.27,2.41,8.32,5.28,11.27,8.91s4.75,8.07,4.2,12.32c-19.69-8.28-40.79-13.65-62.07-15.8-2.02-.2-4.18-.43-5.82-1.56-2.12-1.46-2.75-4.11-2.21-6.31s2.03-4.06,3.5-5.87"/>
          </g>
          <g>
            <path d="m372.92,301.64c4.66-7.35,11.51-13.66,20.01-16.1,8.78-2.52,19.99,1.89,27.48-1.75,1.39-.68,1.76-2.49.8-3.71-2.15-2.73-6.61-4.94-9.15-6.17-.79-.38-4.85-2.07-8.28-3.32-2.03-.74-2.16-3.55-.22-4.49,2.71-1.32,5.71-2.06,9.27-2.4,4.01-.39,19.39-1.13,18.75-7.74-.42-4.41-14.02-7.47-17.56-8.1-6.68-1.2-13.61-1.01-20.21.55-23,5.43-47.63,37.34-32.56,60.68,3.61,5.6,6.97,1.04,9.1-2.99.8-1.51,1.65-3,2.57-4.44Z"/>
            <path d="m368.61,226.34c4.63-1.31,9.73-1.59,14.17.29,1.86.79,3.78,2.32,3.67,4.34-.09,1.79-1.72,3.07-3.21,4.07-8.65,5.85-17.91,11.38-23.97,19.89-2.6,3.64-5.35,11.87-9.52,13.86-4.07,1.94-6.33-3.99-6.11-7.06.74-10.32,3.4-19.78,11.05-27.22,3.9-3.79,8.68-6.69,13.92-8.17h0Z"/>
          </g>
        </g>
      </g>
    </g>
  </g>
  <g>
    <path class="cls-3" d="m448.26,449.32l30.06-13.46c4.89-2.18,10.91.64,10.91,5.11h0c0,2.14-1.46,4.11-3.81,5.14l-13.82,6.03c-5.12,2.24-5.08,8.13.09,10.32l13.64,5.76c2.41,1.01,3.9,3.01,3.9,5.18v.09c0,4.44-5.94,7.26-10.83,5.15l-30.07-13.03c-2.36-1.02-3.83-3-3.83-5.15v-6.04c0-2.11,1.43-4.08,3.75-5.11h0Z"/>
    <path class="cls-3" d="m543.39,422.43l-17.91,71.79c-.69,2.74-3.7,4.72-7.19,4.72h-.02c-4.62,0-8.1-3.38-7.19-7l17.91-71.79c.69-2.74,3.7-4.72,7.19-4.72h.02c4.62,0,8.1,3.38,7.19,7Z"/>
    <path class="cls-3" d="m606.16,465.63l-30.06,13.03c-4.88,2.11-10.83-.71-10.83-5.15v-.09c0-2.17,1.5-4.16,3.9-5.18l13.64-5.76c5.16-2.18,5.22-8.08.09-10.32l-13.82-6.03c-2.35-1.02-3.81-3-3.81-5.14h0c0-4.47,6.03-7.3,10.91-5.11l30.06,13.46c2.31,1.03,3.75,2.99,3.75,5.11v6.04c0,2.15-1.48,4.13-3.83,5.15h-.01Z"/>
  </g>
</svg>