<svg width="362" height="245" viewBox="0 0 362 245" fill="none" xmlns="http://www.w3.org/2000/svg">
<g opacity="0.9">
<path d="M350.494 152.132C352.572 123.638 304.168 96.9051 242.381 92.4232C180.593 87.9414 128.82 107.407 126.742 135.902C124.664 164.396 173.068 191.129 234.855 195.611C296.643 200.092 348.416 180.626 350.494 152.132Z" stroke="white" stroke-width="0.8" stroke-miterlimit="10"/>
<path d="M346.396 146.204C347.215 118.34 298.902 94.3188 238.486 92.5516C178.069 90.7844 128.428 111.94 127.608 139.805C126.789 167.669 175.102 191.69 235.518 193.457C295.935 195.224 345.576 174.068 346.396 146.204Z" stroke="white" stroke-width="0.8" stroke-miterlimit="10"/>
<path d="M236.166 191.284C295.213 190.328 342.721 167.476 342.277 140.243C341.834 113.01 293.608 91.7087 234.561 92.6646C175.514 93.6205 128.006 116.472 128.449 143.705C128.892 170.938 177.119 192.24 236.166 191.284Z" stroke="white" stroke-width="0.8" stroke-miterlimit="10"/>
<path d="M236.832 189.107C294.507 185.428 339.879 160.883 338.173 134.284C336.467 107.685 288.329 89.1052 230.653 92.7844C172.978 96.4637 127.606 121.009 129.312 147.608C131.018 174.207 179.156 192.787 236.832 189.107Z" stroke="white" stroke-width="0.8" stroke-miterlimit="10"/>
<path d="M237.486 186.938C293.789 180.541 337.027 154.306 334.061 128.342C331.095 102.378 283.047 86.5161 226.744 92.9136C170.441 99.3112 127.203 125.545 130.17 151.51C133.136 177.474 181.183 193.336 237.486 186.938Z" stroke="white" stroke-width="0.8" stroke-miterlimit="10"/>
<path d="M238.145 184.758C293.076 175.64 334.179 147.716 329.952 122.389C325.724 97.0613 277.768 83.921 222.838 93.0391C167.908 102.157 126.805 130.081 131.032 155.408C135.259 180.736 183.215 193.876 238.145 184.758Z" stroke="white" stroke-width="0.8" stroke-miterlimit="10"/>
<path d="M238.807 182.57C292.364 170.729 331.332 141.115 325.843 116.426C320.355 91.7361 272.489 81.3205 218.932 93.1616C165.375 105.003 126.407 134.617 131.896 159.306C137.384 183.996 185.25 194.412 238.807 182.57Z" stroke="white" stroke-width="0.8" stroke-miterlimit="10"/>
<path d="M239.461 180.394C291.643 165.834 328.476 134.534 321.728 110.482C314.981 86.4298 267.209 78.7346 215.026 93.2942C162.844 107.854 126.011 139.154 132.759 163.206C139.506 187.258 187.278 194.953 239.461 180.394Z" stroke="white" stroke-width="0.8" stroke-miterlimit="10"/>
<path d="M240.116 178.208C290.925 160.928 325.624 127.942 317.619 104.53C309.614 81.1186 261.935 76.1476 211.126 93.4272C160.317 110.707 125.618 143.693 133.623 167.105C141.628 190.517 189.307 195.488 240.116 178.208Z" stroke="white" stroke-width="0.8" stroke-miterlimit="10"/>
<path d="M240.765 176.018C290.198 156.02 322.763 121.35 313.502 98.5807C304.24 75.8112 256.659 73.5645 207.226 93.5626C157.794 113.561 125.228 148.231 134.49 171C143.751 193.77 191.333 196.016 240.765 176.018Z" stroke="white" stroke-width="0.8" stroke-miterlimit="10"/>
<path d="M241.412 173.827C289.47 151.11 319.903 114.757 309.386 92.6301C298.87 70.5029 251.387 70.9806 203.329 93.6971C155.272 116.414 124.839 152.767 135.355 174.894C145.872 197.021 193.355 196.543 241.412 173.827Z" stroke="white" stroke-width="0.8" stroke-miterlimit="10"/>
<path d="M242.045 171.661C288.731 146.235 317.038 108.203 305.272 86.7161C293.505 65.229 246.12 68.4228 199.435 93.8496C152.75 119.276 124.443 157.308 136.209 178.795C147.976 200.282 195.36 197.088 242.045 171.661Z" stroke="white" stroke-width="0.8" stroke-miterlimit="10"/>
<path d="M242.693 169.457C288.001 141.311 314.176 101.597 301.157 80.7537C288.138 59.9108 240.855 65.8319 195.548 93.9788C150.24 122.126 124.065 161.84 137.084 182.683C150.103 203.525 197.386 197.604 242.693 169.457Z" stroke="white" stroke-width="0.8" stroke-miterlimit="10"/>
<path d="M243.328 167.272C287.26 136.411 311.307 95.0174 297.038 74.8158C282.77 54.6142 235.59 63.2551 191.658 94.1157C147.727 124.976 123.68 166.37 137.948 186.572C152.216 206.774 199.396 198.133 243.328 167.272Z" stroke="white" stroke-width="0.8" stroke-miterlimit="10"/>
<path d="M243.965 165.076C286.52 131.499 308.439 88.4238 292.922 68.8648C277.406 49.3058 230.33 60.6695 187.775 94.2463C145.22 127.823 123.301 170.898 138.818 190.457C154.334 210.016 201.411 198.652 243.965 165.076Z" stroke="white" stroke-width="0.8" stroke-miterlimit="10"/>
<path d="M244.592 162.907C285.775 126.621 305.574 81.8682 288.814 62.9489C272.054 44.0297 225.081 58.1083 183.898 94.3945C142.715 130.681 122.916 175.433 139.676 194.353C156.436 213.272 203.409 199.193 244.592 162.907Z" stroke="white" stroke-width="0.8" stroke-miterlimit="10"/>
<path d="M245.22 160.719C285.029 121.719 302.704 75.2856 284.7 57.0074C266.695 38.7291 219.829 55.5276 180.02 94.5278C140.211 133.528 122.535 179.961 140.54 198.24C158.544 216.518 205.411 199.719 245.22 160.719Z" stroke="white" stroke-width="0.8" stroke-miterlimit="10"/>
<path d="M245.846 158.534C284.28 116.822 299.833 68.7073 280.585 51.0679C261.337 33.4284 214.576 52.9437 176.142 94.6564C137.708 136.369 122.154 184.484 141.403 202.123C160.651 219.762 207.412 200.247 245.846 158.534Z" stroke="white" stroke-width="0.8" stroke-miterlimit="10"/>
<path d="M246.468 156.356C283.529 111.932 296.962 62.1363 276.471 45.1348C255.981 28.1332 209.327 50.3636 172.266 94.7877C135.205 139.212 121.772 189.007 142.263 206.009C162.753 223.01 209.408 200.78 246.468 156.356Z" stroke="white" stroke-width="0.8" stroke-miterlimit="10"/>
<path d="M247.091 154.19C282.783 107.057 294.101 55.5801 272.37 39.2137C250.64 22.8472 204.09 47.7888 168.398 94.9223C132.706 142.056 121.388 193.533 143.119 209.899C164.85 226.266 211.4 201.324 247.091 154.19Z" stroke="white" stroke-width="0.8" stroke-miterlimit="10"/>
<path d="M247.717 151.999C282.031 102.151 291.224 48.9905 268.25 33.2612C245.276 17.5319 198.834 45.1903 164.52 95.038C130.206 144.886 121.014 198.046 143.988 213.775C166.962 229.505 213.403 201.846 247.717 151.999Z" stroke="white" stroke-width="0.8" stroke-miterlimit="10"/>
<path d="M248.335 149.829C281.279 97.271 288.356 42.4274 264.143 27.3322C239.929 12.237 193.594 42.6065 160.65 95.1644C127.706 147.722 120.629 202.566 144.843 217.661C169.056 232.756 215.391 202.387 248.335 149.829Z" stroke="white" stroke-width="0.8" stroke-miterlimit="10"/>
</g>
<path d="M138.228 148.841C139.902 148.841 141.735 148.581 143.727 148.057C145.719 147.533 147.585 146.785 149.332 145.81C151.076 144.835 152.542 143.584 153.732 142.049C154.917 140.517 155.512 138.778 155.512 136.824C155.512 135.293 154.986 133.989 153.939 132.908C152.893 131.828 151.634 130.942 150.167 130.243C148.701 129.549 147.145 129.025 145.507 128.675C143.866 128.326 142.452 128.151 141.267 128.151C139.242 128.151 137.287 128.395 135.401 128.882C133.515 129.37 131.645 129.894 129.796 130.45C127.947 131.007 126.093 131.531 124.244 132.019C122.395 132.506 120.488 132.75 118.537 132.75C117.071 132.75 115.62 132.543 114.191 132.124C112.761 131.706 111.449 131.08 110.264 130.243C109.074 129.406 108.064 128.399 107.225 127.213C106.386 126.031 105.795 124.706 105.445 123.244C103.836 121.505 102.687 119.555 101.987 117.394C101.286 115.237 100.94 113.006 100.94 110.707C100.94 107.851 101.53 105.085 102.72 102.404C103.905 99.7223 105.494 97.3539 107.486 95.3024C109.474 93.2509 111.795 91.6137 114.451 90.395C117.103 89.1763 119.861 88.5669 122.725 88.5669C125.588 88.5669 128.065 89.0016 130.159 89.871C132.252 90.7444 134.191 91.7153 135.971 92.7959C137.752 93.8765 139.462 94.8515 141.104 95.7208C142.746 96.5943 144.579 97.0249 146.603 97.0249C148.835 97.0249 150.53 96.4155 151.683 95.1968C152.836 93.9781 153.41 92.2881 153.41 90.131C153.41 89.4363 153.373 88.9122 153.304 88.5629C154.628 89.3997 155.711 90.5819 156.551 92.1134C157.39 93.6449 157.809 95.213 157.809 96.8136C157.809 100.575 156.693 103.358 154.457 105.17C152.22 106.982 149.288 107.884 145.658 107.884C143.772 107.884 142.045 107.607 140.473 107.047C138.9 106.49 137.279 105.865 135.601 105.166C133.927 104.471 132.11 103.846 130.155 103.285C128.199 102.729 125.861 102.448 123.136 102.448C120.83 102.448 118.684 102.903 116.696 103.805C114.708 104.711 112.977 105.93 111.51 107.461C110.044 108.993 108.891 110.788 108.052 112.84C107.213 114.895 106.797 117.036 106.797 119.263C106.797 120.376 106.956 121.493 107.27 122.606C107.584 123.719 108.162 124.662 108.997 125.425C109.417 125.567 109.836 125.669 110.256 125.738C110.675 125.807 111.095 125.844 111.514 125.844C113.885 125.844 116.174 125.356 118.374 124.381C120.574 123.406 122.79 122.33 125.026 121.143C127.258 119.961 129.596 118.881 132.045 117.906C134.489 116.931 137.177 116.443 140.11 116.443C142.065 116.443 144.159 116.703 146.395 117.227C148.628 117.751 150.705 118.552 152.628 119.628C154.546 120.709 156.135 122.102 157.394 123.804C158.652 125.511 159.28 127.55 159.28 129.914C159.28 132.071 158.929 134.058 158.233 135.866C158.583 137.397 158.758 138.791 158.758 140.042C158.758 143.109 158.094 145.961 156.771 148.605C155.443 151.254 153.699 153.533 151.532 155.447C149.365 157.364 146.888 158.875 144.098 159.988C141.304 161.101 138.444 161.658 135.511 161.658C132.855 161.658 130.468 161.26 128.338 160.455C126.207 159.655 124.268 158.68 122.525 157.531C120.777 156.381 119.189 155.113 117.759 153.72C116.325 152.327 114.932 151.055 113.571 149.909C112.211 148.76 110.85 147.785 109.486 146.985C108.125 146.184 106.675 145.782 105.139 145.782C104.581 145.782 103.864 145.851 102.993 145.989C102.121 146.131 101.437 146.371 100.952 146.72C100.952 145.465 101.282 144.303 101.946 143.223C102.61 142.142 103.429 141.24 104.406 140.509C105.384 139.778 106.5 139.205 107.759 138.787C109.013 138.368 110.203 138.161 111.319 138.161C113.624 138.161 115.527 138.421 117.026 138.945C118.525 139.469 119.853 140.131 121.006 140.927C122.158 141.728 123.238 142.581 124.252 143.487C125.262 144.393 126.383 145.246 127.605 146.046C128.827 146.846 130.277 147.509 131.951 148.033C133.625 148.557 135.723 148.817 138.236 148.817L138.228 148.841Z" fill="#32E6F9"/>
<path d="M165.146 148.528V93.2753C165.146 92.3693 164.763 91.4634 163.993 90.5616C163.223 89.6556 162.457 88.9935 161.687 88.5791H179.598C186.299 88.5791 192.01 89.3103 196.723 90.7728C201.436 92.2353 205.273 94.5184 208.243 97.6139C211.208 100.714 213.375 104.646 214.736 109.415C216.096 114.185 216.777 119.913 216.777 126.595C216.777 132.864 215.868 138.226 214.056 142.682C212.239 147.139 209.656 150.779 206.304 153.598C202.951 156.417 198.886 158.473 194.104 159.761C189.322 161.049 183.961 161.695 178.026 161.695H161.687C162.665 159.883 163.484 157.742 164.148 155.272C164.812 152.802 165.142 150.555 165.142 148.536L165.146 148.528ZM168.498 158.241H178.03C182.499 158.241 186.478 157.287 189.969 155.369C193.46 153.456 196.393 150.929 198.768 147.797C201.139 144.665 202.955 141.114 204.214 137.141C205.469 133.172 206.1 129.171 206.1 125.129C206.1 120.116 205.697 115.537 204.894 111.394C204.092 107.25 202.642 103.699 200.548 100.738C198.454 97.7805 195.591 95.4974 191.961 93.8968C188.332 92.2962 183.688 91.4959 178.034 91.4959V152.806L168.502 158.237L168.498 158.241Z" fill="#32E6F9"/>
<path d="M262.754 88.5751C267.711 88.5751 271.447 89.8791 273.96 92.4913C276.473 95.1034 277.732 98.2883 277.732 102.05C277.732 105.393 276.877 108.367 275.166 110.979C273.455 113.591 271.377 115.521 268.933 116.776C269.491 115.245 269.772 113.575 269.772 111.763C269.772 109.813 269.422 108.002 268.726 106.332C268.025 104.662 267.068 103.2 265.846 101.944C264.624 100.693 263.157 99.7183 261.446 99.0196C259.735 98.3249 257.866 97.9755 255.841 97.9755C252.212 97.9755 248.77 99.0399 245.523 101.16C242.277 103.285 239.413 105.983 236.936 109.257C234.456 112.531 232.484 116.135 231.018 120.067C229.551 124.003 228.818 127.814 228.818 131.503C228.818 133.245 229.026 135.228 229.445 137.458C229.865 139.688 230.578 141.777 231.592 143.726C232.602 145.676 233.963 147.33 235.678 148.687C237.388 150.044 239.568 150.722 242.224 150.722C244.387 150.722 246.533 150.271 248.664 149.365C250.794 148.459 252.819 147.277 254.737 145.815C256.656 144.352 258.436 142.731 260.078 140.956C261.719 139.181 263.096 137.422 264.216 135.683C264.216 137.076 263.988 138.47 263.536 139.859C263.08 141.252 262.575 142.508 262.017 143.621C260.827 146.196 259.381 148.581 257.67 150.775C255.959 152.968 254.057 154.866 251.963 156.466C249.869 158.067 247.601 159.338 245.156 160.277C242.712 161.215 240.162 161.686 237.511 161.686C234.227 161.686 231.47 161.024 229.237 159.704C227.001 158.384 225.205 156.673 223.844 154.585C222.484 152.497 221.506 150.145 220.911 147.537C220.317 144.925 220.019 142.366 220.019 139.859C220.019 136.17 220.561 132.356 221.64 128.423C222.724 124.491 224.239 120.628 226.195 116.829C228.15 113.035 230.451 109.432 233.107 106.019C235.759 102.607 238.676 99.6127 241.853 97.0371C245.03 94.4615 248.383 92.4059 251.906 90.8744C255.43 89.3429 259.043 88.5751 262.746 88.5751H262.754Z" fill="#32E6F9"/>
<path d="M312.067 121.83L305.7 112.608L300.262 121.83H289.899L300.539 105.101L289.525 89.16H300.258L306.438 98.1502L311.733 89.16H322.096L311.595 105.613L322.792 121.834H312.059L312.067 121.83Z" fill="#DDDDDD"/>
<path d="M312.067 161.69L305.7 152.469L300.262 161.69H289.899L300.539 144.961L289.525 129.021H300.258L306.438 138.011L311.733 129.021H322.096L311.595 145.473L322.792 161.695H312.059L312.067 161.69Z" fill="#DDDDDD"/>
<path d="M351.091 121.83L344.724 112.608L339.286 121.83H328.923L339.563 105.101L328.548 89.16H339.282L345.461 98.1502L350.757 89.16H361.12L350.618 105.613L361.816 121.834H351.083L351.091 121.83Z" fill="#DDDDDD"/>
<path d="M349.743 129.016V161.69H340.634V129.016H349.743Z" fill="#DDDDDD"/>
<path d="M361.568 138.1H328.805V129.016H361.568V138.1Z" fill="#DDDDDD"/>
<path d="M361.568 161.69H328.805V152.607H361.568V161.69Z" fill="#DDDDDD"/>
<g clip-path="url(#clip0_549_909)">
<path d="M18.7574 94.7589L18.7574 24.2411H0.252495L0.252495 94.7589H18.7574Z" fill="black" stroke="#DDDDDD" stroke-miterlimit="10"/>
<path d="M8.90094 36.7696C9.56926 36.1765 10.1336 35.5544 10.594 34.9082C11.0544 34.262 11.2871 33.6255 11.2871 32.9985C11.2871 32.4102 11.1386 31.9473 10.8465 31.6049C10.5544 31.2625 10.0792 31.0937 9.43064 31.0937C8.78213 31.0937 8.30688 31.2866 7.96035 31.6724C7.61381 32.0582 7.42569 32.5742 7.39599 33.2156H6.16827C6.20292 32.2029 6.51975 31.4168 7.11876 30.8622C7.71282 30.3077 8.48015 30.0328 9.42074 30.0328C10.3613 30.0328 11.1386 30.2932 11.7029 30.8092C12.2673 31.3252 12.5495 32.0389 12.5495 32.9407C12.5495 33.693 12.3168 34.426 11.8564 35.1349C11.396 35.8486 10.8712 36.4707 10.2871 37.0108C9.70292 37.5509 8.95044 38.1778 8.03955 38.8915H12.8415V39.9235H6.12866V39.041C7.31183 38.1151 8.23757 37.358 8.90589 36.7648L8.90094 36.7696Z" fill="#DDDDDD"/>
<path d="M6.68806 47.6827C7.20786 46.8099 8.11876 46.371 9.42074 46.371C10.7227 46.371 11.6188 46.8099 12.1435 47.6827C12.6633 48.5556 12.9257 49.7756 12.9257 51.3333C12.9257 52.8909 12.6633 54.1495 12.1435 55.032C11.6237 55.9097 10.7178 56.3486 9.42074 56.3486C8.12371 56.3486 7.20786 55.9097 6.68806 55.032C6.16826 54.1544 5.90588 52.9198 5.90588 51.3333C5.90588 49.7467 6.16826 48.5604 6.68806 47.6827ZM11.5098 49.3272C11.4009 48.7774 11.1831 48.3386 10.8564 48.001C10.5247 47.6634 10.0494 47.4995 9.42569 47.4995C8.80192 47.4995 8.31182 47.6683 7.98014 48.001C7.64846 48.3386 7.43064 48.7774 7.32668 49.3272C7.21776 49.8769 7.16826 50.5424 7.16826 51.3333C7.16826 52.1241 7.22272 52.833 7.32668 53.3876C7.43559 53.9422 7.65341 54.3858 7.98014 54.7186C8.31182 55.0562 8.79202 55.2201 9.42569 55.2201C10.0593 55.2201 10.5247 55.0513 10.8564 54.7186C11.1881 54.381 11.4059 53.9374 11.5098 53.3876C11.6188 52.833 11.6683 52.1531 11.6683 51.3333C11.6683 50.5135 11.6138 49.8769 11.5098 49.3272Z" fill="#DDDDDD"/>
<path d="M8.90094 69.3883C9.56926 68.7951 10.1336 68.1731 10.594 67.5269C11.0544 66.8807 11.2871 66.2441 11.2871 65.6172C11.2871 65.0289 11.1386 64.5659 10.8465 64.2235C10.5544 63.8811 10.0792 63.7124 9.43064 63.7124C8.78213 63.7124 8.30688 63.9052 7.96035 64.291C7.61381 64.6768 7.42569 65.1928 7.39599 65.8342H6.16827C6.20292 64.8215 6.51975 64.0355 7.11876 63.4809C7.71282 62.9263 8.48015 62.6514 9.42074 62.6514C10.3613 62.6514 11.1386 62.9118 11.7029 63.4278C12.2673 63.9438 12.5495 64.6575 12.5495 65.5593C12.5495 66.3116 12.3168 67.0446 11.8564 67.7535C11.396 68.4672 10.8712 69.0893 10.2871 69.6294C9.70292 70.1695 8.95044 70.7964 8.03955 71.5101H12.8415V72.5421H6.12866V71.6596C7.31183 70.7337 8.23757 69.9766 8.90589 69.3835L8.90094 69.3883Z" fill="#DDDDDD"/>
<path d="M5.59406 86.7778V85.8423L10.4901 79.2356H12.0099V85.7072H13.4059V86.7826H12.0099V88.972H10.7525V86.7826H5.58911L5.59406 86.7778ZM10.8119 80.528L7.05941 85.7072H10.8119V80.528Z" fill="#DDDDDD"/>
</g>
<g clip-path="url(#clip1_549_909)">
<path d="M13 226.584C13 224.143 10.9866 222.167 8.5 222.167C6.01338 222.167 4 224.143 4 226.584C4 229.024 6.01338 231 8.5 231C10.9866 231 13 229.024 13 226.584Z" fill="white"/>
<path d="M12.5526 214.744C12.5526 212.549 10.7371 210.767 8.50003 210.767C6.26294 210.767 4.44745 212.549 4.44745 214.744C4.44745 216.94 6.26294 218.722 8.50003 218.722C10.7371 218.722 12.5526 216.94 12.5526 214.744Z" fill="white"/>
<path d="M8.49994 206.452C6.50886 206.452 4.89478 204.868 4.89478 202.913C4.89478 200.959 6.50886 199.375 8.49994 199.375C10.491 199.375 12.1051 200.959 12.1051 202.913C12.1051 204.868 10.491 206.452 8.49994 206.452Z" fill="white"/>
<path d="M11.6577 191.074C11.6577 189.36 10.2466 187.975 8.49997 187.975C6.75332 187.975 5.34223 189.36 5.34223 191.074C5.34223 192.789 6.75332 194.173 8.49997 194.173C10.2466 194.173 11.6577 192.789 11.6577 191.074Z" fill="white"/>
<path d="M11.2017 179.244C11.2017 177.774 9.98847 176.583 8.49134 176.583C6.9942 176.583 5.78101 177.774 5.78101 179.244C5.78101 180.713 6.9942 181.904 8.49134 181.904C9.98847 181.904 11.2017 180.713 11.2017 179.244Z" fill="white"/>
<path d="M10.7543 167.404C10.7543 166.18 9.74758 165.192 8.49997 165.192C7.25236 165.192 6.24567 166.18 6.24567 167.404C6.24567 168.629 7.25236 169.617 8.49997 169.617C9.74758 169.617 10.7543 168.629 10.7543 167.404Z" fill="white"/>
<path d="M10.3069 155.565C10.3069 154.586 9.49809 153.792 8.5 153.792C7.50191 153.792 6.69312 154.586 6.69312 155.565C6.69312 156.545 7.50191 157.338 8.5 157.338C9.49809 157.338 10.3069 156.545 10.3069 155.565Z" fill="white"/>
<path d="M9.8595 143.734C9.8595 143 9.2486 142.4 8.50003 142.4C7.75147 142.4 7.14057 143 7.14057 143.734C7.14057 144.469 7.75147 145.069 8.50003 145.069C9.2486 145.069 9.8595 144.469 9.8595 143.734Z" fill="white"/>
<path d="M9.41199 131.895C9.41199 131.397 9.00759 131 8.49994 131C7.99229 131 7.5879 131.397 7.5879 131.895C7.5879 132.393 7.99229 132.79 8.49994 132.79C9.00759 132.79 9.41199 132.393 9.41199 131.895Z" fill="white"/>
</g>
<g clip-path="url(#clip2_549_909)">
<path d="M59.9205 229.665C59.9205 230.17 59.8222 230.569 59.6326 230.868C59.436 231.167 59.1692 231.388 58.8252 231.537C58.4811 231.687 58.0809 231.786 57.6245 231.836C57.1681 231.886 56.6766 231.907 56.143 231.907H54.8861V230.754H56.143C57.147 230.754 57.8702 230.683 58.3056 230.54C58.7409 230.398 58.9586 230.085 58.9586 229.615C58.9586 229.287 58.8813 229.052 58.7198 228.903C58.5583 228.753 58.3126 228.661 57.9685 228.625C57.6245 228.59 57.1751 228.568 56.6204 228.568C56.0096 228.568 55.504 228.654 55.1178 228.825C54.7246 228.995 54.3455 229.28 53.9804 229.672L53.2712 230.434C53.0535 230.669 52.8078 230.904 52.534 231.146C52.2601 231.388 51.9442 231.587 51.579 231.751C51.2139 231.915 50.7997 231.993 50.3292 231.993C49.7324 231.993 49.1988 231.936 48.7424 231.822C48.286 231.708 47.9209 231.487 47.6611 231.167C47.4013 230.839 47.2749 230.362 47.2749 229.729C47.2749 229.223 47.3662 228.824 47.5558 228.533C47.7453 228.241 48.0122 228.027 48.3492 227.899C48.6862 227.764 49.0864 227.685 49.5358 227.65C49.9922 227.614 50.4837 227.6 51.0173 227.6H51.7195V228.675H50.9331C50.245 228.675 49.7113 228.703 49.3181 228.768C48.9249 228.832 48.6581 228.938 48.4966 229.088C48.3351 229.237 48.2579 229.458 48.2579 229.736C48.2579 229.999 48.3141 230.22 48.4194 230.384C48.5317 230.548 48.7213 230.669 48.9952 230.74C49.269 230.811 49.6552 230.847 50.1537 230.847C50.5258 230.847 50.8277 230.804 51.0665 230.718C51.2982 230.633 51.5158 230.498 51.7054 230.32C51.895 230.142 52.1267 229.914 52.3935 229.65L53.1308 228.917C53.5872 228.447 54.0997 228.077 54.6615 227.806C55.2232 227.536 55.8972 227.401 56.6906 227.401C57.3366 227.401 57.8983 227.457 58.3828 227.571C58.8673 227.685 59.2394 227.906 59.5133 228.234C59.7871 228.561 59.9135 229.038 59.9135 229.672L59.9205 229.665Z" fill="#DDDDDD"/>
<path d="M59.7801 221.413H47.4364V217.988H48.3632V220.245H53.0184V218.123H53.9663V220.245H58.8462V217.995H59.7801V221.413Z" fill="#DDDDDD"/>
<path d="M59.7801 211.879H47.4364V210.548L57.6596 208.59L47.4364 206.703V205.371H59.7731V206.418H54.6544L49.7816 206.261L59.5835 208.077V209.102L49.7816 210.982L54.6544 210.832H59.7731V211.879H59.7801Z" fill="#DDDDDD"/>
<path d="M59.7801 199.633L47.4435 197.653V196.379L59.7801 194.2V195.325L57.2946 195.717V198.152L59.7801 198.515V199.633ZM56.4028 198.009V195.866L49.5218 196.977V196.991L56.4028 198.009Z" fill="#DDDDDD"/>
<path d="M59.7801 188.412H47.4364V187.572L56.6626 184.546L52.6042 184.667H47.4364V183.634H59.7731V184.531L50.7084 187.394L53.9804 187.315H59.7731V188.412H59.7801Z" fill="#DDDDDD"/>
<path d="M59.7801 177.853L47.4435 175.873V174.599L59.7801 172.42V173.545L57.2946 173.937V176.372L59.7801 176.735V177.853ZM56.4028 176.229V174.086L49.5218 175.197V175.211L56.4028 176.229Z" fill="#DDDDDD"/>
<path d="M59.7801 158.935H47.4364V156.885C47.4364 156.215 47.5768 155.71 47.8577 155.354C48.1385 155.005 48.5388 154.763 49.0584 154.635C49.5779 154.507 50.1888 154.442 50.905 154.442H56.2343C57.0768 154.442 57.7649 154.521 58.2845 154.685C58.8041 154.848 59.1833 155.112 59.422 155.475C59.6607 155.838 59.7801 156.329 59.7801 156.942V158.942V158.935ZM58.8041 157.767V156.927C58.8041 156.628 58.7409 156.379 58.6075 156.187C58.4741 155.995 58.2213 155.845 57.8492 155.753C57.4771 155.66 56.9364 155.61 56.2272 155.61H50.8207C49.9501 155.61 49.3252 155.71 48.946 155.916C48.5739 156.123 48.3843 156.443 48.3843 156.877V157.767H58.8041Z" fill="#DDDDDD"/>
<path d="M59.7801 148.846L47.4435 146.867V145.592L59.7801 143.414V144.539L57.2946 144.93V147.365L59.7801 147.728V148.846ZM56.4028 147.223V145.08L49.5218 146.19V146.205L56.4028 147.223Z" fill="#DDDDDD"/>
<path d="M59.9206 127.835C59.9206 128.448 59.7731 128.917 59.4712 129.245C59.1693 129.572 58.7269 129.8 58.1371 129.928C57.5473 130.057 56.8311 130.114 55.9886 130.114H51.0104C50.4838 130.114 49.9923 130.085 49.5359 130.028C49.0795 129.971 48.6863 129.864 48.3492 129.708C48.0122 129.551 47.7524 129.316 47.5628 129.003C47.3733 128.69 47.282 128.291 47.282 127.792C47.282 127.294 47.3733 126.895 47.5628 126.596C47.7524 126.304 48.0122 126.084 48.3492 125.948C48.6863 125.806 49.0865 125.713 49.5359 125.678C49.9923 125.635 50.4838 125.614 51.0174 125.614H52.1689V126.789H50.9261C50.0554 126.789 49.3884 126.846 48.939 126.967C48.4897 127.088 48.265 127.365 48.265 127.8C48.265 128.262 48.4897 128.569 48.939 128.718C49.3884 128.875 50.0484 128.946 50.9191 128.946H55.9815C56.6907 128.946 57.2665 128.917 57.7018 128.868C58.1371 128.811 58.4531 128.704 58.6567 128.547C58.8533 128.383 58.9516 128.148 58.9516 127.842C58.9516 127.401 58.7199 127.116 58.2635 126.988C57.8071 126.86 57.0418 126.796 55.9815 126.796H54.8862V125.621H55.9745C56.8171 125.621 57.5403 125.678 58.1301 125.792C58.7199 125.906 59.1622 126.126 59.4642 126.447C59.7661 126.767 59.9135 127.23 59.9135 127.842L59.9206 127.835Z" fill="#DDDDDD"/>
<path d="M59.9205 117.198C59.9205 117.803 59.7871 118.273 59.5133 118.608C59.2394 118.942 58.8252 119.17 58.2705 119.291C57.7158 119.419 57.0136 119.476 56.164 119.476H50.8558C50.1467 119.476 49.5218 119.419 48.9811 119.313C48.4405 119.206 48.0262 118.978 47.7243 118.65C47.4224 118.316 47.2749 117.817 47.2749 117.148C47.2749 116.643 47.3592 116.244 47.5347 115.952C47.7102 115.653 47.956 115.432 48.2719 115.29C48.5879 115.14 48.9671 115.048 49.4024 115.005C49.8377 114.962 50.3222 114.941 50.8558 114.941H56.164C57.0066 114.941 57.7088 115.005 58.2705 115.126C58.8252 115.247 59.2394 115.475 59.5133 115.795C59.7871 116.116 59.9205 116.593 59.9205 117.205V117.198ZM58.9515 117.198C58.9515 116.899 58.8673 116.671 58.7058 116.514C58.5443 116.358 58.2564 116.251 57.8492 116.194C57.4419 116.137 56.8872 116.109 56.1711 116.109H50.7786C49.9009 116.109 49.262 116.173 48.8617 116.301C48.4615 116.429 48.2649 116.714 48.2649 117.148C48.2649 117.582 48.4685 117.91 48.8688 118.067C49.269 118.223 49.9079 118.302 50.7786 118.302H56.1781C56.8943 118.302 57.456 118.273 57.8562 118.216C58.2634 118.159 58.5443 118.045 58.7128 117.889C58.8813 117.732 58.9586 117.497 58.9586 117.198H58.9515Z" fill="#DDDDDD"/>
<path d="M59.7801 108.483H47.4364V107.152L57.6596 105.194L47.4364 103.307V101.976H59.7731V103.022H54.6544L49.7816 102.866L59.5835 104.681V105.706L49.7816 107.586L54.6544 107.437H59.7731V108.483H59.7801Z" fill="#DDDDDD"/>
<path d="M59.7801 95.3825H47.4364V93.1112C47.4364 92.6128 47.5207 92.207 47.6962 91.9079C47.8717 91.6089 48.1105 91.3882 48.4264 91.2387C48.7424 91.0891 49.1215 90.9966 49.5569 90.9539C49.9922 90.9111 50.4767 90.8898 51.0033 90.8898H51.1507C52.0003 90.8898 52.7095 90.9539 53.2642 91.0749C53.8259 91.1959 54.2402 91.4238 54.521 91.7513C54.8019 92.0788 54.9353 92.5487 54.9353 93.161V94.2148H59.7731V95.3896L59.7801 95.3825ZM53.9734 94.2077V93.1468C53.9734 92.8549 53.8891 92.627 53.7136 92.4775C53.538 92.3209 53.2501 92.2141 52.8359 92.1571C52.4216 92.093 51.8669 92.0646 51.1578 92.0646H50.919C50.0484 92.0646 49.4024 92.1286 48.9952 92.2568C48.5879 92.385 48.3843 92.6698 48.3843 93.097V94.2077H53.9734Z" fill="#DDDDDD"/>
<path d="M59.9205 82.7303C59.9205 83.3284 59.8011 83.7912 59.5624 84.1259C59.3237 84.4605 58.9586 84.6883 58.4671 84.8236C57.9756 84.9589 57.3577 85.023 56.6134 85.023H47.4364V83.8482H56.5713C57.0839 83.8482 57.5122 83.8268 57.8703 83.7912C58.2283 83.7556 58.4952 83.6559 58.6847 83.4993C58.8743 83.3427 58.9656 83.0863 58.9656 82.7303C58.9656 82.3744 58.8743 82.118 58.6847 81.9614C58.4952 81.8119 58.2283 81.7193 57.8773 81.6908C57.5262 81.6624 57.0909 81.6481 56.5853 81.6481H47.4364V80.4733H56.6064C57.3577 80.4733 57.9756 80.5374 58.4601 80.6656C58.9516 80.7937 59.3096 81.0216 59.5554 81.3491C59.7941 81.6766 59.9135 82.1394 59.9135 82.7375L59.9205 82.7303Z" fill="#DDDDDD"/>
<path d="M59.7801 73.5954H48.3632V74.9269H47.4364V71.2245H48.3632V72.4349H59.7731V73.6025L59.7801 73.5954Z" fill="#DDDDDD"/>
<path d="M59.7801 66.5752L47.4435 64.5958V63.3213L59.7801 61.1426V62.2676L57.2946 62.6592V65.0942L59.7801 65.4573V66.5752ZM56.4028 64.9518V62.8087L49.5218 63.9194V63.9337L56.4028 64.9518Z" fill="#DDDDDD"/>
<path d="M59.9206 53.2609C59.9206 53.8732 59.7731 54.3431 59.4712 54.6706C59.1693 54.9981 58.7269 55.226 58.1371 55.3541C57.5473 55.4823 56.8311 55.5392 55.9886 55.5392H51.0104C50.4838 55.5392 49.9923 55.5108 49.5359 55.4538C49.0795 55.3968 48.6863 55.29 48.3492 55.1334C48.0122 54.9768 47.7524 54.7418 47.5628 54.4285C47.3733 54.1152 47.282 53.7165 47.282 53.2181C47.282 52.7197 47.3733 52.321 47.5628 52.022C47.7524 51.7301 48.0122 51.5093 48.3492 51.3741C48.6863 51.2317 49.0865 51.1391 49.5359 51.1035C49.9923 51.0608 50.4838 51.0394 51.0174 51.0394H52.1689V52.2142H50.9261C50.0554 52.2142 49.3884 52.2712 48.939 52.3922C48.4897 52.5133 48.265 52.7909 48.265 53.2253C48.265 53.688 48.4897 53.9942 48.939 54.1437C49.3884 54.3004 50.0484 54.3716 50.9191 54.3716H55.9815C56.6907 54.3716 57.2665 54.3431 57.7018 54.2932C58.1371 54.2363 58.4531 54.1295 58.6567 53.9728C58.8533 53.8091 58.9516 53.5741 58.9516 53.268C58.9516 52.8265 58.7199 52.5417 58.2635 52.4136C57.8071 52.2854 57.0418 52.2213 55.9815 52.2213H54.8862V51.0465H55.9745C56.8171 51.0465 57.5403 51.1035 58.1301 51.2174C58.7199 51.3313 59.1622 51.5521 59.4642 51.8725C59.7661 52.1929 59.9135 52.6557 59.9135 53.268L59.9206 53.2609ZM64 53.6809C64 53.8874 63.9719 54.1152 63.9158 54.3573H63.2909C63.2909 53.9088 63.2417 53.567 63.1504 53.3321C63.0591 53.0971 62.9328 52.9333 62.7853 52.8479C62.6308 52.7625 62.4693 52.7197 62.3008 52.7197C61.9849 52.7197 61.7251 52.8337 61.5355 53.0686C61.3459 53.3036 61.2195 53.567 61.1563 53.8589L59.7801 53.5741V53.1469L60.8053 53.0757C61.0229 52.6129 61.2827 52.2783 61.5706 52.0647C61.8585 51.8582 62.1464 51.7514 62.4342 51.7514C62.7221 51.7514 62.9679 51.8297 63.2066 51.9935C63.4453 52.1573 63.6349 52.3851 63.7824 52.677C63.9298 52.9689 64 53.3036 64 53.6809Z" fill="#DDDDDD"/>
<path d="M46.4604 41.9259C46.4604 42.1324 46.4112 42.346 46.32 42.5667C46.2217 42.7874 46.1304 43.001 46.0321 43.2146C45.9338 43.4282 45.8846 43.6347 45.8846 43.8341C45.8846 43.9124 45.8846 43.9622 45.8987 43.9978C45.9197 44.0761 45.9619 44.1331 46.0251 44.1829C46.0883 44.2328 46.1866 44.2897 46.3059 44.3538L45.9759 45.0516C45.66 44.959 45.4353 44.8451 45.2948 44.7169C45.1614 44.5888 45.0772 44.4464 45.0421 44.2969C45.007 44.1473 44.9929 43.9907 44.9929 43.8341C44.9929 43.6418 45.035 43.4282 45.1263 43.1933C45.2176 42.9583 45.2948 42.7376 45.3791 42.524C45.4634 42.3104 45.5055 42.1466 45.5055 42.0327V42.0042C45.4985 41.9402 45.4634 41.8761 45.4002 41.812C45.344 41.7479 45.2106 41.6838 44.9999 41.6055L45.2036 40.8223L45.4072 40.8864C45.8636 41.0288 46.1515 41.1783 46.2708 41.3278C46.3902 41.4845 46.4464 41.6767 46.4464 41.9188L46.4604 41.9259ZM59.7801 45.5785L47.4434 43.5991V42.3246L59.7801 40.1459V41.2709L57.2945 41.6625V44.0975L59.7801 44.4606V45.5785ZM56.4028 43.9551V41.812L49.5217 42.9227V42.937L56.4028 43.9551Z" fill="#DDDDDD"/>
<path d="M59.9205 32.2712C59.9205 32.8764 59.7871 33.3464 59.5133 33.681C59.2394 34.0156 58.8252 34.2435 58.2705 34.3645C57.7158 34.4927 57.0136 34.5496 56.164 34.5496H50.8558C50.1467 34.5496 49.5218 34.4927 48.9811 34.3859C48.4405 34.2791 48.0262 34.0512 47.7243 33.7237C47.4224 33.3891 47.2749 32.8907 47.2749 32.2214C47.2749 31.7159 47.3592 31.3172 47.5347 31.0253C47.7102 30.7262 47.956 30.5055 48.2719 30.3631C48.5879 30.2136 48.9671 30.121 49.4024 30.0783C49.8377 30.0356 50.3222 30.0142 50.8558 30.0142H56.164C57.0066 30.0142 57.7088 30.0783 58.2705 30.1993C58.8252 30.3204 59.2394 30.5482 59.5133 30.8686C59.7871 31.189 59.9205 31.666 59.9205 32.2784V32.2712ZM58.9515 32.2712C58.9515 31.9722 58.8673 31.7444 58.7058 31.5877C58.5443 31.4311 58.2564 31.3243 57.8492 31.2673C57.4419 31.2104 56.8872 31.1819 56.1711 31.1819H50.7786C49.9009 31.1819 49.262 31.246 48.8617 31.3741C48.4615 31.5023 48.2649 31.7871 48.2649 32.2214C48.2649 32.6557 48.4685 32.9832 48.8688 33.1399C49.269 33.2965 49.9079 33.3748 50.7786 33.3748H56.1781C56.8943 33.3748 57.456 33.3464 57.8562 33.2894C58.2634 33.2324 58.5443 33.1185 58.7128 32.9619C58.8813 32.8052 58.9586 32.5703 58.9586 32.2712H58.9515Z" fill="#DDDDDD"/>
</g>
<defs>
<clipPath id="clip0_549_909">
<rect width="19" height="71" fill="white" transform="translate(0 24)"/>
</clipPath>
<clipPath id="clip1_549_909">
<rect width="9" height="100" fill="white" transform="matrix(-1 0 0 1 13 131)"/>
</clipPath>
<clipPath id="clip2_549_909">
<rect width="19" height="202" fill="white" transform="translate(45 30)"/>
</clipPath>
</defs>
</svg>
