<?xml version="1.0" encoding="UTF-8"?><svg id="Camada_1" xmlns="http://www.w3.org/2000/svg" viewBox="0 0 1440 448.33"><defs><style>.cls-1{fill:none;stroke:#e2e2e4;stroke-linecap:round;stroke-linejoin:round;}</style></defs><path class="cls-1" d="m1414.67,446.48l4.22-3.09"/><path class="cls-1" d="m1412.71,447.99l1.96-1.51"/><path class="cls-1" d="m1389.07,447.99l2.57-2.11,4.55-3.6,4.22-3.19,4.22-3.06"/><path class="cls-1" d="m1364.97,447.99l1.44-1.17,5.7-4.65,5.27-4.27,4.54-3.58,4.23-3.17,4.22-3.06"/><path class="cls-1" d="m1339.53,447.99l2.79-2.03,4.23-3.18,4.54-3.54,5.27-4.21,5.7-4.55,5.29-4.15,4.54-3.41,4.21-3.05"/><path class="cls-1" d="m1311.18,447.63l4.21-2.64,4.23-2.7,4.22-2.81,4.22-2.9,4.23-3.02,4.22-3.12,4.22-3.21,4.23-3.26,4.22-3.27,4.21-3.23,4.23-3.11,4.22-3"/><path class="cls-1" d="m1279.03,447.99l3.53-2.06,5.6-3.28,4.53-2.7,4.22-2.55,4.22-2.61,4.23-2.66,4.22-2.72,4.22-2.81,4.23-2.88,4.22-2.99,4.53-3.3,5.28-3.93,5.7-4.26,5.28-3.86,4.54-3.22"/><path class="cls-1" d="m1247.95,447.81l2.29-1.32,6.02-3.52,6.34-3.73,6.33-3.77,6.33-3.82,6.02-3.65,5.27-3.23,4.55-2.82,4.22-2.66,4.22-2.7,4.23-2.76,4.21-2.83,4.54-3.13,5.28-3.7,5.7-4.03,5.27-3.68,4.55-3.1"/><path class="cls-1" d="m1217.08,447.81l1.28-.71,6.97-3.92,9.6-5.42,10.35-5.83,9.71-5.51,10.13-5.84,10.44-6.08,8.45-4.96,5.48-3.29,4.23-2.6,4.22-2.65,4.54-2.92,5.27-3.45,5.7-3.74,5.61-3.64"/><path class="cls-1" d="m1185.2,447.57l1.38-.69,5.59-2.85,5.7-2.92,5.27-2.69,4.86-2.39,5.28-2.54,5.69-2.7,5.29-2.51,4.53-2.21,4.22-2.11,4.23-2.16,4.22-2.21,4.22-2.27,4.22-2.31,4.55-2.55,5.27-3.02,5.7-3.28,5.27-3.09,4.54-2.7,4.23-2.56,4.22-2.64,4.54-2.9,5.27-3.43,5.7-3.72,5.59-3.62"/><path class="cls-1" d="m1155.04,447.99l.39-.25,4.54-2.52,5.27-2.67,5.7-2.78,5.27-2.54,4.54-2.14,5.18-2.39,7.39-3.36,8.66-3.93,7.38-3.37,5.17-2.44,4.22-2.07,4.22-2.13,4.23-2.19,4.22-2.26,4.22-2.31,4.23-2.36,4.21-2.39,4.22-2.43,4.23-2.45,4.22-2.5,4.22-2.53,4.22-2.6,4.23-2.66,4.53-2.93,5.28-3.48,5.7-3.75,5.59-3.66"/><path class="cls-1" d="m1134.36,447.5l2.58-1.95,4.22-2.86,5.49-3.15,8.45-4.36,11.39-5.7,12.67-6.27,11.4-5.61,8.44-4.17,5.49-2.77,4.22-2.2,4.23-2.25,4.22-2.31,4.21-2.34,4.23-2.38,4.22-2.42,4.22-2.45,4.22-2.48,4.23-2.52,4.22-2.59,4.22-2.64,4.23-2.71,4.21-2.77,4.22-2.82,4.23-2.83,4.22-2.81,4.22-2.77"/><path class="cls-1" d="m1116.34,447.05l2.12-1.83,4.22-3.4,4.21-3.11,4.54-2.96,5.28-3.05,5.71-3.09,5.27-2.82,5.8-3.14,10.03-5.51,15.73-8.71,16.89-9.4,12.24-6.88,6.86-3.92,4.54-2.67,4.22-2.54,4.23-2.6,4.22-2.64,4.21-2.68,4.23-2.74,4.22-2.79,4.22-2.83,4.22-2.84,4.23-2.82,4.22-2.79"/><path class="cls-1" d="m1097.41,447.5l2.57-2.28,4.23-3.56,4.22-3.34,4.21-3.06,4.86-3.15,6.65-3.92,8.24-4.67,7.81-4.43,5.91-3.39,4.53-2.65,4.22-2.51,4.23-2.58,4.86-3.04,6.33-4.03,7.17-4.6,6.34-4.04,5.17-3.25,5.28-3.27,5.7-3.52,5.27-3.26,4.54-2.84,4.85-3.12,6.34-4.14,7.18-4.76,6.32-4.22,4.86-3.25,4.23-2.81,4.22-2.77"/><path class="cls-1" d="m1077.68,447.5l3.8-3.13,4.22-3.25,4.23-3.04,4.22-2.82,5.18-3.18,7.38-4.32,8.65-5.01,7.4-4.3,5.16-3.1,4.23-2.63,4.22-2.73,4.22-2.82,4.85-3.37,6.34-4.51,7.18-5.16,6.32-4.54,4.86-3.41,4.54-3.12,5.28-3.56,5.7-3.83,5.28-3.57,4.53-3.11,4.22-2.96,4.23-3.03,4.22-3.06,4.22-3.06,4.23-3.03,4.22-2.96,4.22-2.88,4.22-2.81,4.22-2.76"/><path class="cls-1" d="m1056.11,447.5l2.66-1.96,4.22-2.88,4.86-3.01,6.34-3.69,7.49-4.28,7.39-4.22,6.33-3.65,5.27-3.09,4.55-2.74,4.22-2.64,4.22-2.75,4.22-2.86,4.23-2.99,4.22-3.11,4.53-3.43,5.29-4.07,5.69-4.41,5.28-4.06,4.54-3.43,4.54-3.37,5.27-3.86,5.7-4.14,5.29-3.86,4.53-3.36,4.22-3.18,4.54-3.5,5.28-4.12,5.69-4.47,5.29-4.11,4.53-3.46,4.22-3.11,4.22-3,4.23-2.9"/><path class="cls-1" d="m1031.85,447.77l4.21-2.86,4.86-2.95,6.34-3.5,7.17-3.83,6.34-3.37,4.86-2.64,4.22-2.35,4.21-2.41,4.22-2.44,4.23-2.49,4.22-2.54,4.22-2.64,4.23-2.73,4.22-2.86,4.22-2.99,4.23-3.11,4.53-3.48,5.28-4.14,5.7-4.52,5.27-4.17,5.49-4.28,7.39-5.67,8.65-6.6,7.4-5.65,5.17-3.99,4.86-3.83,6.32-5.03,7.18-5.73,6.34-5.04,4.85-3.8,4.22-3.22,4.22-3.08,4.23-2.99"/><path class="cls-1" d="m1005.88,447.5l3.26-2.11,4.23-2.67,4.21-2.53,4.22-2.35,4.23-2.23,4.22-2.15,4.22-2.12,4.23-2.14,4.22-2.18,4.22-2.23,4.21-2.3,4.23-2.35,4.22-2.39,4.22-2.45,4.23-2.5,4.22-2.56,4.22-2.66,4.23-2.74,4.22-2.87,4.21-3,4.23-3.11,4.54-3.48,5.27-4.14,5.71-4.52,5.27-4.19,4.54-3.57,5.49-4.25,8.45-6.45,10.13-7.7,8.43-6.44,5.5-4.22,4.85-3.79,6.34-4.99,7.17-5.66,6.33-4.93,4.86-3.62,4.23-3.02"/><path class="cls-1" d="m976.71,447.5l3.08-1.73,7.39-4.2,6.33-3.64,5.27-3.01,4.54-2.5,4.54-2.38,5.27-2.68,5.7-2.85,5.29-2.64,4.53-2.32,4.22-2.23,4.22-2.27,4.23-2.33,4.22-2.39,4.22-2.45,4.23-2.51,4.22-2.57,4.22-2.66,4.21-2.76,4.23-2.85,4.22-2.97,4.22-3.08,4.86-3.68,6.34-4.92,7.17-5.63,6.34-4.95,4.85-3.75,4.22-3.21,4.86-3.61,6.33-4.66,7.18-5.26,6.33-4.64,4.85-3.59,4.22-3.18,4.54-3.46,5.28-4.09,5.71-4.42,5.27-4.04,4.54-3.34,4.21-2.98"/><path class="cls-1" d="m945.77,447.81l1.07-.54,4.22-2.19,4.22-2.21,4.22-2.27,4.22-2.3,4.53-2.52,5.28-2.96,5.7-3.21,5.27-2.93,4.54-2.45,4.54-2.35,5.27-2.66,5.7-2.83,5.29-2.65,4.53-2.31,4.22-2.21,4.22-2.26,4.23-2.31,4.22-2.37,4.22-2.45,4.23-2.52,4.21-2.6,4.22-2.65,4.22-2.74,4.23-2.83,4.22-2.95,4.22-3.04,4.85-3.63,6.34-4.85,7.18-5.55,6.34-4.87,4.84-3.69,4.23-3.15,4.22-3.09,4.54-3.27,5.28-3.76,5.69-4.05,5.28-3.77,4.54-3.26,4.54-3.33,5.27-3.9,5.7-4.24,5.29-3.91,4.54-3.27,4.21-2.95,4.22-2.84"/><path class="cls-1" d="m911.35,447.57l1.81-.8,6.75-3.02,4.22-1.95,4.22-2,4.22-2.05,4.22-2.1,4.22-2.14,4.22-2.19,4.53-2.4,5.28-2.83,5.7-3.08,5.27-2.83,4.54-2.4,4.85-2.48,6.33-3.17,7.18-3.57,6.33-3.18,4.85-2.49,4.22-2.25,4.22-2.3,4.22-2.36,4.23-2.39,4.22-2.44,4.21-2.48,4.23-2.52,4.22-2.6,4.22-2.67,4.23-2.78,4.22-2.87,4.22-2.99,4.85-3.58,6.34-4.8,7.18-5.5,6.32-4.83,4.86-3.65,4.23-3.12,4.22-3.06,4.53-3.25,5.91-4.17,7.82-5.46,8.22-5.71,6.66-4.59,4.86-3.31,4.22-2.84,4.21-2.79,4.23-2.73,4.22-2.65,4.22-2.61"/><path class="cls-1" d="m870.13,447.57l1.74-.69,4.22-1.72,4.22-1.74,4.22-1.77,4.22-1.78,4.21-1.81,4.22-1.83,4.22-1.84,4.22-1.89,4.22-1.9,4.22-1.93,4.22-1.95,4.22-1.98,4.21-2,4.86-2.34,6.65-3.25,8.86-4.33,9.92-4.83,8.87-4.3,6.65-3.24,4.85-2.4,4.22-2.16,4.22-2.21,4.22-2.27,4.22-2.32,4.53-2.54,5.29-3.02,5.69-3.3,5.28-3.09,4.54-2.72,4.22-2.61,4.23-2.68,4.22-2.78,4.22-2.87,4.21-2.96,4.86-3.53,6.34-4.71,7.17-5.39,6.34-4.74,4.86-3.58,4.21-3.05,4.22-2.98,4.22-2.89,4.23-2.79,4.22-2.68,5.8-3.52,9.5-5.62,11.62-6.81,9.5-5.53,5.8-3.33"/><path class="cls-1" d="m804.17,447.81l3.09-.66,5.27-1.05,5.7-1.1,5.28-1.04,4.54-.94,4.21-.95,4.22-1.03,4.22-1.11,4.22-1.22,4.22-1.3,4.22-1.4,4.22-1.48,4.22-1.57,4.22-1.65,4.21-1.73,4.22-1.79,4.86-2.13,6.34-2.85,7.17-3.26,6.33-2.85,4.85-2.16,5.5-2.36,8.45-3.58,10.12-4.29,8.45-3.59,5.49-2.38,4.22-1.89,4.22-1.94,4.22-1.99,4.22-2.07,4.22-2.13,4.22-2.19,4.22-2.25,4.22-2.29,4.21-2.35,4.54-2.56,5.28-3.03,5.7-3.3,5.28-3.08,4.54-2.68,4.22-2.55,4.22-2.6,4.22-2.67,4.22-2.73,4.22-2.81,4.23-2.88,4.54-3.19,5.27-3.78,5.7-4.12,5.28-3.79,4.53-3.17,4.23-2.77,4.86-2.86,6.33-3.4,7.17-3.72,6.34-3.27,4.85-2.56,4.22-2.28,4.86-2.67,6.34-3.54,7.17-4.05,6.97-3.92"/><path class="cls-1" d="m734.47,447.81l3.32-.59,4.22-.9,4.22-1.03,4.22-1.15,4.54-1.33,5.27-1.65,5.7-1.8,5.28-1.66,4.53-1.36,4.22-1.2,4.22-1.09,4.22-1.01,4.22-.92,4.85-.94,6.34-1.14,7.18-1.26,6.34-1.12,4.85-.9,4.22-.85,4.22-.92,4.22-1.02,4.22-1.11,4.22-1.24,4.21-1.36,4.22-1.49,4.22-1.61,4.22-1.72,4.22-1.82,4.22-1.88,4.22-1.9,4.22-1.89,4.22-1.84,4.21-1.77,4.22-1.68,4.86-1.82,6.33-2.27,7.17-2.52,6.34-2.23,4.85-1.77,4.22-1.61,4.22-1.7,4.22-1.78,4.22-1.88,4.22-1.97,4.22-2.05,4.22-2.14,4.22-2.21,4.21-2.28,4.22-2.33,4.22-2.36,4.22-2.4,4.22-2.44,4.22-2.46,4.22-2.49,4.22-2.51,4.22-2.53,4.21-2.57,4.22-2.61,4.23-2.65,4.22-2.7,4.22-2.74,4.23-2.81,4.22-2.86,4.22-2.9,4.22-2.91,4.22-2.88,4.22-2.75,4.22-2.5,4.54-2.32,5.28-2.38,5.7-2.47,5.28-2.32,4.53-2.09,4.22-2.05,4.23-2.13,4.22-2.21,4.22-2.28,4.86-2.68,6.96-3.92,9.29-5.26"/><path class="cls-1" d="m702.33,448.04l1.69.29,4.22.54,4.22.34,4.22.13,4.22-.07,4.22-.27,4.22-.42,4.22-.6.89-.16"/><path class="cls-1" d="m624.95,447.57l3.08-1.42,4.22-1.77,4.22-1.54,4.22-1.26,4.22-.96,4.22-.68,4.22-.38,4.22-.11,4.21.15,4.22.4,4.22.62,4.22.82,4.54,1.05,5.27,1.35,5.7,1.47,5.28,1.3,4.53.99,2.54.44"/><path class="cls-1" d="m578.09,447.57l1.9-.86,4.22-2.04,4.22-2.14,4.22-2.23,4.22-2.28,4.22-2.31,4.21-2.28,4.22-2.19,4.22-2.04,4.22-1.81,4.22-1.54,4.22-1.24,4.22-.94,4.22-.65,4.21-.38,4.22-.11,4.22.14,4.22.36,4.22.57,4.22.75,4.54.95,5.27,1.23,5.7,1.37,5.27,1.24,4.54.99,4.22.82,4.22.69,4.22.54,4.22.4,4.22.23,4.22.06,4.21-.1,4.22-.29,4.22-.46,4.22-.64,4.22-.78,4.22-.94,4.22-1.07,4.85-1.39,6.34-1.93,7.18-2.25,6.32-1.96,4.86-1.42,4.22-1.14,4.22-1.06,4.22-.98,4.21-.91,5.18-1.01,7.39-1.33,8.66-1.54,7.39-1.35,5.18-1.02,4.21-.93,4.22-1.04,4.22-1.14,4.22-1.27,4.22-1.37,4.54-1.58,5.27-1.92,5.7-2.09,5.28-1.91,4.53-1.57,4.22-1.39,4.54-1.4,5.27-1.55,5.7-1.64,5.28-1.54,4.54-1.38,4.21-1.35,4.22-1.44,4.22-1.55,4.22-1.63,4.22-1.75,4.22-1.83,4.22-1.94,4.22-2.02,4.21-2.1,4.22-2.17,4.22-2.25,4.22-2.3,4.22-2.35,4.22-2.39,4.22-2.44,4.22-2.47,4.22-2.51,4.21-2.56,4.22-2.61,4.22-2.66,4.22-2.7,4.22-2.77,4.22-2.82,4.54-3.07,5.27-3.62,5.7-3.93,5.27-3.58,4.55-2.92,4.22-2.43,4.22-2.03,4.23-1.68,4.22-1.52,4.22-1.49,4.22-1.58,4.22-1.71,4.22-1.85,4.22-1.99,4.23-2.11,4.22-2.2,4.22-2.29,4.85-2.71,6.97-3.95,9.29-5.31"/><path class="cls-1" d="m524.29,447.57l3.44-1.63,4.22-1.73,4.22-1.57,4.22-1.52,4.21-1.54,4.22-1.59,4.22-1.67,4.22-1.78,4.22-1.91,4.22-2.01,4.22-2.11,4.53-2.36,5.28-2.81,5.7-3.05,5.27-2.78,4.54-2.25,4.22-1.88,4.22-1.65,4.22-1.38,4.22-1.1,4.22-.84,4.21-.58,4.22-.34,4.22-.11,4.22.12,4.22.31,4.22.49,4.22.62,4.85.86,6.34,1.23,7.18,1.43,6.32,1.26,4.86.91,4.22.72,4.22.65,4.22.54,4.21.42,4.22.3,4.22.14,4.22-.03,4.22-.21,4.22-.4,4.22-.59,4.22-.76,4.22-.92,4.21-1.06,4.86-1.38,6.34-1.94,7.17-2.25,6.33-1.97,4.86-1.44,4.22-1.19,4.21-1.12,4.22-1.06,4.22-1.02,4.86-1.1,6.64-1.45,8.23-1.77,7.81-1.7,6.86-1.54,7.7-1.78,8.66-2.02,7.39-1.71,5.8-1.28,6.34-1.35,7.17-1.51,6.33-1.37,4.86-1.11,4.22-1.06,4.22-1.13,4.21-1.22,4.22-1.29,4.22-1.37,4.22-1.44,4.22-1.53,4.22-1.59,4.22-1.67,4.22-1.75,4.21-1.84,4.22-1.94,4.22-2.01,4.22-2.11,4.22-2.19,4.22-2.26,4.22-2.32,4.22-2.36,4.22-2.4,4.21-2.45,4.22-2.48,4.22-2.54,4.22-2.6,4.22-2.68,4.22-2.76,4.22-2.84,4.54-3.15,5.27-3.75,5.7-4.06,5.27-3.72,4.54-3.02,4.23-2.47,4.22-2.02,4.22-1.63,4.22-1.39,4.23-1.28,4.21-1.31,4.22-1.43,4.23-1.59,4.22-1.76,4.22-1.94,4.23-2.08,4.22-2.18,4.22-2.28,4.21-2.34,4.55-2.57,5.59-3.21,6.76-3.91"/><path class="cls-1" d="m486.34,447.57l1.8-1.5,4.22-3.53,4.22-3.46,4.22-3.23,4.22-2.85,4.22-2.32,4.54-1.98,5.27-1.96,5.7-2,5.27-1.86,4.54-1.68,4.22-1.66,4.22-1.77,4.54-2,5.27-2.41,5.7-2.65,5.27-2.43,4.54-2.05,4.22-1.81,4.22-1.71,4.22-1.57,4.22-1.42,4.22-1.26,4.22-1.09,4.21-.92,4.22-.74,4.22-.56,4.22-.37,4.22-.19h4.22s4.22.14,4.22.14l4.22.29,4.21.39,4.22.48,5.5.75,8.43,1.24,10.13,1.53,8.45,1.23,5.49.71,4.22.41,4.22.31,4.22.17h4.22s4.22-.15,4.22-.15l4.22-.34,4.22-.51,4.21-.67,4.22-.83,4.22-.96,4.22-1.08,4.54-1.29,5.27-1.58,5.7-1.75,5.28-1.6,4.53-1.36,4.86-1.39,7.6-2.1,11.4-3.09,12.24-3.32,9.08-2.4,5.49-1.36,4.22-.92,4.22-.8,4.22-.68,4.22-.54,4.53-.46,5.28-.41,5.7-.42,5.27-.45,4.54-.52,4.22-.67,4.22-.85,4.22-1.01,4.21-1.14,4.22-1.26,4.22-1.35,4.22-1.42,4.22-1.45,4.22-1.49,4.22-1.5,4.22-1.54,4.22-1.58,4.21-1.63,4.22-1.7,4.22-1.78,4.22-1.88,4.22-1.98,4.22-2.07,4.22-2.17,4.22-2.25,4.21-2.31,4.22-2.37,4.22-2.4,4.22-2.44,4.22-2.49,4.22-2.54,4.22-2.63,4.22-2.72,4.22-2.81,4.53-3.15,5.28-3.73,5.7-4.04,5.27-3.59,4.54-2.72,4.22-2.01,4.22-1.56,4.22-1.24,4.21-1.1,4.23-1.1,4.22-1.2,4.22-1.35,4.23-1.54,4.22-1.72,4.22-1.89,4.22-2.03,4.23-2.15,4.21-2.23,4.22-2.31,4.54-2.56,5.6-3.24,6.76-3.98"/><path class="cls-1" d="m453.52,447.57l3.47-2.7,4.22-3.48,4.53-3.92,5.29-4.73,5.7-5.14,5.27-4.64,4.54-3.65,4.22-2.82,4.22-2.2,4.53-1.78,5.28-1.75,5.7-1.78,5.27-1.66,4.86-1.57,5.27-1.76,5.7-1.93,5.28-1.78,4.53-1.48,4.22-1.31,4.22-1.25,5.18-1.43,7.39-1.95,8.65-2.21,7.4-1.86,5.17-1.24,4.22-.93,4.22-.82,4.22-.67,4.22-.51,4.22-.35,4.22-.21,4.21-.08,4.22.02,4.22.12,4.22.19,4.22.27,4.86.36,6.32.54,7.18.62,6.34.51,4.85.33,4.22.18,4.22.08,4.22-.04,4.22-.18,4.22-.32,4.21-.46,4.22-.59,4.22-.72,4.22-.85,4.22-.98,4.22-1.08,4.54-1.26,5.27-1.54,5.7-1.7,5.27-1.56,5.18-1.47,6.34-1.76,7.17-1.96,6.33-1.75,5.17-1.48,5.28-1.58,5.7-1.71,5.27-1.53,4.54-1.21,4.22-.94,4.22-.75,4.22-.54,4.21-.31,4.54-.1,5.28.11,5.7.16,5.27.05,4.54-.21,4.22-.49,4.22-.78,4.21-1.05,4.22-1.26,4.54-1.55,5.27-1.95,5.71-2.17,5.27-2.02,4.85-1.82,5.28-1.94,5.7-2.07,5.27-1.95,4.54-1.72,4.22-1.7,4.22-1.78,4.22-1.89,4.22-1.99,4.22-2.1,4.21-2.18,4.22-2.27,4.22-2.32,4.22-2.36,4.22-2.4,4.22-2.43,4.22-2.47,4.22-2.51,4.21-2.59,4.54-2.86,5.28-3.41,5.7-3.71,5.27-3.28,4.54-2.45,4.22-1.76,4.53-1.38,5.28-1.19,5.7-1.14,5.27-1.1,4.54-1.1,4.22-1.24,4.22-1.46,4.23-1.67,4.22-1.86,4.21-2.02,4.23-2.15,4.22-2.25,4.22-2.33,4.54-2.55,5.6-3.23,6.75-3.93"/><path class="cls-1" d="m416.79,447.81l.6-.38,4.22-2.8,4.22-2.9,4.22-3.03,4.22-3.17,4.22-3.33,4.21-3.48,4.54-3.92,5.28-4.67,5.7-5.08,5.27-4.57,4.54-3.59,4.22-2.77,4.22-2.11,4.21-1.55,4.22-1.19,4.54-1.08,6.23-1.37,8.86-1.86,9.72-2.04,7.7-1.63,5.17-1.15,4.54-1.07,6.55-1.63,9.92-2.54,11.18-2.87,8.77-2.23,5.48-1.33,4.22-.93,4.22-.85,4.22-.74,4.21-.66,4.22-.55,4.22-.45,4.22-.35,4.22-.27,4.22-.18,5.17-.12,7.4-.06,8.65-.04,7.4-.05,5.17-.11,4.22-.18,4.22-.27,4.22-.36,4.21-.48,4.22-.59,4.22-.68,4.22-.8,4.22-.88,4.22-1,4.22-1.09,4.54-1.27,5.27-1.58,5.7-1.74,5.27-1.61,4.54-1.35,4.86-1.36,6.34-1.7,7.17-1.89,6.33-1.67,4.85-1.35,4.22-1.2,4.22-1.22,4.22-1.18,4.22-1.08,4.22-.92,4.22-.71,4.22-.46,4.21-.17,4.54.13,5.27.45,5.71.57,5.27.45,4.54.1,4.22-.27,4.21-.64,4.22-1,4.22-1.29,4.22-1.54,4.54-1.84,5.27-2.3,5.7-2.54,5.28-2.34,4.53-1.96,4.54-1.89,5.28-2.14,5.7-2.3,5.27-2.14,4.54-1.9,4.22-1.83,4.22-1.92,4.21-1.99,4.22-2.08,4.22-2.15,4.22-2.21,4.22-2.27,4.22-2.32,5.17-2.88,7.4-4.16,8.65-4.89,7.4-4.13,5.17-2.73,4.22-1.96,4.22-1.6,4.22-1.24,4.21-.9,4.22-.67,4.22-.53,4.22-.49,4.22-.56,4.22-.71,4.22-.91,4.22-1.14,4.22-1.4,4.21-1.63,4.22-1.84,4.22-2.01,4.23-2.15,4.22-2.26,4.86-2.68,6.96-3.95,9.28-5.31"/><path class="cls-1" d="m379.97,447.81l2.36-1.72,5.28-3.76,5.7-4.04,5.27-3.77,4.54-3.31,4.22-3.15,4.22-3.23,4.22-3.31,4.53-3.64,5.28-4.32,5.7-4.68,5.27-4.3,4.54-3.54,4.22-2.97,4.22-2.45,4.22-1.83,4.21-1.25,4.54-.88,5.27-.77,5.71-.75,5.27-.71,4.54-.66,4.22-.66,4.21-.72,4.22-.76,4.22-.82,4.22-.88,4.22-.94,4.22-1.01,4.22-1.06,4.22-1.12,4.53-1.27,5.28-1.54,5.7-1.68,5.27-1.56,4.54-1.3,4.22-1.18,4.22-1.13,4.22-1.08,4.22-1.04,4.21-.98,4.22-.91,4.22-.83,4.22-.75,4.22-.68,4.22-.61,4.22-.54,5.48-.59,8.45-.8,10.13-.93,8.44-.79,5.5-.57,4.22-.52,4.21-.58,4.22-.66,4.22-.75,4.22-.85,4.22-.94,4.22-1.02,4.22-1.1,4.22-1.19,4.85-1.47,6.33-2.05,7.17-2.35,6.34-2.05,4.86-1.52,4.22-1.24,4.54-1.27,5.91-1.58,7.81-2.06,8.23-2.15,6.64-1.68,4.86-1.13,4.22-.82,4.22-.62,4.21-.37,4.22-.11,4.22.19,4.22.43,4.22.6,4.22.66,4.22.56,4.22.34,4.21.02,4.22-.36,4.22-.75,4.22-1.11,4.22-1.43,4.22-1.68,4.22-1.9,4.54-2.2,5.27-2.68,5.7-2.95,5.27-2.7,4.54-2.29,4.22-2.08,4.86-2.33,6.33-2.97,7.18-3.36,6.34-2.97,4.85-2.31,4.22-2.05,4.22-2.1,4.86-2.46,6.32-3.26,7.18-3.71,6.34-3.24,4.85-2.42,4.22-1.98,4.22-1.81,4.22-1.61,4.22-1.37,4.22-1.11,4.21-.87,4.22-.62,4.22-.42,4.22-.31,4.22-.27,4.22-.3,4.22-.41,4.22-.59,4.22-.82,4.21-1.07,4.22-1.31,4.22-1.56,4.22-1.76,4.22-1.94,4.22-2.08,4.22-2.19,4.22-2.26,4.53-2.51,5.6-3.15,6.75-3.82"/><path class="cls-1" d="m347.23,448.04l3.64-3.01,5.8-4.71,9.5-7.6,11.61-9.25,9.5-7.51,5.82-4.47,4.21-3.04,4.22-2.82,4.22-2.54,4.22-2.29,4.22-2.06,4.22-1.85,4.22-1.67,4.22-1.48,4.22-1.3,4.21-1.13,4.22-.98,4.22-.83,4.54-.77,5.27-.8,5.7-.84,5.28-.78,4.54-.72,4.21-.72,4.22-.77,4.22-.84,4.22-.91,4.22-.98,4.22-1.07,4.22-1.13,4.22-1.24,4.21-1.31,4.22-1.41,4.22-1.49,4.22-1.58,4.54-1.76,5.27-2.11,5.7-2.29,5.28-2.09,4.53-1.7,4.22-1.45,4.22-1.31,4.22-1.18,4.22-1.05,4.22-.94,4.22-.85,4.22-.77,5.17-.87,7.7-1.22,9.71-1.49,8.87-1.39,6.23-1,4.54-.77,4.21-.76,4.22-.82,4.22-.87,4.22-.94,4.22-1.03,4.22-1.1,4.22-1.2,4.22-1.27,4.21-1.35,4.86-1.62,6.33-2.17,7.17-2.49,6.34-2.18,4.86-1.64,4.22-1.38,4.21-1.35,4.22-1.3,4.22-1.27,4.22-1.22,4.22-1.18,4.22-1.11,4.22-1.03,4.22-.91,4.22-.77,4.21-.6,4.22-.38,4.22-.13,4.22.13,4.54.42,5.27.72,5.7.86,5.28.7,4.53.34,4.22-.03,4.22-.41,4.22-.79,4.22-1.15,4.22-1.45,4.22-1.72,4.22-1.95,4.21-2.12,4.22-2.25,4.22-2.34,4.54-2.58,5.27-3.05,5.7-3.32,5.28-3.04,4.54-2.55,4.21-2.29,4.22-2.19,5.5-2.72,8.44-4.06,10.13-4.81,8.45-3.96,5.49-2.5,4.22-1.82,4.22-1.73,4.22-1.59,4.22-1.44,4.22-1.29,4.22-1.11,4.22-.94,4.21-.77,4.22-.58,4.22-.42,4.22-.28,4.22-.2,4.22-.18,4.22-.23,4.22-.34,4.21-.5,4.22-.71,4.22-.93,4.22-1.16,4.22-1.39,4.22-1.59,4.22-1.77,4.22-1.93,4.22-2.04,4.21-2.16,4.54-2.43,5.59-3.07,6.76-3.76"/><path class="cls-1" d="m314.02,448.04l1.47-1.13,5.17-4.06,7.4-5.89,8.65-6.94,7.4-5.9,5.17-4.08,4.22-3.23,4.22-3.05,4.22-2.8,4.22-2.44,4.22-2.01,4.21-1.59,4.22-1.22,4.54-1.02,5.27-1,5.71-1.03,5.27-1,4.54-.99,4.53-1.17,5.28-1.49,5.7-1.67,5.27-1.54,4.54-1.24,4.22-1.02,4.22-.9,4.85-.89,6.33-1.04,7.18-1.13,6.32-1.03,4.86-.89,4.22-.89,4.22-1.01,4.22-1.13,4.22-1.28,4.21-1.42,4.22-1.55,4.22-1.67,4.22-1.79,4.22-1.9,4.22-1.98,4.22-2.07,4.85-2.44,6.34-3.25,7.18-3.68,6.32-3.2,4.86-2.36,4.22-1.9,4.22-1.74,4.22-1.56,4.21-1.37,4.22-1.19,4.22-1.05,4.22-.93,4.22-.85,4.86-.88,6.32-1.07,7.18-1.21,6.34-1.08,4.85-.88,4.22-.85,4.22-.93,4.22-1.01,4.22-1.09,4.22-1.17,4.22-1.23,4.21-1.27,4.22-1.3,4.22-1.33,4.22-1.35,4.22-1.39,4.22-1.43,4.22-1.48,4.22-1.57,4.21-1.64,4.22-1.71,4.22-1.74,4.22-1.76,4.22-1.74,4.22-1.65,4.22-1.55,4.22-1.4,4.22-1.25,4.21-1.08,4.22-.89,4.22-.67,4.22-.42,4.22-.18,4.22.07,4.54.33,5.27.58,5.7.71,5.27.56,4.54.27,4.22-.08,4.22-.42,4.22-.8,4.22-1.13,4.22-1.43,4.22-1.7,4.21-1.92,4.22-2.1,4.22-2.24,4.22-2.34,4.22-2.41,4.22-2.46,4.22-2.52,4.22-2.59,4.21-2.65,4.22-2.7,4.22-2.7,4.22-2.62,4.22-2.45,4.22-2.28,4.22-2.13,4.22-2.02,4.22-1.97,4.21-1.9,4.22-1.84,4.22-1.76,4.22-1.67,4.22-1.56,4.22-1.45,4.22-1.32,4.22-1.2,4.22-1.06,4.21-.93,4.22-.78,4.22-.65,4.22-.5,4.22-.38,4.54-.29,5.27-.22,5.7-.21,5.28-.26,4.53-.36,4.22-.52,4.22-.72,4.22-.94,4.22-1.15,4.22-1.35,4.22-1.55,4.21-1.73,4.22-1.9,4.22-2.02,4.54-2.33,5.59-2.99,6.76-3.69"/><path class="cls-1" d="m276.85,447.57l7.39-4.78,8.66-5.56,7.39-4.73,5.18-3.27,4.22-2.61,4.22-2.52,4.21-2.4,4.22-2.27,4.22-2.11,4.22-1.95,4.22-1.78,4.22-1.59,4.22-1.4,4.22-1.19,4.22-.96,4.21-.75,4.22-.57,4.22-.43,4.22-.35,4.22-.33,4.22-.36,4.22-.47,4.22-.61,4.21-.79,4.22-.98,4.54-1.28,5.27-1.65,5.71-1.85,5.27-1.66,4.54-1.27,4.22-1,4.21-.82,4.54-.71,5.28-.68,5.7-.68,5.27-.68,4.54-.69,4.22-.8,4.22-.98,4.21-1.17,4.22-1.38,4.22-1.56,4.22-1.74,4.22-1.9,4.22-2.03,4.22-2.13,4.22-2.23,4.22-2.28,4.21-2.34,4.22-2.37,4.22-2.4,4.22-2.45,4.22-2.49,4.85-2.93,6.34-3.9,7.18-4.41,6.34-3.78,4.85-2.63,4.22-1.92,4.22-1.57,4.22-1.24,4.22-.98,4.53-.85,5.28-.8,5.7-.8,5.27-.75,4.54-.71,4.22-.77,4.22-.88,4.22-1.02,4.22-1.13,5.8-1.75,9.5-3.05,11.61-3.81,9.5-3.18,5.8-2.05,4.22-1.61,4.22-1.72,4.22-1.81,4.22-1.92,4.22-2.02,4.54-2.27,5.27-2.71,5.7-2.9,5.27-2.54,4.54-1.89,4.22-1.38,4.22-1.01,4.22-.66,4.22-.36,4.22-.08,4.21.13,4.22.29,4.22.33,4.22.27,4.22.13,4.22-.13,4.22-.45,4.22-.77,4.22-1.11,4.21-1.4,4.22-1.66,4.22-1.88,4.22-2.06,4.22-2.2,4.22-2.32,4.22-2.38,4.22-2.45,4.21-2.5,4.22-2.6,4.22-2.68,4.54-3.01,5.27-3.58,5.7-3.87,5.28-3.44,4.54-2.71,4.21-2.24,4.22-2.04,4.22-1.92,4.22-1.8,4.22-1.71,4.22-1.62,4.22-1.51,4.22-1.42,4.22-1.31,4.21-1.21,4.22-1.09,4.22-.96,4.22-.81,4.22-.66,4.22-.5,4.22-.35,4.53-.22,5.28-.12,5.7-.06,5.27-.07,4.54-.15,4.22-.3,4.22-.49,4.22-.7,4.22-.92,4.21-1.13,4.22-1.35,4.22-1.56,4.22-1.75,4.22-1.94,4.54-2.25,5.59-2.93,6.76-3.63"/><path class="cls-1" d="m236.53,447.5l4-2.43,4.22-2.49,4.22-2.39,4.22-2.25,4.21-2.08,4.22-1.85,4.22-1.63,4.22-1.45,5.18-1.55,7.39-2.03,8.65-2.31,7.71-2.07,6.23-1.72,5.7-1.59,5.27-1.44,4.54-1.14,4.22-.95,4.22-.82,4.21-.67,4.22-.52,4.54-.42,5.27-.36,5.71-.34,5.27-.34,4.54-.4,4.21-.53,4.22-.71,4.22-.91,4.22-1.13,4.22-1.33,4.22-1.49,4.22-1.6,4.22-1.61,4.22-1.53,4.21-1.37,4.22-1.13,4.22-.91,4.22-.69,4.22-.53,4.22-.43,4.22-.41,4.22-.47,4.22-.58,4.21-.75,4.22-.98,4.22-1.2,4.22-1.43,4.22-1.65,4.22-1.86,4.22-2.02,4.22-2.15,4.22-2.26,4.21-2.33,4.22-2.38,4.22-2.42,4.22-2.46,4.22-2.51,4.22-2.56,4.22-2.64,4.22-2.71,4.21-2.78,4.86-3.29,6.34-4.36,7.17-4.97,6.34-4.33,4.86-3.16,4.22-2.41,4.21-1.96,4.22-1.48,4.22-1.09,4.22-.86,4.22-.73,4.22-.68,4.22-.71,4.22-.78,4.22-.88,4.21-1.01,4.22-1.12,4.22-1.23,5.48-1.75,8.45-2.83,10.13-3.45,8.45-2.91,5.49-1.96,4.22-1.61,4.22-1.7,4.22-1.79,4.22-1.91,4.22-2.01,4.21-2.11,4.22-2.21,4.54-2.46,5.27-2.92,5.71-3.18,5.27-2.89,4.54-2.3,4.22-1.79,4.21-1.33,4.22-.89,4.22-.51,4.22-.24,4.22-.08,4.22-.05,4.22-.12,4.22-.29,4.22-.54,4.21-.82,4.22-1.11,4.22-1.39,4.22-1.62,4.22-1.84,4.22-2.01,4.22-2.17,4.22-2.29,4.22-2.36,4.21-2.44,4.22-2.49,4.22-2.57,4.22-2.67,4.22-2.79,4.54-3.14,5.27-3.75,5.7-4.07,5.28-3.62,4.53-2.81,4.22-2.24,4.22-1.97,4.22-1.81,4.22-1.7,4.22-1.62,4.22-1.57,4.21-1.49,4.22-1.43,4.22-1.34,4.22-1.24,4.22-1.09,4.22-.94,4.22-.76,4.22-.59,4.22-.4,4.21-.23,4.54-.07,5.28.06,5.7.12,5.27.07,4.54-.04,4.22-.22,4.22-.45,4.21-.7,4.22-.96,4.22-1.23,4.22-1.47,4.22-1.7,4.22-1.89,4.22-2.04,4.22-2.17,4.21-2.27,4.22-2.29"/><path class="cls-1" d="m235.68,448.02l.85-.52"/><path class="cls-1" d="m191.16,448.04l1.33-.7,4.22-2.2,4.22-2.15,4.22-2.08,4.22-1.99,4.22-1.83,4.21-1.63,4.22-1.38,4.22-1.15,4.22-1,4.22-.88,4.21-.8,4.22-.72,4.22-.62,4.22-.51,4.54-.45,5.27-.41,5.7-.4,5.28-.41,4.53-.41,4.22-.48,4.54-.6,5.27-.78,5.7-.87,5.28-.76,4.54-.57,4.21-.41,4.22-.3,4.54-.2,5.27-.11,5.71-.07,5.27-.07,4.54-.14,4.22-.27,4.21-.43,4.22-.64,4.22-.86,4.22-1.1,4.22-1.33,4.22-1.56,4.22-1.75,4.22-1.86,4.21-1.92,4.22-1.88,4.22-1.74,4.22-1.52,4.22-1.27,4.22-1.02,4.22-.81,4.22-.67,4.22-.61,4.21-.62,4.22-.71,4.22-.88,4.22-1.07,4.22-1.28,4.22-1.53,4.22-1.73,4.22-1.93,4.22-2.09,4.21-2.21,4.22-2.31,4.22-2.36,4.22-2.42,4.22-2.45,4.22-2.48,4.22-2.52,4.22-2.58,4.22-2.63,4.21-2.69,4.22-2.77,4.22-2.84,4.22-2.91,4.22-3.02,4.22-3.1,4.22-3.2,4.22-3.27,4.21-3.31,4.22-3.24,4.22-3.02,4.22-2.6,4.22-2.02,4.22-1.53,4.22-1.21,4.22-1.05,4.22-1,4.21-1.01,4.22-1.04,4.22-1.11,4.22-1.18,4.22-1.26,4.22-1.33,4.22-1.39,5.17-1.75,7.39-2.56,8.66-3.04,7.39-2.65,5.18-1.94,4.22-1.7,4.22-1.8,4.22-1.92,4.21-2.01,4.22-2.12,4.22-2.2,4.22-2.29,4.22-2.34,5.17-2.93,7.4-4.23,8.65-4.85,7.4-3.83,5.17-2.13,4.22-1.14,4.22-.82,4.22-.64,4.22-.59,4.21-.62,4.22-.77,4.22-.96,4.22-1.2,4.22-1.4,4.22-1.62,4.22-1.8,4.22-1.98,4.22-2.13,4.21-2.26,4.22-2.33,4.22-2.4,4.22-2.46,4.22-2.53,4.22-2.64,4.22-2.74,4.22-2.86,4.22-2.99,4.21-3.06,4.22-3.09,4.22-3,4.22-2.72,4.22-2.35,4.22-2,4.22-1.78,4.22-1.67,4.21-1.62,4.22-1.59,4.22-1.56,4.22-1.52,4.22-1.46,4.22-1.38,4.22-1.25,4.22-1.11,4.22-.94,4.21-.73,4.22-.53,4.22-.31,4.22-.11,4.54.1,5.27.26,5.7.35,5.28.26,4.53.09,4.22-.15,4.22-.42,4.22-.71,4.22-1.04,4.22-1.35,4.22-1.62,4.22-1.85,4.22-2.05,4.21-2.18,4.22-2.28,4.22-2.33"/><path class="cls-1" d="m188.27,449.57l2.89-1.53"/><path class="cls-1" d="m145.66,448.04l5.97-3.2,5.49-2.87,4.22-2.13,4.22-2.05,4.22-1.96,4.22-1.88,4.22-1.75,4.22-1.6,4.22-1.4,4.22-1.09,4.53-.72,5.28-.38,5.7-.17,5.59-.15,5.59-.23,5.7-.31,5.28-.27,4.53-.16,4.22-.04,4.54.07,5.27.18,5.7.24,5.27.19,4.54.08h4.22s4.22-.11,4.22-.11l4.22-.16,4.22-.17,4.22-.15,4.21-.08h4.22s4.22.14,4.22.14l4.54.24,5.27.39,5.7.45,5.28.37,4.54.21,4.21.03,4.22-.15,4.22-.36,4.22-.61,4.22-.86,4.22-1.12,4.22-1.38,4.22-1.61,4.22-1.8,4.21-1.96,4.22-2.05,4.22-2.07,4.22-2,4.22-1.88,4.22-1.68,4.22-1.46,4.22-1.27,4.21-1.1,4.22-1,4.22-.97,4.22-1.01,4.22-1.1,4.22-1.26,4.22-1.42,4.22-1.62,4.22-1.81,4.21-1.98,4.22-2.12,4.22-2.24,4.22-2.32,4.22-2.37,4.22-2.42,4.22-2.44,4.22-2.47,4.22-2.51,4.21-2.55,4.22-2.62,4.22-2.7,4.22-2.8,4.22-2.93,4.22-3.07,4.22-3.23,4.22-3.39,4.53-3.81,5.28-4.56,5.7-4.96,5.27-4.46,4.54-3.52,4.22-2.74,4.22-2.19,4.22-1.76,4.53-1.64,5.28-1.79,5.7-1.91,5.27-1.77,4.54-1.57,5.17-1.82,8.02-2.88,10.77-3.89,10.34-3.73,7.28-2.65,4.86-1.82,4.22-1.66,4.21-1.77,4.22-1.86,4.22-1.98,4.22-2.09,4.22-2.18,4.22-2.27,4.22-2.33,4.22-2.37,4.22-2.43,4.21-2.44,4.22-2.47,4.22-2.51,4.22-2.53,4.22-2.52,4.22-2.42,4.22-2.16,4.22-1.82,4.53-1.58,5.28-1.57,5.7-1.6,5.27-1.51,4.54-1.43,4.22-1.48,4.22-1.64,4.22-1.79,4.21-1.95,4.22-2.09,4.22-2.2,4.22-2.3,4.22-2.36,4.22-2.43,4.22-2.48,4.22-2.56,4.22-2.65,4.21-2.78,4.54-3.12,5.27-3.74,5.71-4.05,5.27-3.53,4.54-2.64,4.22-2.04,4.85-2.03,6.34-2.46,7.17-2.72,6.33-2.36,4.86-1.75,4.22-1.44,4.22-1.34,4.21-1.2,4.22-1.01,4.22-.79,4.22-.54,4.22-.29h4.22s4.22.2,4.22.2l4.22.41,4.22.54,4.21.57,4.22.52,4.22.36,4.22.13,4.22-.17,4.22-.52,4.22-.87,4.22-1.21,4.22-1.51,4.21-1.78,4.22-1.98,4.22-2.15,4.22-2.27,4.22-2.33"/><path class="cls-1" d="m143.18,449.37l2.48-1.33"/><path class="cls-1" d="m107.36,447.57l1.72-1.1,4.54-2.71,5.27-2.99,5.7-3.15,5.28-2.86,4.53-2.42,4.22-2.17,4.22-2.09,4.22-1.97,4.22-1.82,4.22-1.63,4.22-1.38,4.22-1.05,4.21-.64,4.22-.23,4.54.19,5.28.55,5.7.72,5.27.65,4.54.43,4.22.23,4.22.13,4.21.03,4.22.02,4.22.04,4.22.14,4.22.25,4.54.4,5.27.59,5.7.7,5.27.63,4.54.48,4.54.37,5.27.36,5.7.37,5.27.38,4.54.41,4.54.54,5.27.72,5.7.83,5.28.73,4.53.53,4.22.33,4.22.15,4.22-.06,4.22-.3,4.22-.54,4.22-.79,4.22-1.03,4.22-1.27,4.21-1.48,4.22-1.68,4.54-1.99,5.27-2.46,5.71-2.71,5.27-2.48,4.54-2.03,4.21-1.76,4.22-1.61,4.54-1.58,5.27-1.68,5.71-1.77,5.27-1.65,4.54-1.52,4.22-1.55,4.21-1.68,4.22-1.84,4.22-1.99,4.22-2.12,4.22-2.23,4.22-2.32,4.22-2.36,4.22-2.42,4.22-2.45,4.21-2.48,4.22-2.53,4.22-2.62,4.22-2.7,4.22-2.85,4.22-3,4.22-3.19,4.22-3.38,4.22-3.56,4.21-3.73,4.22-3.86,4.22-3.94,4.22-3.95,4.22-3.9,4.22-3.74,4.22-3.49,4.22-3.09,4.21-2.63,4.86-2.51,7.28-3.34,10.34-4.6,10.77-4.77,8.02-3.55,5.17-2.23,4.22-1.76,4.22-1.7,4.86-1.88,6.32-2.36,7.18-2.66,6.34-2.39,4.85-1.92,4.22-1.8,4.22-1.91,4.22-2.02,4.22-2.12,4.22-2.23,4.22-2.3,4.21-2.36,4.22-2.39,4.22-2.45,4.22-2.47,4.22-2.51,4.22-2.56,4.54-2.83,5.27-3.34,5.7-3.55,5.27-3.09,4.54-2.32,4.54-1.98,5.27-2.08,5.7-2.17,5.28-2.02,4.53-1.83,4.22-1.81,4.22-1.94,4.22-2.04,4.22-2.17,4.22-2.25,4.22-2.33,4.22-2.38,4.22-2.44,4.21-2.49,4.22-2.56,4.22-2.65,4.22-2.77,4.22-2.86,4.22-2.95,4.22-2.97,4.22-2.85,4.22-2.57,4.21-2.23,4.22-1.94,4.22-1.77,4.22-1.67,4.22-1.64,4.22-1.59,4.22-1.56,4.22-1.48,4.21-1.39,4.22-1.27,4.22-1.12,4.22-.91,4.22-.67,4.22-.37,4.22-.07,4.22.21,4.53.53,5.28.86,5.7,1.03,5.27.88,4.54.56,4.22.24,4.22-.1,4.22-.45,4.22-.81,4.21-1.15,4.22-1.46,4.22-1.73,4.22-1.94,4.22-2.11,4.22-2.23,4.22-2.3"/><path class="cls-1" d="m104.86,449.18l2.5-1.61"/><path class="cls-1" d="m76.55,447.81l1.37-.99,4.22-2.96,4.22-2.88,4.22-2.81,4.22-2.71,4.22-2.61,4.22-2.49,4.22-2.4,4.21-2.32,4.22-2.23,4.22-2.1,4.22-1.9,4.22-1.66,4.22-1.38,4.22-1.08,4.22-.75,4.22-.43,4.21-.13,4.22.18,4.22.41,4.22.61,4.22.72,4.22.76,4.22.72,4.22.61,4.22.47,4.21.32,4.54.17,5.28.08,5.7.05,5.27.13,4.54.27,4.22.42,4.22.59,4.53.83,5.28,1.1,5.7,1.25,5.27,1.13,6.12,1.17,9.5,1.63,11.61,1.9,9.5,1.49,5.8.79,4.22.4,4.22.25,4.22.05,4.22-.15,4.22-.37,4.22-.58,4.22-.79,4.21-1.01,4.22-1.21,4.22-1.39,4.22-1.55,4.22-1.67,4.54-1.92,5.27-2.33,5.7-2.56,5.28-2.36,4.53-1.99,4.22-1.78,4.22-1.7,4.54-1.76,5.27-1.96,5.7-2.11,5.28-1.99,4.53-1.79,4.22-1.77,4.22-1.9,4.22-2.01,4.22-2.13,4.22-2.23,4.22-2.3,4.22-2.37,4.21-2.42,4.22-2.46,4.22-2.52,4.22-2.6,4.22-2.7,4.22-2.84,4.22-3.02,4.22-3.2,4.22-3.4,4.21-3.59,4.22-3.77,4.54-4.21,5.27-5,5.71-5.42,5.27-4.95,4.54-4.09,4.22-3.57,4.21-3.32,4.22-3.02,4.22-2.72,4.54-2.64,5.27-2.86,5.7-3.02,5.91-3.14,6.65-3.56,7.18-3.85,6.32-3.35,4.86-2.46,4.22-1.98,4.22-1.84,4.53-1.84,5.28-2.03,5.7-2.14,5.27-1.99,4.54-1.78,4.22-1.75,4.22-1.84,4.22-1.96,4.22-2.05,4.21-2.16,4.22-2.24,4.22-2.31,4.22-2.36,4.22-2.43,4.22-2.49,4.22-2.53,4.22-2.6,4.22-2.66,4.21-2.72,4.54-3.02,5.27-3.58,5.71-3.82,5.27-3.32,4.54-2.52,4.53-2.17,5.28-2.35,5.7-2.49,5.27-2.35,4.54-2.1,4.22-2.07,4.22-2.15,4.22-2.25,4.22-2.31,4.21-2.37,4.22-2.4,4.22-2.46,4.22-2.5,4.22-2.55,4.22-2.65,4.22-2.73,4.22-2.83,4.22-2.89,4.21-2.9,4.22-2.81,4.22-2.59,4.22-2.3,4.22-2.06,4.22-1.88,4.22-1.78,4.22-1.67,4.22-1.57,4.21-1.46,4.22-1.31,4.22-1.15,4.22-.96,4.22-.74,4.22-.47,4.22-.18,4.22.09,4.21.35,4.54.6,5.28.88,5.7.99,5.27.85,4.54.54,4.22.23,4.22-.06,4.21-.39,4.22-.74,4.22-1.09,4.22-1.41,4.22-1.66,4.22-1.9,4.22-2.07,4.22-2.2,4.22-2.26"/><path class="cls-1" d="m73.72,449.84l2.84-2.03"/><path class="cls-1" d="m48.5,447.57l2.5-1.83,4.21-3.01,4.22-2.95,4.22-2.85,4.22-2.77,4.22-2.67,4.22-2.57,4.22-2.46,4.22-2.34,4.22-2.2,4.21-2.08,4.22-1.92,4.22-1.75,4.22-1.53,4.22-1.29,4.22-1.04,4.22-.74,4.22-.46,4.21-.16,4.22.13,4.22.36,4.54.61,5.27.88,5.7,1.02,5.28.89,4.54.66,4.21.44,4.22.29,4.22.14h4.22l4.22-.08,4.22-.12,4.22-.07h4.22s4.22.2,4.22.2l4.21.38,4.22.62,4.22.87,4.22,1.08,4.22,1.24,4.22,1.35,4.22,1.39,4.22,1.36,4.22,1.28,4.21,1.18,4.22,1.06,4.22.93,4.22.82,4.21.7,4.22.57,4.22.47,4.22.32,4.22.18,4.22.02,4.22-.16,4.22-.33,4.22-.51,4.21-.69,4.22-.87,4.22-1.04,4.22-1.2,4.22-1.35,4.22-1.46,4.22-1.58,4.22-1.66,4.22-1.73,5.17-2.19,8.34-3.58,11.82-5.1,11.82-5.08,8.34-3.6,5.17-2.3,4.22-1.95,4.22-2.04,4.22-2.12,4.22-2.19,4.22-2.28,4.21-2.34,4.22-2.38,4.22-2.44,4.22-2.48,4.22-2.55,4.22-2.64,4.22-2.76,4.22-2.91,4.22-3.06,4.21-3.25,4.22-3.41,4.22-3.58,4.54-4.04,5.27-4.84,5.7-5.31,5.28-4.9,4.54-4.15,4.21-3.74,4.22-3.59,4.22-3.42,4.22-3.23,4.22-3.04,4.22-2.87,4.22-2.72,4.53-2.81,5.28-3.17,5.7-3.4,5.27-3.15,4.86-2.95,5.27-3.26,5.7-3.52,5.28-3.17,4.53-2.51,4.22-2.04,4.54-1.93,5.27-2.08,5.71-2.18,5.27-2.05,4.54-1.84,4.22-1.82,4.21-1.93,4.22-2.03,4.22-2.13,4.22-2.21,4.22-2.28,4.22-2.35,4.22-2.41,4.22-2.48,4.22-2.53,4.21-2.61,4.22-2.65,4.22-2.73,4.22-2.81,4.54-3.12,5.27-3.72,5.7-4.02,5.28-3.59,4.53-2.81,4.54-2.46,5.27-2.63,5.71-2.78,5.27-2.59,4.54-2.3,4.22-2.21,4.21-2.29,4.54-2.52,5.28-3,5.7-3.27,5.27-3.08,4.54-2.69,4.22-2.57,4.22-2.65,4.21-2.72,4.54-3.03,5.28-3.59,5.7-3.9,5.27-3.5,4.54-2.79,4.22-2.33,4.22-2.11,4.21-1.92,4.22-1.73,4.22-1.54,4.22-1.3,4.22-1.09,4.22-.84,4.22-.59,4.22-.33,4.22-.06,4.21.17,4.22.38,4.54.6,5.27.83,5.71.94,5.27.83,4.54.57,4.21.32,4.22.05,4.22-.26,4.22-.6,4.22-.98,4.22-1.31,4.22-1.63,4.22-1.89,4.22-2.08,4.21-2.21,4.22-2.29"/><path class="cls-1" d="m46.15,449.29l2.36-1.73"/><path class="cls-1" d="m22.7,446.88l5.28-3.93,4.53-3.32,4.22-3,4.22-2.88,4.22-2.72,4.22-2.53,4.22-2.34,4.22-2.19,4.22-2.09,4.22-1.99,4.21-1.88,4.22-1.76,4.22-1.6,4.22-1.41,4.22-1.21,4.22-.95,4.22-.7,4.22-.43,4.21-.18,4.22.07,4.22.3,4.54.53,5.27.78,5.7.91,5.28.83,4.54.63,4.21.45,4.22.32,4.22.15h4.22s4.54-.12,4.54-.12l5.27-.28,5.7-.32,5.28-.23,4.53-.07,4.22.13,4.22.34,4.22.59,4.22.83,4.22,1.08,4.54,1.4,5.27,1.82,5.7,2.08,5.27,1.9,4.54,1.53,4.22,1.26,4.22,1.08,4.21.88,4.22.69,4.22.48,4.22.3,4.22.11,4.22-.05,4.22-.22,4.22-.37,4.21-.52,4.22-.66,4.22-.8,4.22-.94,4.22-1.07,4.22-1.19,4.22-1.3,4.22-1.41,4.22-1.49,4.21-1.58,4.22-1.64,4.22-1.68,4.22-1.74,4.22-1.78,4.22-1.8,4.22-1.84,4.22-1.86,4.22-1.9,4.21-1.93,4.22-1.96,4.22-1.99,4.22-2.05,4.22-2.08,4.22-2.14,4.22-2.19,4.22-2.24,4.21-2.3,4.22-2.34,4.22-2.38,4.22-2.42,4.22-2.46,4.22-2.5,4.22-2.55,4.22-2.65,4.22-2.74,4.21-2.87,4.22-3.02,4.22-3.16,4.22-3.31,4.22-3.46,4.22-3.59,4.54-4.02,5.27-4.78,5.7-5.2,5.27-4.79,4.54-4.04,4.22-3.64,4.22-3.52,4.22-3.37,4.22-3.22,4.22-3.07,4.22-2.93,4.21-2.83,4.22-2.77,4.22-2.73,4.22-2.76,4.22-2.79,4.22-2.86,4.54-3.15,5.27-3.75,5.7-4.05,5.27-3.61,4.54-2.79,4.22-2.2,4.22-1.88,4.22-1.71,4.22-1.63,4.22-1.65,4.21-1.72,4.22-1.8,4.22-1.91,4.22-2.01,4.22-2.12,4.22-2.21,4.22-2.29,4.22-2.35,4.22-2.39,4.21-2.44,4.22-2.47,4.22-2.53,4.22-2.6,4.22-2.67,4.22-2.77,4.22-2.85,4.53-3.17,5.28-3.78,5.7-4.11,5.27-3.73,4.54-3.02,4.54-2.73,5.27-2.93,5.7-3.06,5.28-2.83,4.53-2.47,4.22-2.34,4.54-2.56,5.27-3.01,5.7-3.28,5.28-3.07,4.54-2.69,4.21-2.54,4.22-2.61,4.22-2.68,4.22-2.76,4.22-2.84,4.54-3.14,5.27-3.72,5.7-4.05,5.28-3.67,4.53-2.97,4.22-2.44,4.22-2.08,4.22-1.71,4.22-1.34,4.22-.96,4.22-.58,4.22-.18,4.21.23,4.54.68,5.27,1.09,5.71,1.3,5.27,1.2,4.54.94,4.22.77,4.21.65,4.22.47,4.22.26h4.22l4.22-.3,4.22-.63,4.22-.98,4.22-1.31,4.22-1.6,4.21-1.87,4.22-2.08,4.22-2.23,4.22-2.31"/><path class="cls-1" d="m1.69,445.12l5.27-3.73,5.7-4.05,5.27-3.73,4.54-3.09,4.22-2.69,4.22-2.4,4.22-2.09,4.22-1.84,4.22-1.64,4.21-1.49,4.22-1.37,4.22-1.24,4.22-1.11,4.22-.98,4.22-.83,4.22-.66,4.22-.48,4.22-.29,4.21-.08,4.22.08,4.86.3,6.33.58,7.17.71,6.33.6,4.85.37,4.22.18,4.22.07,4.22-.04,4.54-.17,5.27-.3,5.7-.37,5.28-.32,4.53-.19,4.22-.05,4.22.1,4.22.27,4.22.45,4.22.66,4.22.83,4.22,1.01,4.53,1.24,5.28,1.57,5.7,1.76,5.27,1.6,4.54,1.3,4.22,1.06,4.22.9,4.22.71,4.22.49,4.21.28,4.22.06,4.22-.13,4.22-.32,4.21-.48,4.22-.61,4.22-.75,4.22-.86,4.22-.95,4.22-1.04,4.22-1.12,4.22-1.2,4.22-1.26,4.21-1.31,4.22-1.39,4.22-1.44,4.22-1.51,4.22-1.57,4.22-1.62,4.22-1.68,4.22-1.74,4.22-1.78,4.21-1.83,4.22-1.88,4.22-1.93,4.22-1.98,4.22-2.05,4.22-2.1,4.22-2.15,4.22-2.21,4.22-2.27,4.21-2.31,4.54-2.53,5.27-3,5.71-3.26,5.27-3.06,4.54-2.68,4.22-2.55,4.21-2.63,4.22-2.71,4.22-2.83,4.22-2.96,4.22-3.11,4.22-3.24,4.22-3.39,4.22-3.54,4.22-3.69,4.53-4.09,5.28-4.87,5.7-5.3,5.27-4.86,4.54-4.08,4.22-3.64,4.22-3.5,4.22-3.35,4.21-3.2,4.54-3.29,5.28-3.7,5.7-3.92,5.27-3.63,4.54-3.19,4.22-3.05,4.22-3.14,4.21-3.22,4.22-3.29,4.22-3.31,4.22-3.24,4.22-3.08,4.22-2.77,4.22-2.39,4.53-2.19,5.28-2.3,5.7-2.42,5.27-2.29,4.54-2.04,4.22-2,4.22-2.09,4.22-2.17,4.22-2.25,4.21-2.3,4.22-2.36,4.22-2.39,4.22-2.43,4.22-2.46,4.22-2.52,4.22-2.57,4.22-2.66,4.22-2.74,4.21-2.83,4.22-2.92,4.22-2.99,4.22-3.05,4.22-3.07,4.22-3.03,4.22-2.95,4.22-2.81,4.85-2.98,6.65-3.87,8.86-5.04,9.92-5.66,8.87-5.11,6.65-3.88,4.85-2.89,4.22-2.59,4.22-2.65,4.22-2.73,4.22-2.82,4.22-2.91,4.22-3.01,4.21-3.1,4.22-3.16,4.22-3.19,4.22-3.14,4.22-2.92,4.22-2.49,4.22-1.85,4.22-1.1,4.22-.38,4.21.32,4.54,1.04,5.28,1.69,5.7,2,5.27,1.79,4.54,1.38,4.22,1.08,4.22.89,4.21.7,4.22.5,4.22.27,4.22.03,4.22-.22,4.22-.52,4.22-.83,4.22-1.12,4.21-1.42,4.22-1.68,4.22-1.9,4.22-2.08,4.22-2.19,4.22-2.27"/><path class="cls-1" d="m1.24,432.44l6.33-4.03,4.86-2.77,4.22-1.97,4.22-1.6,4.21-1.26,4.22-1,4.22-.77,4.22-.61,4.22-.48,4.22-.39,4.22-.32,4.22-.29,4.22-.24,4.21-.21,4.22-.19,5.18-.18,7.39-.22,8.66-.23,7.39-.23,5.17-.21,4.22-.22,4.86-.32,6.33-.47,7.17-.53,6.34-.42,4.85-.23,4.22-.07,4.22.04,4.22.2,4.22.36,4.22.52,4.22.69,4.85.98,6.33,1.42,7.18,1.68,6.32,1.47,4.86,1.08,4.22.85,4.22.74,4.22.61,4.22.46,4.21.27,4.22.07,4.22-.15,4.22-.34,4.22-.54,4.22-.72,4.22-.87,4.21-.98,5.18-1.37,8.02-2.25,10.76-3.07,10.35-2.95,7.28-2.09,4.86-1.44,4.22-1.32,4.22-1.4,4.22-1.47,4.21-1.56,4.22-1.62,4.22-1.68,4.22-1.76,4.22-1.84,4.22-1.9,4.22-1.98,4.22-2.05,4.22-2.13,4.21-2.19,4.22-2.26,4.22-2.31,4.54-2.53,5.27-3.01,5.7-3.27,5.28-3.07,4.54-2.68,4.21-2.55,4.22-2.64,4.22-2.72,4.22-2.85,4.22-2.99,4.22-3.15,4.22-3.3,4.22-3.46,4.21-3.62,4.22-3.77,4.54-4.23,5.27-5.07,5.71-5.51,5.27-5.09,4.54-4.26,4.22-3.84,4.21-3.65,4.22-3.5,4.22-3.34,4.22-3.2,4.22-3.11,4.22-3.04,4.22-3.02,4.22-3.03,4.22-3.07,4.21-3.15,4.54-3.45,5.29-4.1,5.7-4.44,5.27-4.07,4.54-3.42,4.22-3.04,4.22-2.9,4.21-2.73,4.22-2.53,4.54-2.52,5.59-2.93,6.76-3.46,6.75-3.46,5.6-2.91,4.53-2.41,4.22-2.29,4.22-2.32,4.22-2.36,4.22-2.38,4.22-2.42,4.22-2.44,4.22-2.47,4.21-2.52,4.22-2.59,4.22-2.66,4.22-2.74,4.22-2.82,4.22-2.9,4.22-2.96,4.22-3.01,4.22-3.02,4.21-2.99,4.22-2.93,4.22-2.81,4.86-3.03,6.96-4.13,9.29-5.38,9.28-5.37,6.96-4.06,4.86-2.88,4.22-2.57,4.22-2.64,4.22-2.71,4.22-2.81,4.21-2.91,4.22-3.04,4.54-3.4,5.27-4.08,5.71-4.41,5.27-3.86,4.54-2.71,4.22-1.6,4.21-.62,4.22.24,4.22.92,4.22,1.4,4.22,1.65,4.22,1.74,4.22,1.7,4.22,1.54,4.22,1.35,4.21,1.12,4.22.9,4.22.66,4.22.42,4.22.18,4.22-.07,4.22-.34,4.22-.64,4.22-.93,4.21-1.24,4.22-1.51,4.22-1.77,4.22-1.97,4.22-2.14,4.22-2.26,4.22-2.32"/><path class="cls-1" d="m2.39,425.25l4.22-1.22,4.22-.85,4.22-.53,4.22-.27,4.54-.06,5.27.06,5.7.11,5.28.05,4.53-.06,4.22-.19,4.22-.32,4.22-.46,4.22-.56,4.85-.79,6.33-1.13,7.18-1.31,6.33-1.14,4.85-.81,4.22-.62,4.22-.53,4.22-.45,4.22-.36,4.21-.26,4.22-.15,4.22-.03,4.22.11,4.22.24,4.22.39,4.22.55,4.85.82,6.33,1.24,7.18,1.46,6.32,1.26,4.86.88,4.22.66,4.22.57,4.22.48,4.22.36,4.21.22,4.22.05,4.22-.12,4.22-.33,4.22-.55,4.22-.76,4.22-.99,4.22-1.15,4.22-1.31,4.53-1.54,5.29-1.88,5.7-2.05,5.27-1.86,4.53-1.52,4.22-1.29,4.22-1.19,4.54-1.15,5.27-1.25,5.7-1.32,5.28-1.25,4.53-1.17,4.22-1.17,4.22-1.27,4.22-1.37,4.22-1.47,4.22-1.58,4.22-1.67,4.22-1.78,4.22-1.88,4.21-1.98,4.22-2.07,4.22-2.16,4.22-2.24,4.22-2.29,4.54-2.53,5.27-3,5.7-3.29,5.28-3.07,4.53-2.7,4.22-2.59,4.22-2.67,4.22-2.79,4.22-2.92,4.22-3.07,4.22-3.24,4.22-3.41,4.21-3.6,4.22-3.77,4.22-3.94,4.54-4.41,5.27-5.26,5.7-5.72,5.28-5.28,4.53-4.43,4.22-3.98,4.22-3.83,4.22-3.67,4.22-3.5,4.22-3.37,4.85-3.73,6.33-4.76,7.81-5.83,8.45-6.33,7.81-5.87,6.33-4.71,4.86-3.54,4.22-2.98,4.21-2.89,5.18-3.39,7.39-4.7,8.66-5.46,8.02-5.05,7.6-4.84,8.23-5.26,7.81-4.96,5.91-3.69,5.49-3.33,7.4-4.4,8.65-5.11,7.39-4.38,5.18-3.12,4.22-2.62,4.22-2.69,4.22-2.74,4.53-3.04,5.28-3.6,5.7-3.93,5.27-3.63,4.54-3.06,4.22-2.76,4.22-2.68,4.85-2.96,6.34-3.76,7.17-4.24,6.33-3.75,4.86-2.91,4.22-2.61,4.22-2.66,4.21-2.74,4.22-2.83,4.22-2.93,4.22-3.04,4.54-3.42,5.27-4.08,5.7-4.39,5.28-3.74,4.53-2.44,4.22-1.21,4.22-.21,4.22.59,4.54,1.31,5.27,2,5.7,2.35,5.28,2.16,4.53,1.71,4.22,1.36,4.22,1.12,4.22.89,4.22.65,4.22.39,4.22.13,4.22-.18,4.22-.49,4.21-.82,4.22-1.13,4.22-1.42,4.22-1.68,4.22-1.9,4.22-2.07,4.22-2.19,4.22-2.28,4.21-2.33"/><path class="cls-1" d="m.8,426.36l4.22-.17h4.22l4.22.11,4.21.14,4.22.08h4.22s4.22-.15,4.22-.15l4.22-.31,4.22-.49,4.22-.66,4.22-.8,4.53-1.03,5.28-1.3,5.7-1.47,5.27-1.33,4.54-1.08,4.22-.89,4.22-.76,4.22-.65,4.22-.5,4.21-.37,4.22-.25,4.22-.12h4.22s4.22.1,4.22.1l4.22.21,4.22.32,4.85.51,6.33.78,7.18.94,6.32.81,4.86.53,4.22.38,4.22.3,4.22.24,4.21.17,4.22.08h4.22l4.22-.14,4.22-.3,4.22-.5,4.22-.71,4.22-.93,4.21-1.18,4.22-1.38,4.22-1.55,4.54-1.83,5.27-2.25,5.71-2.45,5.27-2.21,4.54-1.79,4.22-1.5,4.21-1.33,4.22-1.17,4.54-1.07,5.27-1.1,5.7-1.12,5.27-1.05,4.54-.98,4.22-1.02,4.22-1.13,4.22-1.25,4.22-1.38,4.22-1.5,4.21-1.64,4.22-1.75,4.22-1.89,4.22-1.99,4.22-2.11,4.22-2.19,4.22-2.28,4.22-2.33,4.22-2.38,4.21-2.42,4.22-2.45,4.22-2.49,4.22-2.53,4.22-2.62,4.22-2.7,4.22-2.83,4.22-2.97,4.22-3.11,4.21-3.29,4.22-3.48,4.22-3.66,4.22-3.86,4.22-4.02,4.54-4.49,5.27-5.34,5.7-5.83,5.29-5.36,4.53-4.54,4.22-4.1,4.22-3.96,4.22-3.83,4.22-3.69,4.22-3.55,4.22-3.43,4.21-3.35,4.54-3.51,5.28-4.01,5.7-4.29,5.27-3.93,4.54-3.34,4.22-3.04,4.22-2.98,4.21-2.92,4.22-2.85,4.86-3.2,6.33-4.08,7.17-4.59,6.33-4.06,4.86-3.15,4.21-2.79,4.22-2.83,4.22-2.86,5.48-3.77,8.45-5.89,10.13-7.08,8.45-5.89,5.49-3.77,4.22-2.83,4.86-3.14,6.32-3.96,7.18-4.44,6.34-3.92,4.85-3.04,4.22-2.7,4.86-3.16,6.34-4.18,7.17-4.77,6.33-4.18,5.8-3.74,7.39-4.63,8.66-5.4,7.39-4.62,5.18-3.29,4.21-2.75,4.22-2.83,4.22-2.89,4.22-2.97,4.22-3.06,4.22-3.15,4.22-3.21,4.22-3.21,4.21-3.04,4.22-2.58,4.22-1.81,4.22-.87h4.22s4.22.73,4.22.73l4.54,1.35,5.27,1.97,5.7,2.3,5.28,2.1,4.53,1.65,4.22,1.31,4.22,1.09,4.22.84,4.22.56,4.22.25,4.22-.06,4.21-.42,4.22-.78,4.22-1.11,4.22-1.41,4.22-1.66,4.22-1.86,4.22-2.03,4.53-2.35,5.6-3.02,6.75-3.71"/><path class="cls-1" d="m.58,429.06l5.7-.21,5.27-.26,4.54-.31,4.22-.4,4.22-.52,4.22-.62,4.21-.73,4.86-.95,6.33-1.35,7.17-1.55,6.33-1.36,4.86-.99,4.22-.78,4.21-.7,4.22-.64,4.22-.54,4.22-.48,4.22-.39,4.22-.31,4.22-.23,4.22-.17,4.22-.11,4.85-.02,6.33.04,7.17.08,6.33.05h4.86l4.85-.07,6.33-.15,7.18-.21,6.32-.22,4.86-.27,4.22-.34,4.22-.5,4.22-.67,4.21-.88,4.22-1.1,4.22-1.32,4.22-1.52,4.22-1.68,4.54-1.96,5.27-2.39,5.7-2.62,5.28-2.37,4.53-1.92,4.22-1.63,4.22-1.46,4.22-1.28,4.21-1.13,4.54-1.06,5.27-1.13,5.71-1.18,5.27-1.13,4.54-1.06,4.22-1.1,4.21-1.23,4.22-1.37,4.22-1.49,4.22-1.65,4.22-1.78,4.22-1.92,4.22-2.03,4.22-2.15,4.22-2.24,4.21-2.31,4.22-2.36,4.22-2.42,4.22-2.44,4.22-2.49,4.22-2.53,4.22-2.6,4.22-2.69,4.22-2.79,4.21-2.9,4.22-3.05,4.22-3.21,4.22-3.4,4.22-3.57,4.22-3.76,4.22-3.91,4.22-4.06,4.53-4.48,5.29-5.3,5.7-5.74,5.27-5.29,4.54-4.47,4.22-4.07,4.22-3.96,4.22-3.83,4.21-3.73,4.22-3.62,4.22-3.51,4.22-3.41,4.22-3.33,4.22-3.24,4.22-3.17,4.22-3.09,4.22-3.03,4.21-2.98,4.22-2.92,5.5-3.71,8.44-5.64,10.13-6.74,8.45-5.64,5.49-3.69,4.22-2.89,4.22-2.92,4.22-2.97,4.22-3,5.17-3.72,7.4-5.38,8.65-6.3,7.4-5.37,5.17-3.71,4.22-2.98,4.22-2.95,4.53-3.13,5.28-3.59,5.7-3.86,6.23-4.14,8.65-5.67,11.83-7.7,12.76-8.31,11.5-7.47,9.61-6.2,7.39-4.79,5.17-3.38,4.22-2.82,4.54-3.06,5.27-3.6,5.7-3.9,5.28-3.6,4.54-3.04,4.21-2.65,4.22-2.36,4.22-1.94,4.22-1.45,4.22-.93,4.22-.4,4.22.15,4.22.67,4.21,1.08,4.22,1.35,4.22,1.47,4.22,1.45,4.22,1.37,4.22,1.21,4.22,1,4.22.73,4.22.41,4.21.06,4.22-.33,4.22-.71,4.22-1.08,4.22-1.4,4.22-1.67,4.22-1.88,4.22-2.06,4.22-2.18,4.21-2.27,4.22-2.33,4.22-2.35,4.22-2.36"/><path class="cls-1" d="m3.3,429.4l6.34-.65,4.85-.53,4.22-.51,4.22-.55,4.22-.59,4.22-.62,4.22-.67,4.22-.71,4.21-.74,4.22-.77,5.18-1.02,7.39-1.5,8.66-1.77,7.39-1.48,5.18-.96,4.21-.7,4.22-.61,4.22-.55,4.22-.47,4.54-.41,5.59-.43,8.02-.57,10.97-.83,11.51-.9,8.75-.75,5.5-.57,4.21-.57,4.22-.71,4.22-.87,4.22-1.04,4.22-1.23,4.22-1.41,4.22-1.56,4.22-1.68,4.22-1.81,4.21-1.9,4.22-1.95,4.22-1.98,4.22-1.95,4.22-1.89,4.22-1.77,4.22-1.65,4.22-1.52,4.22-1.4,4.21-1.28,4.54-1.27,5.27-1.39,5.7-1.47,5.28-1.4,4.53-1.27,4.22-1.28,4.22-1.4,4.22-1.52,4.22-1.65,4.22-1.8,4.22-1.93,4.21-2.05,4.22-2.16,4.22-2.25,4.22-2.33,4.22-2.37,4.22-2.43,4.22-2.46,4.22-2.5,4.22-2.54,4.21-2.62,4.22-2.68,4.22-2.79,4.22-2.88,4.22-3.02,4.22-3.16,4.22-3.32,4.22-3.48,4.22-3.63,4.21-3.77,4.22-3.9,5.18-4.94,7.39-7.2,8.66-8.49,7.7-7.51,6.23-5.92,5.7-5.21,5.27-4.66,4.54-3.84,4.22-3.43,4.22-3.36,4.22-3.26,4.21-3.18,4.22-3.1,4.22-3.05,6.12-4.33,10.88-7.63,14.14-9.92,12.03-8.46,7.17-5.08,4.54-3.25,4.22-3.06,4.85-3.57,6.34-4.68,7.17-5.33,6.34-4.68,4.86-3.55,4.22-3.04,4.85-3.44,6.34-4.44,7.18-5.03,6.32-4.44,5.18-3.67,5.27-3.78,5.7-4.08,5.28-3.75,4.53-3.17,4.22-2.86,4.22-2.78,4.22-2.68,5.17-3.1,7.4-4.27,8.65-4.94,7.4-4.21,6.43-3.73,8.45-4.96,10.13-5.94,8.45-4.89,5.49-2.99,4.22-2.01,4.22-1.72,4.22-1.4,4.22-1.05,4.22-.72,4.22-.4,4.21-.12,4.22.14,4.22.33,4.86.61,6.34.96,7.17,1.12,6.33.82,4.85.25,4.22-.21,4.22-.6,4.22-.99,4.22-1.35,4.22-1.65,4.22-1.88,4.22-2.04,4.21-2.18,4.54-2.47,5.28-2.93,5.7-3.22,5.59-3.16"/><path class="cls-1" d="m4.45,430.16l4.22-.43,4.22-.51,4.22-.6,4.22-.71,4.21-.81,4.22-.9,4.22-1.01,4.22-1.09,4.22-1.18,4.54-1.36,5.27-1.65,5.7-1.79,5.28-1.61,4.53-1.29,4.22-1.09,4.22-.95,4.22-.82,4.22-.68,4.22-.54,4.53-.43,5.28-.4,5.7-.38,5.27-.36,4.54-.35,4.22-.36,4.22-.41,4.22-.47,4.22-.55,4.21-.61,4.22-.72,4.22-.84,4.22-.95,4.22-1.08,4.22-1.22,4.22-1.36,4.22-1.48,4.22-1.59,4.21-1.67,4.22-1.78,4.86-2.14,6.34-2.91,7.17-3.33,6.34-2.9,4.86-2.16,4.21-1.79,4.22-1.7,4.22-1.61,4.22-1.54,4.22-1.45,4.86-1.58,6.32-1.99,7.17-2.24,6.34-2,4.86-1.62,4.22-1.49,4.21-1.61,4.22-1.72,4.22-1.84,4.22-1.96,4.22-2.07,4.22-2.16,4.22-2.25,4.22-2.33,4.22-2.39,4.21-2.44,4.22-2.47,4.22-2.52,4.22-2.57,4.22-2.63,4.22-2.71,4.22-2.81,4.22-2.91,4.22-3.03,4.21-3.18,4.22-3.33,4.22-3.48,4.22-3.62,4.22-3.77,4.22-3.9,4.22-4.01,4.53-4.42,5.29-5.19,5.7-5.64,5.27-5.19,4.54-4.4,4.22-3.99,4.22-3.91,4.22-3.8,4.22-3.7,4.21-3.59,4.22-3.5,4.22-3.41,4.22-3.35,4.22-3.29,4.22-3.25,4.22-3.23,4.22-3.21,4.22-3.18,4.21-3.15,4.22-3.12,5.18-3.76,7.39-5.29,8.66-6.18,7.39-5.29,6.12-4.46,7.39-5.46,8.66-6.42,7.39-5.46,5.18-3.78,5.17-3.69,7.39-5.21,9.29-6.54,9.5-6.73,8.13-5.77,6.34-4.48,4.85-3.33,4.22-2.72,4.22-2.55,4.22-2.39,4.22-2.27,4.22-2.17,4.85-2.4,6.33-3.07,7.17-3.44,6.34-3.07,4.86-2.42,4.22-2.16,4.22-2.24,4.22-2.28,4.21-2.32,4.22-2.34,4.22-2.31,4.22-2.22,4.22-2.09,4.22-1.9,4.22-1.67,4.22-1.41,4.22-1.19,4.21-.95,4.22-.78,4.22-.65,4.22-.54,4.22-.48,4.22-.42,4.22-.39,4.22-.35,4.21-.32,4.22-.28,4.22-.3,4.22-.43,4.22-.69,4.22-1,4.22-1.32,4.22-1.62,4.22-1.86,4.21-2.04,4.22-2.18,4.86-2.65,6.34-3.56,7.17-4.09,6.97-3.98"/><path class="cls-1" d="m1.09,431.62l1.75-.33,4.22-.98,4.22-1.17,4.22-1.33,4.22-1.46,4.22-1.59,4.54-1.83,5.27-2.21,5.7-2.42,5.28-2.2,4.53-1.79,4.22-1.51,4.22-1.33,4.22-1.14,4.22-.93,4.22-.71,4.22-.51,4.53-.33,5.28-.23,5.7-.2,5.27-.2,4.54-.25,4.22-.33,4.22-.45,4.22-.56,4.21-.7,4.22-.83,4.22-.98,4.22-1.12,4.22-1.26,4.22-1.39,4.22-1.49,4.22-1.61,4.21-1.71,4.22-1.79,4.22-1.85,4.22-1.92,4.86-2.26,6.33-3.01,7.17-3.4,6.34-2.99,4.85-2.24,4.22-1.89,4.22-1.82,4.22-1.77,4.22-1.68,4.22-1.63,4.22-1.56,4.22-1.49,4.21-1.45,4.86-1.61,6.34-2.05,7.17-2.3,6.33-2.08,4.85-1.66,4.22-1.55,4.22-1.65,4.22-1.76,4.22-1.88,4.22-1.99,4.21-2.11,4.22-2.21,4.22-2.31,4.22-2.37,4.22-2.44,4.22-2.47,4.22-2.51,4.22-2.56,4.22-2.64,4.21-2.72,4.22-2.84,4.22-2.99,4.22-3.12,4.22-3.31,4.22-3.49,4.22-3.67,4.22-3.84,4.22-3.99,4.53-4.45,5.29-5.32,5.7-5.8,5.27-5.36,4.54-4.57,4.22-4.16,4.22-4.08,4.22-3.98,4.21-3.9,4.22-3.8,4.22-3.74,4.22-3.68,4.22-3.62,4.22-3.59,4.22-3.55,4.22-3.51,4.21-3.46,4.22-3.38,4.22-3.3,4.22-3.22,4.22-3.14,4.54-3.29,5.27-3.76,5.7-4.05,5.28-3.76,5.17-3.73,6.33-4.62,7.17-5.27,6.33-4.63,4.86-3.51,4.22-3.01,4.85-3.41,6.34-4.43,7.81-5.43,8.45-5.91,7.81-5.47,6.34-4.38,4.85-3.2,4.22-2.57,4.22-2.38,4.22-2.28,4.22-2.2,4.22-2.18,4.22-2.14,4.21-2.1,4.22-2.03,4.22-1.97,4.54-2.04,5.27-2.32,5.7-2.47,5.28-2.31,4.54-2.02,4.21-1.95,4.54-2.17,5.28-2.58,5.7-2.82,5.27-2.57,4.54-2.12,4.22-1.81,4.22-1.65,4.21-1.5,4.22-1.35,4.22-1.25,4.22-1.18,4.22-1.14,4.22-1.17,4.54-1.3,5.27-1.58,5.7-1.73,5.27-1.55,4.54-1.24,4.22-1.08,4.22-1.12,4.22-1.28,4.22-1.49,4.22-1.72,4.21-1.91,4.22-2.09,4.22-2.21,4.22-2.32,4.22-2.4,4.54-2.63,5.27-3.09,5.7-3.34,5.59-3.26"/><path class="cls-1" d="m1.25,427.38l4.22-1.84,4.22-1.99,4.53-2.26,5.28-2.72,5.7-2.95,5.27-2.67,4.54-2.14,4.22-1.79,4.22-1.56,4.22-1.31,4.22-1.03,4.21-.74,4.22-.47,4.54-.24,5.27-.11,5.7-.05,5.28-.1,4.54-.18,4.22-.33,4.21-.48,4.22-.64,4.22-.83,4.22-.99,4.22-1.17,4.22-1.31,4.22-1.47,4.22-1.61,4.22-1.73,4.21-1.82,4.22-1.92,4.22-1.98,4.22-2.05,4.86-2.39,6.32-3.18,7.18-3.61,6.34-3.16,4.85-2.37,4.22-1.99,4.22-1.93,4.22-1.86,4.22-1.78,4.22-1.73,4.22-1.66,4.21-1.61,4.22-1.56,4.22-1.5,4.22-1.46,4.22-1.39,4.86-1.54,6.32-1.91,7.17-2.15,6.34-1.93,4.86-1.58,4.22-1.51,4.22-1.63,4.21-1.77,4.22-1.91,4.22-2.03,4.22-2.15,4.22-2.25,4.22-2.33,4.22-2.4,4.22-2.45,4.21-2.49,4.22-2.56,4.22-2.65,4.22-2.76,4.22-2.89,4.22-3.04,4.22-3.23,4.22-3.43,4.22-3.64,4.21-3.83,4.22-4.02,4.86-4.83,6.33-6.48,7.17-7.43,6.33-6.53,4.86-4.93,4.21-4.17,4.22-4.1,4.22-4.01,4.22-3.95,4.22-3.89,4.22-3.85,4.22-3.82,4.22-3.79,4.22-3.75,4.21-3.7,4.22-3.62,4.22-3.52,4.22-3.4,4.22-3.29,4.22-3.17,4.54-3.31,5.27-3.77,5.7-4.05,5.91-4.22,6.65-4.78,7.17-5.18,6.33-4.55,4.86-3.44,5.17-3.59,7.39-5.05,8.66-5.9,7.7-5.28,6.23-4.3,5.7-3.94,5.27-3.59,4.54-2.9,4.86-2.76,6.96-3.62,9.29-4.67,9.28-4.64,6.96-3.45,4.86-2.35,4.22-1.96,4.22-1.89,4.85-2.09,6.33-2.66,7.18-3,6.64-2.81,5.91-2.56,5.7-2.5,5.28-2.31,4.54-1.93,4.21-1.72,4.22-1.62,4.54-1.64,5.27-1.82,5.71-1.93,5.27-1.83,4.54-1.65,4.22-1.64,4.21-1.77,4.22-1.86,4.22-1.95,4.54-2.11,5.27-2.38,5.7-2.54,5.28-2.4,4.54-2.19,4.21-2.18,4.22-2.31,4.22-2.4,4.22-2.48,4.22-2.53,4.22-2.58,4.54-2.83,5.27-3.33,5.7-3.56,5.59-3.47"/><path class="cls-1" d="m3.87,414.42l4.22-2.37,4.22-2.38,4.22-2.32,4.22-2.2,4.22-1.99,4.22-1.72,4.21-1.41,4.22-1.07,4.22-.74,4.22-.46,4.54-.22,5.27-.06h5.7l5.28-.05,4.53-.17,4.22-.32,4.22-.5,4.22-.69,4.22-.88,4.22-1.08,4.22-1.25,4.22-1.44,4.22-1.59,4.21-1.73,4.22-1.84,4.22-1.94,4.22-2.02,4.22-2.08,5.17-2.62,7.4-3.8,8.65-4.48,7.4-3.8,5.17-2.6,4.22-2.04,4.22-1.96,4.22-1.88,4.22-1.8,4.21-1.74,4.22-1.67,4.22-1.62,4.22-1.58,4.22-1.52,4.22-1.46,4.22-1.4,4.22-1.33,4.53-1.36,5.29-1.51,5.7-1.59,5.27-1.49,4.54-1.36,4.21-1.37,4.22-1.51,4.22-1.64,4.22-1.8,4.22-1.94,4.22-2.08,4.22-2.17,4.22-2.28,4.22-2.35,4.21-2.42,4.22-2.47,4.22-2.53,4.22-2.62,4.22-2.72,4.22-2.85,4.22-3.01,4.22-3.19,4.21-3.4,4.22-3.61,4.22-3.84,4.22-4.03,4.86-4.86,6.33-6.54,7.17-7.47,6.33-6.57,4.85-4.96,4.22-4.22,4.22-4.14,4.22-4.07,4.22-4.01,4.54-4.26,5.27-4.92,5.7-5.27,5.27-4.84,4.54-4.08,4.22-3.69,4.22-3.58,4.22-3.44,4.22-3.3,4.22-3.19,4.53-3.32,5.28-3.76,5.7-4.05,5.91-4.2,6.65-4.77,7.17-5.15,6.33-4.51,4.85-3.4,4.86-3.32,6.33-4.27,7.17-4.81,6.33-4.25,4.86-3.3,4.21-2.9,4.22-2.92,4.22-2.89,4.22-2.79,4.22-2.58,4.54-2.49,5.27-2.66,5.7-2.76,5.91-2.89,6.65-3.32,7.17-3.6,6.34-3.15,4.86-2.34,4.22-1.95,4.21-1.86,4.54-1.92,5.28-2.16,5.7-2.31,5.91-2.4,6.64-2.74,7.18-2.98,6.34-2.6,4.85-1.91,4.54-1.68,5.27-1.88,5.7-1.98,5.28-1.86,4.54-1.66,4.21-1.67,4.22-1.79,4.22-1.93,4.22-2.06,4.22-2.17,4.22-2.27,4.22-2.34,4.22-2.4,4.22-2.46,4.21-2.54,4.22-2.65,4.22-2.72,4.22-2.81,4.22-2.88,4.22-2.95,4.22-3.02,4.53-3.33,5.28-3.94,5.7-4.25,5.27-3.84,4.54-3.17"/><path class="cls-1" d="m2.28,399.92l4.22-2.3,4.22-2.07,4.22-1.75,4.21-1.4,4.22-1.05,4.22-.72,4.22-.43,4.54-.2,5.27-.04h5.7s5.28-.03,5.28-.03l4.53-.17,4.22-.34,4.22-.52,4.22-.71,4.22-.91,4.22-1.1,4.22-1.29,4.22-1.47,4.22-1.63,4.21-1.77,4.22-1.89,4.22-1.97,4.22-2.06,4.22-2.11,5.17-2.66,7.4-3.85,8.65-4.52,7.4-3.83,5.17-2.61,4.22-2.04,4.22-1.96,4.22-1.89,4.22-1.8,4.21-1.74,4.22-1.67,4.22-1.61,4.22-1.57,4.22-1.52,4.22-1.45,4.22-1.4,4.22-1.32,4.53-1.35,5.29-1.48,5.7-1.56,5.27-1.46,4.54-1.33,4.22-1.35,4.22-1.47,4.22-1.62,4.21-1.78,4.22-1.93,4.22-2.05,4.22-2.15,4.22-2.23,4.21-2.31,4.22-2.38,4.22-2.47,4.22-2.55,4.22-2.64,4.22-2.72,4.22-2.83,4.22-3,4.22-3.17,4.21-3.38,4.22-3.6,4.22-3.83,4.22-4.03,4.86-4.87,6.33-6.54,7.17-7.48,6.33-6.58,4.85-4.97,4.22-4.23,4.22-4.15,4.22-4.08,4.22-4.03,4.54-4.28,5.27-4.95,5.7-5.3,5.27-4.87,4.54-4.11,4.22-3.72,4.22-3.6,4.22-3.46,4.22-3.33,4.22-3.2,4.53-3.32,5.28-3.77,5.7-4.04,5.91-4.2,6.65-4.76,7.17-5.14,6.33-4.5,4.85-3.4,4.86-3.31,6.33-4.25,7.17-4.78,6.33-4.24,5.17-3.51,5.28-3.63,5.7-3.93,5.27-3.54,4.54-2.8,4.54-2.46,5.27-2.62,5.7-2.74,5.91-2.88,6.65-3.32,7.17-3.62,6.34-3.17,4.86-2.34,4.22-1.95,4.21-1.85,4.54-1.91,5.28-2.15,5.7-2.29,5.59-2.26,5.59-2.29,5.7-2.35,5.28-2.16,4.53-1.82,4.22-1.61,4.54-1.66,5.27-1.84,5.7-1.97,5.28-1.86,4.54-1.7,4.21-1.69,4.22-1.83,4.22-1.96,4.22-2.09,4.22-2.18,4.22-2.28,4.22-2.37,4.22-2.47,4.22-2.59,4.21-2.69,4.22-2.82,4.22-3,4.22-3.17,4.22-3.36,4.22-3.52,4.22-3.64,4.22-3.71,4.21-3.77,4.22-3.79,4.22-3.72,4.22-3.58,4.22-3.44"/><line class="cls-1" x1="1247.05" y1="448.33" x2="1310.02" y2="448.33"/><line class="cls-1" x1="346.65" y1="448.33" x2="1247.05" y2="448.33"/><line class="cls-1" x1="275.68" y1="448.33" x2="346.65" y2="448.33"/><line class="cls-1" x1="235.05" y1="448.33" x2="275.68" y2="448.33"/><line class="cls-1" x1="20.75" y1="448.33" x2="235.05" y2="448.33"/></svg>