<svg width="28" height="31" viewBox="0 0 28 31" fill="none" xmlns="http://www.w3.org/2000/svg">
<g clip-path="url(#clip0_1303_4649)">
<path d="M13.6001 29.93L13.3301 30.74L13.6001 30.83L13.8701 30.74L13.6001 29.93ZM25.5001 4.60999V12.24H27.2001V4.60999H25.5001ZM25.5001 12.24C25.5001 19.9 20.6001 26.7 13.3301 29.12L13.8701 30.73C21.8301 28.08 27.2001 20.63 27.2001 12.24H25.5001ZM13.8701 29.12L13.3701 28.95L12.8301 30.56L13.3301 30.73L13.8701 29.12Z" fill="white"/>
<path d="M0.85 4.61L0.61 3.79L0 3.97V4.61H0.85ZM13.61 0.89L13.85 0.07L13.61 0L13.37 0.07L13.61 0.89ZM26.35 4.61H27.2V3.97L26.59 3.79L26.35 4.61ZM1.09 5.42L13.84 1.7L13.36 0.07L0.61 3.79L1.09 5.42ZM13.37 1.7L26.11 5.42L26.59 3.79L13.84 0.07L13.36 1.7H13.37ZM13.87 29.12C6.6 26.7 1.7 19.9 1.7 12.24H0C0 20.63 5.37 28.08 13.33 30.73L13.87 29.12ZM1.7 12.24V4.61H0V12.24H1.7ZM25.5 4.61V5.26H27.2V4.61H25.5ZM25.5 5.26V6.49H27.2V5.26H25.5Z" fill="white"/>
<path d="M8.92993 14.76L12.2599 18.09L18.9299 11.42" stroke="white" stroke-width="1.7"/>
</g>
<defs>
<clipPath id="clip0_1303_4649">
<rect width="27.2" height="30.82" fill="white"/>
</clipPath>
</defs>
</svg>
