<svg width="28" height="28" viewBox="0 0 28 28" fill="none" xmlns="http://www.w3.org/2000/svg">
<g clip-path="url(#clip0_1303_4661)">
<path d="M0.850098 13.6C0.850098 20.64 6.5601 26.35 13.6001 26.35C15.3301 26.35 16.9801 26.01 18.4801 25.38C19.2601 25.06 19.9901 24.66 20.6801 24.2C21.3801 23.73 22.0201 23.2 22.6101 22.61C23.2001 22.02 23.7301 21.37 24.2001 20.68" stroke="white" stroke-width="1.7"/>
<path d="M26.35 13.6C26.35 6.55998 20.64 0.849976 13.6 0.849976C11.87 0.849976 10.22 1.18998 8.72 1.81998C7.94 2.13998 7.21 2.53998 6.52 2.99998C5.82 3.46998 5.18 3.99998 4.59 4.58998C4 5.17998 3.47 5.82998 3 6.51998" stroke="white" stroke-width="1.7"/>
<path d="M26.3501 2.27002V13.6" stroke="white" stroke-width="1.7"/>
<path d="M0.850098 13.6V24.93" stroke="white" stroke-width="1.7"/>
</g>
<defs>
<clipPath id="clip0_1303_4661">
<rect width="27.2" height="27.2" fill="white"/>
</clipPath>
</defs>
</svg>
