<?xml version="1.0" standalone="no"?>
<!DOCTYPE svg PUBLIC "-//W3C//DTD SVG 1.1//EN" "http://www.w3.org/Graphics/SVG/1.1/DTD/svg11.dtd">
<svg xmlns="http://www.w3.org/2000/svg" id="Camada_1" data-name="Camada 1" viewBox="0 0 1080 1080" width="1080" height="1080"><defs><style>.cls-1{fill:#fff;}</style></defs><title>SDC ULTIMATE MODE 2024</title><path class="cls-1" d="M357.59,450.13H217.08a19.62,19.62,0,0,0-19.61,19.62V610.26a19.61,19.61,0,0,0,19.61,19.61H357.59a19.61,19.61,0,0,0,19.61-19.61V469.75A19.62,19.62,0,0,0,357.59,450.13ZM273.52,605.89h-1.18a6.6,6.6,0,0,1-5.29-2.66l-11.63-15.68-11.54,15.66a6.6,6.6,0,0,1-5.3,2.68h-1.2a6.6,6.6,0,0,1-5.25-10.59L246.88,576l-13-17.61a6.6,6.6,0,0,1,5.3-10.52h.07a6.61,6.61,0,0,1,5.25,2.61l10.95,14.4,11.05-14.42a6.6,6.6,0,0,1,11.84,4,6.49,6.49,0,0,1-1.31,3.9L264,576l14.79,19.34A6.59,6.59,0,0,1,273.52,605.89Zm0-73.71h-1.18a6.58,6.58,0,0,1-5.29-2.67l-11.63-15.66L243.88,529.5a6.6,6.6,0,0,1-5.3,2.68h-1.2a6.6,6.6,0,0,1-5.25-10.59l14.75-19.36-13-17.6a6.59,6.59,0,0,1,5.3-10.51h.07a6.62,6.62,0,0,1,5.25,2.59l10.95,14.41,11.05-14.42A6.59,6.59,0,0,1,277,484.63l-13,17.6,14.79,19.35A6.59,6.59,0,0,1,273.52,532.18ZM308.42,597c0,4.94-3.21,8.93-7.16,8.93a6.54,6.54,0,0,1-5.06-2.62,10.15,10.15,0,0,1-2.09-6.31l0-40.21c0-4.94,3.2-8.93,7.15-8.93s7.15,4,7.15,8.93Zm-.77-67.46a6.58,6.58,0,0,1-5.3,2.68h-1.19a6.59,6.59,0,0,1-5.25-10.59l14.74-19.36-13-17.6a6.59,6.59,0,0,1,5.3-10.51H303a6.62,6.62,0,0,1,5.25,2.59l11,14.41,11-14.42a6.6,6.6,0,0,1,10.54,7.93l-13,17.6,14.8,19.35a6.6,6.6,0,0,1-5.24,10.6h-1.18a6.6,6.6,0,0,1-5.3-2.67L319.2,513.85ZM343.94,597c0,4.94-3.21,8.93-7.16,8.93s-7.15-4-7.15-8.92h0l0-40.21c0-4.94,3.2-8.93,7.16-8.93s7.14,4,7.14,8.93Z"/><path class="cls-1" d="M410.53,494.18a15.57,15.57,0,0,0,4.81,2.74,18.68,18.68,0,0,0,13.94-.78,13.61,13.61,0,0,0,5.45-4.85,12.64,12.64,0,0,0,2-6.92,9.3,9.3,0,0,0-.48-2.95,11.67,11.67,0,0,0-1.36-2.74,11.12,11.12,0,0,0-2-2.26,7.94,7.94,0,0,0-2.37-1.44,9.29,9.29,0,0,0,4.21-4.34,8.38,8.38,0,0,0,.78-3.67,11.22,11.22,0,0,0-.93-4.46,11.75,11.75,0,0,0-2.74-3.88,13.86,13.86,0,0,0-4.42-2.77,15.87,15.87,0,0,0-5.93-1.05,16.25,16.25,0,0,0-4.91.66,13.44,13.44,0,0,0-3.55,1.66,12.55,12.55,0,0,0-2.44,2.07,13.41,13.41,0,0,0-1.48,2q-.51.87-.75,1.23a3.58,3.58,0,0,0-.36,2.47,3.86,3.86,0,0,0,1.81,2,4.37,4.37,0,0,0,3,.72,3.56,3.56,0,0,0,2.07-2.05,11.13,11.13,0,0,1,1.72-2,6.45,6.45,0,0,1,2.2-1.3,9,9,0,0,1,3-.45,7.71,7.71,0,0,1,3.28.66,5.07,5.07,0,0,1,3,4.76,3.64,3.64,0,0,1-.69,2.17,4.55,4.55,0,0,1-2.08,1.5,9.34,9.34,0,0,1-3.37.54,10.07,10.07,0,0,0-2.11.19,2.16,2.16,0,0,0-1.39.87,4.49,4.49,0,0,0-.48,2.44,4.67,4.67,0,0,0,.48,2.43,2.07,2.07,0,0,0,1.39.94,10.49,10.49,0,0,0,2.05.18,9.72,9.72,0,0,1,3.85.72,6.27,6.27,0,0,1,2.68,2.11,5.32,5.32,0,0,1,1,3.19,5.6,5.6,0,0,1-1,3.31,6.82,6.82,0,0,1-2.83,2.26,10.25,10.25,0,0,1-4.22.81,9.31,9.31,0,0,1-3.91-.75,7.71,7.71,0,0,1-2.62-1.9,7.17,7.17,0,0,1-1.41-2.35,10.43,10.43,0,0,0-.72-1.8,2,2,0,0,0-1-.91,5.11,5.11,0,0,0-1.8-.24c-2.65,0-4,.89-4,2.65a10.7,10.7,0,0,0,1.33,4.64A13.54,13.54,0,0,0,410.53,494.18Z"/><path class="cls-1" d="M458.63,476.84a48,48,0,0,1-4.73,3.49c-1.76,1.17-3.61,2.39-5.53,3.68a60.66,60.66,0,0,0-5.6,4.21,4.89,4.89,0,0,0-1.3,1.63,6,6,0,0,0-.51,1.74,14.22,14.22,0,0,0-.12,1.87,3.75,3.75,0,0,0,1.08,2.65,3.41,3.41,0,0,0,2.53,1.14h24a7.7,7.7,0,0,0,1.87-.21,2.22,2.22,0,0,0,1.35-1,4.54,4.54,0,0,0,.52-2.47,4.92,4.92,0,0,0-.49-2.53,2.1,2.1,0,0,0-1.29-1,7.33,7.33,0,0,0-1.84-.21H451.5l2.28-1.21,3.74-2.25c1.28-.79,2.55-1.62,3.79-2.5a36.28,36.28,0,0,0,3.52-2.86,22.93,22.93,0,0,0,2.95-3.31,15,15,0,0,0,2-3.83,13.13,13.13,0,0,0,.72-4.39,15.16,15.16,0,0,0-1.9-7.74,13.2,13.2,0,0,0-5.23-5.09,16.08,16.08,0,0,0-7.74-1.8,15.73,15.73,0,0,0-6.23,1.17,13.66,13.66,0,0,0-7.59,7.95,16.29,16.29,0,0,0-1,5.69,11.9,11.9,0,0,0,.15,1.93,2.26,2.26,0,0,0,.9,1.47,4.38,4.38,0,0,0,2.56.57,5.28,5.28,0,0,0,2.56-.45,1.91,1.91,0,0,0,.93-1.26,8.63,8.63,0,0,0,.18-1.84,10.18,10.18,0,0,1,.52-3.34,7.14,7.14,0,0,1,1.44-2.5,5.79,5.79,0,0,1,2.35-1.53,9.41,9.41,0,0,1,3.28-.52,8.89,8.89,0,0,1,4.31.91,5.56,5.56,0,0,1,2.4,2.4,7.37,7.37,0,0,1,.76,3.32,7.92,7.92,0,0,1-1.24,4.3A15.92,15.92,0,0,1,458.63,476.84Z"/><path class="cls-1" d="M480.49,476.91a9.74,9.74,0,0,0,8.12,1,7.37,7.37,0,0,0,2.35-1.27,6.1,6.1,0,0,0,.88-.88,2.81,2.81,0,0,0,.74,2,3.16,3.16,0,0,0,2.14.63,3.45,3.45,0,0,0,1.93-.42,1.77,1.77,0,0,0,.75-1.12,7.22,7.22,0,0,0,.15-1.53v-16.2a7.54,7.54,0,0,0-.15-1.59,1.87,1.87,0,0,0-.72-1.12,4.41,4.41,0,0,0-4.15.21,2.64,2.64,0,0,0-.69,1.94,12.93,12.93,0,0,0-1-.91,7.21,7.21,0,0,0-2.23-1.2,8.8,8.8,0,0,0-3-.46,9.6,9.6,0,0,0-5.14,1.48,11.08,11.08,0,0,0-5.27,9.6,11.57,11.57,0,0,0,1.44,5.72A11.2,11.2,0,0,0,480.49,476.91Zm2-13.76a5.14,5.14,0,0,1,3.89-1.6,5.27,5.27,0,0,1,2.71.69,5,5,0,0,1,1.8,2,6.47,6.47,0,0,1,.66,3,6,6,0,0,1-.66,2.83,5.13,5.13,0,0,1-1.78,2,4.69,4.69,0,0,1-2.61.72,5.59,5.59,0,0,1-2.83-.72,5.2,5.2,0,0,1-2-2,5.46,5.46,0,0,1-.72-2.8A5.69,5.69,0,0,1,482.53,463.15Z"/><path class="cls-1" d="M529.7,491.59a10.36,10.36,0,0,0,1.66,2,16.08,16.08,0,0,0,6.62,3.79,17.29,17.29,0,0,0,5,.66,19.33,19.33,0,0,0,5.33-.75,15.52,15.52,0,0,0,4.81-2.32,10.91,10.91,0,0,0,3.46-4,12.41,12.41,0,0,0,1.27-5.78,12,12,0,0,0-.9-4.91,10.19,10.19,0,0,0-2.41-3.37,14.13,14.13,0,0,0-3.43-2.25,34.45,34.45,0,0,0-3.92-1.57c-1.28-.4-2.55-.78-3.79-1.14a33.55,33.55,0,0,1-3.37-1.18,6.34,6.34,0,0,1-2.38-1.62,3.68,3.68,0,0,1-.87-2.5,4.44,4.44,0,0,1,1.68-3.58,5.33,5.33,0,0,1,1.9-1,8.08,8.08,0,0,1,2.32-.33,11.49,11.49,0,0,1,2.8.3,7.2,7.2,0,0,1,2.16.94,9.61,9.61,0,0,1,1.9,1.59,3.84,3.84,0,0,0,2.68.93,4.08,4.08,0,0,0,2.44-1.71,3.63,3.63,0,0,0,1.11-2.53,4.81,4.81,0,0,0-1.59-2.35,9.67,9.67,0,0,0-1.33-1.17,14.16,14.16,0,0,0-2.32-1.39,15.61,15.61,0,0,0-3.37-1.14,19.77,19.77,0,0,0-4.42-.45,14.92,14.92,0,0,0-6.9,1.53,11.84,11.84,0,0,0-4.66,4.19,11,11,0,0,0-1.69,6.08,12.46,12.46,0,0,0,.51,3.73,9.39,9.39,0,0,0,1.45,2.86,9.93,9.93,0,0,0,2.2,2.14,18.37,18.37,0,0,0,2.68,1.59,28.12,28.12,0,0,0,2.92,1.24c1.36.48,2.7.93,4,1.35a31.13,31.13,0,0,1,3.64,1.39,8,8,0,0,1,2.62,1.8,3.85,3.85,0,0,1,1,2.68,5.21,5.21,0,0,1-1,3.25,5.68,5.68,0,0,1-2.71,1.9,12,12,0,0,1-4.09.63,8.72,8.72,0,0,1-3.61-.81,8.5,8.5,0,0,1-3.26-2.74,8.23,8.23,0,0,0-1.71-1.69,3,3,0,0,0-1.81-.57,3.32,3.32,0,0,0-2,1,5.51,5.51,0,0,0-1.48,1.72,2.39,2.39,0,0,0-.18,1.66A5.45,5.45,0,0,0,529.7,491.59Z"/><path class="cls-1" d="M564.71,497a4.62,4.62,0,0,0,2.5.51h23.54a7.81,7.81,0,0,0,1.87-.21,2.22,2.22,0,0,0,1.35-1,4.65,4.65,0,0,0,.51-2.47,4.89,4.89,0,0,0-.48-2.47,2.11,2.11,0,0,0-1.32-1,7.81,7.81,0,0,0-1.87-.21H570.88V479.37h13.55a8.37,8.37,0,0,0,1.86-.18,1.83,1.83,0,0,0,1.21-.87,4.25,4.25,0,0,0,.42-2.14,4.57,4.57,0,0,0-.42-2.29,2,2,0,0,0-1.18-.87,6.61,6.61,0,0,0-1.77-.21H570.88V462.76h19.87a7.32,7.32,0,0,0,1.87-.22,2.25,2.25,0,0,0,1.35-1,4.46,4.46,0,0,0,.51-2.44,5.07,5.07,0,0,0-.48-2.53,2.11,2.11,0,0,0-1.32-1,7.81,7.81,0,0,0-1.87-.21H567.39a4.46,4.46,0,0,0-3,.78,3.9,3.9,0,0,0-.84,2.89v34.68a7.81,7.81,0,0,0,.21,1.87A2.25,2.25,0,0,0,564.71,497Z"/><path class="cls-1" d="M601.37,497a4.58,4.58,0,0,0,2.38.48,4.86,4.86,0,0,0,2.47-.48,2.11,2.11,0,0,0,1-1.32,6.83,6.83,0,0,0,.22-1.75V468l10.83,15.72q.3.36.66.75a3.16,3.16,0,0,0,.94.66,3.79,3.79,0,0,0,1.59.27,4,4,0,0,0,1.63-.27,2.91,2.91,0,0,0,1-.66,4.41,4.41,0,0,0,.54-.69l10.9-15.84v25.83a6.65,6.65,0,0,0,.24,1.81,2.39,2.39,0,0,0,1,1.35,4.36,4.36,0,0,0,2.38.51,5,5,0,0,0,2.53-.48,2.11,2.11,0,0,0,1-1.32,7.3,7.3,0,0,0,.22-1.75V459.14a7.4,7.4,0,0,0-.22-1.8,2.36,2.36,0,0,0-1-1.39,4.41,4.41,0,0,0-2.47-.54,10.11,10.11,0,0,0-1.74.12,2.91,2.91,0,0,0-1.93,1.08l-14,19.67-14-19.55a5.11,5.11,0,0,0-.73-.69,3,3,0,0,0-1-.45,7.42,7.42,0,0,0-1.9-.18,4.4,4.4,0,0,0-2.46.54,2.48,2.48,0,0,0-1,1.33,5.9,5.9,0,0,0-.24,1.74v34.74a6.88,6.88,0,0,0,.24,1.87A2.26,2.26,0,0,0,601.37,497Z"/><path class="cls-1" d="M649,497.13a4,4,0,0,0,3,.48,4.25,4.25,0,0,0,2-2.28l4.13-8.74h18.48l4.12,8.74a4.32,4.32,0,0,0,2,2.34,4,4,0,0,0,3-.48,6.21,6.21,0,0,0,1.81-1.29,2.14,2.14,0,0,0,.51-1.51,4.88,4.88,0,0,0-.63-2l-16.68-34.73a4.41,4.41,0,0,0-.87-1.21,4.23,4.23,0,0,0-1.12-.75,3.18,3.18,0,0,0-1.32-.27,3.69,3.69,0,0,0-2,.6,4,4,0,0,0-1.41,1.56L647.46,492a7.51,7.51,0,0,0-.69,2.26,2,2,0,0,0,.48,1.6A5.62,5.62,0,0,0,649,497.13ZM667.39,467l6.28,13.3H661.1Z"/><path class="cls-1" d="M693,496.92a4.36,4.36,0,0,0,2.38.51,4.65,4.65,0,0,0,2.47-.51,2.22,2.22,0,0,0,1-1.32,7.18,7.18,0,0,0,.21-1.78V468.11l20.35,28.06a2.8,2.8,0,0,0,1.39,1,7.38,7.38,0,0,0,2.1.24,4.79,4.79,0,0,0,2.5-.51,2.44,2.44,0,0,0,1.09-1.32,5.68,5.68,0,0,0,.27-1.78V459.14a7.4,7.4,0,0,0-.21-1.8,2.33,2.33,0,0,0-1-1.39,4.26,4.26,0,0,0-2.4-.54,4.62,4.62,0,0,0-2.47.51,2.37,2.37,0,0,0-1,1.27,5.61,5.61,0,0,0-.24,1.71V485l-20-28a4.43,4.43,0,0,0-1.3-1.18,5.56,5.56,0,0,0-2.5-.39,4.84,4.84,0,0,0-2.5.51,2.33,2.33,0,0,0-1,1.27,5.61,5.61,0,0,0-.24,1.71v34.86a6.65,6.65,0,0,0,.24,1.81A2.39,2.39,0,0,0,693,496.92Z"/><path class="cls-1" d="M733.37,497.13a4,4,0,0,0,3,.48,4.3,4.3,0,0,0,2-2.28l4.12-8.74H761l4.13,8.74a4.27,4.27,0,0,0,2,2.34,4,4,0,0,0,3-.48,6.14,6.14,0,0,0,1.8-1.29,2.14,2.14,0,0,0,.51-1.51,4.88,4.88,0,0,0-.63-2L755.1,457.64a4.41,4.41,0,0,0-.87-1.21,4.18,4.18,0,0,0-1.11-.75,3.23,3.23,0,0,0-1.33-.27,3.64,3.64,0,0,0-2,.6,3.93,3.93,0,0,0-1.42,1.56L731.81,492a7.29,7.29,0,0,0-.7,2.26,2.08,2.08,0,0,0,.48,1.6A5.87,5.87,0,0,0,733.37,497.13ZM751.73,467l6.29,13.3H745.45Z"/><path class="cls-1" d="M804.14,496.92a4.34,4.34,0,0,0,2.38.51h11.2a21.44,21.44,0,0,0,8.19-1.53,18.64,18.64,0,0,0,6.44-4.36,20.1,20.1,0,0,0,4.21-6.75,23.67,23.67,0,0,0,1.5-8.61,22.44,22.44,0,0,0-1.5-8.34,19.59,19.59,0,0,0-4.21-6.59,19.39,19.39,0,0,0-6.38-4.31,20.79,20.79,0,0,0-8.07-1.53l-11.32-.06a4.65,4.65,0,0,0-2.47.51,2.34,2.34,0,0,0-1,1.36,6.53,6.53,0,0,0-.24,1.8v34.74a6,6,0,0,0,.27,1.81A2.53,2.53,0,0,0,804.14,496.92Zm6.05-34.17h7.65a13,13,0,0,1,6.74,1.72,11.88,11.88,0,0,1,4.52,4.82,16.72,16.72,0,0,1,0,14.36,11.9,11.9,0,0,1-4.52,4.78,12.75,12.75,0,0,1-6.68,1.72h-7.71Z"/><path class="cls-1" d="M843.48,497.13a4,4,0,0,0,3,.48,4.25,4.25,0,0,0,2-2.28l4.13-8.74h18.48l4.12,8.74a4.28,4.28,0,0,0,2,2.34,4,4,0,0,0,3-.48,6.14,6.14,0,0,0,1.8-1.29,2.09,2.09,0,0,0,.51-1.51,4.73,4.73,0,0,0-.63-2l-16.67-34.73a4.41,4.41,0,0,0-.87-1.21,4.23,4.23,0,0,0-1.12-.75,3.19,3.19,0,0,0-1.33-.27,3.66,3.66,0,0,0-2,.6,4,4,0,0,0-1.41,1.56L841.92,492a7.51,7.51,0,0,0-.69,2.26,2,2,0,0,0,.48,1.6A5.68,5.68,0,0,0,843.48,497.13ZM861.85,467l6.28,13.3H855.56Z"/><path class="cls-1" d="M432.77,527.93a17.38,17.38,0,0,0-5.23-.7,23.72,23.72,0,0,0-6.06.94,23.37,23.37,0,0,0-5.8,2.56,19.7,19.7,0,0,0-4.91,4.21,19.28,19.28,0,0,0-3.37,5.87,21.36,21.36,0,0,0-1.24,7.49A22.51,22.51,0,0,0,407.4,556a20.15,20.15,0,0,0,3.4,6.08,20.62,20.62,0,0,0,4.91,4.4,23.18,23.18,0,0,0,5.75,2.65,20.67,20.67,0,0,0,6,.9,19.83,19.83,0,0,0,5.35-.63,17.38,17.38,0,0,0,3.62-1.42q1.38-.78,1.86-1.08a10.8,10.8,0,0,0,1.84-1.3,2.53,2.53,0,0,0,.93-1.83,2.73,2.73,0,0,0-.18-1.27,7.69,7.69,0,0,0-.66-1.26,5.87,5.87,0,0,0-1.42-1.57,2.44,2.44,0,0,0-1.41-.48,2.47,2.47,0,0,0-1.27.36c-.4.24-.82.51-1.26.79l-1.56.87a11,11,0,0,1-2.53,1,15.1,15.1,0,0,1-8.55-.51,13.25,13.25,0,0,1-4.43-2.68,12.74,12.74,0,0,1-3.1-4.39,14.92,14.92,0,0,1-1.14-6,14.63,14.63,0,0,1,1.14-6,12.85,12.85,0,0,1,3.1-4.37,13.84,13.84,0,0,1,4.43-2.71,14,14,0,0,1,5-.93,13.28,13.28,0,0,1,3.74.45,15,15,0,0,1,2.44.93,11.64,11.64,0,0,1,1.35.79l1.41.9a2.32,2.32,0,0,0,1.24.36,2.44,2.44,0,0,0,1.41-.48,5.72,5.72,0,0,0,1.42-1.57,6.36,6.36,0,0,0,.66-1.17,3.15,3.15,0,0,0,.24-1.24,2.54,2.54,0,0,0-1-1.89,18.52,18.52,0,0,0-1.87-1.36,17.84,17.84,0,0,0-1.83-1A23.76,23.76,0,0,0,432.77,527.93Z"/><path class="cls-1" d="M486.48,533.49a20.22,20.22,0,0,0-14.75-6.19,18.77,18.77,0,0,0-7.92,1.68,20.69,20.69,0,0,0-6.5,4.66,21.81,21.81,0,0,0-4.37,6.93,22.78,22.78,0,0,0-1.56,8.45,21,21,0,0,0,1.62,8.25,21.68,21.68,0,0,0,4.49,6.78,20.4,20.4,0,0,0,14.78,6.17,18.86,18.86,0,0,0,7.82-1.66,20.46,20.46,0,0,0,6.5-4.63,21.61,21.61,0,0,0,4.4-6.86,22.05,22.05,0,0,0,1.57-8.28,21.83,21.83,0,0,0-1.63-8.43A22.1,22.1,0,0,0,486.48,533.49Zm-2.29,20.81a14.22,14.22,0,0,1-2.83,4.48,12.9,12.9,0,0,1-4.25,3,12.68,12.68,0,0,1-5.2,1.08,12.17,12.17,0,0,1-5.09-1.08,12.88,12.88,0,0,1-4.19-3,15.25,15.25,0,0,1-2.86-4.51,15,15,0,0,1,0-11,13.8,13.8,0,0,1,7.1-7.53,12.41,12.41,0,0,1,10.26,0,13.78,13.78,0,0,1,4.22,3.07,14.35,14.35,0,0,1,2.86,4.52,14.59,14.59,0,0,1,1,5.45A14.79,14.79,0,0,1,484.19,554.3Z"/><path class="cls-1" d="M505.17,569.2a4.54,4.54,0,0,0,2.38.48,4.91,4.91,0,0,0,2.47-.48,2.15,2.15,0,0,0,1-1.33,7.17,7.17,0,0,0,.21-1.75V540.24L522.06,556q.3.36.66.75a3.18,3.18,0,0,0,.93.67,3.81,3.81,0,0,0,1.6.27,4,4,0,0,0,1.62-.27,3.14,3.14,0,0,0,1-.67,4.41,4.41,0,0,0,.54-.69l10.89-15.83V566a6.19,6.19,0,0,0,.25,1.81,2.44,2.44,0,0,0,1,1.36,4.31,4.31,0,0,0,2.38.51,5.07,5.07,0,0,0,2.53-.48,2.15,2.15,0,0,0,1-1.33,7.17,7.17,0,0,0,.21-1.75V531.39a7.49,7.49,0,0,0-.21-1.81,2.34,2.34,0,0,0-1-1.38,4.45,4.45,0,0,0-2.47-.55,10,10,0,0,0-1.75.13,3.42,3.42,0,0,0-1.08.36,3.58,3.58,0,0,0-.85.72l-14,19.66-14-19.54a4.59,4.59,0,0,0-.72-.69,3,3,0,0,0-1-.45,6.87,6.87,0,0,0-1.89-.19,4.4,4.4,0,0,0-2.47.55,2.49,2.49,0,0,0-1,1.32,6,6,0,0,0-.24,1.75V566a6.78,6.78,0,0,0,.24,1.87A2.31,2.31,0,0,0,505.17,569.2Z"/><path class="cls-1" d="M561.28,569.19a4.72,4.72,0,0,0,2.5.49,4.77,4.77,0,0,0,2.5-.49,2.11,2.11,0,0,0,1-1.32,7.43,7.43,0,0,0,.21-1.81v-10h9a15.56,15.56,0,0,0,5.24-.9,14.44,14.44,0,0,0,4.57-2.68,12.37,12.37,0,0,0,3.22-4.43,16.56,16.56,0,0,0,0-12.28,13.05,13.05,0,0,0-3.22-4.49,13.77,13.77,0,0,0-4.54-2.73,15.08,15.08,0,0,0-5.21-.91h-12.7a4.61,4.61,0,0,0-2.47.52,2.32,2.32,0,0,0-1,1.35,6.6,6.6,0,0,0-.25,1.81V566a7.78,7.78,0,0,0,.21,1.83A2.16,2.16,0,0,0,561.28,569.19ZM567.45,535h9a7.62,7.62,0,0,1,3.67.84,5.88,5.88,0,0,1,2.41,2.38,7.38,7.38,0,0,1,.84,3.65,7.22,7.22,0,0,1-.93,3.81A5.89,5.89,0,0,1,580,548a7.94,7.94,0,0,1-3.43.75h-9.09Z"/><path class="cls-1" d="M610.1,529.46a2.25,2.25,0,0,0-1-1.35,4.59,4.59,0,0,0-2.5-.52,4.8,4.8,0,0,0-2.53.52,2.22,2.22,0,0,0-1,1.35,7.75,7.75,0,0,0-.21,1.87v19.14a24.23,24.23,0,0,0,1.14,7.5,19,19,0,0,0,3.41,6.26,16,16,0,0,0,5.5,4.3,17,17,0,0,0,7.47,1.57,17.48,17.48,0,0,0,7.59-1.57,16.46,16.46,0,0,0,5.59-4.24,18.07,18.07,0,0,0,3.44-6.2,24.23,24.23,0,0,0,1.14-7.5v-19.2a8.82,8.82,0,0,0-.18-1.9,2.2,2.2,0,0,0-1-1.35,4.45,4.45,0,0,0-2.47-.55,4.85,4.85,0,0,0-2.47.49,2.24,2.24,0,0,0-1,1.23,5.41,5.41,0,0,0-.25,1.66v19.44a16,16,0,0,1-1.23,6.56,9.67,9.67,0,0,1-3.52,4.28,9.78,9.78,0,0,1-5.48,1.5,9.48,9.48,0,0,1-5.81-1.68,10.18,10.18,0,0,1-3.37-4.49,16.4,16.4,0,0,1-1.11-6.11V531.39A7.48,7.48,0,0,0,610.1,529.46Z"/><path class="cls-1" d="M664.74,567.9a2.14,2.14,0,0,0,.93,1.33,4.48,4.48,0,0,0,2.44.51,4.84,4.84,0,0,0,2.5-.48,2.18,2.18,0,0,0,1-1.3,7.33,7.33,0,0,0,.21-1.84v-32h11a6.78,6.78,0,0,0,1.63-.18,2,2,0,0,0,1.17-.88,4,4,0,0,0,.45-2.13,4.54,4.54,0,0,0-.42-2.26,1.82,1.82,0,0,0-1.11-.87,6,6,0,0,0-1.6-.19H653.36a6.3,6.3,0,0,0-1.59.19,1.82,1.82,0,0,0-1.18.87,5.95,5.95,0,0,0,0,4.39,1.84,1.84,0,0,0,1.18.88,6.79,6.79,0,0,0,1.59.18h11.2v32A8.5,8.5,0,0,0,664.74,567.9Z"/><path class="cls-1" d="M719.22,529.88a4.22,4.22,0,0,0-.87-1.2,4,4,0,0,0-1.11-.75,3.23,3.23,0,0,0-1.33-.28,3.57,3.57,0,0,0-2,.61,3.87,3.87,0,0,0-1.42,1.56l-16.55,34.44a7.4,7.4,0,0,0-.7,2.26,2,2,0,0,0,.48,1.59,5.87,5.87,0,0,0,1.78,1.27,4,4,0,0,0,3,.48,4.29,4.29,0,0,0,2-2.29l4.12-8.73H725.1l4.12,8.73a4.27,4.27,0,0,0,2,2.35,4,4,0,0,0,3-.48,6.33,6.33,0,0,0,1.8-1.3,2.11,2.11,0,0,0,.51-1.5,4.84,4.84,0,0,0-.63-2Zm-9.65,22.7,6.28-13.3,6.29,13.3Z"/><path class="cls-1" d="M761.46,528.17a23.28,23.28,0,0,0-5.81,2.56,19.88,19.88,0,0,0-4.91,4.21,19.49,19.49,0,0,0-3.37,5.87,21.59,21.59,0,0,0-1.23,7.49,22.76,22.76,0,0,0,1.23,7.71,20.37,20.37,0,0,0,3.4,6.08,20.81,20.81,0,0,0,4.91,4.4,22.73,22.73,0,0,0,5.67,2.62,1.32,1.32,0,0,0-.1.39.91.91,0,0,0,.09.6l.39.78a4.89,4.89,0,0,0,.69.87,1.22,1.22,0,0,0,.87.4,1.68,1.68,0,0,0,1-.46,2.08,2.08,0,0,1,1.38-.45,2.2,2.2,0,0,1,1.39.54,1.8,1.8,0,0,1,.66,1.45,1.75,1.75,0,0,1-.66,1.47,2.29,2.29,0,0,1-1.39.52,2.08,2.08,0,0,1-1.23-.4,1.9,1.9,0,0,0-1.06-.39,1.29,1.29,0,0,0-.72.24,5.64,5.64,0,0,0-1,.91,1.89,1.89,0,0,0-.48,1.38c.08.64.58,1.21,1.5,1.69a6.19,6.19,0,0,0,2.89.72,6.1,6.1,0,0,0,3.1-.81,6.19,6.19,0,0,0,2.26-2.2,6,6,0,0,0,.84-3.19,5.53,5.53,0,0,0-.93-3.22,1.34,1.34,0,0,0-.11-.14,14.9,14.9,0,0,0,2-.4,17.5,17.5,0,0,0,3.61-1.42q1.38-.78,1.86-1.08a10.42,10.42,0,0,0,1.84-1.3,2.53,2.53,0,0,0,.93-1.83,2.73,2.73,0,0,0-.18-1.27,7.69,7.69,0,0,0-.66-1.26,5.86,5.86,0,0,0-1.41-1.57,2.5,2.5,0,0,0-1.42-.48,2.41,2.41,0,0,0-1.26.36l-1.27.79-1.56.87a11,11,0,0,1-2.53,1,14.27,14.27,0,0,1-3.55.39,14.51,14.51,0,0,1-5-.9,13.25,13.25,0,0,1-4.43-2.68,12.87,12.87,0,0,1-3.1-4.39,14.92,14.92,0,0,1-1.14-6,14.63,14.63,0,0,1,1.14-6,13,13,0,0,1,3.1-4.37,13.84,13.84,0,0,1,4.43-2.71,14.09,14.09,0,0,1,5-.93,13.21,13.21,0,0,1,3.73.45,15,15,0,0,1,2.44.93,11.64,11.64,0,0,1,1.35.79l1.42.9a2.26,2.26,0,0,0,1.23.36,2.5,2.5,0,0,0,1.42-.48,5.71,5.71,0,0,0,1.41-1.57,6.36,6.36,0,0,0,.66-1.17,3.15,3.15,0,0,0,.24-1.24,2.54,2.54,0,0,0-1-1.89,17.46,17.46,0,0,0-1.87-1.36,17.84,17.84,0,0,0-1.83-1,24,24,0,0,0-3.64-1.41,17.5,17.5,0,0,0-5.24-.7A23.58,23.58,0,0,0,761.46,528.17Z"/><path class="cls-1" d="M802.55,524.46c.76.53,1.34.73,1.74.61a1.91,1.91,0,0,0,1-.79,3.57,3.57,0,0,1,1.14-1.2,3.3,3.3,0,0,1,1.93-.54,2.48,2.48,0,0,1,1.65.72c.54.48,1.15,1,1.81,1.44a3.77,3.77,0,0,0,2.32.73,6.35,6.35,0,0,0,2.8-.66,8.68,8.68,0,0,0,2.37-1.72,5.46,5.46,0,0,0,1.39-2.26,2,2,0,0,0,.18-1.8,4,4,0,0,0-1.57-1.57,2.32,2.32,0,0,0-1.23-.45,1.62,1.62,0,0,0-1.05.27,3,3,0,0,0-1.18.78c-.34.36-.68.7-1,1a1.66,1.66,0,0,1-1.18.48,2.21,2.21,0,0,1-1.47-.69,18.87,18.87,0,0,0-1.72-1.42,4,4,0,0,0-2.46-.72,5.83,5.83,0,0,0-2.41.57,9.57,9.57,0,0,0-2.35,1.5,7.67,7.67,0,0,0-1.69,2,2.34,2.34,0,0,0-.48,1.93A3.62,3.62,0,0,0,802.55,524.46Z"/><path class="cls-1" d="M792.91,569.38a4,4,0,0,0,3,.48,4.25,4.25,0,0,0,2-2.29l4.13-8.73h18.48l4.12,8.73a4.31,4.31,0,0,0,2,2.35,4,4,0,0,0,3-.48,6.19,6.19,0,0,0,1.8-1.3,2.07,2.07,0,0,0,.51-1.5,4.69,4.69,0,0,0-.63-2l-16.67-34.74a4.13,4.13,0,0,0-2-2,3.18,3.18,0,0,0-1.32-.28,3.58,3.58,0,0,0-2,.61,4,4,0,0,0-1.42,1.56l-16.55,34.44a7.34,7.34,0,0,0-.69,2.26,2,2,0,0,0,.48,1.59A5.69,5.69,0,0,0,792.91,569.38Zm18.37-30.1,6.28,13.3H805Z"/><path class="cls-1" d="M846.7,564.05a20.45,20.45,0,0,0,14.79,6.17,18.91,18.91,0,0,0,7.83-1.66,20.69,20.69,0,0,0,6.5-4.63,21.76,21.76,0,0,0,5.95-15.14,21.64,21.64,0,0,0-1.62-8.43,22.28,22.28,0,0,0-4.45-6.87,20.22,20.22,0,0,0-14.76-6.19A18.75,18.75,0,0,0,853,529a20.73,20.73,0,0,0-6.51,4.66,21.78,21.78,0,0,0-4.36,6.93,22.79,22.79,0,0,0-1.57,8.45,21,21,0,0,0,1.63,8.25A21.65,21.65,0,0,0,846.7,564.05ZM849,543.28a14.17,14.17,0,0,1,2.86-4.49,13.91,13.91,0,0,1,4.25-3,12.41,12.41,0,0,1,10.26,0,13.74,13.74,0,0,1,4.21,3.07,14.38,14.38,0,0,1,2.87,4.52,14.59,14.59,0,0,1,1,5.45,14.79,14.79,0,0,1-1,5.51,14.4,14.4,0,0,1-2.83,4.48,12.87,12.87,0,0,1-9.45,4.09,12.14,12.14,0,0,1-5.09-1.08,12.88,12.88,0,0,1-4.19-3,15,15,0,0,1-2.85-4.51,14.08,14.08,0,0,1-1.06-5.45A14.75,14.75,0,0,1,849,543.28Z"/><path class="cls-1" d="M864.91,589.27H423.54a17.62,17.62,0,0,0,0,35.24H864.91a17.62,17.62,0,0,0,0-35.24Zm9.82,27.44a13.79,13.79,0,0,1-9.82,4.07H750.38a15.1,15.1,0,0,0,.9-27.78H864.91a13.91,13.91,0,0,1,13.89,13.89A13.76,13.76,0,0,1,874.73,616.71Z"/><path class="cls-1" d="M780.57,600.52a6.64,6.64,0,1,0,6.63,6.64A6.64,6.64,0,0,0,780.57,600.52Z"/><path class="cls-1" d="M819.71,600a6.64,6.64,0,1,0,6.63,6.64A6.64,6.64,0,0,0,819.71,600Z"/><path class="cls-1" d="M859.51,600a6.64,6.64,0,1,0,6.64,6.64A6.63,6.63,0,0,0,859.51,600Z"/></svg>
