<svg width="148" height="42" viewBox="0 0 148 42" fill="none" xmlns="http://www.w3.org/2000/svg">
<path d="M21.6162 1.51492C17.7684 1.52139 14.0089 2.66367 10.8127 4.79741C7.61651 6.93114 5.12714 9.96057 3.65915 13.5029C2.19116 17.0452 1.81043 20.9413 2.56509 24.6991C3.31974 28.4568 5.17591 31.9074 7.89902 34.6148C10.6221 37.3223 14.09 39.1651 17.8643 39.9103C21.6387 40.6555 25.5502 40.2698 29.1045 38.8018C32.6588 37.3338 35.6964 34.8495 37.8334 31.6627C39.9705 28.4759 41.1111 24.7298 41.1111 20.8976C41.1111 18.3495 40.6066 15.8264 39.6265 13.4726C38.6464 11.1189 37.2099 8.98067 35.3992 7.18039C33.5885 5.38011 31.4391 3.95307 29.0741 2.98093C26.7091 2.00878 24.1748 1.51061 21.6162 1.51492ZM21.0818 1.59636e-06C25.2537 -0.00161794 29.3324 1.22908 32.8018 3.53642C36.2713 5.84375 38.9758 9.12406 40.573 12.9624C42.1703 16.8007 42.5887 21.0246 41.7752 25.0998C40.9617 29.1749 38.9529 32.9183 36.0029 35.8562C33.0529 38.7942 29.2943 40.7948 25.2024 41.605C21.1106 42.4152 16.8694 41.9986 13.0154 40.4078C9.16138 38.817 5.86765 36.1236 3.55088 32.6682C1.23411 29.2129 -0.00162456 25.1508 1.60289e-06 20.9959C1.60289e-06 15.4274 2.22111 10.0871 6.17471 6.14956C10.1283 2.21206 15.4905 1.59636e-06 21.0818 1.59636e-06Z" fill="#ECF0F2" fill-opacity="0.5"/>
<path d="M23.4498 4.09436C20.0834 4.09275 16.7923 5.08586 13.9929 6.94799C11.1935 8.81012 9.01184 11.4576 7.72397 14.5552C6.4361 17.6528 6.09996 21.0613 6.7581 24.3492C7.41625 27.6372 9.03908 30.6567 11.4212 33.0257C13.8033 35.3946 16.8376 37.0065 20.1399 37.6572C23.4423 38.3079 26.8642 37.9681 29.9726 36.681C33.081 35.3939 35.7361 33.2173 37.6018 30.4266C39.4674 27.6359 40.4599 24.3567 40.4533 21.0041C40.4446 16.5178 38.6496 12.218 35.462 9.04801C32.2744 5.87799 27.9545 4.09652 23.4498 4.09436ZM20.2102 30.2082C19.8429 30.6074 19.3935 30.923 18.8926 31.1336C18.3918 31.3441 17.8512 31.4447 17.3078 31.4283C16.2536 31.4241 15.2434 31.0068 14.4956 30.2667C13.7478 29.5266 13.3226 28.5231 13.3118 27.4732V14.1501H17.3078V26.1139C17.3015 26.1957 17.3138 26.278 17.3436 26.3545C17.3735 26.431 17.4203 26.4999 17.4805 26.5561C17.5869 26.6505 17.7243 26.703 17.8669 26.7034L17.9573 26.6134C19.1002 25.5161 30.636 14.1501 30.636 14.1501H36.3176L20.2102 30.2082Z" fill="#ECF0F2" fill-opacity="0.5"/>
<path d="M137.328 18.1299H130.684V14.1338H148V18.1299H141.324V31.4611H137.328V18.1299Z" fill="#ECF0F2" fill-opacity="0.5"/>
<path d="M113.557 31.4284V19.481C113.561 18.0707 114.126 16.7193 115.127 15.7221C116.129 14.7248 117.485 14.1626 118.902 14.1583H129.41V18.1544H118.902C118.548 18.1646 118.212 18.3115 117.964 18.5639C117.836 18.6847 117.733 18.8307 117.664 18.9928C117.595 19.1548 117.56 19.3294 117.561 19.5056V20.8076H128.908V24.8037H117.578V31.4529L113.557 31.4284Z" fill="#ECF0F2" fill-opacity="0.5"/>
<path d="M110.737 15.7141C110.247 15.2114 109.66 14.8124 109.012 14.5408C108.363 14.2693 107.666 14.1308 106.963 14.1337H97.6225C96.2078 14.1402 94.853 14.7033 93.8535 15.7003C92.8539 16.6974 92.2906 18.0475 92.2863 19.4564V26.1138C92.2992 27.5171 92.8664 28.8588 93.865 29.8488C94.8636 30.8387 96.2135 31.3973 97.6225 31.4037H106.963C108.375 31.4038 109.729 30.8475 110.73 29.8564C111.732 28.8652 112.299 27.5198 112.307 26.1138V19.481C112.318 18.7795 112.184 18.0834 111.914 17.4356C111.644 16.7877 111.243 16.2019 110.737 15.7141ZM108.27 26.1384C108.271 26.3092 108.237 26.4784 108.17 26.636C108.104 26.7935 108.007 26.9362 107.884 27.0555C107.759 27.1802 107.61 27.2786 107.446 27.3447C107.282 27.4108 107.107 27.4434 106.93 27.4404H97.4909C97.1766 27.3787 96.8893 27.2214 96.6687 26.99C96.5487 26.8729 96.4539 26.7326 96.3903 26.5777C96.3267 26.4228 96.2955 26.2566 96.2987 26.0893V19.5383C96.3002 19.308 96.3815 19.0852 96.5289 18.9077C96.6665 18.7217 96.8433 18.568 97.0469 18.4574L97.3676 18.2854L97.6307 18.1953H107.094C107.135 18.2033 107.177 18.2033 107.218 18.1953C107.502 18.2814 107.758 18.4427 107.958 18.6621C108.07 18.767 108.16 18.8938 108.22 19.0348C108.281 19.1757 108.312 19.3276 108.311 19.481L108.27 26.1384Z" fill="#ECF0F2" fill-opacity="0.5"/>
<path d="M85.5769 24.7791H76.3434C74.9315 24.7727 73.5792 24.2118 72.5801 23.2183C71.581 22.2248 71.0158 20.8789 71.0071 19.4728C71.0093 18.064 71.5722 16.7135 72.5725 15.7173C73.5727 14.7211 74.9288 14.1605 76.3434 14.1583H91.02V18.1544H76.3434C75.9902 18.168 75.6553 18.3143 75.406 18.5639C75.2784 18.6851 75.1774 18.8314 75.1095 18.9935C75.0415 19.1556 75.0081 19.3299 75.0114 19.5056C75.0098 19.6813 75.0457 19.8553 75.1166 20.0162C75.1874 20.1771 75.2917 20.3212 75.4225 20.4391C75.5406 20.5646 75.6832 20.665 75.8415 20.7339C75.9998 20.8029 76.1706 20.8391 76.3434 20.8403H85.5769C86.2801 20.8291 86.9781 20.9621 87.6273 21.2312C88.2766 21.5003 88.8633 21.8996 89.3509 22.4044C89.8558 22.8962 90.2547 23.4853 90.5233 24.1357C90.7919 24.7862 90.9245 25.4843 90.9131 26.1876C90.9088 27.5942 90.3446 28.9418 89.3444 29.9349C88.3441 30.928 86.9893 31.4857 85.5769 31.4857H70.9742V27.4404H85.5769C85.7528 27.4523 85.9291 27.4246 86.0928 27.3594C86.2564 27.2942 86.4033 27.1931 86.5225 27.0638C86.647 26.9407 86.7455 26.7938 86.8119 26.6321C86.8783 26.4703 86.9113 26.2968 86.9089 26.1221C86.9111 25.9465 86.8782 25.7722 86.8123 25.6094C86.7463 25.4465 86.6485 25.2983 86.5246 25.1734C86.4007 25.0485 86.2532 24.9493 86.0905 24.8816C85.9278 24.8139 85.7532 24.7791 85.5769 24.7791Z" fill="#ECF0F2" fill-opacity="0.5"/>
<path d="M66.6658 14.1501H72.3556L56.24 30.2082C55.8727 30.6074 55.4233 30.923 54.9224 31.1336C54.4216 31.3442 53.881 31.4447 53.3376 31.4284C52.2819 31.4263 51.2696 31.0099 50.5201 30.2696C49.7706 29.5292 49.3442 28.5245 49.3334 27.4732V14.1501H53.3294V26.1139C53.3231 26.1958 53.3353 26.278 53.3652 26.3545C53.3951 26.4311 53.4419 26.4999 53.502 26.5561C53.6085 26.6506 53.7459 26.703 53.8885 26.7035L53.9789 26.6134C55.13 25.5161 66.6576 14.1501 66.6576 14.1501" fill="#ECF0F2" fill-opacity="0.5"/>
</svg>
