<?xml version="1.0" encoding="UTF-8"?>
<svg id="Camada_2" data-name="Camada 2" xmlns="http://www.w3.org/2000/svg" viewBox="0 0 511.33 302.74">
  <defs>
    <style>
      .cls-1 {
        fill: #fff;
      }

      .cls-2 {
        fill: none;
        stroke: #fdfeff;
        stroke-miterlimit: 10;
        stroke-width: 4px;
      }

      .cls-3 {
        fill: #2f7ac5;
      }

      .cls-4 {
        fill: #3d66bc;
      }
    </style>
  </defs>
  <g id="Camada_1-2" data-name="Camada 1">
    <g>
      <g>
        <g>
          <path class="cls-4" d="m87.34,2.27H2.08v202.37h53.15v-53.7h33.19c40.2,0,73.39-33.46,73.39-74.2S128.35,2.27,87.34,2.27Zm.81,102.81h-32.92v-58.02h32.92c16.19,0,29.13,12.95,29.13,29.14s-12.94,28.88-29.13,28.88Z"/>
          <path class="cls-4" d="m316.14,46.25V2.27h-125.74v202.37h125.74v-43.44h-72.57v-37.24h64.22v-44.78h-64.22v-32.92h72.57Z"/>
          <path class="cls-4" d="m349.87,2v52.88h52.61v149.76h53.17V54.88h53.69V2h-159.47Z"/>
        </g>
        <g>
          <path class="cls-3" d="m35.38,171.25c4.92-1.95,11.59-4.57,19.85-6.66v40.04H2.08v-15.15c8.25-6.06,19.31-12.73,33.3-18.23Z"/>
          <path class="cls-3" d="m243.57,161.2h72.57v43.44h-125.74v-35.41c11.84-4,22.14-10.42,26.92-20.26,6.59-13.6-2.81-22.41,4.95-33.41,12.94-18.38,52.11-12.27,59.4-11.13,10.42,1.61,18.99,4.35,26.12,7.05v12.48h-64.22v37.24Z"/>
          <path class="cls-3" d="m509.33,2v52.88h-53.69v149.76h-53.17V54.88h-52.19c6.21-10.34,15.13-19.77,26.66-24.72,19.67-8.43,32.85,2.2,42.08-7.43,5.35-5.55,4.54-12.86,3.21-20.73h87.09Z"/>
        </g>
      </g>
      <g>
        <path class="cls-2" d="m87.34,2.27H2.08v202.37h53.15v-53.7h33.19c40.2,0,73.39-33.46,73.39-74.2S128.35,2.27,87.34,2.27Zm.81,102.81h-32.92v-58.02h32.92c16.19,0,29.13,12.95,29.13,29.14s-12.94,28.88-29.13,28.88Z"/>
        <polygon class="cls-2" points="190.4 169.23 190.4 204.64 316.14 204.64 316.14 161.2 243.57 161.2 243.57 123.96 307.79 123.96 307.79 111.48 307.79 79.17 243.57 79.17 243.57 46.25 316.14 46.25 316.14 2.27 190.4 2.27 190.4 169.23"/>
        <polygon class="cls-2" points="422.25 2 349.87 2 349.87 54.88 350.3 54.88 402.48 54.88 402.48 204.64 455.65 204.64 455.65 54.88 509.33 54.88 509.33 2 422.25 2"/>
      </g>
      <g>
        <path class="cls-1" d="m24.97,242.96c4.72,0,9.15,1.81,12.49,5.09l2.07,2.04,5.27-4.9-2.26-2.22c-4.7-4.64-10.94-7.19-17.57-7.19-13.77,0-24.97,11.2-24.97,24.97s11.2,24.97,24.97,24.97c6.7,0,12.98-2.6,17.7-7.32l2.08-2.08-4.98-5.34-2.22,2.26c-3.31,3.36-7.9,5.29-12.58,5.29-9.81,0-17.79-7.98-17.79-17.79s7.98-17.79,17.79-17.79Z"/>
        <path class="cls-1" d="m77.14,235.78c-13.77,0-24.97,11.2-24.97,24.97s11.2,24.97,24.97,24.97,25.03-11.2,25.03-24.97-11.23-24.97-25.03-24.97Zm0,42.76c-9.97,0-17.79-7.81-17.79-17.79s7.81-17.79,17.79-17.79,17.84,7.98,17.84,17.79-8.01,17.79-17.84,17.79Z"/>
        <polygon class="cls-1" points="138.03 255.98 117.88 235.78 111.89 235.78 111.89 285.72 119.13 285.72 119.13 247.25 138.02 266.15 156.98 247.24 156.98 285.72 164.22 285.72 164.22 235.78 158.23 235.78 138.03 255.98"/>
        <path class="cls-1" d="m193.12,235.78h-17.83v49.94h7.18v-17.96h10.65c8.83,0,16.02-7.16,16.02-15.96s-7.19-16.02-16.02-16.02Zm-10.65,7.18h10.53c4.87,0,8.84,3.97,8.84,8.84s-3.91,8.73-8.73,8.78h-10.64v-17.62Z"/>
        <path class="cls-1" d="m249.92,265.41c-.05,7.17-5.96,13-13.17,13s-13.11-5.85-13.11-13.05v-29.59h-7.24v29.59c0,11.22,9.13,20.35,20.35,20.35s20.41-9.13,20.41-20.35v-29.59h-7.24v29.63Z"/>
        <polygon class="cls-1" points="265.19 242.96 281.92 242.96 281.92 285.72 289.1 285.72 289.1 242.96 305.88 242.96 305.88 235.78 265.19 235.78 265.19 242.96"/>
        <path class="cls-1" d="m329.75,235.78l-23.3,49.94h7.99l6.55-14.1h22.7l6.67,14.1h7.99l-23.5-49.94h-5.09Zm10.51,28.6h-15.86l7.93-17.03,7.93,17.03Z"/>
        <path class="cls-1" d="m384.85,242.96c4.72,0,9.16,1.81,12.49,5.09l2.07,2.04,5.27-4.9-2.26-2.22c-4.71-4.64-10.94-7.19-17.57-7.19-13.77,0-24.97,11.2-24.97,24.97,0,11.61,7.97,21.59,19.14,24.26l-.91,5.04h7.78c1.15,0,2.14.36,2.77,1.01.6.62.83,1.44.67,2.37-.41,2.25-2.97,4.15-5.61,4.15-1.15,0-2.14-.36-2.77-1.01-.6-.62-.83-1.44-.67-2.38l.47-2.62h-5.55l-.33,1.86c-.46,2.51.25,4.88,1.99,6.67,1.66,1.7,4.05,2.64,6.73,2.64,5.29,0,10.29-3.84,11.14-8.55.45-2.51-.25-4.88-1.99-6.67-.97-1-2.2-1.73-3.58-2.17,5.05-.87,9.7-3.26,13.4-6.96l2.07-2.08-4.98-5.33-2.22,2.26h0c-3.31,3.36-7.9,5.29-12.57,5.29-9.81,0-17.79-7.98-17.79-17.79s7.98-17.79,17.79-17.79Z"/>
        <path class="cls-1" d="m485.75,235.78c-13.77,0-24.97,11.2-24.97,24.97s11.2,24.97,24.97,24.97,25.03-11.2,25.03-24.97-11.23-24.97-25.03-24.97Zm17.84,24.97c0,9.81-8.01,17.79-17.84,17.79s-17.79-7.81-17.79-17.79,7.81-17.79,17.79-17.79,17.84,7.98,17.84,17.79Z"/>
        <path class="cls-1" d="m435.69,235.37c.6.14,1.22.24,1.88.24,3.35,0,6.48-2.24,8.36-6.01l.9-1.81-5.14-3.27-1.11,2.22c-1.33,2.67-2.38,2.67-2.88,2.67-.86,0-2.14-1.03-3.39-2.03-1.99-1.6-4.46-3.59-7.73-3.59s-6.51,2.3-8.37,6.15l-.93,1.92,5.25,2.87,1.04-2.08c1.33-2.67,2.38-2.67,2.88-2.67.86,0,2.15,1.03,3.39,2.03,1.45,1.17,3.16,2.53,5.24,3.19m0,.56h-4.56l-23.3,49.94h7.99l6.55-14.1h22.7l6.67,14.1h7.99l-24.03-49.94m5.95,28.6h-15.86l7.93-17.03,7.93,17.03Z"/>
      </g>
    </g>
  </g>
</svg>