<svg width="1948" height="2308" viewBox="0 0 1948 2308" fill="none" xmlns="http://www.w3.org/2000/svg">
<g clip-path="url(#clip0_602_215)">
<path opacity="0.12" d="M14.8899 2303.79C220.27 2033.52 202.3 1984.75 355.88 1824.71C509.46 1664.67 688.66 1549 800.19 1325.83C911.72 1102.66 873.88 893.07 1026.16 808.43C1178.44 723.78 1250.9 787.54 1328.21 671.23C1405.52 554.92 1417.06 366.51 1485.04 280C1543.56 205.52 1564.97 332.36 1720.85 123.85" stroke="white" stroke-width="0.28" stroke-miterlimit="10"/>
<path opacity="0.25" d="M29.6899 2299.79C235.07 2029.52 176.25 1960.38 329.83 1800.34C483.41 1640.3 711.6 1559.3 823.12 1336.13C934.65 1112.96 857.86 883.1 1010.14 798.45C1162.42 713.8 1230.59 836.78 1307.9 720.48C1385.21 604.17 1385.18 398.13 1463.95 300.63C1523.46 226.97 1612.18 326.24 1753.21 106.15" stroke="white" stroke-width="0.31" stroke-miterlimit="10"/>
<path opacity="0.38" d="M44.48 2295.78C249.86 2025.51 150.18 1936 303.76 1775.96C457.34 1615.92 734.51 1569.6 846.04 1346.43C957.57 1123.26 841.83 873.12 994.11 788.47C1146.39 703.82 1210.27 886.03 1287.57 769.72C1364.88 653.41 1353.15 429.64 1442.84 321.26C1503.21 248.31 1659.37 320.11 1785.55 88.46" stroke="white" stroke-width="0.34" stroke-miterlimit="10"/>
<path opacity="0.5" d="M59.28 2291.78C264.66 2021.51 124.13 1911.63 277.71 1751.59C431.29 1591.55 757.44 1579.9 868.97 1356.73C980.5 1133.56 825.81 863.14 978.09 778.49C1130.37 693.84 1189.95 935.28 1267.26 818.97C1344.57 702.66 1321.01 461.05 1421.76 341.9C1482.9 269.59 1706.59 313.99 1817.92 70.78" stroke="white" stroke-width="0.38" stroke-miterlimit="10"/>
<path opacity="0.62" d="M74.0701 2287.78C279.45 2017.51 98.0601 1887.26 251.64 1727.22C405.22 1567.18 780.36 1590.21 891.88 1367.04C1003.41 1143.87 809.77 853.17 962.05 768.52C1114.33 683.87 1169.62 984.53 1246.93 868.23C1324.24 751.92 1288.73 492.37 1400.65 362.55C1462.49 290.82 1753.78 307.88 1850.26 53.11" stroke="white" stroke-width="0.41" stroke-miterlimit="10"/>
<path opacity="0.75" d="M88.8701 2283.78C294.25 2013.51 72.0101 1862.89 225.59 1702.85C379.17 1542.81 803.29 1600.52 914.82 1377.35C1026.35 1154.18 793.76 843.21 946.04 758.56C1098.32 673.91 1149.32 1033.8 1226.62 917.49C1303.93 801.18 1256.34 523.57 1379.56 383.19C1442.06 311.99 1800.99 301.76 1882.62 35.42" stroke="white" stroke-width="0.44" stroke-miterlimit="10"/>
<path opacity="0.88" d="M103.66 2279.77C309.04 2009.5 45.9399 1838.51 199.52 1678.47C353.1 1518.43 826.2 1610.81 937.73 1387.64C1049.26 1164.47 777.72 833.22 930 748.57C1082.28 663.92 1128.98 1083.04 1206.29 966.73C1283.6 850.42 1223.81 554.64 1358.46 403.82C1421.58 333.12 1848.19 295.64 1914.97 17.73" stroke="white" stroke-width="0.47" stroke-miterlimit="10"/>
<path d="M118.45 2275.77C323.83 2005.5 19.88 1814.13 173.46 1654.09C327.04 1494.05 849.13 1621.11 960.65 1397.94C1072.18 1174.77 761.69 823.24 913.97 738.59C1066.25 653.94 1108.66 1132.28 1185.97 1015.98C1263.28 899.67 1191.17 585.6 1337.36 424.46C1401.07 354.23 1895.4 289.52 1947.32 0.0400391" stroke="white" stroke-width="0.5" stroke-miterlimit="10"/>
</g>
<defs>
<clipPath id="clip0_602_215">
<rect width="1947.57" height="2307.87" fill="white"/>
</clipPath>
</defs>
</svg>
