<svg width="105" height="290" viewBox="0 0 105 290" fill="none" xmlns="http://www.w3.org/2000/svg">
<g opacity="0.5" clip-path="url(#clip0_549_910)">
<path d="M-23.11 98.6L10.08 9.02002" stroke="#32E6F9" stroke-miterlimit="10"/>
<path d="M-17.78 100.94L25.75 15.9" stroke="#32E6F9" stroke-miterlimit="10"/>
<path d="M-12.76 103.9L40.5 24.59" stroke="#32E6F9" stroke-miterlimit="10"/>
<path d="M-8.13 107.42L54.12 34.95" stroke="#32E6F9" stroke-miterlimit="10"/>
<path d="M-3.94 111.47L66.42 46.85" stroke="#32E6F9" stroke-miterlimit="10"/>
<path d="M-0.26001 115.99L77.23 60.12" stroke="#32E6F9" stroke-miterlimit="10"/>
<path d="M2.85999 120.9L86.4 74.57" stroke="#32E6F9" stroke-miterlimit="10"/>
<path d="M5.38 126.15L93.8 90" stroke="#32E6F9" stroke-miterlimit="10"/>
<path d="M7.26001 131.66L99.33 106.2" stroke="#32E6F9" stroke-miterlimit="10"/>
<path d="M8.46997 137.36L102.91 122.94" stroke="#32E6F9" stroke-miterlimit="10"/>
<path d="M9.01001 143.15L104.49 139.98" stroke="#32E6F9" stroke-miterlimit="10"/>
<path d="M8.85999 148.98L104.05 157.09" stroke="#32E6F9" stroke-miterlimit="10"/>
<path d="M8.02002 154.74L101.59 174.03" stroke="#32E6F9" stroke-miterlimit="10"/>
<path d="M6.51001 160.36L97.15 190.55" stroke="#32E6F9" stroke-miterlimit="10"/>
<path d="M4.34998 165.77L90.79 206.44" stroke="#32E6F9" stroke-miterlimit="10"/>
<path d="M1.56 170.88L82.6 221.47" stroke="#32E6F9" stroke-miterlimit="10"/>
<path d="M-1.81 175.63L72.69 235.43" stroke="#32E6F9" stroke-miterlimit="10"/>
<path d="M-5.71002 179.95L61.21 248.12" stroke="#32E6F9" stroke-miterlimit="10"/>
<path d="M-10.1 183.77L48.31 259.37" stroke="#32E6F9" stroke-miterlimit="10"/>
<path d="M-14.91 187.05L34.17 269.01" stroke="#32E6F9" stroke-miterlimit="10"/>
<path d="M-20.08 189.75L18.99 276.92" stroke="#32E6F9" stroke-miterlimit="10"/>
<path d="M-25.52 191.81L2.98999 282.99" stroke="#32E6F9" stroke-miterlimit="10"/>
</g>
<defs>
<clipPath id="clip0_549_910">
<rect width="289.51" height="289.42" fill="white" transform="translate(-185)"/>
</clipPath>
</defs>
</svg>
