<svg width="410" height="174" viewBox="0 0 410 174" fill="none" xmlns="http://www.w3.org/2000/svg">
<g opacity="0.5" clip-path="url(#clip0_549_964)">
<path d="M195.204 64.7701C196.32 64.7701 197.224 63.8666 197.224 62.7521C197.224 61.6376 196.32 60.7341 195.204 60.7341C194.089 60.7341 193.184 61.6376 193.184 62.7521C193.184 63.8666 194.089 64.7701 195.204 64.7701Z" fill="#32E6F9"/>
<path d="M195.204 95.151C196.32 95.151 197.224 94.2475 197.224 93.133C197.224 92.0185 196.32 91.115 195.204 91.115C194.089 91.115 193.184 92.0185 193.184 93.133C193.184 94.2475 194.089 95.151 195.204 95.151Z" fill="#32E6F9"/>
<path d="M164.81 64.7701C165.925 64.7701 166.829 63.8666 166.829 62.7521C166.829 61.6376 165.925 60.7341 164.81 60.7341C163.694 60.7341 162.79 61.6376 162.79 62.7521C162.79 63.8666 163.694 64.7701 164.81 64.7701Z" fill="#32E6F9"/>
<path d="M164.81 95.151C165.925 95.151 166.829 94.2475 166.829 93.133C166.829 92.0185 165.925 91.115 164.81 91.115C163.694 91.115 162.79 92.0185 162.79 93.133C162.79 94.2475 163.694 95.151 164.81 95.151Z" fill="#32E6F9"/>
<path d="M195.204 125.518C196.32 125.518 197.224 124.614 197.224 123.5C197.224 122.385 196.32 121.482 195.204 121.482C194.089 121.482 193.184 122.385 193.184 123.5C193.184 124.614 194.089 125.518 195.204 125.518Z" fill="#32E6F9"/>
<path d="M164.81 125.518C165.925 125.518 166.829 124.614 166.829 123.5C166.829 122.385 165.925 121.482 164.81 121.482C163.694 121.482 162.79 122.385 162.79 123.5C162.79 124.614 163.694 125.518 164.81 125.518Z" fill="#32E6F9"/>
<path d="M195.204 155.885C194.084 155.885 193.184 154.987 193.184 153.867C193.184 152.747 194.084 151.849 195.204 151.849C196.325 151.849 197.224 152.747 197.224 153.867C197.224 154.987 196.325 155.885 195.204 155.885Z" fill="#32E6F9"/>
<path d="M162.79 153.867C162.79 152.747 163.689 151.849 164.81 151.849C165.93 151.849 166.829 152.747 166.829 153.867C166.829 154.987 165.93 155.885 164.81 155.885C163.689 155.885 162.79 154.987 162.79 153.867Z" fill="#32E6F9"/>
<path d="M134.401 64.7701C135.517 64.7701 136.421 63.8666 136.421 62.7521C136.421 61.6376 135.517 60.7341 134.401 60.7341C133.286 60.7341 132.381 61.6376 132.381 62.7521C132.381 63.8666 133.286 64.7701 134.401 64.7701Z" fill="#32E6F9"/>
<path d="M134.401 95.151C135.517 95.151 136.421 94.2475 136.421 93.133C136.421 92.0185 135.517 91.115 134.401 91.115C133.286 91.115 132.381 92.0185 132.381 93.133C132.381 94.2475 133.286 95.151 134.401 95.151Z" fill="#32E6F9"/>
<path d="M134.401 125.518C135.517 125.518 136.421 124.614 136.421 123.5C136.421 122.385 135.517 121.482 134.401 121.482C133.286 121.482 132.381 122.385 132.381 123.5C132.381 124.614 133.286 125.518 134.401 125.518Z" fill="#32E6F9"/>
<path d="M132.381 153.867C132.381 152.747 133.281 151.849 134.401 151.849C135.522 151.849 136.421 152.747 136.421 153.867C136.421 154.987 135.522 155.885 134.401 155.885C133.281 155.885 132.381 154.987 132.381 153.867Z" fill="#32E6F9"/>
<path d="M101.987 62.7521C101.987 61.6325 102.886 60.7341 104.007 60.7341C105.127 60.7341 106.026 61.6325 106.026 62.7521C106.026 63.8717 105.127 64.7701 104.007 64.7701C102.886 64.7701 101.987 63.8717 101.987 62.7521Z" fill="#32E6F9"/>
<path d="M101.987 93.133C101.987 92.0134 102.886 91.115 104.007 91.115C105.127 91.115 106.026 92.0134 106.026 93.133C106.026 94.2526 105.127 95.151 104.007 95.151C102.886 95.151 101.987 94.2526 101.987 93.133Z" fill="#32E6F9"/>
<path d="M101.987 123.5C101.987 122.38 102.886 121.482 104.007 121.482C105.127 121.482 106.026 122.38 106.026 123.5C106.026 124.62 105.127 125.518 104.007 125.518C102.886 125.518 101.987 124.62 101.987 123.5Z" fill="#32E6F9"/>
<path d="M101.987 153.867C101.987 152.747 102.886 151.849 104.007 151.849C105.127 151.849 106.026 152.747 106.026 153.867C106.026 154.987 105.127 155.885 104.007 155.885C102.886 155.885 101.987 154.987 101.987 153.867Z" fill="#32E6F9"/>
<path d="M73.612 64.7701C74.7275 64.7701 75.6319 63.8666 75.6319 62.7521C75.6319 61.6376 74.7275 60.7341 73.612 60.7341C72.4965 60.7341 71.5922 61.6376 71.5922 62.7521C71.5922 63.8666 72.4965 64.7701 73.612 64.7701Z" fill="#32E6F9"/>
<path d="M73.612 95.151C74.7275 95.151 75.6319 94.2475 75.6319 93.133C75.6319 92.0185 74.7275 91.115 73.612 91.115C72.4965 91.115 71.5922 92.0185 71.5922 93.133C71.5922 94.2475 72.4965 95.151 73.612 95.151Z" fill="#32E6F9"/>
<path d="M73.612 125.518C74.7275 125.518 75.6319 124.614 75.6319 123.5C75.6319 122.385 74.7275 121.482 73.612 121.482C72.4965 121.482 71.5922 122.385 71.5922 123.5C71.5922 124.614 72.4965 125.518 73.612 125.518Z" fill="#32E6F9"/>
<path d="M71.5922 153.867C71.5922 152.747 72.4914 151.849 73.612 151.849C74.7326 151.849 75.6319 152.747 75.6319 153.867C75.6319 154.987 74.7326 155.885 73.612 155.885C72.4914 155.885 71.5922 154.987 71.5922 153.867Z" fill="#32E6F9"/>
<path d="M43.2174 64.7701C44.333 64.7701 45.2373 63.8666 45.2373 62.7521C45.2373 61.6376 44.333 60.7341 43.2174 60.7341C42.1019 60.7341 41.1976 61.6376 41.1976 62.7521C41.1976 63.8666 42.1019 64.7701 43.2174 64.7701Z" fill="#32E6F9"/>
<path d="M43.2174 95.151C44.333 95.151 45.2373 94.2475 45.2373 93.133C45.2373 92.0185 44.333 91.115 43.2174 91.115C42.1019 91.115 41.1976 92.0185 41.1976 93.133C41.1976 94.2475 42.1019 95.151 43.2174 95.151Z" fill="#32E6F9"/>
<path d="M43.2174 125.518C44.333 125.518 45.2373 124.614 45.2373 123.5C45.2373 122.385 44.333 121.482 43.2174 121.482C42.1019 121.482 41.1976 122.385 41.1976 123.5C41.1976 124.614 42.1019 125.518 43.2174 125.518Z" fill="#32E6F9"/>
<path d="M41.1976 153.867C41.1976 152.747 42.0968 151.849 43.2174 151.849C44.338 151.849 45.2373 152.747 45.2373 153.867C45.2373 154.987 44.338 155.885 43.2174 155.885C42.0968 155.885 41.1976 154.987 41.1976 153.867Z" fill="#32E6F9"/>
<path d="M12.809 64.7701C13.9246 64.7701 14.8289 63.8666 14.8289 62.7521C14.8289 61.6376 13.9246 60.7341 12.809 60.7341C11.6935 60.7341 10.7892 61.6376 10.7892 62.7521C10.7892 63.8666 11.6935 64.7701 12.809 64.7701Z" fill="#32E6F9"/>
<path d="M12.809 95.151C13.9246 95.151 14.8289 94.2475 14.8289 93.133C14.8289 92.0185 13.9246 91.115 12.809 91.115C11.6935 91.115 10.7892 92.0185 10.7892 93.133C10.7892 94.2475 11.6935 95.151 12.809 95.151Z" fill="#32E6F9"/>
<path d="M12.809 125.518C13.9246 125.518 14.8289 124.614 14.8289 123.5C14.8289 122.385 13.9246 121.482 12.809 121.482C11.6935 121.482 10.7892 122.385 10.7892 123.5C10.7892 124.614 11.6935 125.518 12.809 125.518Z" fill="#32E6F9"/>
<path d="M10.7892 153.867C10.7892 152.747 11.6884 151.849 12.809 151.849C13.9296 151.849 14.8289 152.747 14.8289 153.867C14.8289 154.987 13.9296 155.885 12.809 155.885C11.6884 155.885 10.7892 154.987 10.7892 153.867Z" fill="#32E6F9"/>
<path d="M195.204 4.03604C196.32 4.03604 197.224 3.13254 197.224 2.01802C197.224 0.903498 196.32 0 195.204 0C194.089 0 193.184 0.903498 193.184 2.01802C193.184 3.13254 194.089 4.03604 195.204 4.03604Z" fill="#32E6F9"/>
<path d="M164.81 4.03604C165.925 4.03604 166.829 3.13254 166.829 2.01802C166.829 0.903498 165.925 0 164.81 0C163.694 0 162.79 0.903498 162.79 2.01802C162.79 3.13254 163.694 4.03604 164.81 4.03604Z" fill="#32E6F9"/>
<path d="M195.204 34.4031C194.084 34.4031 193.184 33.5047 193.184 32.3851C193.184 31.2655 194.084 30.3671 195.204 30.3671C196.325 30.3671 197.224 31.2655 197.224 32.3851C197.224 33.5047 196.325 34.4031 195.204 34.4031Z" fill="#32E6F9"/>
<path d="M162.79 32.3851C162.79 31.2655 163.689 30.3671 164.81 30.3671C165.93 30.3671 166.829 31.2655 166.829 32.3851C166.829 33.5047 165.93 34.4031 164.81 34.4031C163.689 34.4031 162.79 33.5047 162.79 32.3851Z" fill="#32E6F9"/>
<path d="M134.401 4.03604C135.517 4.03604 136.421 3.13254 136.421 2.01802C136.421 0.903498 135.517 0 134.401 0C133.286 0 132.381 0.903498 132.381 2.01802C132.381 3.13254 133.286 4.03604 134.401 4.03604Z" fill="#32E6F9"/>
<path d="M132.381 32.3851C132.381 31.2655 133.281 30.3671 134.401 30.3671C135.522 30.3671 136.421 31.2655 136.421 32.3851C136.421 33.5047 135.522 34.4031 134.401 34.4031C133.281 34.4031 132.381 33.5047 132.381 32.3851Z" fill="#32E6F9"/>
<path d="M101.987 2.01802C101.987 0.898433 102.886 0 104.007 0C105.127 0 106.026 0.898433 106.026 2.01802C106.026 3.13761 105.127 4.03604 104.007 4.03604C102.886 4.03604 101.987 3.13761 101.987 2.01802Z" fill="#32E6F9"/>
<path d="M101.987 32.3851C101.987 31.2655 102.886 30.3671 104.007 30.3671C105.127 30.3671 106.026 31.2655 106.026 32.3851C106.026 33.5047 105.127 34.4031 104.007 34.4031C102.886 34.4031 101.987 33.5047 101.987 32.3851Z" fill="#32E6F9"/>
<path d="M286.388 64.7701C287.504 64.7701 288.408 63.8666 288.408 62.7521C288.408 61.6376 287.504 60.7341 286.388 60.7341C285.272 60.7341 284.368 61.6376 284.368 62.7521C284.368 63.8666 285.272 64.7701 286.388 64.7701Z" fill="#32E6F9"/>
<path d="M253.974 62.7521C253.974 61.6325 254.873 60.7341 255.993 60.7341C257.114 60.7341 258.013 61.6325 258.013 62.7521C258.013 63.8717 257.114 64.7701 255.993 64.7701C254.873 64.7701 253.974 63.8717 253.974 62.7521Z" fill="#32E6F9"/>
<path d="M253.974 93.133C253.974 92.0134 254.873 91.115 255.993 91.115C257.114 91.115 258.013 92.0134 258.013 93.133C258.013 94.2526 257.114 95.151 255.993 95.151C254.873 95.151 253.974 94.2526 253.974 93.133Z" fill="#32E6F9"/>
<path d="M223.579 62.7521C223.579 61.6325 224.478 60.7341 225.599 60.7341C226.719 60.7341 227.619 61.6325 227.619 62.7521C227.619 63.8717 226.719 64.7701 225.599 64.7701C224.478 64.7701 223.579 63.8717 223.579 62.7521Z" fill="#32E6F9"/>
<path d="M223.579 93.133C223.579 92.0134 224.478 91.115 225.599 91.115C226.719 91.115 227.619 92.0134 227.619 93.133C227.619 94.2526 226.719 95.151 225.599 95.151C224.478 95.151 223.579 94.2526 223.579 93.133Z" fill="#32E6F9"/>
<path d="M223.579 123.5C223.579 122.38 224.478 121.482 225.599 121.482C226.719 121.482 227.619 122.38 227.619 123.5C227.619 124.62 226.719 125.518 225.599 125.518C224.478 125.518 223.579 124.62 223.579 123.5Z" fill="#32E6F9"/>
<path d="M223.579 153.867C223.579 152.747 224.478 151.849 225.599 151.849C226.719 151.849 227.619 152.747 227.619 153.867C227.619 154.987 226.719 155.885 225.599 155.885C224.478 155.885 223.579 154.987 223.579 153.867Z" fill="#32E6F9"/>
<path d="M316.796 4.03604C317.912 4.03604 318.816 3.13254 318.816 2.01802C318.816 0.903498 317.912 0 316.796 0C315.681 0 314.777 0.903498 314.777 2.01802C314.777 3.13254 315.681 4.03604 316.796 4.03604Z" fill="#32E6F9"/>
<path d="M286.388 4.03604C287.504 4.03604 288.408 3.13254 288.408 2.01802C288.408 0.903498 287.504 0 286.388 0C285.272 0 284.368 0.903498 284.368 2.01802C284.368 3.13254 285.272 4.03604 286.388 4.03604Z" fill="#32E6F9"/>
<path d="M316.796 34.4031C315.676 34.4031 314.777 33.5047 314.777 32.3851C314.777 31.2655 315.676 30.3671 316.796 30.3671C317.917 30.3671 318.816 31.2655 318.816 32.3851C318.816 33.5047 317.917 34.4031 316.796 34.4031Z" fill="#32E6F9"/>
<path d="M284.382 32.3851C284.382 31.2655 285.281 30.3671 286.402 30.3671C287.522 30.3671 288.422 31.2655 288.422 32.3851C288.422 33.5047 287.522 34.4031 286.402 34.4031C285.281 34.4031 284.382 33.5047 284.382 32.3851Z" fill="#32E6F9"/>
<path d="M253.974 2.01802C253.974 0.898433 254.873 0 255.993 0C257.114 0 258.013 0.898433 258.013 2.01802C258.013 3.13761 257.114 4.03604 255.993 4.03604C254.873 4.03604 253.974 3.13761 253.974 2.01802Z" fill="#32E6F9"/>
<path d="M253.974 32.3851C253.974 31.2655 254.873 30.3671 255.993 30.3671C257.114 30.3671 258.013 31.2655 258.013 32.3851C258.013 33.5047 257.114 34.4031 255.993 34.4031C254.873 34.4031 253.974 33.5047 253.974 32.3851Z" fill="#32E6F9"/>
<path d="M223.579 2.01802C223.579 0.898433 224.478 0 225.599 0C226.719 0 227.619 0.898433 227.619 2.01802C227.619 3.13761 226.719 4.03604 225.599 4.03604C224.478 4.03604 223.579 3.13761 223.579 2.01802Z" fill="#32E6F9"/>
<path d="M407.98 4.03604C409.096 4.03604 410 3.13254 410 2.01802C410 0.903498 409.096 0 407.98 0C406.865 0 405.96 0.903498 405.96 2.01802C405.96 3.13254 406.865 4.03604 407.98 4.03604Z" fill="#32E6F9"/>
<path d="M375.566 2.01802C375.566 0.898433 376.465 0 377.586 0C378.706 0 379.605 0.898433 379.605 2.01802C379.605 3.13761 378.706 4.03604 377.586 4.03604C376.465 4.03604 375.566 3.13761 375.566 2.01802Z" fill="#32E6F9"/>
<path d="M347.191 4.03604C348.307 4.03604 349.211 3.13254 349.211 2.01802C349.211 0.903498 348.307 0 347.191 0C346.075 0 345.171 0.903498 345.171 2.01802C345.171 3.13254 346.075 4.03604 347.191 4.03604Z" fill="#32E6F9"/>
<path d="M345.171 32.3851C345.171 31.2655 346.07 30.3671 347.191 30.3671C348.312 30.3671 349.211 31.2655 349.211 32.3851C349.211 33.5047 348.312 34.4031 347.191 34.4031C346.07 34.4031 345.171 33.5047 345.171 32.3851Z" fill="#32E6F9"/>
<path d="M223.579 32.3851C223.579 31.2655 224.478 30.3671 225.599 30.3671C226.719 30.3671 227.619 31.2655 227.619 32.3851C227.619 33.5047 226.719 34.4031 225.599 34.4031C224.478 34.4031 223.579 33.5047 223.579 32.3851Z" fill="#32E6F9"/>
<path d="M73.612 4.03604C74.7275 4.03604 75.6319 3.13254 75.6319 2.01802C75.6319 0.903498 74.7275 0 73.612 0C72.4965 0 71.5922 0.903498 71.5922 2.01802C71.5922 3.13254 72.4965 4.03604 73.612 4.03604Z" fill="#32E6F9"/>
<path d="M71.5922 32.3851C71.5922 31.2655 72.4914 30.3671 73.612 30.3671C74.7326 30.3671 75.6319 31.2655 75.6319 32.3851C75.6319 33.5047 74.7326 34.4031 73.612 34.4031C72.4914 34.4031 71.5922 33.5047 71.5922 32.3851Z" fill="#32E6F9"/>
<path d="M43.2174 4.03604C44.333 4.03604 45.2373 3.13254 45.2373 2.01802C45.2373 0.903498 44.333 0 43.2174 0C42.1019 0 41.1976 0.903498 41.1976 2.01802C41.1976 3.13254 42.1019 4.03604 43.2174 4.03604Z" fill="#32E6F9"/>
<path d="M41.1976 32.3851C41.1976 31.2655 42.0968 30.3671 43.2174 30.3671C44.338 30.3671 45.2373 31.2655 45.2373 32.3851C45.2373 33.5047 44.338 34.4031 43.2174 34.4031C42.0968 34.4031 41.1976 33.5047 41.1976 32.3851Z" fill="#32E6F9"/>
<path d="M12.809 4.03604C13.9246 4.03604 14.8289 3.13254 14.8289 2.01802C14.8289 0.903498 13.9246 0 12.809 0C11.6935 0 10.7892 0.903498 10.7892 2.01802C10.7892 3.13254 11.6935 4.03604 12.809 4.03604Z" fill="#32E6F9"/>
<path d="M10.7892 32.3851C10.7892 31.2655 11.6884 30.3671 12.809 30.3671C13.9296 30.3671 14.8289 31.2655 14.8289 32.3851C14.8289 33.5047 13.9296 34.4031 12.809 34.4031C11.6884 34.4031 10.7892 33.5047 10.7892 32.3851Z" fill="#32E6F9"/>
<path d="M12.809 64.7701C13.9246 64.7701 14.8289 63.8666 14.8289 62.7521C14.8289 61.6376 13.9246 60.7341 12.809 60.7341C11.6935 60.7341 10.7892 61.6376 10.7892 62.7521C10.7892 63.8666 11.6935 64.7701 12.809 64.7701Z" fill="#32E6F9"/>
</g>
<defs>
<clipPath id="clip0_549_964">
<rect width="460" height="247" fill="white" transform="translate(-50)"/>
</clipPath>
</defs>
</svg>
